%TF.GenerationSoftware,KiCad,Pcbnew,8.0.1*%
%TF.CreationDate,2024-11-21T12:07:33+07:00*%
%TF.ProjectId,Monitor,4d6f6e69-746f-4722-9e6b-696361645f70,rev?*%
%TF.SameCoordinates,Original*%
%TF.FileFunction,Copper,L2,Bot*%
%TF.FilePolarity,Positive*%
%FSLAX46Y46*%
G04 Gerber Fmt 4.6, Leading zero omitted, Abs format (unit mm)*
G04 Created by KiCad (PCBNEW 8.0.1) date 2024-11-21 12:07:33*
%MOMM*%
%LPD*%
G01*
G04 APERTURE LIST*
%TA.AperFunction,ComponentPad*%
%ADD10R,2.600000X2.600000*%
%TD*%
%TA.AperFunction,ComponentPad*%
%ADD11C,2.600000*%
%TD*%
%TA.AperFunction,ComponentPad*%
%ADD12R,1.700000X1.700000*%
%TD*%
%TA.AperFunction,ComponentPad*%
%ADD13O,1.700000X1.700000*%
%TD*%
%TA.AperFunction,ViaPad*%
%ADD14C,0.700000*%
%TD*%
%TA.AperFunction,Conductor*%
%ADD15C,0.500000*%
%TD*%
%TA.AperFunction,Conductor*%
%ADD16C,0.300000*%
%TD*%
G04 APERTURE END LIST*
D10*
%TO.P,J2,1,Pin_1*%
%TO.N,/CAN-*%
X101145000Y-96595000D03*
D11*
%TO.P,J2,2,Pin_2*%
%TO.N,/CAN+*%
X96065000Y-96595000D03*
%TD*%
D12*
%TO.P,J5,1,Pin_1*%
%TO.N,GND*%
X82120000Y-98700000D03*
D13*
%TO.P,J5,2,Pin_2*%
%TO.N,SWCLK*%
X84660000Y-98700000D03*
%TO.P,J5,3,Pin_3*%
%TO.N,SWDIO*%
X87200000Y-98700000D03*
%TO.P,J5,4,Pin_4*%
%TO.N,+3.3V*%
X89740000Y-98700000D03*
%TD*%
D12*
%TO.P,J6,1,Pin_1*%
%TO.N,I2C1_SDA*%
X74000000Y-95000000D03*
D13*
%TO.P,J6,2,Pin_2*%
%TO.N,I2C1_SCL*%
X76540000Y-95000000D03*
%TO.P,J6,3,Pin_3*%
%TO.N,GND*%
X79080000Y-95000000D03*
%TO.P,J6,4,Pin_4*%
%TO.N,+3.3V*%
X81620000Y-95000000D03*
%TD*%
D12*
%TO.P,J1,1,Pin_1*%
%TO.N,GND*%
X61025000Y-95000000D03*
D13*
%TO.P,J1,2,Pin_2*%
%TO.N,BOOT*%
X58485000Y-95000000D03*
%TO.P,J1,3,Pin_3*%
%TO.N,+3.3V*%
X55945000Y-95000000D03*
%TD*%
D12*
%TO.P,J3,1,Pin_1*%
%TO.N,GND*%
X70240000Y-122500000D03*
D13*
%TO.P,J3,2,Pin_2*%
%TO.N,USART1_Rx*%
X67700000Y-122500000D03*
%TO.P,J3,3,Pin_3*%
%TO.N,USART1_Tx*%
X65160000Y-122500000D03*
%TD*%
D10*
%TO.P,J4,1,Pin_1*%
%TO.N,GND*%
X104905000Y-117345000D03*
D11*
%TO.P,J4,2,Pin_2*%
%TO.N,/Vin*%
X104905000Y-112265000D03*
%TD*%
D14*
%TO.N,+3.3V*%
X68400000Y-95900000D03*
X68400000Y-94300000D03*
%TO.N,GND*%
X71000000Y-104000000D03*
X91500000Y-103300000D03*
X63420000Y-120220000D03*
X58241382Y-106367245D03*
X62200000Y-102400000D03*
X59000000Y-103200000D03*
X55750000Y-107250000D03*
X65400000Y-116300000D03*
X52190000Y-114390000D03*
X81100000Y-107900000D03*
X67800000Y-107800000D03*
X58900000Y-114400000D03*
%TO.N,+3.3V*%
X71500000Y-99400000D03*
X61000000Y-111500000D03*
X73700000Y-109300000D03*
X74450000Y-102700000D03*
X71800000Y-109300000D03*
X58800000Y-111500000D03*
%TO.N,NRST*%
X62125000Y-108040316D03*
X61000000Y-109100000D03*
%TO.N,/POWER BOOT*%
X88700000Y-111300000D03*
X90390000Y-109610000D03*
%TD*%
D15*
%TO.N,+3.3V*%
X68400000Y-95900000D02*
X68400000Y-94300000D01*
X71500000Y-99400000D02*
X74450000Y-102350000D01*
X74450000Y-102350000D02*
X74450000Y-102700000D01*
X61000000Y-111500000D02*
X58800000Y-111500000D01*
X73700000Y-109300000D02*
X71800000Y-109300000D01*
D16*
%TO.N,NRST*%
X62059684Y-108040316D02*
X61000000Y-109100000D01*
X62125000Y-108040316D02*
X62059684Y-108040316D01*
%TO.N,/POWER BOOT*%
X88700000Y-111300000D02*
X90390000Y-109610000D01*
%TD*%
%TA.AperFunction,Conductor*%
%TO.N,GND*%
G36*
X107303471Y-91050695D02*
G01*
X107344188Y-91052981D01*
X107600900Y-91067397D01*
X107614703Y-91068953D01*
X107904953Y-91118269D01*
X107918510Y-91121363D01*
X108201413Y-91202866D01*
X108214537Y-91207459D01*
X108486527Y-91320120D01*
X108499049Y-91326149D01*
X108697673Y-91435925D01*
X108756726Y-91468563D01*
X108768500Y-91475961D01*
X109008604Y-91646323D01*
X109019476Y-91654993D01*
X109238997Y-91851169D01*
X109248830Y-91861002D01*
X109445006Y-92080523D01*
X109453676Y-92091395D01*
X109624038Y-92331499D01*
X109631436Y-92343273D01*
X109773846Y-92600943D01*
X109779879Y-92613472D01*
X109892540Y-92885462D01*
X109897133Y-92898586D01*
X109978636Y-93181489D01*
X109981730Y-93195046D01*
X110031045Y-93485288D01*
X110032602Y-93499106D01*
X110049305Y-93796527D01*
X110049500Y-93803480D01*
X110049500Y-123196519D01*
X110049305Y-123203472D01*
X110032602Y-123500893D01*
X110031045Y-123514711D01*
X109981730Y-123804953D01*
X109978636Y-123818510D01*
X109897133Y-124101413D01*
X109892540Y-124114537D01*
X109779879Y-124386527D01*
X109773846Y-124399056D01*
X109631436Y-124656726D01*
X109624038Y-124668500D01*
X109453676Y-124908604D01*
X109445006Y-124919476D01*
X109248830Y-125138997D01*
X109238997Y-125148830D01*
X109019476Y-125345006D01*
X109008604Y-125353676D01*
X108768500Y-125524038D01*
X108756726Y-125531436D01*
X108499056Y-125673846D01*
X108486527Y-125679879D01*
X108214537Y-125792540D01*
X108201413Y-125797133D01*
X107918510Y-125878636D01*
X107904953Y-125881730D01*
X107614711Y-125931045D01*
X107600893Y-125932602D01*
X107303472Y-125949305D01*
X107296519Y-125949500D01*
X51303481Y-125949500D01*
X51296528Y-125949305D01*
X50999106Y-125932602D01*
X50985288Y-125931045D01*
X50695046Y-125881730D01*
X50681489Y-125878636D01*
X50398586Y-125797133D01*
X50385462Y-125792540D01*
X50113472Y-125679879D01*
X50100943Y-125673846D01*
X49843273Y-125531436D01*
X49831499Y-125524038D01*
X49591395Y-125353676D01*
X49580523Y-125345006D01*
X49361002Y-125148830D01*
X49351169Y-125138997D01*
X49202627Y-124972779D01*
X49154993Y-124919476D01*
X49146323Y-124908604D01*
X48975961Y-124668500D01*
X48968563Y-124656726D01*
X48872737Y-124483343D01*
X48826149Y-124399049D01*
X48820120Y-124386527D01*
X48707459Y-124114537D01*
X48702866Y-124101413D01*
X48621363Y-123818510D01*
X48618269Y-123804953D01*
X48582101Y-123592086D01*
X48568953Y-123514703D01*
X48567397Y-123500900D01*
X48557132Y-123318097D01*
X49799500Y-123318097D01*
X49836446Y-123551368D01*
X49909433Y-123775996D01*
X49950024Y-123855659D01*
X50016657Y-123986433D01*
X50155483Y-124177510D01*
X50322490Y-124344517D01*
X50513567Y-124483343D01*
X50612991Y-124534002D01*
X50724003Y-124590566D01*
X50724005Y-124590566D01*
X50724008Y-124590568D01*
X50844412Y-124629689D01*
X50948631Y-124663553D01*
X51181903Y-124700500D01*
X51181908Y-124700500D01*
X51418097Y-124700500D01*
X51651368Y-124663553D01*
X51672379Y-124656726D01*
X51875992Y-124590568D01*
X52086433Y-124483343D01*
X52277510Y-124344517D01*
X52444517Y-124177510D01*
X52583343Y-123986433D01*
X52690568Y-123775992D01*
X52763553Y-123551368D01*
X52770446Y-123507846D01*
X52800500Y-123318097D01*
X52800500Y-123081902D01*
X52763553Y-122848631D01*
X52726763Y-122735403D01*
X52690568Y-122624008D01*
X52690566Y-122624005D01*
X52690566Y-122624003D01*
X52627383Y-122500000D01*
X63804341Y-122500000D01*
X63824936Y-122735403D01*
X63824938Y-122735413D01*
X63886094Y-122963655D01*
X63886096Y-122963659D01*
X63886097Y-122963663D01*
X63941233Y-123081902D01*
X63985965Y-123177830D01*
X63985967Y-123177834D01*
X64084178Y-123318092D01*
X64121505Y-123371401D01*
X64288599Y-123538495D01*
X64306984Y-123551368D01*
X64482165Y-123674032D01*
X64482167Y-123674033D01*
X64482170Y-123674035D01*
X64696337Y-123773903D01*
X64924592Y-123835063D01*
X65095319Y-123850000D01*
X65159999Y-123855659D01*
X65160000Y-123855659D01*
X65160001Y-123855659D01*
X65224681Y-123850000D01*
X65395408Y-123835063D01*
X65623663Y-123773903D01*
X65837830Y-123674035D01*
X66031401Y-123538495D01*
X66198495Y-123371401D01*
X66328425Y-123185842D01*
X66383002Y-123142217D01*
X66452500Y-123135023D01*
X66514855Y-123166546D01*
X66531575Y-123185842D01*
X66661500Y-123371395D01*
X66661505Y-123371401D01*
X66828599Y-123538495D01*
X66846984Y-123551368D01*
X67022165Y-123674032D01*
X67022167Y-123674033D01*
X67022170Y-123674035D01*
X67236337Y-123773903D01*
X67464592Y-123835063D01*
X67635319Y-123850000D01*
X67699999Y-123855659D01*
X67700000Y-123855659D01*
X67700001Y-123855659D01*
X67764681Y-123850000D01*
X67935408Y-123835063D01*
X68163663Y-123773903D01*
X68377830Y-123674035D01*
X68571401Y-123538495D01*
X68693717Y-123416178D01*
X68755036Y-123382696D01*
X68824728Y-123387680D01*
X68880662Y-123429551D01*
X68897577Y-123460528D01*
X68946646Y-123592088D01*
X68946649Y-123592093D01*
X69032809Y-123707187D01*
X69032812Y-123707190D01*
X69147906Y-123793350D01*
X69147913Y-123793354D01*
X69282620Y-123843596D01*
X69282627Y-123843598D01*
X69342155Y-123849999D01*
X69342172Y-123850000D01*
X69990000Y-123850000D01*
X69990000Y-122933012D01*
X70047007Y-122965925D01*
X70174174Y-123000000D01*
X70305826Y-123000000D01*
X70432993Y-122965925D01*
X70490000Y-122933012D01*
X70490000Y-123850000D01*
X71137828Y-123850000D01*
X71137844Y-123849999D01*
X71197372Y-123843598D01*
X71197379Y-123843596D01*
X71332086Y-123793354D01*
X71332093Y-123793350D01*
X71447187Y-123707190D01*
X71447190Y-123707187D01*
X71533350Y-123592093D01*
X71533354Y-123592086D01*
X71583596Y-123457379D01*
X71583598Y-123457372D01*
X71589999Y-123397844D01*
X71590000Y-123397827D01*
X71590000Y-123318097D01*
X105799500Y-123318097D01*
X105836446Y-123551368D01*
X105909433Y-123775996D01*
X105950024Y-123855659D01*
X106016657Y-123986433D01*
X106155483Y-124177510D01*
X106322490Y-124344517D01*
X106513567Y-124483343D01*
X106612991Y-124534002D01*
X106724003Y-124590566D01*
X106724005Y-124590566D01*
X106724008Y-124590568D01*
X106844412Y-124629689D01*
X106948631Y-124663553D01*
X107181903Y-124700500D01*
X107181908Y-124700500D01*
X107418097Y-124700500D01*
X107651368Y-124663553D01*
X107672379Y-124656726D01*
X107875992Y-124590568D01*
X108086433Y-124483343D01*
X108277510Y-124344517D01*
X108444517Y-124177510D01*
X108583343Y-123986433D01*
X108690568Y-123775992D01*
X108763553Y-123551368D01*
X108770446Y-123507846D01*
X108800500Y-123318097D01*
X108800500Y-123081902D01*
X108763553Y-122848631D01*
X108726763Y-122735403D01*
X108690568Y-122624008D01*
X108690566Y-122624005D01*
X108690566Y-122624003D01*
X108627382Y-122499999D01*
X108583343Y-122413567D01*
X108444517Y-122222490D01*
X108277510Y-122055483D01*
X108086433Y-121916657D01*
X107875996Y-121809433D01*
X107651368Y-121736446D01*
X107418097Y-121699500D01*
X107418092Y-121699500D01*
X107181908Y-121699500D01*
X107181903Y-121699500D01*
X106948631Y-121736446D01*
X106724003Y-121809433D01*
X106513566Y-121916657D01*
X106404550Y-121995862D01*
X106322490Y-122055483D01*
X106322488Y-122055485D01*
X106322487Y-122055485D01*
X106155485Y-122222487D01*
X106155485Y-122222488D01*
X106155483Y-122222490D01*
X106124894Y-122264592D01*
X106016657Y-122413566D01*
X105909433Y-122624003D01*
X105836446Y-122848631D01*
X105799500Y-123081902D01*
X105799500Y-123318097D01*
X71590000Y-123318097D01*
X71590000Y-122750000D01*
X70673012Y-122750000D01*
X70705925Y-122692993D01*
X70740000Y-122565826D01*
X70740000Y-122434174D01*
X70705925Y-122307007D01*
X70673012Y-122250000D01*
X71590000Y-122250000D01*
X71590000Y-121602172D01*
X71589999Y-121602155D01*
X71583598Y-121542627D01*
X71583596Y-121542620D01*
X71533354Y-121407913D01*
X71533350Y-121407906D01*
X71447190Y-121292812D01*
X71447187Y-121292809D01*
X71332093Y-121206649D01*
X71332086Y-121206645D01*
X71197379Y-121156403D01*
X71197372Y-121156401D01*
X71137844Y-121150000D01*
X70490000Y-121150000D01*
X70490000Y-122066988D01*
X70432993Y-122034075D01*
X70305826Y-122000000D01*
X70174174Y-122000000D01*
X70047007Y-122034075D01*
X69990000Y-122066988D01*
X69990000Y-121150000D01*
X69342155Y-121150000D01*
X69282627Y-121156401D01*
X69282620Y-121156403D01*
X69147913Y-121206645D01*
X69147906Y-121206649D01*
X69032812Y-121292809D01*
X69032809Y-121292812D01*
X68946649Y-121407906D01*
X68946645Y-121407913D01*
X68897578Y-121539470D01*
X68855707Y-121595404D01*
X68790242Y-121619821D01*
X68721969Y-121604969D01*
X68693715Y-121583819D01*
X68649366Y-121539470D01*
X68571401Y-121461505D01*
X68571397Y-121461502D01*
X68571396Y-121461501D01*
X68377834Y-121325967D01*
X68377830Y-121325965D01*
X68306727Y-121292809D01*
X68163663Y-121226097D01*
X68163659Y-121226096D01*
X68163655Y-121226094D01*
X67935413Y-121164938D01*
X67935403Y-121164936D01*
X67700001Y-121144341D01*
X67699999Y-121144341D01*
X67464596Y-121164936D01*
X67464586Y-121164938D01*
X67236344Y-121226094D01*
X67236335Y-121226098D01*
X67022171Y-121325964D01*
X67022169Y-121325965D01*
X66828597Y-121461505D01*
X66661505Y-121628597D01*
X66531575Y-121814158D01*
X66476998Y-121857783D01*
X66407500Y-121864977D01*
X66345145Y-121833454D01*
X66328425Y-121814158D01*
X66198494Y-121628597D01*
X66031402Y-121461506D01*
X66031395Y-121461501D01*
X65837834Y-121325967D01*
X65837830Y-121325965D01*
X65766727Y-121292809D01*
X65623663Y-121226097D01*
X65623659Y-121226096D01*
X65623655Y-121226094D01*
X65395413Y-121164938D01*
X65395403Y-121164936D01*
X65160001Y-121144341D01*
X65159999Y-121144341D01*
X64924596Y-121164936D01*
X64924586Y-121164938D01*
X64696344Y-121226094D01*
X64696335Y-121226098D01*
X64482171Y-121325964D01*
X64482169Y-121325965D01*
X64288597Y-121461505D01*
X64121505Y-121628597D01*
X63985965Y-121822169D01*
X63985964Y-121822171D01*
X63886098Y-122036335D01*
X63886094Y-122036344D01*
X63824938Y-122264586D01*
X63824936Y-122264596D01*
X63804341Y-122499999D01*
X63804341Y-122500000D01*
X52627383Y-122500000D01*
X52627382Y-122499999D01*
X52583343Y-122413567D01*
X52444517Y-122222490D01*
X52277510Y-122055483D01*
X52086433Y-121916657D01*
X51875996Y-121809433D01*
X51651368Y-121736446D01*
X51418097Y-121699500D01*
X51418092Y-121699500D01*
X51181908Y-121699500D01*
X51181903Y-121699500D01*
X50948631Y-121736446D01*
X50724003Y-121809433D01*
X50513566Y-121916657D01*
X50404550Y-121995862D01*
X50322490Y-122055483D01*
X50322488Y-122055485D01*
X50322487Y-122055485D01*
X50155485Y-122222487D01*
X50155485Y-122222488D01*
X50155483Y-122222490D01*
X50124894Y-122264592D01*
X50016657Y-122413566D01*
X49909433Y-122624003D01*
X49836446Y-122848631D01*
X49799500Y-123081902D01*
X49799500Y-123318097D01*
X48557132Y-123318097D01*
X48550695Y-123203471D01*
X48550500Y-123196519D01*
X48550500Y-118692844D01*
X103105000Y-118692844D01*
X103111401Y-118752372D01*
X103111403Y-118752379D01*
X103161645Y-118887086D01*
X103161649Y-118887093D01*
X103247809Y-119002187D01*
X103247812Y-119002190D01*
X103362906Y-119088350D01*
X103362913Y-119088354D01*
X103497620Y-119138596D01*
X103497627Y-119138598D01*
X103557155Y-119144999D01*
X103557172Y-119145000D01*
X104655000Y-119145000D01*
X104655000Y-117945001D01*
X104715402Y-117970021D01*
X104840981Y-117995000D01*
X104969019Y-117995000D01*
X105094598Y-117970021D01*
X105155000Y-117945001D01*
X105155000Y-119145000D01*
X106252828Y-119145000D01*
X106252844Y-119144999D01*
X106312372Y-119138598D01*
X106312379Y-119138596D01*
X106447086Y-119088354D01*
X106447093Y-119088350D01*
X106562187Y-119002190D01*
X106562190Y-119002187D01*
X106648350Y-118887093D01*
X106648354Y-118887086D01*
X106698596Y-118752379D01*
X106698598Y-118752372D01*
X106704999Y-118692844D01*
X106705000Y-118692827D01*
X106705000Y-117595000D01*
X105505001Y-117595000D01*
X105530021Y-117534598D01*
X105555000Y-117409019D01*
X105555000Y-117280981D01*
X105530021Y-117155402D01*
X105505001Y-117095000D01*
X106705000Y-117095000D01*
X106705000Y-115997172D01*
X106704999Y-115997155D01*
X106698598Y-115937627D01*
X106698596Y-115937620D01*
X106648354Y-115802913D01*
X106648350Y-115802906D01*
X106562190Y-115687812D01*
X106562187Y-115687809D01*
X106447093Y-115601649D01*
X106447086Y-115601645D01*
X106312379Y-115551403D01*
X106312372Y-115551401D01*
X106252844Y-115545000D01*
X105155000Y-115545000D01*
X105155000Y-116744998D01*
X105094598Y-116719979D01*
X104969019Y-116695000D01*
X104840981Y-116695000D01*
X104715402Y-116719979D01*
X104655000Y-116744998D01*
X104655000Y-115545000D01*
X103557155Y-115545000D01*
X103497627Y-115551401D01*
X103497620Y-115551403D01*
X103362913Y-115601645D01*
X103362906Y-115601649D01*
X103247812Y-115687809D01*
X103247809Y-115687812D01*
X103161649Y-115802906D01*
X103161645Y-115802913D01*
X103111403Y-115937620D01*
X103111401Y-115937627D01*
X103105000Y-115997155D01*
X103105000Y-117095000D01*
X104304999Y-117095000D01*
X104279979Y-117155402D01*
X104255000Y-117280981D01*
X104255000Y-117409019D01*
X104279979Y-117534598D01*
X104304999Y-117595000D01*
X103105000Y-117595000D01*
X103105000Y-118692844D01*
X48550500Y-118692844D01*
X48550500Y-111500000D01*
X57944815Y-111500000D01*
X57963503Y-111677805D01*
X57963504Y-111677807D01*
X58018747Y-111847829D01*
X58018750Y-111847835D01*
X58108141Y-112002665D01*
X58142307Y-112040610D01*
X58227764Y-112135521D01*
X58227767Y-112135523D01*
X58227770Y-112135526D01*
X58372407Y-112240612D01*
X58535733Y-112313329D01*
X58710609Y-112350500D01*
X58710610Y-112350500D01*
X58889389Y-112350500D01*
X58889391Y-112350500D01*
X59064267Y-112313329D01*
X59181306Y-112261219D01*
X59231741Y-112250500D01*
X60568259Y-112250500D01*
X60618693Y-112261219D01*
X60735733Y-112313329D01*
X60910609Y-112350500D01*
X60910610Y-112350500D01*
X61089389Y-112350500D01*
X61089391Y-112350500D01*
X61264267Y-112313329D01*
X61372807Y-112265004D01*
X103099451Y-112265004D01*
X103119616Y-112534101D01*
X103179664Y-112797188D01*
X103179666Y-112797195D01*
X103278257Y-113048398D01*
X103413185Y-113282102D01*
X103549080Y-113452509D01*
X103581442Y-113493089D01*
X103768183Y-113666358D01*
X103779259Y-113676635D01*
X104002226Y-113828651D01*
X104245359Y-113945738D01*
X104503228Y-114025280D01*
X104503229Y-114025280D01*
X104503232Y-114025281D01*
X104770063Y-114065499D01*
X104770068Y-114065499D01*
X104770071Y-114065500D01*
X104770072Y-114065500D01*
X105039928Y-114065500D01*
X105039929Y-114065500D01*
X105039936Y-114065499D01*
X105306767Y-114025281D01*
X105306768Y-114025280D01*
X105306772Y-114025280D01*
X105564641Y-113945738D01*
X105807775Y-113828651D01*
X106030741Y-113676635D01*
X106228561Y-113493085D01*
X106396815Y-113282102D01*
X106531743Y-113048398D01*
X106630334Y-112797195D01*
X106690383Y-112534103D01*
X106704142Y-112350500D01*
X106710549Y-112265004D01*
X106710549Y-112264995D01*
X106690383Y-111995898D01*
X106690383Y-111995897D01*
X106630334Y-111732805D01*
X106531743Y-111481602D01*
X106396815Y-111247898D01*
X106228561Y-111036915D01*
X106228560Y-111036914D01*
X106228557Y-111036910D01*
X106030741Y-110853365D01*
X105807775Y-110701349D01*
X105807769Y-110701346D01*
X105807768Y-110701345D01*
X105807767Y-110701344D01*
X105564643Y-110584263D01*
X105564645Y-110584263D01*
X105306773Y-110504720D01*
X105306767Y-110504718D01*
X105039936Y-110464500D01*
X105039929Y-110464500D01*
X104770071Y-110464500D01*
X104770063Y-110464500D01*
X104503232Y-110504718D01*
X104503226Y-110504720D01*
X104245358Y-110584262D01*
X104002230Y-110701346D01*
X103779258Y-110853365D01*
X103581442Y-111036910D01*
X103413185Y-111247898D01*
X103278258Y-111481599D01*
X103278256Y-111481603D01*
X103179666Y-111732804D01*
X103179664Y-111732811D01*
X103119616Y-111995898D01*
X103099451Y-112264995D01*
X103099451Y-112265004D01*
X61372807Y-112265004D01*
X61427593Y-112240612D01*
X61572230Y-112135526D01*
X61691859Y-112002665D01*
X61781250Y-111847835D01*
X61836497Y-111677803D01*
X61855185Y-111500000D01*
X61836497Y-111322197D01*
X61829285Y-111300000D01*
X87844815Y-111300000D01*
X87863503Y-111477805D01*
X87863504Y-111477807D01*
X87918747Y-111647829D01*
X87918750Y-111647835D01*
X88008141Y-111802665D01*
X88048807Y-111847829D01*
X88127764Y-111935521D01*
X88127767Y-111935523D01*
X88127770Y-111935526D01*
X88272407Y-112040612D01*
X88435733Y-112113329D01*
X88610609Y-112150500D01*
X88610610Y-112150500D01*
X88789389Y-112150500D01*
X88789391Y-112150500D01*
X88964267Y-112113329D01*
X89127593Y-112040612D01*
X89272230Y-111935526D01*
X89391859Y-111802665D01*
X89481250Y-111647835D01*
X89536497Y-111477803D01*
X89542988Y-111416036D01*
X89569571Y-111351423D01*
X89578619Y-111341325D01*
X90428092Y-110491853D01*
X90489413Y-110458370D01*
X90489477Y-110458356D01*
X90654267Y-110423329D01*
X90817593Y-110350612D01*
X90962230Y-110245526D01*
X91081859Y-110112665D01*
X91171250Y-109957835D01*
X91226497Y-109787803D01*
X91245185Y-109610000D01*
X91226497Y-109432197D01*
X91198873Y-109347181D01*
X91171252Y-109262170D01*
X91171249Y-109262164D01*
X91081859Y-109107335D01*
X91035003Y-109055296D01*
X90962235Y-108974478D01*
X90962232Y-108974476D01*
X90962231Y-108974475D01*
X90962230Y-108974474D01*
X90817593Y-108869388D01*
X90654267Y-108796671D01*
X90654265Y-108796670D01*
X90526594Y-108769533D01*
X90479391Y-108759500D01*
X90300609Y-108759500D01*
X90269954Y-108766015D01*
X90125733Y-108796670D01*
X90125728Y-108796672D01*
X89962408Y-108869387D01*
X89817768Y-108974475D01*
X89698140Y-109107336D01*
X89608750Y-109262164D01*
X89608747Y-109262170D01*
X89553504Y-109432192D01*
X89553503Y-109432194D01*
X89547011Y-109493963D01*
X89520425Y-109558577D01*
X89511371Y-109568681D01*
X88661909Y-110418144D01*
X88600586Y-110451629D01*
X88600009Y-110451753D01*
X88435733Y-110486670D01*
X88435728Y-110486672D01*
X88272408Y-110559387D01*
X88127768Y-110664475D01*
X88008140Y-110797336D01*
X87918750Y-110952164D01*
X87918747Y-110952170D01*
X87863504Y-111122192D01*
X87863503Y-111122194D01*
X87844815Y-111300000D01*
X61829285Y-111300000D01*
X61781250Y-111152165D01*
X61691859Y-110997335D01*
X61645003Y-110945296D01*
X61572235Y-110864478D01*
X61572232Y-110864476D01*
X61572231Y-110864475D01*
X61572230Y-110864474D01*
X61427593Y-110759388D01*
X61264267Y-110686671D01*
X61264265Y-110686670D01*
X61136594Y-110659533D01*
X61089391Y-110649500D01*
X60910609Y-110649500D01*
X60879954Y-110656015D01*
X60735733Y-110686670D01*
X60618694Y-110738780D01*
X60568259Y-110749500D01*
X59231741Y-110749500D01*
X59181306Y-110738780D01*
X59064267Y-110686671D01*
X59064265Y-110686670D01*
X58936594Y-110659533D01*
X58889391Y-110649500D01*
X58710609Y-110649500D01*
X58679954Y-110656015D01*
X58535733Y-110686670D01*
X58535728Y-110686672D01*
X58372408Y-110759387D01*
X58227768Y-110864475D01*
X58108140Y-110997336D01*
X58018750Y-111152164D01*
X58018747Y-111152170D01*
X57963504Y-111322192D01*
X57963503Y-111322194D01*
X57944815Y-111500000D01*
X48550500Y-111500000D01*
X48550500Y-109100000D01*
X60144815Y-109100000D01*
X60163503Y-109277805D01*
X60163504Y-109277807D01*
X60218747Y-109447829D01*
X60218750Y-109447835D01*
X60308141Y-109602665D01*
X60348807Y-109647829D01*
X60427764Y-109735521D01*
X60427767Y-109735523D01*
X60427770Y-109735526D01*
X60572407Y-109840612D01*
X60735733Y-109913329D01*
X60910609Y-109950500D01*
X60910610Y-109950500D01*
X61089389Y-109950500D01*
X61089391Y-109950500D01*
X61264267Y-109913329D01*
X61427593Y-109840612D01*
X61572230Y-109735526D01*
X61691859Y-109602665D01*
X61781250Y-109447835D01*
X61829285Y-109300000D01*
X70944815Y-109300000D01*
X70963503Y-109477805D01*
X70963504Y-109477807D01*
X71018747Y-109647829D01*
X71018750Y-109647835D01*
X71108141Y-109802665D01*
X71142307Y-109840610D01*
X71227764Y-109935521D01*
X71227767Y-109935523D01*
X71227770Y-109935526D01*
X71372407Y-110040612D01*
X71535733Y-110113329D01*
X71710609Y-110150500D01*
X71710610Y-110150500D01*
X71889389Y-110150500D01*
X71889391Y-110150500D01*
X72064267Y-110113329D01*
X72181306Y-110061219D01*
X72231741Y-110050500D01*
X73268259Y-110050500D01*
X73318693Y-110061219D01*
X73435733Y-110113329D01*
X73610609Y-110150500D01*
X73610610Y-110150500D01*
X73789389Y-110150500D01*
X73789391Y-110150500D01*
X73964267Y-110113329D01*
X74127593Y-110040612D01*
X74272230Y-109935526D01*
X74391859Y-109802665D01*
X74481250Y-109647835D01*
X74536497Y-109477803D01*
X74555185Y-109300000D01*
X74536497Y-109122197D01*
X74488500Y-108974478D01*
X74481252Y-108952170D01*
X74481249Y-108952164D01*
X74433459Y-108869389D01*
X74391859Y-108797335D01*
X74345003Y-108745296D01*
X74272235Y-108664478D01*
X74272232Y-108664476D01*
X74272231Y-108664475D01*
X74272230Y-108664474D01*
X74127593Y-108559388D01*
X73964267Y-108486671D01*
X73964265Y-108486670D01*
X73836594Y-108459533D01*
X73789391Y-108449500D01*
X73610609Y-108449500D01*
X73579954Y-108456015D01*
X73435733Y-108486670D01*
X73318694Y-108538780D01*
X73268259Y-108549500D01*
X72231741Y-108549500D01*
X72181306Y-108538780D01*
X72064267Y-108486671D01*
X72064265Y-108486670D01*
X71936594Y-108459533D01*
X71889391Y-108449500D01*
X71710609Y-108449500D01*
X71679954Y-108456015D01*
X71535733Y-108486670D01*
X71535728Y-108486672D01*
X71372408Y-108559387D01*
X71227768Y-108664475D01*
X71108140Y-108797336D01*
X71018750Y-108952164D01*
X71018747Y-108952170D01*
X70963504Y-109122192D01*
X70963503Y-109122194D01*
X70944815Y-109300000D01*
X61829285Y-109300000D01*
X61836497Y-109277803D01*
X61842988Y-109216036D01*
X61869571Y-109151423D01*
X61878609Y-109141335D01*
X62092812Y-108927132D01*
X62154134Y-108893650D01*
X62180492Y-108890816D01*
X62214389Y-108890816D01*
X62214391Y-108890816D01*
X62389267Y-108853645D01*
X62552593Y-108780928D01*
X62697230Y-108675842D01*
X62707463Y-108664478D01*
X62767917Y-108597336D01*
X62816859Y-108542981D01*
X62906250Y-108388151D01*
X62961497Y-108218119D01*
X62980185Y-108040316D01*
X62961497Y-107862513D01*
X62906250Y-107692481D01*
X62816859Y-107537651D01*
X62770003Y-107485612D01*
X62697235Y-107404794D01*
X62697232Y-107404792D01*
X62697231Y-107404791D01*
X62697230Y-107404790D01*
X62552593Y-107299704D01*
X62389267Y-107226987D01*
X62389265Y-107226986D01*
X62261594Y-107199849D01*
X62214391Y-107189816D01*
X62035609Y-107189816D01*
X62004954Y-107196331D01*
X61860733Y-107226986D01*
X61860728Y-107226988D01*
X61697408Y-107299703D01*
X61552768Y-107404791D01*
X61433140Y-107537652D01*
X61343750Y-107692480D01*
X61343747Y-107692486D01*
X61288503Y-107862512D01*
X61288300Y-107863468D01*
X61288030Y-107863966D01*
X61286495Y-107868693D01*
X61285630Y-107868412D01*
X61255103Y-107924948D01*
X61254692Y-107925360D01*
X60961909Y-108218144D01*
X60900586Y-108251629D01*
X60900009Y-108251753D01*
X60735733Y-108286670D01*
X60735728Y-108286672D01*
X60572408Y-108359387D01*
X60427768Y-108464475D01*
X60308140Y-108597336D01*
X60218750Y-108752164D01*
X60218747Y-108752170D01*
X60163504Y-108922192D01*
X60163503Y-108922194D01*
X60144815Y-109100000D01*
X48550500Y-109100000D01*
X48550500Y-99400000D01*
X70644815Y-99400000D01*
X70663503Y-99577805D01*
X70663504Y-99577807D01*
X70718747Y-99747829D01*
X70718750Y-99747835D01*
X70808141Y-99902665D01*
X70849812Y-99948946D01*
X70927764Y-100035521D01*
X70927767Y-100035523D01*
X70927770Y-100035526D01*
X71072407Y-100140612D01*
X71235733Y-100213329D01*
X71235734Y-100213329D01*
X71241670Y-100215972D01*
X71240890Y-100217723D01*
X71280822Y-100242190D01*
X73566670Y-102528038D01*
X73600155Y-102589361D01*
X73602310Y-102628678D01*
X73594815Y-102699998D01*
X73613503Y-102877805D01*
X73613504Y-102877807D01*
X73668747Y-103047829D01*
X73668750Y-103047835D01*
X73758141Y-103202665D01*
X73799812Y-103248946D01*
X73877764Y-103335521D01*
X73877767Y-103335523D01*
X73877770Y-103335526D01*
X74022407Y-103440612D01*
X74185733Y-103513329D01*
X74360609Y-103550500D01*
X74360610Y-103550500D01*
X74539389Y-103550500D01*
X74539391Y-103550500D01*
X74714267Y-103513329D01*
X74877593Y-103440612D01*
X75022230Y-103335526D01*
X75141859Y-103202665D01*
X75231250Y-103047835D01*
X75286497Y-102877803D01*
X75305185Y-102700000D01*
X75286497Y-102522197D01*
X75231250Y-102352165D01*
X75231249Y-102352163D01*
X75216601Y-102326791D01*
X75202195Y-102281956D01*
X75201689Y-102282057D01*
X75200812Y-102277649D01*
X75200585Y-102276942D01*
X75200500Y-102276080D01*
X75171659Y-102131092D01*
X75171658Y-102131091D01*
X75171658Y-102131087D01*
X75115084Y-101994505D01*
X75082186Y-101945270D01*
X75082185Y-101945268D01*
X75032956Y-101871589D01*
X75032952Y-101871584D01*
X72759212Y-99597844D01*
X80770000Y-99597844D01*
X80776401Y-99657372D01*
X80776403Y-99657379D01*
X80826645Y-99792086D01*
X80826649Y-99792093D01*
X80912809Y-99907187D01*
X80912812Y-99907190D01*
X81027906Y-99993350D01*
X81027913Y-99993354D01*
X81162620Y-100043596D01*
X81162627Y-100043598D01*
X81222155Y-100049999D01*
X81222172Y-100050000D01*
X81870000Y-100050000D01*
X81870000Y-99133012D01*
X81927007Y-99165925D01*
X82054174Y-99200000D01*
X82185826Y-99200000D01*
X82312993Y-99165925D01*
X82370000Y-99133012D01*
X82370000Y-100050000D01*
X83017828Y-100050000D01*
X83017844Y-100049999D01*
X83077372Y-100043598D01*
X83077379Y-100043596D01*
X83212086Y-99993354D01*
X83212093Y-99993350D01*
X83327187Y-99907190D01*
X83327190Y-99907187D01*
X83413350Y-99792093D01*
X83413354Y-99792086D01*
X83462422Y-99660529D01*
X83504293Y-99604595D01*
X83569757Y-99580178D01*
X83638030Y-99595030D01*
X83666285Y-99616181D01*
X83788599Y-99738495D01*
X83865135Y-99792086D01*
X83982165Y-99874032D01*
X83982167Y-99874033D01*
X83982170Y-99874035D01*
X84196337Y-99973903D01*
X84424592Y-100035063D01*
X84595319Y-100050000D01*
X84659999Y-100055659D01*
X84660000Y-100055659D01*
X84660001Y-100055659D01*
X84724681Y-100050000D01*
X84895408Y-100035063D01*
X85123663Y-99973903D01*
X85337830Y-99874035D01*
X85531401Y-99738495D01*
X85698495Y-99571401D01*
X85828425Y-99385842D01*
X85883002Y-99342217D01*
X85952500Y-99335023D01*
X86014855Y-99366546D01*
X86031575Y-99385842D01*
X86161500Y-99571395D01*
X86161505Y-99571401D01*
X86328599Y-99738495D01*
X86405135Y-99792086D01*
X86522165Y-99874032D01*
X86522167Y-99874033D01*
X86522170Y-99874035D01*
X86736337Y-99973903D01*
X86964592Y-100035063D01*
X87135319Y-100050000D01*
X87199999Y-100055659D01*
X87200000Y-100055659D01*
X87200001Y-100055659D01*
X87264681Y-100050000D01*
X87435408Y-100035063D01*
X87663663Y-99973903D01*
X87877830Y-99874035D01*
X88071401Y-99738495D01*
X88238495Y-99571401D01*
X88368425Y-99385842D01*
X88423002Y-99342217D01*
X88492500Y-99335023D01*
X88554855Y-99366546D01*
X88571575Y-99385842D01*
X88701500Y-99571395D01*
X88701505Y-99571401D01*
X88868599Y-99738495D01*
X88945135Y-99792086D01*
X89062165Y-99874032D01*
X89062167Y-99874033D01*
X89062170Y-99874035D01*
X89276337Y-99973903D01*
X89504592Y-100035063D01*
X89675319Y-100050000D01*
X89739999Y-100055659D01*
X89740000Y-100055659D01*
X89740001Y-100055659D01*
X89804681Y-100050000D01*
X89975408Y-100035063D01*
X90203663Y-99973903D01*
X90417830Y-99874035D01*
X90611401Y-99738495D01*
X90778495Y-99571401D01*
X90914035Y-99377830D01*
X91013903Y-99163663D01*
X91075063Y-98935408D01*
X91095659Y-98700000D01*
X91075063Y-98464592D01*
X91013903Y-98236337D01*
X90914035Y-98022171D01*
X90908425Y-98014158D01*
X90778494Y-97828597D01*
X90611402Y-97661506D01*
X90611395Y-97661501D01*
X90417834Y-97525967D01*
X90417830Y-97525965D01*
X90346727Y-97492809D01*
X90203663Y-97426097D01*
X90203659Y-97426096D01*
X90203655Y-97426094D01*
X89975413Y-97364938D01*
X89975403Y-97364936D01*
X89740001Y-97344341D01*
X89739999Y-97344341D01*
X89504596Y-97364936D01*
X89504586Y-97364938D01*
X89276344Y-97426094D01*
X89276335Y-97426098D01*
X89062171Y-97525964D01*
X89062169Y-97525965D01*
X88868597Y-97661505D01*
X88701505Y-97828597D01*
X88571575Y-98014158D01*
X88516998Y-98057783D01*
X88447500Y-98064977D01*
X88385145Y-98033454D01*
X88368425Y-98014158D01*
X88238494Y-97828597D01*
X88071402Y-97661506D01*
X88071395Y-97661501D01*
X87877834Y-97525967D01*
X87877830Y-97525965D01*
X87806727Y-97492809D01*
X87663663Y-97426097D01*
X87663659Y-97426096D01*
X87663655Y-97426094D01*
X87435413Y-97364938D01*
X87435403Y-97364936D01*
X87200001Y-97344341D01*
X87199999Y-97344341D01*
X86964596Y-97364936D01*
X86964586Y-97364938D01*
X86736344Y-97426094D01*
X86736335Y-97426098D01*
X86522171Y-97525964D01*
X86522169Y-97525965D01*
X86328597Y-97661505D01*
X86161505Y-97828597D01*
X86031575Y-98014158D01*
X85976998Y-98057783D01*
X85907500Y-98064977D01*
X85845145Y-98033454D01*
X85828425Y-98014158D01*
X85698494Y-97828597D01*
X85531402Y-97661506D01*
X85531395Y-97661501D01*
X85337834Y-97525967D01*
X85337830Y-97525965D01*
X85266727Y-97492809D01*
X85123663Y-97426097D01*
X85123659Y-97426096D01*
X85123655Y-97426094D01*
X84895413Y-97364938D01*
X84895403Y-97364936D01*
X84660001Y-97344341D01*
X84659999Y-97344341D01*
X84424596Y-97364936D01*
X84424586Y-97364938D01*
X84196344Y-97426094D01*
X84196335Y-97426098D01*
X83982171Y-97525964D01*
X83982169Y-97525965D01*
X83788600Y-97661503D01*
X83666284Y-97783819D01*
X83604961Y-97817303D01*
X83535269Y-97812319D01*
X83479336Y-97770447D01*
X83462421Y-97739470D01*
X83413354Y-97607913D01*
X83413350Y-97607906D01*
X83327190Y-97492812D01*
X83327187Y-97492809D01*
X83212093Y-97406649D01*
X83212086Y-97406645D01*
X83077379Y-97356403D01*
X83077372Y-97356401D01*
X83017844Y-97350000D01*
X82370000Y-97350000D01*
X82370000Y-98266988D01*
X82312993Y-98234075D01*
X82185826Y-98200000D01*
X82054174Y-98200000D01*
X81927007Y-98234075D01*
X81870000Y-98266988D01*
X81870000Y-97350000D01*
X81222155Y-97350000D01*
X81162627Y-97356401D01*
X81162620Y-97356403D01*
X81027913Y-97406645D01*
X81027906Y-97406649D01*
X80912812Y-97492809D01*
X80912809Y-97492812D01*
X80826649Y-97607906D01*
X80826645Y-97607913D01*
X80776403Y-97742620D01*
X80776401Y-97742627D01*
X80770000Y-97802155D01*
X80770000Y-98450000D01*
X81686988Y-98450000D01*
X81654075Y-98507007D01*
X81620000Y-98634174D01*
X81620000Y-98765826D01*
X81654075Y-98892993D01*
X81686988Y-98950000D01*
X80770000Y-98950000D01*
X80770000Y-99597844D01*
X72759212Y-99597844D01*
X72334892Y-99173524D01*
X72304642Y-99124160D01*
X72296824Y-99100099D01*
X72281250Y-99052165D01*
X72281248Y-99052161D01*
X72213840Y-98935408D01*
X72191859Y-98897335D01*
X72072235Y-98764478D01*
X72072232Y-98764476D01*
X72072231Y-98764475D01*
X72072230Y-98764474D01*
X71927593Y-98659388D01*
X71764267Y-98586671D01*
X71764265Y-98586670D01*
X71636594Y-98559533D01*
X71589391Y-98549500D01*
X71410609Y-98549500D01*
X71379954Y-98556015D01*
X71235733Y-98586670D01*
X71235728Y-98586672D01*
X71072408Y-98659387D01*
X70927768Y-98764475D01*
X70808140Y-98897336D01*
X70718750Y-99052164D01*
X70718747Y-99052170D01*
X70663504Y-99222192D01*
X70663503Y-99222194D01*
X70644815Y-99400000D01*
X48550500Y-99400000D01*
X48550500Y-93918097D01*
X49799500Y-93918097D01*
X49836446Y-94151368D01*
X49909433Y-94375996D01*
X49961307Y-94477803D01*
X50016657Y-94586433D01*
X50155483Y-94777510D01*
X50322490Y-94944517D01*
X50513567Y-95083343D01*
X50612991Y-95134002D01*
X50724003Y-95190566D01*
X50724005Y-95190566D01*
X50724008Y-95190568D01*
X50844412Y-95229689D01*
X50948631Y-95263553D01*
X51181903Y-95300500D01*
X51181908Y-95300500D01*
X51418097Y-95300500D01*
X51651368Y-95263553D01*
X51875992Y-95190568D01*
X52086433Y-95083343D01*
X52201144Y-95000000D01*
X54589341Y-95000000D01*
X54609936Y-95235403D01*
X54609938Y-95235413D01*
X54671094Y-95463655D01*
X54671096Y-95463659D01*
X54671097Y-95463663D01*
X54750801Y-95634588D01*
X54770965Y-95677830D01*
X54770967Y-95677834D01*
X54802031Y-95722197D01*
X54906505Y-95871401D01*
X55073599Y-96038495D01*
X55170384Y-96106265D01*
X55267165Y-96174032D01*
X55267167Y-96174033D01*
X55267170Y-96174035D01*
X55481337Y-96273903D01*
X55709592Y-96335063D01*
X55886034Y-96350500D01*
X55944999Y-96355659D01*
X55945000Y-96355659D01*
X55945001Y-96355659D01*
X56003966Y-96350500D01*
X56180408Y-96335063D01*
X56408663Y-96273903D01*
X56622830Y-96174035D01*
X56816401Y-96038495D01*
X56983495Y-95871401D01*
X57113425Y-95685842D01*
X57168002Y-95642217D01*
X57237500Y-95635023D01*
X57299855Y-95666546D01*
X57316575Y-95685842D01*
X57446500Y-95871395D01*
X57446505Y-95871401D01*
X57613599Y-96038495D01*
X57710384Y-96106265D01*
X57807165Y-96174032D01*
X57807167Y-96174033D01*
X57807170Y-96174035D01*
X58021337Y-96273903D01*
X58249592Y-96335063D01*
X58426034Y-96350500D01*
X58484999Y-96355659D01*
X58485000Y-96355659D01*
X58485001Y-96355659D01*
X58543966Y-96350500D01*
X58720408Y-96335063D01*
X58948663Y-96273903D01*
X59162830Y-96174035D01*
X59356401Y-96038495D01*
X59478717Y-95916178D01*
X59540036Y-95882696D01*
X59609728Y-95887680D01*
X59665662Y-95929551D01*
X59682577Y-95960528D01*
X59731646Y-96092088D01*
X59731649Y-96092093D01*
X59817809Y-96207187D01*
X59817812Y-96207190D01*
X59932906Y-96293350D01*
X59932913Y-96293354D01*
X60067620Y-96343596D01*
X60067627Y-96343598D01*
X60127155Y-96349999D01*
X60127172Y-96350000D01*
X60775000Y-96350000D01*
X60775000Y-95433012D01*
X60832007Y-95465925D01*
X60959174Y-95500000D01*
X61090826Y-95500000D01*
X61217993Y-95465925D01*
X61275000Y-95433012D01*
X61275000Y-96350000D01*
X61922828Y-96350000D01*
X61922844Y-96349999D01*
X61982372Y-96343598D01*
X61982379Y-96343596D01*
X62117086Y-96293354D01*
X62117093Y-96293350D01*
X62232187Y-96207190D01*
X62232190Y-96207187D01*
X62318350Y-96092093D01*
X62318354Y-96092086D01*
X62368596Y-95957379D01*
X62368598Y-95957372D01*
X62374767Y-95900000D01*
X67544815Y-95900000D01*
X67563503Y-96077805D01*
X67563504Y-96077807D01*
X67618747Y-96247829D01*
X67618750Y-96247835D01*
X67708141Y-96402665D01*
X67749812Y-96448946D01*
X67827764Y-96535521D01*
X67827767Y-96535523D01*
X67827770Y-96535526D01*
X67972407Y-96640612D01*
X68135733Y-96713329D01*
X68310609Y-96750500D01*
X68310610Y-96750500D01*
X68489389Y-96750500D01*
X68489391Y-96750500D01*
X68664267Y-96713329D01*
X68827593Y-96640612D01*
X68890366Y-96595004D01*
X94259451Y-96595004D01*
X94279616Y-96864101D01*
X94339664Y-97127188D01*
X94339666Y-97127195D01*
X94429624Y-97356403D01*
X94438257Y-97378398D01*
X94573185Y-97612102D01*
X94612583Y-97661505D01*
X94741442Y-97823089D01*
X94928183Y-97996358D01*
X94939259Y-98006635D01*
X95162226Y-98158651D01*
X95405359Y-98275738D01*
X95663228Y-98355280D01*
X95663229Y-98355280D01*
X95663232Y-98355281D01*
X95930063Y-98395499D01*
X95930068Y-98395499D01*
X95930071Y-98395500D01*
X95930072Y-98395500D01*
X96199928Y-98395500D01*
X96199929Y-98395500D01*
X96199936Y-98395499D01*
X96466767Y-98355281D01*
X96466768Y-98355280D01*
X96466772Y-98355280D01*
X96724641Y-98275738D01*
X96967775Y-98158651D01*
X97190741Y-98006635D01*
X97259463Y-97942870D01*
X99344500Y-97942870D01*
X99344501Y-97942876D01*
X99350908Y-98002483D01*
X99401202Y-98137328D01*
X99401206Y-98137335D01*
X99487452Y-98252544D01*
X99487455Y-98252547D01*
X99602664Y-98338793D01*
X99602671Y-98338797D01*
X99737517Y-98389091D01*
X99737516Y-98389091D01*
X99744444Y-98389835D01*
X99797127Y-98395500D01*
X102492872Y-98395499D01*
X102552483Y-98389091D01*
X102687331Y-98338796D01*
X102802546Y-98252546D01*
X102888796Y-98137331D01*
X102939091Y-98002483D01*
X102945500Y-97942873D01*
X102945499Y-95247128D01*
X102939091Y-95187517D01*
X102937542Y-95183365D01*
X102888797Y-95052671D01*
X102888793Y-95052664D01*
X102802547Y-94937455D01*
X102802544Y-94937452D01*
X102687335Y-94851206D01*
X102687328Y-94851202D01*
X102552482Y-94800908D01*
X102552483Y-94800908D01*
X102492883Y-94794501D01*
X102492881Y-94794500D01*
X102492873Y-94794500D01*
X102492864Y-94794500D01*
X99797129Y-94794500D01*
X99797123Y-94794501D01*
X99737516Y-94800908D01*
X99602671Y-94851202D01*
X99602664Y-94851206D01*
X99487455Y-94937452D01*
X99487452Y-94937455D01*
X99401206Y-95052664D01*
X99401202Y-95052671D01*
X99350908Y-95187517D01*
X99345760Y-95235408D01*
X99344501Y-95247123D01*
X99344500Y-95247135D01*
X99344500Y-97942870D01*
X97259463Y-97942870D01*
X97344259Y-97864190D01*
X97388557Y-97823089D01*
X97388557Y-97823087D01*
X97388561Y-97823085D01*
X97556815Y-97612102D01*
X97691743Y-97378398D01*
X97790334Y-97127195D01*
X97850383Y-96864103D01*
X97870549Y-96595000D01*
X97850383Y-96325897D01*
X97790334Y-96062805D01*
X97691743Y-95811602D01*
X97556815Y-95577898D01*
X97388561Y-95366915D01*
X97388560Y-95366914D01*
X97388557Y-95366910D01*
X97190741Y-95183365D01*
X96967775Y-95031349D01*
X96967769Y-95031346D01*
X96967768Y-95031345D01*
X96967767Y-95031344D01*
X96724643Y-94914263D01*
X96724645Y-94914263D01*
X96466773Y-94834720D01*
X96466767Y-94834718D01*
X96199936Y-94794500D01*
X96199929Y-94794500D01*
X95930071Y-94794500D01*
X95930063Y-94794500D01*
X95663232Y-94834718D01*
X95663226Y-94834720D01*
X95405358Y-94914262D01*
X95162230Y-95031346D01*
X94939258Y-95183365D01*
X94741442Y-95366910D01*
X94573185Y-95577898D01*
X94438258Y-95811599D01*
X94438256Y-95811603D01*
X94339666Y-96062804D01*
X94339664Y-96062811D01*
X94279616Y-96325898D01*
X94259451Y-96594995D01*
X94259451Y-96595004D01*
X68890366Y-96595004D01*
X68972230Y-96535526D01*
X69091859Y-96402665D01*
X69181250Y-96247835D01*
X69236497Y-96077803D01*
X69255185Y-95900000D01*
X69254961Y-95897870D01*
X72649500Y-95897870D01*
X72649501Y-95897876D01*
X72655908Y-95957483D01*
X72706202Y-96092328D01*
X72706206Y-96092335D01*
X72792452Y-96207544D01*
X72792455Y-96207547D01*
X72907664Y-96293793D01*
X72907671Y-96293797D01*
X73042517Y-96344091D01*
X73042516Y-96344091D01*
X73049444Y-96344835D01*
X73102127Y-96350500D01*
X74897872Y-96350499D01*
X74957483Y-96344091D01*
X75092331Y-96293796D01*
X75207546Y-96207546D01*
X75293796Y-96092331D01*
X75342810Y-95960916D01*
X75384681Y-95904984D01*
X75450145Y-95880566D01*
X75518418Y-95895417D01*
X75546673Y-95916569D01*
X75668599Y-96038495D01*
X75765384Y-96106265D01*
X75862165Y-96174032D01*
X75862167Y-96174033D01*
X75862170Y-96174035D01*
X76076337Y-96273903D01*
X76304592Y-96335063D01*
X76481034Y-96350500D01*
X76539999Y-96355659D01*
X76540000Y-96355659D01*
X76540001Y-96355659D01*
X76598966Y-96350500D01*
X76775408Y-96335063D01*
X77003663Y-96273903D01*
X77217830Y-96174035D01*
X77411401Y-96038495D01*
X77578495Y-95871401D01*
X77708730Y-95685405D01*
X77763307Y-95641781D01*
X77832805Y-95634587D01*
X77895160Y-95666110D01*
X77911879Y-95685405D01*
X78041890Y-95871078D01*
X78208917Y-96038105D01*
X78402421Y-96173600D01*
X78616507Y-96273429D01*
X78616516Y-96273433D01*
X78830000Y-96330634D01*
X78830000Y-95433012D01*
X78887007Y-95465925D01*
X79014174Y-95500000D01*
X79145826Y-95500000D01*
X79272993Y-95465925D01*
X79330000Y-95433012D01*
X79330000Y-96330633D01*
X79543483Y-96273433D01*
X79543492Y-96273429D01*
X79757578Y-96173600D01*
X79951082Y-96038105D01*
X80118105Y-95871082D01*
X80248119Y-95685405D01*
X80302696Y-95641781D01*
X80372195Y-95634588D01*
X80434549Y-95666110D01*
X80451269Y-95685405D01*
X80581505Y-95871401D01*
X80748599Y-96038495D01*
X80845384Y-96106265D01*
X80942165Y-96174032D01*
X80942167Y-96174033D01*
X80942170Y-96174035D01*
X81156337Y-96273903D01*
X81384592Y-96335063D01*
X81561034Y-96350500D01*
X81619999Y-96355659D01*
X81620000Y-96355659D01*
X81620001Y-96355659D01*
X81678966Y-96350500D01*
X81855408Y-96335063D01*
X82083663Y-96273903D01*
X82297830Y-96174035D01*
X82491401Y-96038495D01*
X82658495Y-95871401D01*
X82794035Y-95677830D01*
X82893903Y-95463663D01*
X82955063Y-95235408D01*
X82975659Y-95000000D01*
X82955063Y-94764592D01*
X82893903Y-94536337D01*
X82794035Y-94322171D01*
X82788731Y-94314595D01*
X82658494Y-94128597D01*
X82491402Y-93961506D01*
X82491395Y-93961501D01*
X82478060Y-93952164D01*
X82429408Y-93918097D01*
X105799500Y-93918097D01*
X105836446Y-94151368D01*
X105909433Y-94375996D01*
X105961307Y-94477803D01*
X106016657Y-94586433D01*
X106155483Y-94777510D01*
X106322490Y-94944517D01*
X106513567Y-95083343D01*
X106612991Y-95134002D01*
X106724003Y-95190566D01*
X106724005Y-95190566D01*
X106724008Y-95190568D01*
X106844412Y-95229689D01*
X106948631Y-95263553D01*
X107181903Y-95300500D01*
X107181908Y-95300500D01*
X107418097Y-95300500D01*
X107651368Y-95263553D01*
X107875992Y-95190568D01*
X108086433Y-95083343D01*
X108277510Y-94944517D01*
X108444517Y-94777510D01*
X108583343Y-94586433D01*
X108690568Y-94375992D01*
X108763553Y-94151368D01*
X108800500Y-93918097D01*
X108800500Y-93681902D01*
X108763553Y-93448631D01*
X108690566Y-93224003D01*
X108583342Y-93013566D01*
X108444517Y-92822490D01*
X108277510Y-92655483D01*
X108086433Y-92516657D01*
X107875996Y-92409433D01*
X107651368Y-92336446D01*
X107418097Y-92299500D01*
X107418092Y-92299500D01*
X107181908Y-92299500D01*
X107181903Y-92299500D01*
X106948631Y-92336446D01*
X106724003Y-92409433D01*
X106513566Y-92516657D01*
X106404550Y-92595862D01*
X106322490Y-92655483D01*
X106322488Y-92655485D01*
X106322487Y-92655485D01*
X106155485Y-92822487D01*
X106155485Y-92822488D01*
X106155483Y-92822490D01*
X106109731Y-92885462D01*
X106016657Y-93013566D01*
X105909433Y-93224003D01*
X105836446Y-93448631D01*
X105799500Y-93681902D01*
X105799500Y-93918097D01*
X82429408Y-93918097D01*
X82414518Y-93907671D01*
X82297834Y-93825967D01*
X82297830Y-93825965D01*
X82226727Y-93792809D01*
X82083663Y-93726097D01*
X82083659Y-93726096D01*
X82083655Y-93726094D01*
X81855413Y-93664938D01*
X81855403Y-93664936D01*
X81620001Y-93644341D01*
X81619999Y-93644341D01*
X81384596Y-93664936D01*
X81384586Y-93664938D01*
X81156344Y-93726094D01*
X81156335Y-93726098D01*
X80942171Y-93825964D01*
X80942169Y-93825965D01*
X80748597Y-93961505D01*
X80581508Y-94128594D01*
X80451269Y-94314595D01*
X80396692Y-94358219D01*
X80327193Y-94365412D01*
X80264839Y-94333890D01*
X80248119Y-94314594D01*
X80118113Y-94128926D01*
X80118108Y-94128920D01*
X79951082Y-93961894D01*
X79757578Y-93826399D01*
X79543492Y-93726570D01*
X79543486Y-93726567D01*
X79330000Y-93669364D01*
X79330000Y-94566988D01*
X79272993Y-94534075D01*
X79145826Y-94500000D01*
X79014174Y-94500000D01*
X78887007Y-94534075D01*
X78830000Y-94566988D01*
X78830000Y-93669364D01*
X78829999Y-93669364D01*
X78616513Y-93726567D01*
X78616507Y-93726570D01*
X78402422Y-93826399D01*
X78402420Y-93826400D01*
X78208926Y-93961886D01*
X78208920Y-93961891D01*
X78041891Y-94128920D01*
X78041890Y-94128922D01*
X77911880Y-94314595D01*
X77857303Y-94358219D01*
X77787804Y-94365412D01*
X77725450Y-94333890D01*
X77708730Y-94314594D01*
X77578494Y-94128597D01*
X77411402Y-93961506D01*
X77411395Y-93961501D01*
X77398060Y-93952164D01*
X77334518Y-93907671D01*
X77217834Y-93825967D01*
X77217830Y-93825965D01*
X77146727Y-93792809D01*
X77003663Y-93726097D01*
X77003659Y-93726096D01*
X77003655Y-93726094D01*
X76775413Y-93664938D01*
X76775403Y-93664936D01*
X76540001Y-93644341D01*
X76539999Y-93644341D01*
X76304596Y-93664936D01*
X76304586Y-93664938D01*
X76076344Y-93726094D01*
X76076335Y-93726098D01*
X75862171Y-93825964D01*
X75862169Y-93825965D01*
X75668600Y-93961503D01*
X75546673Y-94083430D01*
X75485350Y-94116914D01*
X75415658Y-94111930D01*
X75359725Y-94070058D01*
X75342810Y-94039081D01*
X75293797Y-93907671D01*
X75293793Y-93907664D01*
X75207547Y-93792455D01*
X75207544Y-93792452D01*
X75092335Y-93706206D01*
X75092328Y-93706202D01*
X74957482Y-93655908D01*
X74957483Y-93655908D01*
X74897883Y-93649501D01*
X74897881Y-93649500D01*
X74897873Y-93649500D01*
X74897864Y-93649500D01*
X73102129Y-93649500D01*
X73102123Y-93649501D01*
X73042516Y-93655908D01*
X72907671Y-93706202D01*
X72907664Y-93706206D01*
X72792455Y-93792452D01*
X72792452Y-93792455D01*
X72706206Y-93907664D01*
X72706202Y-93907671D01*
X72655908Y-94042517D01*
X72649501Y-94102116D01*
X72649500Y-94102135D01*
X72649500Y-95897870D01*
X69254961Y-95897870D01*
X69236497Y-95722197D01*
X69181250Y-95552165D01*
X69167113Y-95527678D01*
X69150500Y-95465678D01*
X69150500Y-94734320D01*
X69167112Y-94672322D01*
X69181250Y-94647835D01*
X69236497Y-94477803D01*
X69255185Y-94300000D01*
X69236497Y-94122197D01*
X69184411Y-93961894D01*
X69181252Y-93952170D01*
X69181249Y-93952164D01*
X69091859Y-93797335D01*
X69010205Y-93706649D01*
X68972235Y-93664478D01*
X68972232Y-93664476D01*
X68972231Y-93664475D01*
X68972230Y-93664474D01*
X68827593Y-93559388D01*
X68664267Y-93486671D01*
X68664265Y-93486670D01*
X68536594Y-93459533D01*
X68489391Y-93449500D01*
X68310609Y-93449500D01*
X68279954Y-93456015D01*
X68135733Y-93486670D01*
X68135728Y-93486672D01*
X67972408Y-93559387D01*
X67827768Y-93664475D01*
X67708140Y-93797336D01*
X67618750Y-93952164D01*
X67618747Y-93952170D01*
X67563504Y-94122192D01*
X67563503Y-94122194D01*
X67544815Y-94300000D01*
X67563503Y-94477805D01*
X67563504Y-94477807D01*
X67618747Y-94647829D01*
X67618748Y-94647830D01*
X67618750Y-94647835D01*
X67632887Y-94672322D01*
X67649500Y-94734320D01*
X67649500Y-95465678D01*
X67632887Y-95527678D01*
X67618750Y-95552163D01*
X67563504Y-95722192D01*
X67563503Y-95722194D01*
X67544815Y-95900000D01*
X62374767Y-95900000D01*
X62374999Y-95897844D01*
X62375000Y-95897827D01*
X62375000Y-95250000D01*
X61458012Y-95250000D01*
X61490925Y-95192993D01*
X61525000Y-95065826D01*
X61525000Y-94934174D01*
X61490925Y-94807007D01*
X61458012Y-94750000D01*
X62375000Y-94750000D01*
X62375000Y-94102172D01*
X62374999Y-94102155D01*
X62368598Y-94042627D01*
X62368596Y-94042620D01*
X62318354Y-93907913D01*
X62318350Y-93907906D01*
X62232190Y-93792812D01*
X62232187Y-93792809D01*
X62117093Y-93706649D01*
X62117086Y-93706645D01*
X61982379Y-93656403D01*
X61982372Y-93656401D01*
X61922844Y-93650000D01*
X61275000Y-93650000D01*
X61275000Y-94566988D01*
X61217993Y-94534075D01*
X61090826Y-94500000D01*
X60959174Y-94500000D01*
X60832007Y-94534075D01*
X60775000Y-94566988D01*
X60775000Y-93650000D01*
X60127155Y-93650000D01*
X60067627Y-93656401D01*
X60067620Y-93656403D01*
X59932913Y-93706645D01*
X59932906Y-93706649D01*
X59817812Y-93792809D01*
X59817809Y-93792812D01*
X59731649Y-93907906D01*
X59731645Y-93907913D01*
X59682578Y-94039470D01*
X59640707Y-94095404D01*
X59575242Y-94119821D01*
X59506969Y-94104969D01*
X59478715Y-94083819D01*
X59433977Y-94039081D01*
X59356401Y-93961505D01*
X59356397Y-93961502D01*
X59356396Y-93961501D01*
X59162834Y-93825967D01*
X59162830Y-93825965D01*
X59091727Y-93792809D01*
X58948663Y-93726097D01*
X58948659Y-93726096D01*
X58948655Y-93726094D01*
X58720413Y-93664938D01*
X58720403Y-93664936D01*
X58485001Y-93644341D01*
X58484999Y-93644341D01*
X58249596Y-93664936D01*
X58249586Y-93664938D01*
X58021344Y-93726094D01*
X58021335Y-93726098D01*
X57807171Y-93825964D01*
X57807169Y-93825965D01*
X57613597Y-93961505D01*
X57446505Y-94128597D01*
X57316575Y-94314158D01*
X57261998Y-94357783D01*
X57192500Y-94364977D01*
X57130145Y-94333454D01*
X57113425Y-94314158D01*
X56983494Y-94128597D01*
X56816402Y-93961506D01*
X56816395Y-93961501D01*
X56803060Y-93952164D01*
X56739518Y-93907671D01*
X56622834Y-93825967D01*
X56622830Y-93825965D01*
X56551727Y-93792809D01*
X56408663Y-93726097D01*
X56408659Y-93726096D01*
X56408655Y-93726094D01*
X56180413Y-93664938D01*
X56180403Y-93664936D01*
X55945001Y-93644341D01*
X55944999Y-93644341D01*
X55709596Y-93664936D01*
X55709586Y-93664938D01*
X55481344Y-93726094D01*
X55481335Y-93726098D01*
X55267171Y-93825964D01*
X55267169Y-93825965D01*
X55073597Y-93961505D01*
X54906505Y-94128597D01*
X54770965Y-94322169D01*
X54770964Y-94322171D01*
X54671098Y-94536335D01*
X54671094Y-94536344D01*
X54609938Y-94764586D01*
X54609936Y-94764596D01*
X54589341Y-94999999D01*
X54589341Y-95000000D01*
X52201144Y-95000000D01*
X52277510Y-94944517D01*
X52444517Y-94777510D01*
X52583343Y-94586433D01*
X52690568Y-94375992D01*
X52763553Y-94151368D01*
X52800500Y-93918097D01*
X52800500Y-93681902D01*
X52763553Y-93448631D01*
X52690566Y-93224003D01*
X52583342Y-93013566D01*
X52444517Y-92822490D01*
X52277510Y-92655483D01*
X52086433Y-92516657D01*
X51875996Y-92409433D01*
X51651368Y-92336446D01*
X51418097Y-92299500D01*
X51418092Y-92299500D01*
X51181908Y-92299500D01*
X51181903Y-92299500D01*
X50948631Y-92336446D01*
X50724003Y-92409433D01*
X50513566Y-92516657D01*
X50404550Y-92595862D01*
X50322490Y-92655483D01*
X50322488Y-92655485D01*
X50322487Y-92655485D01*
X50155485Y-92822487D01*
X50155485Y-92822488D01*
X50155483Y-92822490D01*
X50109731Y-92885462D01*
X50016657Y-93013566D01*
X49909433Y-93224003D01*
X49836446Y-93448631D01*
X49799500Y-93681902D01*
X49799500Y-93918097D01*
X48550500Y-93918097D01*
X48550500Y-93803480D01*
X48550695Y-93796528D01*
X48555742Y-93706649D01*
X48567398Y-93499097D01*
X48568952Y-93485298D01*
X48618269Y-93195041D01*
X48621363Y-93181489D01*
X48702866Y-92898586D01*
X48707459Y-92885462D01*
X48802719Y-92655483D01*
X48820123Y-92613463D01*
X48826145Y-92600957D01*
X48968566Y-92343267D01*
X48975961Y-92331499D01*
X48982503Y-92322279D01*
X49146330Y-92091385D01*
X49154985Y-92080531D01*
X49351179Y-91860991D01*
X49360991Y-91851179D01*
X49580531Y-91654985D01*
X49591385Y-91646330D01*
X49831504Y-91475957D01*
X49843267Y-91468566D01*
X50100957Y-91326145D01*
X50113463Y-91320123D01*
X50385462Y-91207459D01*
X50398582Y-91202867D01*
X50681494Y-91121361D01*
X50695041Y-91118269D01*
X50985298Y-91068952D01*
X50999097Y-91067398D01*
X51259562Y-91052770D01*
X51296529Y-91050695D01*
X51303481Y-91050500D01*
X51344170Y-91050500D01*
X107255830Y-91050500D01*
X107296519Y-91050500D01*
X107303471Y-91050695D01*
G37*
%TD.AperFunction*%
%TD*%
M02*
