M48
; DRILL file {KiCad 8.0.1} date 2024-11-21T12:07:29+0700
; FORMAT={-:-/ absolute / metric / decimal}
; #@! TF.CreationDate,2024-11-21T12:07:29+07:00
; #@! TF.GenerationSoftware,Kicad,Pcbnew,8.0.1
; #@! TF.FileFunction,MixedPlating,1,2
FMAT,2
METRIC
; #@! TA.AperFunction,Plated,PTH,ViaDrill
T1C0.300
; #@! TA.AperFunction,Plated,PTH,ComponentDrill
T2C1.000
; #@! TA.AperFunction,Plated,PTH,ComponentDrill
T3C1.300
; #@! TA.AperFunction,NonPlated,NPTH,ComponentDrill
T4C2.500
%
G90
G05
T1
X52.19Y-114.39
X55.75Y-107.25
X58.241Y-106.367
X58.8Y-111.5
X58.9Y-114.4
X59.0Y-103.2
X61.0Y-109.1
X61.0Y-111.5
X62.125Y-108.04
X62.2Y-102.4
X63.42Y-120.22
X65.4Y-116.3
X67.8Y-107.8
X68.4Y-94.3
X68.4Y-95.9
X71.0Y-104.0
X71.5Y-99.4
X71.8Y-109.3
X73.7Y-109.3
X74.45Y-102.7
X81.1Y-107.9
X88.7Y-111.3
X90.39Y-109.61
X91.5Y-103.3
T2
X55.945Y-95.0
X58.485Y-95.0
X61.025Y-95.0
X65.16Y-122.5
X67.7Y-122.5
X70.24Y-122.5
X74.0Y-95.0
X76.54Y-95.0
X79.08Y-95.0
X81.62Y-95.0
X82.12Y-98.7
X84.66Y-98.7
X87.2Y-98.7
X89.74Y-98.7
T3
X96.065Y-96.595
X101.145Y-96.595
X104.905Y-112.265
X104.905Y-117.345
T4
X51.3Y-93.8
X51.3Y-123.2
X107.3Y-93.8
X107.3Y-123.2
M30
