%TF.GenerationSoftware,KiCad,Pcbnew,8.0.1*%
%TF.CreationDate,2024-11-21T12:07:33+07:00*%
%TF.ProjectId,Monitor,4d6f6e69-746f-4722-9e6b-696361645f70,rev?*%
%TF.SameCoordinates,Original*%
%TF.FileFunction,Legend,Top*%
%TF.FilePolarity,Positive*%
%FSLAX46Y46*%
G04 Gerber Fmt 4.6, Leading zero omitted, Abs format (unit mm)*
G04 Created by KiCad (PCBNEW 8.0.1) date 2024-11-21 12:07:33*
%MOMM*%
%LPD*%
G01*
G04 APERTURE LIST*
%ADD10C,0.250000*%
%ADD11C,0.360000*%
%ADD12C,0.000000*%
%ADD13C,0.120000*%
%ADD14C,0.127000*%
%ADD15C,0.200000*%
G04 APERTURE END LIST*
D10*
X102764619Y-108940288D02*
X103764619Y-108606955D01*
X103764619Y-108606955D02*
X102764619Y-108273622D01*
X103383666Y-107940288D02*
X103383666Y-107178384D01*
X103764619Y-107559336D02*
X103002714Y-107559336D01*
X61106955Y-97935380D02*
X61011717Y-97935380D01*
X61011717Y-97935380D02*
X60916479Y-97887761D01*
X60916479Y-97887761D02*
X60868860Y-97840142D01*
X60868860Y-97840142D02*
X60821241Y-97744904D01*
X60821241Y-97744904D02*
X60773622Y-97554428D01*
X60773622Y-97554428D02*
X60773622Y-97316333D01*
X60773622Y-97316333D02*
X60821241Y-97125857D01*
X60821241Y-97125857D02*
X60868860Y-97030619D01*
X60868860Y-97030619D02*
X60916479Y-96983000D01*
X60916479Y-96983000D02*
X61011717Y-96935380D01*
X61011717Y-96935380D02*
X61106955Y-96935380D01*
X61106955Y-96935380D02*
X61202193Y-96983000D01*
X61202193Y-96983000D02*
X61249812Y-97030619D01*
X61249812Y-97030619D02*
X61297431Y-97125857D01*
X61297431Y-97125857D02*
X61345050Y-97316333D01*
X61345050Y-97316333D02*
X61345050Y-97554428D01*
X61345050Y-97554428D02*
X61297431Y-97744904D01*
X61297431Y-97744904D02*
X61249812Y-97840142D01*
X61249812Y-97840142D02*
X61202193Y-97887761D01*
X61202193Y-97887761D02*
X61106955Y-97935380D01*
X88645050Y-101083000D02*
X88502193Y-101035380D01*
X88502193Y-101035380D02*
X88264098Y-101035380D01*
X88264098Y-101035380D02*
X88168860Y-101083000D01*
X88168860Y-101083000D02*
X88121241Y-101130619D01*
X88121241Y-101130619D02*
X88073622Y-101225857D01*
X88073622Y-101225857D02*
X88073622Y-101321095D01*
X88073622Y-101321095D02*
X88121241Y-101416333D01*
X88121241Y-101416333D02*
X88168860Y-101463952D01*
X88168860Y-101463952D02*
X88264098Y-101511571D01*
X88264098Y-101511571D02*
X88454574Y-101559190D01*
X88454574Y-101559190D02*
X88549812Y-101606809D01*
X88549812Y-101606809D02*
X88597431Y-101654428D01*
X88597431Y-101654428D02*
X88645050Y-101749666D01*
X88645050Y-101749666D02*
X88645050Y-101844904D01*
X88645050Y-101844904D02*
X88597431Y-101940142D01*
X88597431Y-101940142D02*
X88549812Y-101987761D01*
X88549812Y-101987761D02*
X88454574Y-102035380D01*
X88454574Y-102035380D02*
X88216479Y-102035380D01*
X88216479Y-102035380D02*
X88073622Y-101987761D01*
X87740288Y-102035380D02*
X87502193Y-101035380D01*
X87502193Y-101035380D02*
X87311717Y-101749666D01*
X87311717Y-101749666D02*
X87121241Y-101035380D01*
X87121241Y-101035380D02*
X86883146Y-102035380D01*
X86502193Y-101035380D02*
X86502193Y-102035380D01*
X86502193Y-102035380D02*
X86264098Y-102035380D01*
X86264098Y-102035380D02*
X86121241Y-101987761D01*
X86121241Y-101987761D02*
X86026003Y-101892523D01*
X86026003Y-101892523D02*
X85978384Y-101797285D01*
X85978384Y-101797285D02*
X85930765Y-101606809D01*
X85930765Y-101606809D02*
X85930765Y-101463952D01*
X85930765Y-101463952D02*
X85978384Y-101273476D01*
X85978384Y-101273476D02*
X86026003Y-101178238D01*
X86026003Y-101178238D02*
X86121241Y-101083000D01*
X86121241Y-101083000D02*
X86264098Y-101035380D01*
X86264098Y-101035380D02*
X86502193Y-101035380D01*
X87617000Y-96645050D02*
X87664619Y-96502193D01*
X87664619Y-96502193D02*
X87664619Y-96264098D01*
X87664619Y-96264098D02*
X87617000Y-96168860D01*
X87617000Y-96168860D02*
X87569380Y-96121241D01*
X87569380Y-96121241D02*
X87474142Y-96073622D01*
X87474142Y-96073622D02*
X87378904Y-96073622D01*
X87378904Y-96073622D02*
X87283666Y-96121241D01*
X87283666Y-96121241D02*
X87236047Y-96168860D01*
X87236047Y-96168860D02*
X87188428Y-96264098D01*
X87188428Y-96264098D02*
X87140809Y-96454574D01*
X87140809Y-96454574D02*
X87093190Y-96549812D01*
X87093190Y-96549812D02*
X87045571Y-96597431D01*
X87045571Y-96597431D02*
X86950333Y-96645050D01*
X86950333Y-96645050D02*
X86855095Y-96645050D01*
X86855095Y-96645050D02*
X86759857Y-96597431D01*
X86759857Y-96597431D02*
X86712238Y-96549812D01*
X86712238Y-96549812D02*
X86664619Y-96454574D01*
X86664619Y-96454574D02*
X86664619Y-96216479D01*
X86664619Y-96216479D02*
X86712238Y-96073622D01*
X86664619Y-95740288D02*
X87664619Y-95502193D01*
X87664619Y-95502193D02*
X86950333Y-95311717D01*
X86950333Y-95311717D02*
X87664619Y-95121241D01*
X87664619Y-95121241D02*
X86664619Y-94883146D01*
X87664619Y-94502193D02*
X86664619Y-94502193D01*
X86664619Y-94502193D02*
X86664619Y-94264098D01*
X86664619Y-94264098D02*
X86712238Y-94121241D01*
X86712238Y-94121241D02*
X86807476Y-94026003D01*
X86807476Y-94026003D02*
X86902714Y-93978384D01*
X86902714Y-93978384D02*
X87093190Y-93930765D01*
X87093190Y-93930765D02*
X87236047Y-93930765D01*
X87236047Y-93930765D02*
X87426523Y-93978384D01*
X87426523Y-93978384D02*
X87521761Y-94026003D01*
X87521761Y-94026003D02*
X87617000Y-94121241D01*
X87617000Y-94121241D02*
X87664619Y-94264098D01*
X87664619Y-94264098D02*
X87664619Y-94502193D01*
X87664619Y-93502193D02*
X86664619Y-93502193D01*
X86664619Y-92835527D02*
X86664619Y-92645051D01*
X86664619Y-92645051D02*
X86712238Y-92549813D01*
X86712238Y-92549813D02*
X86807476Y-92454575D01*
X86807476Y-92454575D02*
X86997952Y-92406956D01*
X86997952Y-92406956D02*
X87331285Y-92406956D01*
X87331285Y-92406956D02*
X87521761Y-92454575D01*
X87521761Y-92454575D02*
X87617000Y-92549813D01*
X87617000Y-92549813D02*
X87664619Y-92645051D01*
X87664619Y-92645051D02*
X87664619Y-92835527D01*
X87664619Y-92835527D02*
X87617000Y-92930765D01*
X87617000Y-92930765D02*
X87521761Y-93026003D01*
X87521761Y-93026003D02*
X87331285Y-93073622D01*
X87331285Y-93073622D02*
X86997952Y-93073622D01*
X86997952Y-93073622D02*
X86807476Y-93026003D01*
X86807476Y-93026003D02*
X86712238Y-92930765D01*
X86712238Y-92930765D02*
X86664619Y-92835527D01*
X64559711Y-124464619D02*
X65131139Y-124464619D01*
X64845425Y-125464619D02*
X64845425Y-124464619D01*
X65369235Y-125464619D02*
X65893044Y-124797952D01*
X65369235Y-124797952D02*
X65893044Y-125464619D01*
X55573622Y-96935380D02*
X56145050Y-96935380D01*
X55859336Y-96935380D02*
X55859336Y-97935380D01*
X55859336Y-97935380D02*
X55954574Y-97792523D01*
X55954574Y-97792523D02*
X56049812Y-97697285D01*
X56049812Y-97697285D02*
X56145050Y-97649666D01*
X81512238Y-102973622D02*
X81464619Y-103068860D01*
X81464619Y-103068860D02*
X81464619Y-103211717D01*
X81464619Y-103211717D02*
X81512238Y-103354574D01*
X81512238Y-103354574D02*
X81607476Y-103449812D01*
X81607476Y-103449812D02*
X81702714Y-103497431D01*
X81702714Y-103497431D02*
X81893190Y-103545050D01*
X81893190Y-103545050D02*
X82036047Y-103545050D01*
X82036047Y-103545050D02*
X82226523Y-103497431D01*
X82226523Y-103497431D02*
X82321761Y-103449812D01*
X82321761Y-103449812D02*
X82417000Y-103354574D01*
X82417000Y-103354574D02*
X82464619Y-103211717D01*
X82464619Y-103211717D02*
X82464619Y-103116479D01*
X82464619Y-103116479D02*
X82417000Y-102973622D01*
X82417000Y-102973622D02*
X82369380Y-102926003D01*
X82369380Y-102926003D02*
X82036047Y-102926003D01*
X82036047Y-102926003D02*
X82036047Y-103116479D01*
X82464619Y-102497431D02*
X81464619Y-102497431D01*
X81464619Y-102497431D02*
X82464619Y-101926003D01*
X82464619Y-101926003D02*
X81464619Y-101926003D01*
X82464619Y-101449812D02*
X81464619Y-101449812D01*
X81464619Y-101449812D02*
X81464619Y-101211717D01*
X81464619Y-101211717D02*
X81512238Y-101068860D01*
X81512238Y-101068860D02*
X81607476Y-100973622D01*
X81607476Y-100973622D02*
X81702714Y-100926003D01*
X81702714Y-100926003D02*
X81893190Y-100878384D01*
X81893190Y-100878384D02*
X82036047Y-100878384D01*
X82036047Y-100878384D02*
X82226523Y-100926003D01*
X82226523Y-100926003D02*
X82321761Y-100973622D01*
X82321761Y-100973622D02*
X82417000Y-101068860D01*
X82417000Y-101068860D02*
X82464619Y-101211717D01*
X82464619Y-101211717D02*
X82464619Y-101449812D01*
D11*
X51063481Y-98008270D02*
X49063481Y-98608270D01*
X49063481Y-98608270D02*
X51063481Y-99208270D01*
X49063481Y-100065413D02*
X49158720Y-99893984D01*
X49158720Y-99893984D02*
X49253958Y-99808270D01*
X49253958Y-99808270D02*
X49444434Y-99722556D01*
X49444434Y-99722556D02*
X50015862Y-99722556D01*
X50015862Y-99722556D02*
X50206339Y-99808270D01*
X50206339Y-99808270D02*
X50301577Y-99893984D01*
X50301577Y-99893984D02*
X50396815Y-100065413D01*
X50396815Y-100065413D02*
X50396815Y-100322556D01*
X50396815Y-100322556D02*
X50301577Y-100493984D01*
X50301577Y-100493984D02*
X50206339Y-100579699D01*
X50206339Y-100579699D02*
X50015862Y-100665413D01*
X50015862Y-100665413D02*
X49444434Y-100665413D01*
X49444434Y-100665413D02*
X49253958Y-100579699D01*
X49253958Y-100579699D02*
X49158720Y-100493984D01*
X49158720Y-100493984D02*
X49063481Y-100322556D01*
X49063481Y-100322556D02*
X49063481Y-100065413D01*
X50873005Y-99808270D02*
X50968243Y-99893984D01*
X50968243Y-99893984D02*
X51063481Y-100065413D01*
X51063481Y-100065413D02*
X50873005Y-100408270D01*
X50873005Y-100408270D02*
X50968243Y-100579699D01*
X50968243Y-100579699D02*
X51063481Y-100665413D01*
X51063481Y-102551127D02*
X51063481Y-103579699D01*
X49063481Y-103065413D02*
X51063481Y-103065413D01*
X49063481Y-104179699D02*
X51063481Y-104179699D01*
X49063481Y-104951128D02*
X50111100Y-104951128D01*
X50111100Y-104951128D02*
X50301577Y-104865413D01*
X50301577Y-104865413D02*
X50396815Y-104693985D01*
X50396815Y-104693985D02*
X50396815Y-104436842D01*
X50396815Y-104436842D02*
X50301577Y-104265413D01*
X50301577Y-104265413D02*
X50206339Y-104179699D01*
X49063481Y-106579699D02*
X50111100Y-106579699D01*
X50111100Y-106579699D02*
X50301577Y-106493984D01*
X50301577Y-106493984D02*
X50396815Y-106322556D01*
X50396815Y-106322556D02*
X50396815Y-105979699D01*
X50396815Y-105979699D02*
X50301577Y-105808270D01*
X49158720Y-106579699D02*
X49063481Y-106408270D01*
X49063481Y-106408270D02*
X49063481Y-105979699D01*
X49063481Y-105979699D02*
X49158720Y-105808270D01*
X49158720Y-105808270D02*
X49349196Y-105722556D01*
X49349196Y-105722556D02*
X49539672Y-105722556D01*
X49539672Y-105722556D02*
X49730148Y-105808270D01*
X49730148Y-105808270D02*
X49825386Y-105979699D01*
X49825386Y-105979699D02*
X49825386Y-106408270D01*
X49825386Y-106408270D02*
X49920624Y-106579699D01*
X51158720Y-105979699D02*
X50873005Y-106236841D01*
X50396815Y-107436841D02*
X49063481Y-107436841D01*
X50206339Y-107436841D02*
X50301577Y-107522555D01*
X50301577Y-107522555D02*
X50396815Y-107693984D01*
X50396815Y-107693984D02*
X50396815Y-107951127D01*
X50396815Y-107951127D02*
X50301577Y-108122555D01*
X50301577Y-108122555D02*
X50111100Y-108208270D01*
X50111100Y-108208270D02*
X49063481Y-108208270D01*
X49063481Y-109065412D02*
X51063481Y-109065412D01*
X49063481Y-109836841D02*
X50111100Y-109836841D01*
X50111100Y-109836841D02*
X50301577Y-109751126D01*
X50301577Y-109751126D02*
X50396815Y-109579698D01*
X50396815Y-109579698D02*
X50396815Y-109322555D01*
X50396815Y-109322555D02*
X50301577Y-109151126D01*
X50301577Y-109151126D02*
X50206339Y-109065412D01*
X49063481Y-112065412D02*
X51063481Y-112065412D01*
X51063481Y-112065412D02*
X51063481Y-112493983D01*
X51063481Y-112493983D02*
X50968243Y-112751126D01*
X50968243Y-112751126D02*
X50777767Y-112922555D01*
X50777767Y-112922555D02*
X50587291Y-113008269D01*
X50587291Y-113008269D02*
X50206339Y-113093983D01*
X50206339Y-113093983D02*
X49920624Y-113093983D01*
X49920624Y-113093983D02*
X49539672Y-113008269D01*
X49539672Y-113008269D02*
X49349196Y-112922555D01*
X49349196Y-112922555D02*
X49158720Y-112751126D01*
X49158720Y-112751126D02*
X49063481Y-112493983D01*
X49063481Y-112493983D02*
X49063481Y-112065412D01*
X49063481Y-114636841D02*
X50111100Y-114636841D01*
X50111100Y-114636841D02*
X50301577Y-114551126D01*
X50301577Y-114551126D02*
X50396815Y-114379698D01*
X50396815Y-114379698D02*
X50396815Y-114036841D01*
X50396815Y-114036841D02*
X50301577Y-113865412D01*
X49158720Y-114636841D02*
X49063481Y-114465412D01*
X49063481Y-114465412D02*
X49063481Y-114036841D01*
X49063481Y-114036841D02*
X49158720Y-113865412D01*
X49158720Y-113865412D02*
X49349196Y-113779698D01*
X49349196Y-113779698D02*
X49539672Y-113779698D01*
X49539672Y-113779698D02*
X49730148Y-113865412D01*
X49730148Y-113865412D02*
X49825386Y-114036841D01*
X49825386Y-114036841D02*
X49825386Y-114465412D01*
X49825386Y-114465412D02*
X49920624Y-114636841D01*
X50396815Y-115493983D02*
X49063481Y-115493983D01*
X50206339Y-115493983D02*
X50301577Y-115579697D01*
X50301577Y-115579697D02*
X50396815Y-115751126D01*
X50396815Y-115751126D02*
X50396815Y-116008269D01*
X50396815Y-116008269D02*
X50301577Y-116179697D01*
X50301577Y-116179697D02*
X50111100Y-116265412D01*
X50111100Y-116265412D02*
X49063481Y-116265412D01*
X49063481Y-117122554D02*
X51063481Y-117122554D01*
X49063481Y-117893983D02*
X50111100Y-117893983D01*
X50111100Y-117893983D02*
X50301577Y-117808268D01*
X50301577Y-117808268D02*
X50396815Y-117636840D01*
X50396815Y-117636840D02*
X50396815Y-117379697D01*
X50396815Y-117379697D02*
X50301577Y-117208268D01*
X50301577Y-117208268D02*
X50206339Y-117122554D01*
D10*
X83206955Y-93035380D02*
X83016479Y-93035380D01*
X83016479Y-93035380D02*
X82921241Y-92987761D01*
X82921241Y-92987761D02*
X82826003Y-92892523D01*
X82826003Y-92892523D02*
X82778384Y-92702047D01*
X82778384Y-92702047D02*
X82778384Y-92368714D01*
X82778384Y-92368714D02*
X82826003Y-92178238D01*
X82826003Y-92178238D02*
X82921241Y-92083000D01*
X82921241Y-92083000D02*
X83016479Y-92035380D01*
X83016479Y-92035380D02*
X83206955Y-92035380D01*
X83206955Y-92035380D02*
X83302193Y-92083000D01*
X83302193Y-92083000D02*
X83397431Y-92178238D01*
X83397431Y-92178238D02*
X83445050Y-92368714D01*
X83445050Y-92368714D02*
X83445050Y-92702047D01*
X83445050Y-92702047D02*
X83397431Y-92892523D01*
X83397431Y-92892523D02*
X83302193Y-92987761D01*
X83302193Y-92987761D02*
X83206955Y-93035380D01*
X81873622Y-92035380D02*
X82349812Y-92035380D01*
X82349812Y-92035380D02*
X82349812Y-93035380D01*
X81540288Y-92559190D02*
X81206955Y-92559190D01*
X81064098Y-92035380D02*
X81540288Y-92035380D01*
X81540288Y-92035380D02*
X81540288Y-93035380D01*
X81540288Y-93035380D02*
X81064098Y-93035380D01*
X80635526Y-92035380D02*
X80635526Y-93035380D01*
X80635526Y-93035380D02*
X80397431Y-93035380D01*
X80397431Y-93035380D02*
X80254574Y-92987761D01*
X80254574Y-92987761D02*
X80159336Y-92892523D01*
X80159336Y-92892523D02*
X80111717Y-92797285D01*
X80111717Y-92797285D02*
X80064098Y-92606809D01*
X80064098Y-92606809D02*
X80064098Y-92463952D01*
X80064098Y-92463952D02*
X80111717Y-92273476D01*
X80111717Y-92273476D02*
X80159336Y-92178238D01*
X80159336Y-92178238D02*
X80254574Y-92083000D01*
X80254574Y-92083000D02*
X80397431Y-92035380D01*
X80397431Y-92035380D02*
X80635526Y-92035380D01*
X70026377Y-124512238D02*
X69931139Y-124464619D01*
X69931139Y-124464619D02*
X69788282Y-124464619D01*
X69788282Y-124464619D02*
X69645425Y-124512238D01*
X69645425Y-124512238D02*
X69550187Y-124607476D01*
X69550187Y-124607476D02*
X69502568Y-124702714D01*
X69502568Y-124702714D02*
X69454949Y-124893190D01*
X69454949Y-124893190D02*
X69454949Y-125036047D01*
X69454949Y-125036047D02*
X69502568Y-125226523D01*
X69502568Y-125226523D02*
X69550187Y-125321761D01*
X69550187Y-125321761D02*
X69645425Y-125417000D01*
X69645425Y-125417000D02*
X69788282Y-125464619D01*
X69788282Y-125464619D02*
X69883520Y-125464619D01*
X69883520Y-125464619D02*
X70026377Y-125417000D01*
X70026377Y-125417000D02*
X70073996Y-125369380D01*
X70073996Y-125369380D02*
X70073996Y-125036047D01*
X70073996Y-125036047D02*
X69883520Y-125036047D01*
X70502568Y-125464619D02*
X70502568Y-124464619D01*
X70502568Y-124464619D02*
X71073996Y-125464619D01*
X71073996Y-125464619D02*
X71073996Y-124464619D01*
X71550187Y-125464619D02*
X71550187Y-124464619D01*
X71550187Y-124464619D02*
X71788282Y-124464619D01*
X71788282Y-124464619D02*
X71931139Y-124512238D01*
X71931139Y-124512238D02*
X72026377Y-124607476D01*
X72026377Y-124607476D02*
X72073996Y-124702714D01*
X72073996Y-124702714D02*
X72121615Y-124893190D01*
X72121615Y-124893190D02*
X72121615Y-125036047D01*
X72121615Y-125036047D02*
X72073996Y-125226523D01*
X72073996Y-125226523D02*
X72026377Y-125321761D01*
X72026377Y-125321761D02*
X71931139Y-125417000D01*
X71931139Y-125417000D02*
X71788282Y-125464619D01*
X71788282Y-125464619D02*
X71550187Y-125464619D01*
X67673996Y-125464619D02*
X67340663Y-124988428D01*
X67102568Y-125464619D02*
X67102568Y-124464619D01*
X67102568Y-124464619D02*
X67483520Y-124464619D01*
X67483520Y-124464619D02*
X67578758Y-124512238D01*
X67578758Y-124512238D02*
X67626377Y-124559857D01*
X67626377Y-124559857D02*
X67673996Y-124655095D01*
X67673996Y-124655095D02*
X67673996Y-124797952D01*
X67673996Y-124797952D02*
X67626377Y-124893190D01*
X67626377Y-124893190D02*
X67578758Y-124940809D01*
X67578758Y-124940809D02*
X67483520Y-124988428D01*
X67483520Y-124988428D02*
X67102568Y-124988428D01*
X68007330Y-125464619D02*
X68531139Y-124797952D01*
X68007330Y-124797952D02*
X68531139Y-125464619D01*
X56693996Y-122484619D02*
X56360663Y-122008428D01*
X56122568Y-122484619D02*
X56122568Y-121484619D01*
X56122568Y-121484619D02*
X56503520Y-121484619D01*
X56503520Y-121484619D02*
X56598758Y-121532238D01*
X56598758Y-121532238D02*
X56646377Y-121579857D01*
X56646377Y-121579857D02*
X56693996Y-121675095D01*
X56693996Y-121675095D02*
X56693996Y-121817952D01*
X56693996Y-121817952D02*
X56646377Y-121913190D01*
X56646377Y-121913190D02*
X56598758Y-121960809D01*
X56598758Y-121960809D02*
X56503520Y-122008428D01*
X56503520Y-122008428D02*
X56122568Y-122008428D01*
X57122568Y-121960809D02*
X57455901Y-121960809D01*
X57598758Y-122484619D02*
X57122568Y-122484619D01*
X57122568Y-122484619D02*
X57122568Y-121484619D01*
X57122568Y-121484619D02*
X57598758Y-121484619D01*
X57979711Y-122437000D02*
X58122568Y-122484619D01*
X58122568Y-122484619D02*
X58360663Y-122484619D01*
X58360663Y-122484619D02*
X58455901Y-122437000D01*
X58455901Y-122437000D02*
X58503520Y-122389380D01*
X58503520Y-122389380D02*
X58551139Y-122294142D01*
X58551139Y-122294142D02*
X58551139Y-122198904D01*
X58551139Y-122198904D02*
X58503520Y-122103666D01*
X58503520Y-122103666D02*
X58455901Y-122056047D01*
X58455901Y-122056047D02*
X58360663Y-122008428D01*
X58360663Y-122008428D02*
X58170187Y-121960809D01*
X58170187Y-121960809D02*
X58074949Y-121913190D01*
X58074949Y-121913190D02*
X58027330Y-121865571D01*
X58027330Y-121865571D02*
X57979711Y-121770333D01*
X57979711Y-121770333D02*
X57979711Y-121675095D01*
X57979711Y-121675095D02*
X58027330Y-121579857D01*
X58027330Y-121579857D02*
X58074949Y-121532238D01*
X58074949Y-121532238D02*
X58170187Y-121484619D01*
X58170187Y-121484619D02*
X58408282Y-121484619D01*
X58408282Y-121484619D02*
X58551139Y-121532238D01*
X58979711Y-121960809D02*
X59313044Y-121960809D01*
X59455901Y-122484619D02*
X58979711Y-122484619D01*
X58979711Y-122484619D02*
X58979711Y-121484619D01*
X58979711Y-121484619D02*
X59455901Y-121484619D01*
X59741616Y-121484619D02*
X60313044Y-121484619D01*
X60027330Y-122484619D02*
X60027330Y-121484619D01*
X102912238Y-122773622D02*
X102864619Y-122868860D01*
X102864619Y-122868860D02*
X102864619Y-123011717D01*
X102864619Y-123011717D02*
X102912238Y-123154574D01*
X102912238Y-123154574D02*
X103007476Y-123249812D01*
X103007476Y-123249812D02*
X103102714Y-123297431D01*
X103102714Y-123297431D02*
X103293190Y-123345050D01*
X103293190Y-123345050D02*
X103436047Y-123345050D01*
X103436047Y-123345050D02*
X103626523Y-123297431D01*
X103626523Y-123297431D02*
X103721761Y-123249812D01*
X103721761Y-123249812D02*
X103817000Y-123154574D01*
X103817000Y-123154574D02*
X103864619Y-123011717D01*
X103864619Y-123011717D02*
X103864619Y-122916479D01*
X103864619Y-122916479D02*
X103817000Y-122773622D01*
X103817000Y-122773622D02*
X103769380Y-122726003D01*
X103769380Y-122726003D02*
X103436047Y-122726003D01*
X103436047Y-122726003D02*
X103436047Y-122916479D01*
X103864619Y-122297431D02*
X102864619Y-122297431D01*
X102864619Y-122297431D02*
X103864619Y-121726003D01*
X103864619Y-121726003D02*
X102864619Y-121726003D01*
X103864619Y-121249812D02*
X102864619Y-121249812D01*
X102864619Y-121249812D02*
X102864619Y-121011717D01*
X102864619Y-121011717D02*
X102912238Y-120868860D01*
X102912238Y-120868860D02*
X103007476Y-120773622D01*
X103007476Y-120773622D02*
X103102714Y-120726003D01*
X103102714Y-120726003D02*
X103293190Y-120678384D01*
X103293190Y-120678384D02*
X103436047Y-120678384D01*
X103436047Y-120678384D02*
X103626523Y-120726003D01*
X103626523Y-120726003D02*
X103721761Y-120773622D01*
X103721761Y-120773622D02*
X103817000Y-120868860D01*
X103817000Y-120868860D02*
X103864619Y-121011717D01*
X103864619Y-121011717D02*
X103864619Y-121249812D01*
X97964619Y-115640288D02*
X98964619Y-115306955D01*
X98964619Y-115306955D02*
X97964619Y-114973622D01*
X98964619Y-114640288D02*
X98297952Y-114640288D01*
X97964619Y-114640288D02*
X98012238Y-114687907D01*
X98012238Y-114687907D02*
X98059857Y-114640288D01*
X98059857Y-114640288D02*
X98012238Y-114592669D01*
X98012238Y-114592669D02*
X97964619Y-114640288D01*
X97964619Y-114640288D02*
X98059857Y-114640288D01*
X98297952Y-114164098D02*
X98964619Y-114164098D01*
X98393190Y-114164098D02*
X98345571Y-114116479D01*
X98345571Y-114116479D02*
X98297952Y-114021241D01*
X98297952Y-114021241D02*
X98297952Y-113878384D01*
X98297952Y-113878384D02*
X98345571Y-113783146D01*
X98345571Y-113783146D02*
X98440809Y-113735527D01*
X98440809Y-113735527D02*
X98964619Y-113735527D01*
X89264619Y-96592669D02*
X89264619Y-95973622D01*
X89264619Y-95973622D02*
X89645571Y-96306955D01*
X89645571Y-96306955D02*
X89645571Y-96164098D01*
X89645571Y-96164098D02*
X89693190Y-96068860D01*
X89693190Y-96068860D02*
X89740809Y-96021241D01*
X89740809Y-96021241D02*
X89836047Y-95973622D01*
X89836047Y-95973622D02*
X90074142Y-95973622D01*
X90074142Y-95973622D02*
X90169380Y-96021241D01*
X90169380Y-96021241D02*
X90217000Y-96068860D01*
X90217000Y-96068860D02*
X90264619Y-96164098D01*
X90264619Y-96164098D02*
X90264619Y-96449812D01*
X90264619Y-96449812D02*
X90217000Y-96545050D01*
X90217000Y-96545050D02*
X90169380Y-96592669D01*
X89264619Y-95687907D02*
X90264619Y-95354574D01*
X90264619Y-95354574D02*
X89264619Y-95021241D01*
X89264619Y-94783145D02*
X89264619Y-94164098D01*
X89264619Y-94164098D02*
X89645571Y-94497431D01*
X89645571Y-94497431D02*
X89645571Y-94354574D01*
X89645571Y-94354574D02*
X89693190Y-94259336D01*
X89693190Y-94259336D02*
X89740809Y-94211717D01*
X89740809Y-94211717D02*
X89836047Y-94164098D01*
X89836047Y-94164098D02*
X90074142Y-94164098D01*
X90074142Y-94164098D02*
X90169380Y-94211717D01*
X90169380Y-94211717D02*
X90217000Y-94259336D01*
X90217000Y-94259336D02*
X90264619Y-94354574D01*
X90264619Y-94354574D02*
X90264619Y-94640288D01*
X90264619Y-94640288D02*
X90217000Y-94735526D01*
X90217000Y-94735526D02*
X90169380Y-94783145D01*
X92226003Y-91830619D02*
X92273622Y-91783000D01*
X92273622Y-91783000D02*
X92416479Y-91735380D01*
X92416479Y-91735380D02*
X92511717Y-91735380D01*
X92511717Y-91735380D02*
X92654574Y-91783000D01*
X92654574Y-91783000D02*
X92749812Y-91878238D01*
X92749812Y-91878238D02*
X92797431Y-91973476D01*
X92797431Y-91973476D02*
X92845050Y-92163952D01*
X92845050Y-92163952D02*
X92845050Y-92306809D01*
X92845050Y-92306809D02*
X92797431Y-92497285D01*
X92797431Y-92497285D02*
X92749812Y-92592523D01*
X92749812Y-92592523D02*
X92654574Y-92687761D01*
X92654574Y-92687761D02*
X92511717Y-92735380D01*
X92511717Y-92735380D02*
X92416479Y-92735380D01*
X92416479Y-92735380D02*
X92273622Y-92687761D01*
X92273622Y-92687761D02*
X92226003Y-92640142D01*
X91845050Y-92021095D02*
X91368860Y-92021095D01*
X91940288Y-91735380D02*
X91606955Y-92735380D01*
X91606955Y-92735380D02*
X91273622Y-91735380D01*
X90940288Y-91735380D02*
X90940288Y-92735380D01*
X90940288Y-92735380D02*
X90368860Y-91735380D01*
X90368860Y-91735380D02*
X90368860Y-92735380D01*
X89892669Y-91735380D02*
X89892669Y-92735380D01*
X89892669Y-92259190D02*
X89321241Y-92259190D01*
X89321241Y-91735380D02*
X89321241Y-92735380D01*
X84917000Y-96645050D02*
X84964619Y-96502193D01*
X84964619Y-96502193D02*
X84964619Y-96264098D01*
X84964619Y-96264098D02*
X84917000Y-96168860D01*
X84917000Y-96168860D02*
X84869380Y-96121241D01*
X84869380Y-96121241D02*
X84774142Y-96073622D01*
X84774142Y-96073622D02*
X84678904Y-96073622D01*
X84678904Y-96073622D02*
X84583666Y-96121241D01*
X84583666Y-96121241D02*
X84536047Y-96168860D01*
X84536047Y-96168860D02*
X84488428Y-96264098D01*
X84488428Y-96264098D02*
X84440809Y-96454574D01*
X84440809Y-96454574D02*
X84393190Y-96549812D01*
X84393190Y-96549812D02*
X84345571Y-96597431D01*
X84345571Y-96597431D02*
X84250333Y-96645050D01*
X84250333Y-96645050D02*
X84155095Y-96645050D01*
X84155095Y-96645050D02*
X84059857Y-96597431D01*
X84059857Y-96597431D02*
X84012238Y-96549812D01*
X84012238Y-96549812D02*
X83964619Y-96454574D01*
X83964619Y-96454574D02*
X83964619Y-96216479D01*
X83964619Y-96216479D02*
X84012238Y-96073622D01*
X83964619Y-95740288D02*
X84964619Y-95502193D01*
X84964619Y-95502193D02*
X84250333Y-95311717D01*
X84250333Y-95311717D02*
X84964619Y-95121241D01*
X84964619Y-95121241D02*
X83964619Y-94883146D01*
X84869380Y-93930765D02*
X84917000Y-93978384D01*
X84917000Y-93978384D02*
X84964619Y-94121241D01*
X84964619Y-94121241D02*
X84964619Y-94216479D01*
X84964619Y-94216479D02*
X84917000Y-94359336D01*
X84917000Y-94359336D02*
X84821761Y-94454574D01*
X84821761Y-94454574D02*
X84726523Y-94502193D01*
X84726523Y-94502193D02*
X84536047Y-94549812D01*
X84536047Y-94549812D02*
X84393190Y-94549812D01*
X84393190Y-94549812D02*
X84202714Y-94502193D01*
X84202714Y-94502193D02*
X84107476Y-94454574D01*
X84107476Y-94454574D02*
X84012238Y-94359336D01*
X84012238Y-94359336D02*
X83964619Y-94216479D01*
X83964619Y-94216479D02*
X83964619Y-94121241D01*
X83964619Y-94121241D02*
X84012238Y-93978384D01*
X84012238Y-93978384D02*
X84059857Y-93930765D01*
X84964619Y-93026003D02*
X84964619Y-93502193D01*
X84964619Y-93502193D02*
X83964619Y-93502193D01*
X84964619Y-92692669D02*
X83964619Y-92692669D01*
X84964619Y-92121241D02*
X84393190Y-92549812D01*
X83964619Y-92121241D02*
X84536047Y-92692669D01*
X76917000Y-99445050D02*
X76964619Y-99302193D01*
X76964619Y-99302193D02*
X76964619Y-99064098D01*
X76964619Y-99064098D02*
X76917000Y-98968860D01*
X76917000Y-98968860D02*
X76869380Y-98921241D01*
X76869380Y-98921241D02*
X76774142Y-98873622D01*
X76774142Y-98873622D02*
X76678904Y-98873622D01*
X76678904Y-98873622D02*
X76583666Y-98921241D01*
X76583666Y-98921241D02*
X76536047Y-98968860D01*
X76536047Y-98968860D02*
X76488428Y-99064098D01*
X76488428Y-99064098D02*
X76440809Y-99254574D01*
X76440809Y-99254574D02*
X76393190Y-99349812D01*
X76393190Y-99349812D02*
X76345571Y-99397431D01*
X76345571Y-99397431D02*
X76250333Y-99445050D01*
X76250333Y-99445050D02*
X76155095Y-99445050D01*
X76155095Y-99445050D02*
X76059857Y-99397431D01*
X76059857Y-99397431D02*
X76012238Y-99349812D01*
X76012238Y-99349812D02*
X75964619Y-99254574D01*
X75964619Y-99254574D02*
X75964619Y-99016479D01*
X75964619Y-99016479D02*
X76012238Y-98873622D01*
X76869380Y-97873622D02*
X76917000Y-97921241D01*
X76917000Y-97921241D02*
X76964619Y-98064098D01*
X76964619Y-98064098D02*
X76964619Y-98159336D01*
X76964619Y-98159336D02*
X76917000Y-98302193D01*
X76917000Y-98302193D02*
X76821761Y-98397431D01*
X76821761Y-98397431D02*
X76726523Y-98445050D01*
X76726523Y-98445050D02*
X76536047Y-98492669D01*
X76536047Y-98492669D02*
X76393190Y-98492669D01*
X76393190Y-98492669D02*
X76202714Y-98445050D01*
X76202714Y-98445050D02*
X76107476Y-98397431D01*
X76107476Y-98397431D02*
X76012238Y-98302193D01*
X76012238Y-98302193D02*
X75964619Y-98159336D01*
X75964619Y-98159336D02*
X75964619Y-98064098D01*
X75964619Y-98064098D02*
X76012238Y-97921241D01*
X76012238Y-97921241D02*
X76059857Y-97873622D01*
X76964619Y-96968860D02*
X76964619Y-97445050D01*
X76964619Y-97445050D02*
X75964619Y-97445050D01*
X59864098Y-92459190D02*
X59721241Y-92411571D01*
X59721241Y-92411571D02*
X59673622Y-92363952D01*
X59673622Y-92363952D02*
X59626003Y-92268714D01*
X59626003Y-92268714D02*
X59626003Y-92125857D01*
X59626003Y-92125857D02*
X59673622Y-92030619D01*
X59673622Y-92030619D02*
X59721241Y-91983000D01*
X59721241Y-91983000D02*
X59816479Y-91935380D01*
X59816479Y-91935380D02*
X60197431Y-91935380D01*
X60197431Y-91935380D02*
X60197431Y-92935380D01*
X60197431Y-92935380D02*
X59864098Y-92935380D01*
X59864098Y-92935380D02*
X59768860Y-92887761D01*
X59768860Y-92887761D02*
X59721241Y-92840142D01*
X59721241Y-92840142D02*
X59673622Y-92744904D01*
X59673622Y-92744904D02*
X59673622Y-92649666D01*
X59673622Y-92649666D02*
X59721241Y-92554428D01*
X59721241Y-92554428D02*
X59768860Y-92506809D01*
X59768860Y-92506809D02*
X59864098Y-92459190D01*
X59864098Y-92459190D02*
X60197431Y-92459190D01*
X59006955Y-92935380D02*
X58816479Y-92935380D01*
X58816479Y-92935380D02*
X58721241Y-92887761D01*
X58721241Y-92887761D02*
X58626003Y-92792523D01*
X58626003Y-92792523D02*
X58578384Y-92602047D01*
X58578384Y-92602047D02*
X58578384Y-92268714D01*
X58578384Y-92268714D02*
X58626003Y-92078238D01*
X58626003Y-92078238D02*
X58721241Y-91983000D01*
X58721241Y-91983000D02*
X58816479Y-91935380D01*
X58816479Y-91935380D02*
X59006955Y-91935380D01*
X59006955Y-91935380D02*
X59102193Y-91983000D01*
X59102193Y-91983000D02*
X59197431Y-92078238D01*
X59197431Y-92078238D02*
X59245050Y-92268714D01*
X59245050Y-92268714D02*
X59245050Y-92602047D01*
X59245050Y-92602047D02*
X59197431Y-92792523D01*
X59197431Y-92792523D02*
X59102193Y-92887761D01*
X59102193Y-92887761D02*
X59006955Y-92935380D01*
X57959336Y-92935380D02*
X57768860Y-92935380D01*
X57768860Y-92935380D02*
X57673622Y-92887761D01*
X57673622Y-92887761D02*
X57578384Y-92792523D01*
X57578384Y-92792523D02*
X57530765Y-92602047D01*
X57530765Y-92602047D02*
X57530765Y-92268714D01*
X57530765Y-92268714D02*
X57578384Y-92078238D01*
X57578384Y-92078238D02*
X57673622Y-91983000D01*
X57673622Y-91983000D02*
X57768860Y-91935380D01*
X57768860Y-91935380D02*
X57959336Y-91935380D01*
X57959336Y-91935380D02*
X58054574Y-91983000D01*
X58054574Y-91983000D02*
X58149812Y-92078238D01*
X58149812Y-92078238D02*
X58197431Y-92268714D01*
X58197431Y-92268714D02*
X58197431Y-92602047D01*
X58197431Y-92602047D02*
X58149812Y-92792523D01*
X58149812Y-92792523D02*
X58054574Y-92887761D01*
X58054574Y-92887761D02*
X57959336Y-92935380D01*
X57245050Y-92935380D02*
X56673622Y-92935380D01*
X56959336Y-91935380D02*
X56959336Y-92935380D01*
X74417000Y-99545050D02*
X74464619Y-99402193D01*
X74464619Y-99402193D02*
X74464619Y-99164098D01*
X74464619Y-99164098D02*
X74417000Y-99068860D01*
X74417000Y-99068860D02*
X74369380Y-99021241D01*
X74369380Y-99021241D02*
X74274142Y-98973622D01*
X74274142Y-98973622D02*
X74178904Y-98973622D01*
X74178904Y-98973622D02*
X74083666Y-99021241D01*
X74083666Y-99021241D02*
X74036047Y-99068860D01*
X74036047Y-99068860D02*
X73988428Y-99164098D01*
X73988428Y-99164098D02*
X73940809Y-99354574D01*
X73940809Y-99354574D02*
X73893190Y-99449812D01*
X73893190Y-99449812D02*
X73845571Y-99497431D01*
X73845571Y-99497431D02*
X73750333Y-99545050D01*
X73750333Y-99545050D02*
X73655095Y-99545050D01*
X73655095Y-99545050D02*
X73559857Y-99497431D01*
X73559857Y-99497431D02*
X73512238Y-99449812D01*
X73512238Y-99449812D02*
X73464619Y-99354574D01*
X73464619Y-99354574D02*
X73464619Y-99116479D01*
X73464619Y-99116479D02*
X73512238Y-98973622D01*
X74464619Y-98545050D02*
X73464619Y-98545050D01*
X73464619Y-98545050D02*
X73464619Y-98306955D01*
X73464619Y-98306955D02*
X73512238Y-98164098D01*
X73512238Y-98164098D02*
X73607476Y-98068860D01*
X73607476Y-98068860D02*
X73702714Y-98021241D01*
X73702714Y-98021241D02*
X73893190Y-97973622D01*
X73893190Y-97973622D02*
X74036047Y-97973622D01*
X74036047Y-97973622D02*
X74226523Y-98021241D01*
X74226523Y-98021241D02*
X74321761Y-98068860D01*
X74321761Y-98068860D02*
X74417000Y-98164098D01*
X74417000Y-98164098D02*
X74464619Y-98306955D01*
X74464619Y-98306955D02*
X74464619Y-98545050D01*
X74178904Y-97592669D02*
X74178904Y-97116479D01*
X74464619Y-97687907D02*
X73464619Y-97354574D01*
X73464619Y-97354574D02*
X74464619Y-97021241D01*
X107226003Y-100730619D02*
X107273622Y-100683000D01*
X107273622Y-100683000D02*
X107416479Y-100635380D01*
X107416479Y-100635380D02*
X107511717Y-100635380D01*
X107511717Y-100635380D02*
X107654574Y-100683000D01*
X107654574Y-100683000D02*
X107749812Y-100778238D01*
X107749812Y-100778238D02*
X107797431Y-100873476D01*
X107797431Y-100873476D02*
X107845050Y-101063952D01*
X107845050Y-101063952D02*
X107845050Y-101206809D01*
X107845050Y-101206809D02*
X107797431Y-101397285D01*
X107797431Y-101397285D02*
X107749812Y-101492523D01*
X107749812Y-101492523D02*
X107654574Y-101587761D01*
X107654574Y-101587761D02*
X107511717Y-101635380D01*
X107511717Y-101635380D02*
X107416479Y-101635380D01*
X107416479Y-101635380D02*
X107273622Y-101587761D01*
X107273622Y-101587761D02*
X107226003Y-101540142D01*
X106845050Y-100921095D02*
X106368860Y-100921095D01*
X106940288Y-100635380D02*
X106606955Y-101635380D01*
X106606955Y-101635380D02*
X106273622Y-100635380D01*
X105940288Y-100635380D02*
X105940288Y-101635380D01*
X105940288Y-101635380D02*
X105368860Y-100635380D01*
X105368860Y-100635380D02*
X105368860Y-101635380D01*
X104416479Y-100635380D02*
X104892669Y-100635380D01*
X104892669Y-100635380D02*
X104892669Y-101635380D01*
X78712238Y-99073622D02*
X78664619Y-99168860D01*
X78664619Y-99168860D02*
X78664619Y-99311717D01*
X78664619Y-99311717D02*
X78712238Y-99454574D01*
X78712238Y-99454574D02*
X78807476Y-99549812D01*
X78807476Y-99549812D02*
X78902714Y-99597431D01*
X78902714Y-99597431D02*
X79093190Y-99645050D01*
X79093190Y-99645050D02*
X79236047Y-99645050D01*
X79236047Y-99645050D02*
X79426523Y-99597431D01*
X79426523Y-99597431D02*
X79521761Y-99549812D01*
X79521761Y-99549812D02*
X79617000Y-99454574D01*
X79617000Y-99454574D02*
X79664619Y-99311717D01*
X79664619Y-99311717D02*
X79664619Y-99216479D01*
X79664619Y-99216479D02*
X79617000Y-99073622D01*
X79617000Y-99073622D02*
X79569380Y-99026003D01*
X79569380Y-99026003D02*
X79236047Y-99026003D01*
X79236047Y-99026003D02*
X79236047Y-99216479D01*
X79664619Y-98597431D02*
X78664619Y-98597431D01*
X78664619Y-98597431D02*
X79664619Y-98026003D01*
X79664619Y-98026003D02*
X78664619Y-98026003D01*
X79664619Y-97549812D02*
X78664619Y-97549812D01*
X78664619Y-97549812D02*
X78664619Y-97311717D01*
X78664619Y-97311717D02*
X78712238Y-97168860D01*
X78712238Y-97168860D02*
X78807476Y-97073622D01*
X78807476Y-97073622D02*
X78902714Y-97026003D01*
X78902714Y-97026003D02*
X79093190Y-96978384D01*
X79093190Y-96978384D02*
X79236047Y-96978384D01*
X79236047Y-96978384D02*
X79426523Y-97026003D01*
X79426523Y-97026003D02*
X79521761Y-97073622D01*
X79521761Y-97073622D02*
X79617000Y-97168860D01*
X79617000Y-97168860D02*
X79664619Y-97311717D01*
X79664619Y-97311717D02*
X79664619Y-97549812D01*
X98866666Y-102449619D02*
X98866666Y-103163904D01*
X98866666Y-103163904D02*
X98819047Y-103306761D01*
X98819047Y-103306761D02*
X98723809Y-103402000D01*
X98723809Y-103402000D02*
X98580952Y-103449619D01*
X98580952Y-103449619D02*
X98485714Y-103449619D01*
X99295238Y-102544857D02*
X99342857Y-102497238D01*
X99342857Y-102497238D02*
X99438095Y-102449619D01*
X99438095Y-102449619D02*
X99676190Y-102449619D01*
X99676190Y-102449619D02*
X99771428Y-102497238D01*
X99771428Y-102497238D02*
X99819047Y-102544857D01*
X99819047Y-102544857D02*
X99866666Y-102640095D01*
X99866666Y-102640095D02*
X99866666Y-102735333D01*
X99866666Y-102735333D02*
X99819047Y-102878190D01*
X99819047Y-102878190D02*
X99247619Y-103449619D01*
X99247619Y-103449619D02*
X99866666Y-103449619D01*
X96133333Y-103949619D02*
X95800000Y-103473428D01*
X95561905Y-103949619D02*
X95561905Y-102949619D01*
X95561905Y-102949619D02*
X95942857Y-102949619D01*
X95942857Y-102949619D02*
X96038095Y-102997238D01*
X96038095Y-102997238D02*
X96085714Y-103044857D01*
X96085714Y-103044857D02*
X96133333Y-103140095D01*
X96133333Y-103140095D02*
X96133333Y-103282952D01*
X96133333Y-103282952D02*
X96085714Y-103378190D01*
X96085714Y-103378190D02*
X96038095Y-103425809D01*
X96038095Y-103425809D02*
X95942857Y-103473428D01*
X95942857Y-103473428D02*
X95561905Y-103473428D01*
X97038095Y-102949619D02*
X96561905Y-102949619D01*
X96561905Y-102949619D02*
X96514286Y-103425809D01*
X96514286Y-103425809D02*
X96561905Y-103378190D01*
X96561905Y-103378190D02*
X96657143Y-103330571D01*
X96657143Y-103330571D02*
X96895238Y-103330571D01*
X96895238Y-103330571D02*
X96990476Y-103378190D01*
X96990476Y-103378190D02*
X97038095Y-103425809D01*
X97038095Y-103425809D02*
X97085714Y-103521047D01*
X97085714Y-103521047D02*
X97085714Y-103759142D01*
X97085714Y-103759142D02*
X97038095Y-103854380D01*
X97038095Y-103854380D02*
X96990476Y-103902000D01*
X96990476Y-103902000D02*
X96895238Y-103949619D01*
X96895238Y-103949619D02*
X96657143Y-103949619D01*
X96657143Y-103949619D02*
X96561905Y-103902000D01*
X96561905Y-103902000D02*
X96514286Y-103854380D01*
X90366666Y-100649619D02*
X90366666Y-101363904D01*
X90366666Y-101363904D02*
X90319047Y-101506761D01*
X90319047Y-101506761D02*
X90223809Y-101602000D01*
X90223809Y-101602000D02*
X90080952Y-101649619D01*
X90080952Y-101649619D02*
X89985714Y-101649619D01*
X91319047Y-100649619D02*
X90842857Y-100649619D01*
X90842857Y-100649619D02*
X90795238Y-101125809D01*
X90795238Y-101125809D02*
X90842857Y-101078190D01*
X90842857Y-101078190D02*
X90938095Y-101030571D01*
X90938095Y-101030571D02*
X91176190Y-101030571D01*
X91176190Y-101030571D02*
X91271428Y-101078190D01*
X91271428Y-101078190D02*
X91319047Y-101125809D01*
X91319047Y-101125809D02*
X91366666Y-101221047D01*
X91366666Y-101221047D02*
X91366666Y-101459142D01*
X91366666Y-101459142D02*
X91319047Y-101554380D01*
X91319047Y-101554380D02*
X91271428Y-101602000D01*
X91271428Y-101602000D02*
X91176190Y-101649619D01*
X91176190Y-101649619D02*
X90938095Y-101649619D01*
X90938095Y-101649619D02*
X90842857Y-101602000D01*
X90842857Y-101602000D02*
X90795238Y-101554380D01*
X53502000Y-119733332D02*
X53549619Y-119590475D01*
X53549619Y-119590475D02*
X53549619Y-119352380D01*
X53549619Y-119352380D02*
X53502000Y-119257142D01*
X53502000Y-119257142D02*
X53454380Y-119209523D01*
X53454380Y-119209523D02*
X53359142Y-119161904D01*
X53359142Y-119161904D02*
X53263904Y-119161904D01*
X53263904Y-119161904D02*
X53168666Y-119209523D01*
X53168666Y-119209523D02*
X53121047Y-119257142D01*
X53121047Y-119257142D02*
X53073428Y-119352380D01*
X53073428Y-119352380D02*
X53025809Y-119542856D01*
X53025809Y-119542856D02*
X52978190Y-119638094D01*
X52978190Y-119638094D02*
X52930571Y-119685713D01*
X52930571Y-119685713D02*
X52835333Y-119733332D01*
X52835333Y-119733332D02*
X52740095Y-119733332D01*
X52740095Y-119733332D02*
X52644857Y-119685713D01*
X52644857Y-119685713D02*
X52597238Y-119638094D01*
X52597238Y-119638094D02*
X52549619Y-119542856D01*
X52549619Y-119542856D02*
X52549619Y-119304761D01*
X52549619Y-119304761D02*
X52597238Y-119161904D01*
X52549619Y-118828570D02*
X53549619Y-118590475D01*
X53549619Y-118590475D02*
X52835333Y-118399999D01*
X52835333Y-118399999D02*
X53549619Y-118209523D01*
X53549619Y-118209523D02*
X52549619Y-117971428D01*
X53549619Y-117066666D02*
X53549619Y-117638094D01*
X53549619Y-117352380D02*
X52549619Y-117352380D01*
X52549619Y-117352380D02*
X52692476Y-117447618D01*
X52692476Y-117447618D02*
X52787714Y-117542856D01*
X52787714Y-117542856D02*
X52835333Y-117638094D01*
X88957142Y-111754380D02*
X88909523Y-111802000D01*
X88909523Y-111802000D02*
X88766666Y-111849619D01*
X88766666Y-111849619D02*
X88671428Y-111849619D01*
X88671428Y-111849619D02*
X88528571Y-111802000D01*
X88528571Y-111802000D02*
X88433333Y-111706761D01*
X88433333Y-111706761D02*
X88385714Y-111611523D01*
X88385714Y-111611523D02*
X88338095Y-111421047D01*
X88338095Y-111421047D02*
X88338095Y-111278190D01*
X88338095Y-111278190D02*
X88385714Y-111087714D01*
X88385714Y-111087714D02*
X88433333Y-110992476D01*
X88433333Y-110992476D02*
X88528571Y-110897238D01*
X88528571Y-110897238D02*
X88671428Y-110849619D01*
X88671428Y-110849619D02*
X88766666Y-110849619D01*
X88766666Y-110849619D02*
X88909523Y-110897238D01*
X88909523Y-110897238D02*
X88957142Y-110944857D01*
X89909523Y-111849619D02*
X89338095Y-111849619D01*
X89623809Y-111849619D02*
X89623809Y-110849619D01*
X89623809Y-110849619D02*
X89528571Y-110992476D01*
X89528571Y-110992476D02*
X89433333Y-111087714D01*
X89433333Y-111087714D02*
X89338095Y-111135333D01*
X90766666Y-111182952D02*
X90766666Y-111849619D01*
X90528571Y-110802000D02*
X90290476Y-111516285D01*
X90290476Y-111516285D02*
X90909523Y-111516285D01*
X62338095Y-98744619D02*
X62338095Y-99554142D01*
X62338095Y-99554142D02*
X62385714Y-99649380D01*
X62385714Y-99649380D02*
X62433333Y-99697000D01*
X62433333Y-99697000D02*
X62528571Y-99744619D01*
X62528571Y-99744619D02*
X62719047Y-99744619D01*
X62719047Y-99744619D02*
X62814285Y-99697000D01*
X62814285Y-99697000D02*
X62861904Y-99649380D01*
X62861904Y-99649380D02*
X62909523Y-99554142D01*
X62909523Y-99554142D02*
X62909523Y-98744619D01*
X63909523Y-99744619D02*
X63338095Y-99744619D01*
X63623809Y-99744619D02*
X63623809Y-98744619D01*
X63623809Y-98744619D02*
X63528571Y-98887476D01*
X63528571Y-98887476D02*
X63433333Y-98982714D01*
X63433333Y-98982714D02*
X63338095Y-99030333D01*
X71354380Y-107166666D02*
X71402000Y-107214285D01*
X71402000Y-107214285D02*
X71449619Y-107357142D01*
X71449619Y-107357142D02*
X71449619Y-107452380D01*
X71449619Y-107452380D02*
X71402000Y-107595237D01*
X71402000Y-107595237D02*
X71306761Y-107690475D01*
X71306761Y-107690475D02*
X71211523Y-107738094D01*
X71211523Y-107738094D02*
X71021047Y-107785713D01*
X71021047Y-107785713D02*
X70878190Y-107785713D01*
X70878190Y-107785713D02*
X70687714Y-107738094D01*
X70687714Y-107738094D02*
X70592476Y-107690475D01*
X70592476Y-107690475D02*
X70497238Y-107595237D01*
X70497238Y-107595237D02*
X70449619Y-107452380D01*
X70449619Y-107452380D02*
X70449619Y-107357142D01*
X70449619Y-107357142D02*
X70497238Y-107214285D01*
X70497238Y-107214285D02*
X70544857Y-107166666D01*
X70782952Y-106309523D02*
X71449619Y-106309523D01*
X70402000Y-106547618D02*
X71116285Y-106785713D01*
X71116285Y-106785713D02*
X71116285Y-106166666D01*
X73686666Y-91949619D02*
X73686666Y-92663904D01*
X73686666Y-92663904D02*
X73639047Y-92806761D01*
X73639047Y-92806761D02*
X73543809Y-92902000D01*
X73543809Y-92902000D02*
X73400952Y-92949619D01*
X73400952Y-92949619D02*
X73305714Y-92949619D01*
X74591428Y-91949619D02*
X74400952Y-91949619D01*
X74400952Y-91949619D02*
X74305714Y-91997238D01*
X74305714Y-91997238D02*
X74258095Y-92044857D01*
X74258095Y-92044857D02*
X74162857Y-92187714D01*
X74162857Y-92187714D02*
X74115238Y-92378190D01*
X74115238Y-92378190D02*
X74115238Y-92759142D01*
X74115238Y-92759142D02*
X74162857Y-92854380D01*
X74162857Y-92854380D02*
X74210476Y-92902000D01*
X74210476Y-92902000D02*
X74305714Y-92949619D01*
X74305714Y-92949619D02*
X74496190Y-92949619D01*
X74496190Y-92949619D02*
X74591428Y-92902000D01*
X74591428Y-92902000D02*
X74639047Y-92854380D01*
X74639047Y-92854380D02*
X74686666Y-92759142D01*
X74686666Y-92759142D02*
X74686666Y-92521047D01*
X74686666Y-92521047D02*
X74639047Y-92425809D01*
X74639047Y-92425809D02*
X74591428Y-92378190D01*
X74591428Y-92378190D02*
X74496190Y-92330571D01*
X74496190Y-92330571D02*
X74305714Y-92330571D01*
X74305714Y-92330571D02*
X74210476Y-92378190D01*
X74210476Y-92378190D02*
X74162857Y-92425809D01*
X74162857Y-92425809D02*
X74115238Y-92521047D01*
X82549619Y-110542857D02*
X82073428Y-110876190D01*
X82549619Y-111114285D02*
X81549619Y-111114285D01*
X81549619Y-111114285D02*
X81549619Y-110733333D01*
X81549619Y-110733333D02*
X81597238Y-110638095D01*
X81597238Y-110638095D02*
X81644857Y-110590476D01*
X81644857Y-110590476D02*
X81740095Y-110542857D01*
X81740095Y-110542857D02*
X81882952Y-110542857D01*
X81882952Y-110542857D02*
X81978190Y-110590476D01*
X81978190Y-110590476D02*
X82025809Y-110638095D01*
X82025809Y-110638095D02*
X82073428Y-110733333D01*
X82073428Y-110733333D02*
X82073428Y-111114285D01*
X82549619Y-109590476D02*
X82549619Y-110161904D01*
X82549619Y-109876190D02*
X81549619Y-109876190D01*
X81549619Y-109876190D02*
X81692476Y-109971428D01*
X81692476Y-109971428D02*
X81787714Y-110066666D01*
X81787714Y-110066666D02*
X81835333Y-110161904D01*
X81549619Y-108971428D02*
X81549619Y-108876190D01*
X81549619Y-108876190D02*
X81597238Y-108780952D01*
X81597238Y-108780952D02*
X81644857Y-108733333D01*
X81644857Y-108733333D02*
X81740095Y-108685714D01*
X81740095Y-108685714D02*
X81930571Y-108638095D01*
X81930571Y-108638095D02*
X82168666Y-108638095D01*
X82168666Y-108638095D02*
X82359142Y-108685714D01*
X82359142Y-108685714D02*
X82454380Y-108733333D01*
X82454380Y-108733333D02*
X82502000Y-108780952D01*
X82502000Y-108780952D02*
X82549619Y-108876190D01*
X82549619Y-108876190D02*
X82549619Y-108971428D01*
X82549619Y-108971428D02*
X82502000Y-109066666D01*
X82502000Y-109066666D02*
X82454380Y-109114285D01*
X82454380Y-109114285D02*
X82359142Y-109161904D01*
X82359142Y-109161904D02*
X82168666Y-109209523D01*
X82168666Y-109209523D02*
X81930571Y-109209523D01*
X81930571Y-109209523D02*
X81740095Y-109161904D01*
X81740095Y-109161904D02*
X81644857Y-109114285D01*
X81644857Y-109114285D02*
X81597238Y-109066666D01*
X81597238Y-109066666D02*
X81549619Y-108971428D01*
X69757142Y-112154380D02*
X69709523Y-112202000D01*
X69709523Y-112202000D02*
X69566666Y-112249619D01*
X69566666Y-112249619D02*
X69471428Y-112249619D01*
X69471428Y-112249619D02*
X69328571Y-112202000D01*
X69328571Y-112202000D02*
X69233333Y-112106761D01*
X69233333Y-112106761D02*
X69185714Y-112011523D01*
X69185714Y-112011523D02*
X69138095Y-111821047D01*
X69138095Y-111821047D02*
X69138095Y-111678190D01*
X69138095Y-111678190D02*
X69185714Y-111487714D01*
X69185714Y-111487714D02*
X69233333Y-111392476D01*
X69233333Y-111392476D02*
X69328571Y-111297238D01*
X69328571Y-111297238D02*
X69471428Y-111249619D01*
X69471428Y-111249619D02*
X69566666Y-111249619D01*
X69566666Y-111249619D02*
X69709523Y-111297238D01*
X69709523Y-111297238D02*
X69757142Y-111344857D01*
X70709523Y-112249619D02*
X70138095Y-112249619D01*
X70423809Y-112249619D02*
X70423809Y-111249619D01*
X70423809Y-111249619D02*
X70328571Y-111392476D01*
X70328571Y-111392476D02*
X70233333Y-111487714D01*
X70233333Y-111487714D02*
X70138095Y-111535333D01*
X71185714Y-112249619D02*
X71376190Y-112249619D01*
X71376190Y-112249619D02*
X71471428Y-112202000D01*
X71471428Y-112202000D02*
X71519047Y-112154380D01*
X71519047Y-112154380D02*
X71614285Y-112011523D01*
X71614285Y-112011523D02*
X71661904Y-111821047D01*
X71661904Y-111821047D02*
X71661904Y-111440095D01*
X71661904Y-111440095D02*
X71614285Y-111344857D01*
X71614285Y-111344857D02*
X71566666Y-111297238D01*
X71566666Y-111297238D02*
X71471428Y-111249619D01*
X71471428Y-111249619D02*
X71280952Y-111249619D01*
X71280952Y-111249619D02*
X71185714Y-111297238D01*
X71185714Y-111297238D02*
X71138095Y-111344857D01*
X71138095Y-111344857D02*
X71090476Y-111440095D01*
X71090476Y-111440095D02*
X71090476Y-111678190D01*
X71090476Y-111678190D02*
X71138095Y-111773428D01*
X71138095Y-111773428D02*
X71185714Y-111821047D01*
X71185714Y-111821047D02*
X71280952Y-111868666D01*
X71280952Y-111868666D02*
X71471428Y-111868666D01*
X71471428Y-111868666D02*
X71566666Y-111821047D01*
X71566666Y-111821047D02*
X71614285Y-111773428D01*
X71614285Y-111773428D02*
X71661904Y-111678190D01*
X60333333Y-114754380D02*
X60285714Y-114802000D01*
X60285714Y-114802000D02*
X60142857Y-114849619D01*
X60142857Y-114849619D02*
X60047619Y-114849619D01*
X60047619Y-114849619D02*
X59904762Y-114802000D01*
X59904762Y-114802000D02*
X59809524Y-114706761D01*
X59809524Y-114706761D02*
X59761905Y-114611523D01*
X59761905Y-114611523D02*
X59714286Y-114421047D01*
X59714286Y-114421047D02*
X59714286Y-114278190D01*
X59714286Y-114278190D02*
X59761905Y-114087714D01*
X59761905Y-114087714D02*
X59809524Y-113992476D01*
X59809524Y-113992476D02*
X59904762Y-113897238D01*
X59904762Y-113897238D02*
X60047619Y-113849619D01*
X60047619Y-113849619D02*
X60142857Y-113849619D01*
X60142857Y-113849619D02*
X60285714Y-113897238D01*
X60285714Y-113897238D02*
X60333333Y-113944857D01*
X60714286Y-113944857D02*
X60761905Y-113897238D01*
X60761905Y-113897238D02*
X60857143Y-113849619D01*
X60857143Y-113849619D02*
X61095238Y-113849619D01*
X61095238Y-113849619D02*
X61190476Y-113897238D01*
X61190476Y-113897238D02*
X61238095Y-113944857D01*
X61238095Y-113944857D02*
X61285714Y-114040095D01*
X61285714Y-114040095D02*
X61285714Y-114135333D01*
X61285714Y-114135333D02*
X61238095Y-114278190D01*
X61238095Y-114278190D02*
X60666667Y-114849619D01*
X60666667Y-114849619D02*
X61285714Y-114849619D01*
X68549619Y-112850594D02*
X67549619Y-112850594D01*
X67549619Y-112850594D02*
X67549619Y-112612499D01*
X67549619Y-112612499D02*
X67597238Y-112469642D01*
X67597238Y-112469642D02*
X67692476Y-112374404D01*
X67692476Y-112374404D02*
X67787714Y-112326785D01*
X67787714Y-112326785D02*
X67978190Y-112279166D01*
X67978190Y-112279166D02*
X68121047Y-112279166D01*
X68121047Y-112279166D02*
X68311523Y-112326785D01*
X68311523Y-112326785D02*
X68406761Y-112374404D01*
X68406761Y-112374404D02*
X68502000Y-112469642D01*
X68502000Y-112469642D02*
X68549619Y-112612499D01*
X68549619Y-112612499D02*
X68549619Y-112850594D01*
X67644857Y-111898213D02*
X67597238Y-111850594D01*
X67597238Y-111850594D02*
X67549619Y-111755356D01*
X67549619Y-111755356D02*
X67549619Y-111517261D01*
X67549619Y-111517261D02*
X67597238Y-111422023D01*
X67597238Y-111422023D02*
X67644857Y-111374404D01*
X67644857Y-111374404D02*
X67740095Y-111326785D01*
X67740095Y-111326785D02*
X67835333Y-111326785D01*
X67835333Y-111326785D02*
X67978190Y-111374404D01*
X67978190Y-111374404D02*
X68549619Y-111945832D01*
X68549619Y-111945832D02*
X68549619Y-111326785D01*
X68249619Y-114966666D02*
X67773428Y-115299999D01*
X68249619Y-115538094D02*
X67249619Y-115538094D01*
X67249619Y-115538094D02*
X67249619Y-115157142D01*
X67249619Y-115157142D02*
X67297238Y-115061904D01*
X67297238Y-115061904D02*
X67344857Y-115014285D01*
X67344857Y-115014285D02*
X67440095Y-114966666D01*
X67440095Y-114966666D02*
X67582952Y-114966666D01*
X67582952Y-114966666D02*
X67678190Y-115014285D01*
X67678190Y-115014285D02*
X67725809Y-115061904D01*
X67725809Y-115061904D02*
X67773428Y-115157142D01*
X67773428Y-115157142D02*
X67773428Y-115538094D01*
X67249619Y-114633332D02*
X67249619Y-114014285D01*
X67249619Y-114014285D02*
X67630571Y-114347618D01*
X67630571Y-114347618D02*
X67630571Y-114204761D01*
X67630571Y-114204761D02*
X67678190Y-114109523D01*
X67678190Y-114109523D02*
X67725809Y-114061904D01*
X67725809Y-114061904D02*
X67821047Y-114014285D01*
X67821047Y-114014285D02*
X68059142Y-114014285D01*
X68059142Y-114014285D02*
X68154380Y-114061904D01*
X68154380Y-114061904D02*
X68202000Y-114109523D01*
X68202000Y-114109523D02*
X68249619Y-114204761D01*
X68249619Y-114204761D02*
X68249619Y-114490475D01*
X68249619Y-114490475D02*
X68202000Y-114585713D01*
X68202000Y-114585713D02*
X68154380Y-114633332D01*
X74838095Y-107549619D02*
X74838095Y-108359142D01*
X74838095Y-108359142D02*
X74885714Y-108454380D01*
X74885714Y-108454380D02*
X74933333Y-108502000D01*
X74933333Y-108502000D02*
X75028571Y-108549619D01*
X75028571Y-108549619D02*
X75219047Y-108549619D01*
X75219047Y-108549619D02*
X75314285Y-108502000D01*
X75314285Y-108502000D02*
X75361904Y-108454380D01*
X75361904Y-108454380D02*
X75409523Y-108359142D01*
X75409523Y-108359142D02*
X75409523Y-107549619D01*
X75790476Y-107549619D02*
X76409523Y-107549619D01*
X76409523Y-107549619D02*
X76076190Y-107930571D01*
X76076190Y-107930571D02*
X76219047Y-107930571D01*
X76219047Y-107930571D02*
X76314285Y-107978190D01*
X76314285Y-107978190D02*
X76361904Y-108025809D01*
X76361904Y-108025809D02*
X76409523Y-108121047D01*
X76409523Y-108121047D02*
X76409523Y-108359142D01*
X76409523Y-108359142D02*
X76361904Y-108454380D01*
X76361904Y-108454380D02*
X76314285Y-108502000D01*
X76314285Y-108502000D02*
X76219047Y-108549619D01*
X76219047Y-108549619D02*
X75933333Y-108549619D01*
X75933333Y-108549619D02*
X75838095Y-108502000D01*
X75838095Y-108502000D02*
X75790476Y-108454380D01*
X84533333Y-103349619D02*
X84200000Y-102873428D01*
X83961905Y-103349619D02*
X83961905Y-102349619D01*
X83961905Y-102349619D02*
X84342857Y-102349619D01*
X84342857Y-102349619D02*
X84438095Y-102397238D01*
X84438095Y-102397238D02*
X84485714Y-102444857D01*
X84485714Y-102444857D02*
X84533333Y-102540095D01*
X84533333Y-102540095D02*
X84533333Y-102682952D01*
X84533333Y-102682952D02*
X84485714Y-102778190D01*
X84485714Y-102778190D02*
X84438095Y-102825809D01*
X84438095Y-102825809D02*
X84342857Y-102873428D01*
X84342857Y-102873428D02*
X83961905Y-102873428D01*
X85009524Y-103349619D02*
X85200000Y-103349619D01*
X85200000Y-103349619D02*
X85295238Y-103302000D01*
X85295238Y-103302000D02*
X85342857Y-103254380D01*
X85342857Y-103254380D02*
X85438095Y-103111523D01*
X85438095Y-103111523D02*
X85485714Y-102921047D01*
X85485714Y-102921047D02*
X85485714Y-102540095D01*
X85485714Y-102540095D02*
X85438095Y-102444857D01*
X85438095Y-102444857D02*
X85390476Y-102397238D01*
X85390476Y-102397238D02*
X85295238Y-102349619D01*
X85295238Y-102349619D02*
X85104762Y-102349619D01*
X85104762Y-102349619D02*
X85009524Y-102397238D01*
X85009524Y-102397238D02*
X84961905Y-102444857D01*
X84961905Y-102444857D02*
X84914286Y-102540095D01*
X84914286Y-102540095D02*
X84914286Y-102778190D01*
X84914286Y-102778190D02*
X84961905Y-102873428D01*
X84961905Y-102873428D02*
X85009524Y-102921047D01*
X85009524Y-102921047D02*
X85104762Y-102968666D01*
X85104762Y-102968666D02*
X85295238Y-102968666D01*
X85295238Y-102968666D02*
X85390476Y-102921047D01*
X85390476Y-102921047D02*
X85438095Y-102873428D01*
X85438095Y-102873428D02*
X85485714Y-102778190D01*
X56933333Y-107154380D02*
X56885714Y-107202000D01*
X56885714Y-107202000D02*
X56742857Y-107249619D01*
X56742857Y-107249619D02*
X56647619Y-107249619D01*
X56647619Y-107249619D02*
X56504762Y-107202000D01*
X56504762Y-107202000D02*
X56409524Y-107106761D01*
X56409524Y-107106761D02*
X56361905Y-107011523D01*
X56361905Y-107011523D02*
X56314286Y-106821047D01*
X56314286Y-106821047D02*
X56314286Y-106678190D01*
X56314286Y-106678190D02*
X56361905Y-106487714D01*
X56361905Y-106487714D02*
X56409524Y-106392476D01*
X56409524Y-106392476D02*
X56504762Y-106297238D01*
X56504762Y-106297238D02*
X56647619Y-106249619D01*
X56647619Y-106249619D02*
X56742857Y-106249619D01*
X56742857Y-106249619D02*
X56885714Y-106297238D01*
X56885714Y-106297238D02*
X56933333Y-106344857D01*
X57838095Y-106249619D02*
X57361905Y-106249619D01*
X57361905Y-106249619D02*
X57314286Y-106725809D01*
X57314286Y-106725809D02*
X57361905Y-106678190D01*
X57361905Y-106678190D02*
X57457143Y-106630571D01*
X57457143Y-106630571D02*
X57695238Y-106630571D01*
X57695238Y-106630571D02*
X57790476Y-106678190D01*
X57790476Y-106678190D02*
X57838095Y-106725809D01*
X57838095Y-106725809D02*
X57885714Y-106821047D01*
X57885714Y-106821047D02*
X57885714Y-107059142D01*
X57885714Y-107059142D02*
X57838095Y-107154380D01*
X57838095Y-107154380D02*
X57790476Y-107202000D01*
X57790476Y-107202000D02*
X57695238Y-107249619D01*
X57695238Y-107249619D02*
X57457143Y-107249619D01*
X57457143Y-107249619D02*
X57361905Y-107202000D01*
X57361905Y-107202000D02*
X57314286Y-107154380D01*
X84249619Y-110616666D02*
X83773428Y-110949999D01*
X84249619Y-111188094D02*
X83249619Y-111188094D01*
X83249619Y-111188094D02*
X83249619Y-110807142D01*
X83249619Y-110807142D02*
X83297238Y-110711904D01*
X83297238Y-110711904D02*
X83344857Y-110664285D01*
X83344857Y-110664285D02*
X83440095Y-110616666D01*
X83440095Y-110616666D02*
X83582952Y-110616666D01*
X83582952Y-110616666D02*
X83678190Y-110664285D01*
X83678190Y-110664285D02*
X83725809Y-110711904D01*
X83725809Y-110711904D02*
X83773428Y-110807142D01*
X83773428Y-110807142D02*
X83773428Y-111188094D01*
X83249619Y-110283332D02*
X83249619Y-109616666D01*
X83249619Y-109616666D02*
X84249619Y-110045237D01*
X91538095Y-110849619D02*
X91538095Y-111659142D01*
X91538095Y-111659142D02*
X91585714Y-111754380D01*
X91585714Y-111754380D02*
X91633333Y-111802000D01*
X91633333Y-111802000D02*
X91728571Y-111849619D01*
X91728571Y-111849619D02*
X91919047Y-111849619D01*
X91919047Y-111849619D02*
X92014285Y-111802000D01*
X92014285Y-111802000D02*
X92061904Y-111754380D01*
X92061904Y-111754380D02*
X92109523Y-111659142D01*
X92109523Y-111659142D02*
X92109523Y-110849619D01*
X92538095Y-110944857D02*
X92585714Y-110897238D01*
X92585714Y-110897238D02*
X92680952Y-110849619D01*
X92680952Y-110849619D02*
X92919047Y-110849619D01*
X92919047Y-110849619D02*
X93014285Y-110897238D01*
X93014285Y-110897238D02*
X93061904Y-110944857D01*
X93061904Y-110944857D02*
X93109523Y-111040095D01*
X93109523Y-111040095D02*
X93109523Y-111135333D01*
X93109523Y-111135333D02*
X93061904Y-111278190D01*
X93061904Y-111278190D02*
X92490476Y-111849619D01*
X92490476Y-111849619D02*
X93109523Y-111849619D01*
X64957142Y-99649619D02*
X64623809Y-99173428D01*
X64385714Y-99649619D02*
X64385714Y-98649619D01*
X64385714Y-98649619D02*
X64766666Y-98649619D01*
X64766666Y-98649619D02*
X64861904Y-98697238D01*
X64861904Y-98697238D02*
X64909523Y-98744857D01*
X64909523Y-98744857D02*
X64957142Y-98840095D01*
X64957142Y-98840095D02*
X64957142Y-98982952D01*
X64957142Y-98982952D02*
X64909523Y-99078190D01*
X64909523Y-99078190D02*
X64861904Y-99125809D01*
X64861904Y-99125809D02*
X64766666Y-99173428D01*
X64766666Y-99173428D02*
X64385714Y-99173428D01*
X65909523Y-99649619D02*
X65338095Y-99649619D01*
X65623809Y-99649619D02*
X65623809Y-98649619D01*
X65623809Y-98649619D02*
X65528571Y-98792476D01*
X65528571Y-98792476D02*
X65433333Y-98887714D01*
X65433333Y-98887714D02*
X65338095Y-98935333D01*
X66861904Y-99649619D02*
X66290476Y-99649619D01*
X66576190Y-99649619D02*
X66576190Y-98649619D01*
X66576190Y-98649619D02*
X66480952Y-98792476D01*
X66480952Y-98792476D02*
X66385714Y-98887714D01*
X66385714Y-98887714D02*
X66290476Y-98935333D01*
X90537142Y-118554380D02*
X90489523Y-118602000D01*
X90489523Y-118602000D02*
X90346666Y-118649619D01*
X90346666Y-118649619D02*
X90251428Y-118649619D01*
X90251428Y-118649619D02*
X90108571Y-118602000D01*
X90108571Y-118602000D02*
X90013333Y-118506761D01*
X90013333Y-118506761D02*
X89965714Y-118411523D01*
X89965714Y-118411523D02*
X89918095Y-118221047D01*
X89918095Y-118221047D02*
X89918095Y-118078190D01*
X89918095Y-118078190D02*
X89965714Y-117887714D01*
X89965714Y-117887714D02*
X90013333Y-117792476D01*
X90013333Y-117792476D02*
X90108571Y-117697238D01*
X90108571Y-117697238D02*
X90251428Y-117649619D01*
X90251428Y-117649619D02*
X90346666Y-117649619D01*
X90346666Y-117649619D02*
X90489523Y-117697238D01*
X90489523Y-117697238D02*
X90537142Y-117744857D01*
X91489523Y-118649619D02*
X90918095Y-118649619D01*
X91203809Y-118649619D02*
X91203809Y-117649619D01*
X91203809Y-117649619D02*
X91108571Y-117792476D01*
X91108571Y-117792476D02*
X91013333Y-117887714D01*
X91013333Y-117887714D02*
X90918095Y-117935333D01*
X91822857Y-117649619D02*
X92489523Y-117649619D01*
X92489523Y-117649619D02*
X92060952Y-118649619D01*
X58101666Y-97049619D02*
X58101666Y-97763904D01*
X58101666Y-97763904D02*
X58054047Y-97906761D01*
X58054047Y-97906761D02*
X57958809Y-98002000D01*
X57958809Y-98002000D02*
X57815952Y-98049619D01*
X57815952Y-98049619D02*
X57720714Y-98049619D01*
X59101666Y-98049619D02*
X58530238Y-98049619D01*
X58815952Y-98049619D02*
X58815952Y-97049619D01*
X58815952Y-97049619D02*
X58720714Y-97192476D01*
X58720714Y-97192476D02*
X58625476Y-97287714D01*
X58625476Y-97287714D02*
X58530238Y-97335333D01*
X52157142Y-112249619D02*
X51823809Y-111773428D01*
X51585714Y-112249619D02*
X51585714Y-111249619D01*
X51585714Y-111249619D02*
X51966666Y-111249619D01*
X51966666Y-111249619D02*
X52061904Y-111297238D01*
X52061904Y-111297238D02*
X52109523Y-111344857D01*
X52109523Y-111344857D02*
X52157142Y-111440095D01*
X52157142Y-111440095D02*
X52157142Y-111582952D01*
X52157142Y-111582952D02*
X52109523Y-111678190D01*
X52109523Y-111678190D02*
X52061904Y-111725809D01*
X52061904Y-111725809D02*
X51966666Y-111773428D01*
X51966666Y-111773428D02*
X51585714Y-111773428D01*
X53109523Y-112249619D02*
X52538095Y-112249619D01*
X52823809Y-112249619D02*
X52823809Y-111249619D01*
X52823809Y-111249619D02*
X52728571Y-111392476D01*
X52728571Y-111392476D02*
X52633333Y-111487714D01*
X52633333Y-111487714D02*
X52538095Y-111535333D01*
X53442857Y-111249619D02*
X54061904Y-111249619D01*
X54061904Y-111249619D02*
X53728571Y-111630571D01*
X53728571Y-111630571D02*
X53871428Y-111630571D01*
X53871428Y-111630571D02*
X53966666Y-111678190D01*
X53966666Y-111678190D02*
X54014285Y-111725809D01*
X54014285Y-111725809D02*
X54061904Y-111821047D01*
X54061904Y-111821047D02*
X54061904Y-112059142D01*
X54061904Y-112059142D02*
X54014285Y-112154380D01*
X54014285Y-112154380D02*
X53966666Y-112202000D01*
X53966666Y-112202000D02*
X53871428Y-112249619D01*
X53871428Y-112249619D02*
X53585714Y-112249619D01*
X53585714Y-112249619D02*
X53490476Y-112202000D01*
X53490476Y-112202000D02*
X53442857Y-112154380D01*
X95054380Y-111992857D02*
X95102000Y-112040476D01*
X95102000Y-112040476D02*
X95149619Y-112183333D01*
X95149619Y-112183333D02*
X95149619Y-112278571D01*
X95149619Y-112278571D02*
X95102000Y-112421428D01*
X95102000Y-112421428D02*
X95006761Y-112516666D01*
X95006761Y-112516666D02*
X94911523Y-112564285D01*
X94911523Y-112564285D02*
X94721047Y-112611904D01*
X94721047Y-112611904D02*
X94578190Y-112611904D01*
X94578190Y-112611904D02*
X94387714Y-112564285D01*
X94387714Y-112564285D02*
X94292476Y-112516666D01*
X94292476Y-112516666D02*
X94197238Y-112421428D01*
X94197238Y-112421428D02*
X94149619Y-112278571D01*
X94149619Y-112278571D02*
X94149619Y-112183333D01*
X94149619Y-112183333D02*
X94197238Y-112040476D01*
X94197238Y-112040476D02*
X94244857Y-111992857D01*
X95149619Y-111040476D02*
X95149619Y-111611904D01*
X95149619Y-111326190D02*
X94149619Y-111326190D01*
X94149619Y-111326190D02*
X94292476Y-111421428D01*
X94292476Y-111421428D02*
X94387714Y-111516666D01*
X94387714Y-111516666D02*
X94435333Y-111611904D01*
X94244857Y-110659523D02*
X94197238Y-110611904D01*
X94197238Y-110611904D02*
X94149619Y-110516666D01*
X94149619Y-110516666D02*
X94149619Y-110278571D01*
X94149619Y-110278571D02*
X94197238Y-110183333D01*
X94197238Y-110183333D02*
X94244857Y-110135714D01*
X94244857Y-110135714D02*
X94340095Y-110088095D01*
X94340095Y-110088095D02*
X94435333Y-110088095D01*
X94435333Y-110088095D02*
X94578190Y-110135714D01*
X94578190Y-110135714D02*
X95149619Y-110707142D01*
X95149619Y-110707142D02*
X95149619Y-110088095D01*
X55574405Y-111749619D02*
X55574405Y-110749619D01*
X55574405Y-110749619D02*
X55812500Y-110749619D01*
X55812500Y-110749619D02*
X55955357Y-110797238D01*
X55955357Y-110797238D02*
X56050595Y-110892476D01*
X56050595Y-110892476D02*
X56098214Y-110987714D01*
X56098214Y-110987714D02*
X56145833Y-111178190D01*
X56145833Y-111178190D02*
X56145833Y-111321047D01*
X56145833Y-111321047D02*
X56098214Y-111511523D01*
X56098214Y-111511523D02*
X56050595Y-111606761D01*
X56050595Y-111606761D02*
X55955357Y-111702000D01*
X55955357Y-111702000D02*
X55812500Y-111749619D01*
X55812500Y-111749619D02*
X55574405Y-111749619D01*
X56479167Y-110749619D02*
X57098214Y-110749619D01*
X57098214Y-110749619D02*
X56764881Y-111130571D01*
X56764881Y-111130571D02*
X56907738Y-111130571D01*
X56907738Y-111130571D02*
X57002976Y-111178190D01*
X57002976Y-111178190D02*
X57050595Y-111225809D01*
X57050595Y-111225809D02*
X57098214Y-111321047D01*
X57098214Y-111321047D02*
X57098214Y-111559142D01*
X57098214Y-111559142D02*
X57050595Y-111654380D01*
X57050595Y-111654380D02*
X57002976Y-111702000D01*
X57002976Y-111702000D02*
X56907738Y-111749619D01*
X56907738Y-111749619D02*
X56622024Y-111749619D01*
X56622024Y-111749619D02*
X56526786Y-111702000D01*
X56526786Y-111702000D02*
X56479167Y-111654380D01*
X67366666Y-119449619D02*
X67366666Y-120163904D01*
X67366666Y-120163904D02*
X67319047Y-120306761D01*
X67319047Y-120306761D02*
X67223809Y-120402000D01*
X67223809Y-120402000D02*
X67080952Y-120449619D01*
X67080952Y-120449619D02*
X66985714Y-120449619D01*
X67747619Y-119449619D02*
X68366666Y-119449619D01*
X68366666Y-119449619D02*
X68033333Y-119830571D01*
X68033333Y-119830571D02*
X68176190Y-119830571D01*
X68176190Y-119830571D02*
X68271428Y-119878190D01*
X68271428Y-119878190D02*
X68319047Y-119925809D01*
X68319047Y-119925809D02*
X68366666Y-120021047D01*
X68366666Y-120021047D02*
X68366666Y-120259142D01*
X68366666Y-120259142D02*
X68319047Y-120354380D01*
X68319047Y-120354380D02*
X68271428Y-120402000D01*
X68271428Y-120402000D02*
X68176190Y-120449619D01*
X68176190Y-120449619D02*
X67890476Y-120449619D01*
X67890476Y-120449619D02*
X67795238Y-120402000D01*
X67795238Y-120402000D02*
X67747619Y-120354380D01*
X85654380Y-110442857D02*
X85702000Y-110490476D01*
X85702000Y-110490476D02*
X85749619Y-110633333D01*
X85749619Y-110633333D02*
X85749619Y-110728571D01*
X85749619Y-110728571D02*
X85702000Y-110871428D01*
X85702000Y-110871428D02*
X85606761Y-110966666D01*
X85606761Y-110966666D02*
X85511523Y-111014285D01*
X85511523Y-111014285D02*
X85321047Y-111061904D01*
X85321047Y-111061904D02*
X85178190Y-111061904D01*
X85178190Y-111061904D02*
X84987714Y-111014285D01*
X84987714Y-111014285D02*
X84892476Y-110966666D01*
X84892476Y-110966666D02*
X84797238Y-110871428D01*
X84797238Y-110871428D02*
X84749619Y-110728571D01*
X84749619Y-110728571D02*
X84749619Y-110633333D01*
X84749619Y-110633333D02*
X84797238Y-110490476D01*
X84797238Y-110490476D02*
X84844857Y-110442857D01*
X85749619Y-109490476D02*
X85749619Y-110061904D01*
X85749619Y-109776190D02*
X84749619Y-109776190D01*
X84749619Y-109776190D02*
X84892476Y-109871428D01*
X84892476Y-109871428D02*
X84987714Y-109966666D01*
X84987714Y-109966666D02*
X85035333Y-110061904D01*
X84749619Y-108633333D02*
X84749619Y-108823809D01*
X84749619Y-108823809D02*
X84797238Y-108919047D01*
X84797238Y-108919047D02*
X84844857Y-108966666D01*
X84844857Y-108966666D02*
X84987714Y-109061904D01*
X84987714Y-109061904D02*
X85178190Y-109109523D01*
X85178190Y-109109523D02*
X85559142Y-109109523D01*
X85559142Y-109109523D02*
X85654380Y-109061904D01*
X85654380Y-109061904D02*
X85702000Y-109014285D01*
X85702000Y-109014285D02*
X85749619Y-108919047D01*
X85749619Y-108919047D02*
X85749619Y-108728571D01*
X85749619Y-108728571D02*
X85702000Y-108633333D01*
X85702000Y-108633333D02*
X85654380Y-108585714D01*
X85654380Y-108585714D02*
X85559142Y-108538095D01*
X85559142Y-108538095D02*
X85321047Y-108538095D01*
X85321047Y-108538095D02*
X85225809Y-108585714D01*
X85225809Y-108585714D02*
X85178190Y-108633333D01*
X85178190Y-108633333D02*
X85130571Y-108728571D01*
X85130571Y-108728571D02*
X85130571Y-108919047D01*
X85130571Y-108919047D02*
X85178190Y-109014285D01*
X85178190Y-109014285D02*
X85225809Y-109061904D01*
X85225809Y-109061904D02*
X85321047Y-109109523D01*
X57333333Y-99454380D02*
X57285714Y-99502000D01*
X57285714Y-99502000D02*
X57142857Y-99549619D01*
X57142857Y-99549619D02*
X57047619Y-99549619D01*
X57047619Y-99549619D02*
X56904762Y-99502000D01*
X56904762Y-99502000D02*
X56809524Y-99406761D01*
X56809524Y-99406761D02*
X56761905Y-99311523D01*
X56761905Y-99311523D02*
X56714286Y-99121047D01*
X56714286Y-99121047D02*
X56714286Y-98978190D01*
X56714286Y-98978190D02*
X56761905Y-98787714D01*
X56761905Y-98787714D02*
X56809524Y-98692476D01*
X56809524Y-98692476D02*
X56904762Y-98597238D01*
X56904762Y-98597238D02*
X57047619Y-98549619D01*
X57047619Y-98549619D02*
X57142857Y-98549619D01*
X57142857Y-98549619D02*
X57285714Y-98597238D01*
X57285714Y-98597238D02*
X57333333Y-98644857D01*
X58285714Y-99549619D02*
X57714286Y-99549619D01*
X58000000Y-99549619D02*
X58000000Y-98549619D01*
X58000000Y-98549619D02*
X57904762Y-98692476D01*
X57904762Y-98692476D02*
X57809524Y-98787714D01*
X57809524Y-98787714D02*
X57714286Y-98835333D01*
X59654380Y-102166666D02*
X59702000Y-102214285D01*
X59702000Y-102214285D02*
X59749619Y-102357142D01*
X59749619Y-102357142D02*
X59749619Y-102452380D01*
X59749619Y-102452380D02*
X59702000Y-102595237D01*
X59702000Y-102595237D02*
X59606761Y-102690475D01*
X59606761Y-102690475D02*
X59511523Y-102738094D01*
X59511523Y-102738094D02*
X59321047Y-102785713D01*
X59321047Y-102785713D02*
X59178190Y-102785713D01*
X59178190Y-102785713D02*
X58987714Y-102738094D01*
X58987714Y-102738094D02*
X58892476Y-102690475D01*
X58892476Y-102690475D02*
X58797238Y-102595237D01*
X58797238Y-102595237D02*
X58749619Y-102452380D01*
X58749619Y-102452380D02*
X58749619Y-102357142D01*
X58749619Y-102357142D02*
X58797238Y-102214285D01*
X58797238Y-102214285D02*
X58844857Y-102166666D01*
X58749619Y-101309523D02*
X58749619Y-101499999D01*
X58749619Y-101499999D02*
X58797238Y-101595237D01*
X58797238Y-101595237D02*
X58844857Y-101642856D01*
X58844857Y-101642856D02*
X58987714Y-101738094D01*
X58987714Y-101738094D02*
X59178190Y-101785713D01*
X59178190Y-101785713D02*
X59559142Y-101785713D01*
X59559142Y-101785713D02*
X59654380Y-101738094D01*
X59654380Y-101738094D02*
X59702000Y-101690475D01*
X59702000Y-101690475D02*
X59749619Y-101595237D01*
X59749619Y-101595237D02*
X59749619Y-101404761D01*
X59749619Y-101404761D02*
X59702000Y-101309523D01*
X59702000Y-101309523D02*
X59654380Y-101261904D01*
X59654380Y-101261904D02*
X59559142Y-101214285D01*
X59559142Y-101214285D02*
X59321047Y-101214285D01*
X59321047Y-101214285D02*
X59225809Y-101261904D01*
X59225809Y-101261904D02*
X59178190Y-101309523D01*
X59178190Y-101309523D02*
X59130571Y-101404761D01*
X59130571Y-101404761D02*
X59130571Y-101595237D01*
X59130571Y-101595237D02*
X59178190Y-101690475D01*
X59178190Y-101690475D02*
X59225809Y-101738094D01*
X59225809Y-101738094D02*
X59321047Y-101785713D01*
X59654380Y-104466666D02*
X59702000Y-104514285D01*
X59702000Y-104514285D02*
X59749619Y-104657142D01*
X59749619Y-104657142D02*
X59749619Y-104752380D01*
X59749619Y-104752380D02*
X59702000Y-104895237D01*
X59702000Y-104895237D02*
X59606761Y-104990475D01*
X59606761Y-104990475D02*
X59511523Y-105038094D01*
X59511523Y-105038094D02*
X59321047Y-105085713D01*
X59321047Y-105085713D02*
X59178190Y-105085713D01*
X59178190Y-105085713D02*
X58987714Y-105038094D01*
X58987714Y-105038094D02*
X58892476Y-104990475D01*
X58892476Y-104990475D02*
X58797238Y-104895237D01*
X58797238Y-104895237D02*
X58749619Y-104752380D01*
X58749619Y-104752380D02*
X58749619Y-104657142D01*
X58749619Y-104657142D02*
X58797238Y-104514285D01*
X58797238Y-104514285D02*
X58844857Y-104466666D01*
X58749619Y-104133332D02*
X58749619Y-103466666D01*
X58749619Y-103466666D02*
X59749619Y-103895237D01*
X54633333Y-110054380D02*
X54585714Y-110102000D01*
X54585714Y-110102000D02*
X54442857Y-110149619D01*
X54442857Y-110149619D02*
X54347619Y-110149619D01*
X54347619Y-110149619D02*
X54204762Y-110102000D01*
X54204762Y-110102000D02*
X54109524Y-110006761D01*
X54109524Y-110006761D02*
X54061905Y-109911523D01*
X54061905Y-109911523D02*
X54014286Y-109721047D01*
X54014286Y-109721047D02*
X54014286Y-109578190D01*
X54014286Y-109578190D02*
X54061905Y-109387714D01*
X54061905Y-109387714D02*
X54109524Y-109292476D01*
X54109524Y-109292476D02*
X54204762Y-109197238D01*
X54204762Y-109197238D02*
X54347619Y-109149619D01*
X54347619Y-109149619D02*
X54442857Y-109149619D01*
X54442857Y-109149619D02*
X54585714Y-109197238D01*
X54585714Y-109197238D02*
X54633333Y-109244857D01*
X55109524Y-110149619D02*
X55300000Y-110149619D01*
X55300000Y-110149619D02*
X55395238Y-110102000D01*
X55395238Y-110102000D02*
X55442857Y-110054380D01*
X55442857Y-110054380D02*
X55538095Y-109911523D01*
X55538095Y-109911523D02*
X55585714Y-109721047D01*
X55585714Y-109721047D02*
X55585714Y-109340095D01*
X55585714Y-109340095D02*
X55538095Y-109244857D01*
X55538095Y-109244857D02*
X55490476Y-109197238D01*
X55490476Y-109197238D02*
X55395238Y-109149619D01*
X55395238Y-109149619D02*
X55204762Y-109149619D01*
X55204762Y-109149619D02*
X55109524Y-109197238D01*
X55109524Y-109197238D02*
X55061905Y-109244857D01*
X55061905Y-109244857D02*
X55014286Y-109340095D01*
X55014286Y-109340095D02*
X55014286Y-109578190D01*
X55014286Y-109578190D02*
X55061905Y-109673428D01*
X55061905Y-109673428D02*
X55109524Y-109721047D01*
X55109524Y-109721047D02*
X55204762Y-109768666D01*
X55204762Y-109768666D02*
X55395238Y-109768666D01*
X55395238Y-109768666D02*
X55490476Y-109721047D01*
X55490476Y-109721047D02*
X55538095Y-109673428D01*
X55538095Y-109673428D02*
X55585714Y-109578190D01*
X54633333Y-108429380D02*
X54585714Y-108477000D01*
X54585714Y-108477000D02*
X54442857Y-108524619D01*
X54442857Y-108524619D02*
X54347619Y-108524619D01*
X54347619Y-108524619D02*
X54204762Y-108477000D01*
X54204762Y-108477000D02*
X54109524Y-108381761D01*
X54109524Y-108381761D02*
X54061905Y-108286523D01*
X54061905Y-108286523D02*
X54014286Y-108096047D01*
X54014286Y-108096047D02*
X54014286Y-107953190D01*
X54014286Y-107953190D02*
X54061905Y-107762714D01*
X54061905Y-107762714D02*
X54109524Y-107667476D01*
X54109524Y-107667476D02*
X54204762Y-107572238D01*
X54204762Y-107572238D02*
X54347619Y-107524619D01*
X54347619Y-107524619D02*
X54442857Y-107524619D01*
X54442857Y-107524619D02*
X54585714Y-107572238D01*
X54585714Y-107572238D02*
X54633333Y-107619857D01*
X55204762Y-107953190D02*
X55109524Y-107905571D01*
X55109524Y-107905571D02*
X55061905Y-107857952D01*
X55061905Y-107857952D02*
X55014286Y-107762714D01*
X55014286Y-107762714D02*
X55014286Y-107715095D01*
X55014286Y-107715095D02*
X55061905Y-107619857D01*
X55061905Y-107619857D02*
X55109524Y-107572238D01*
X55109524Y-107572238D02*
X55204762Y-107524619D01*
X55204762Y-107524619D02*
X55395238Y-107524619D01*
X55395238Y-107524619D02*
X55490476Y-107572238D01*
X55490476Y-107572238D02*
X55538095Y-107619857D01*
X55538095Y-107619857D02*
X55585714Y-107715095D01*
X55585714Y-107715095D02*
X55585714Y-107762714D01*
X55585714Y-107762714D02*
X55538095Y-107857952D01*
X55538095Y-107857952D02*
X55490476Y-107905571D01*
X55490476Y-107905571D02*
X55395238Y-107953190D01*
X55395238Y-107953190D02*
X55204762Y-107953190D01*
X55204762Y-107953190D02*
X55109524Y-108000809D01*
X55109524Y-108000809D02*
X55061905Y-108048428D01*
X55061905Y-108048428D02*
X55014286Y-108143666D01*
X55014286Y-108143666D02*
X55014286Y-108334142D01*
X55014286Y-108334142D02*
X55061905Y-108429380D01*
X55061905Y-108429380D02*
X55109524Y-108477000D01*
X55109524Y-108477000D02*
X55204762Y-108524619D01*
X55204762Y-108524619D02*
X55395238Y-108524619D01*
X55395238Y-108524619D02*
X55490476Y-108477000D01*
X55490476Y-108477000D02*
X55538095Y-108429380D01*
X55538095Y-108429380D02*
X55585714Y-108334142D01*
X55585714Y-108334142D02*
X55585714Y-108143666D01*
X55585714Y-108143666D02*
X55538095Y-108048428D01*
X55538095Y-108048428D02*
X55490476Y-108000809D01*
X55490476Y-108000809D02*
X55395238Y-107953190D01*
X63149619Y-112825594D02*
X62149619Y-112825594D01*
X62149619Y-112825594D02*
X62149619Y-112587499D01*
X62149619Y-112587499D02*
X62197238Y-112444642D01*
X62197238Y-112444642D02*
X62292476Y-112349404D01*
X62292476Y-112349404D02*
X62387714Y-112301785D01*
X62387714Y-112301785D02*
X62578190Y-112254166D01*
X62578190Y-112254166D02*
X62721047Y-112254166D01*
X62721047Y-112254166D02*
X62911523Y-112301785D01*
X62911523Y-112301785D02*
X63006761Y-112349404D01*
X63006761Y-112349404D02*
X63102000Y-112444642D01*
X63102000Y-112444642D02*
X63149619Y-112587499D01*
X63149619Y-112587499D02*
X63149619Y-112825594D01*
X63149619Y-111301785D02*
X63149619Y-111873213D01*
X63149619Y-111587499D02*
X62149619Y-111587499D01*
X62149619Y-111587499D02*
X62292476Y-111682737D01*
X62292476Y-111682737D02*
X62387714Y-111777975D01*
X62387714Y-111777975D02*
X62435333Y-111873213D01*
X90117142Y-103454380D02*
X90069523Y-103502000D01*
X90069523Y-103502000D02*
X89926666Y-103549619D01*
X89926666Y-103549619D02*
X89831428Y-103549619D01*
X89831428Y-103549619D02*
X89688571Y-103502000D01*
X89688571Y-103502000D02*
X89593333Y-103406761D01*
X89593333Y-103406761D02*
X89545714Y-103311523D01*
X89545714Y-103311523D02*
X89498095Y-103121047D01*
X89498095Y-103121047D02*
X89498095Y-102978190D01*
X89498095Y-102978190D02*
X89545714Y-102787714D01*
X89545714Y-102787714D02*
X89593333Y-102692476D01*
X89593333Y-102692476D02*
X89688571Y-102597238D01*
X89688571Y-102597238D02*
X89831428Y-102549619D01*
X89831428Y-102549619D02*
X89926666Y-102549619D01*
X89926666Y-102549619D02*
X90069523Y-102597238D01*
X90069523Y-102597238D02*
X90117142Y-102644857D01*
X91069523Y-103549619D02*
X90498095Y-103549619D01*
X90783809Y-103549619D02*
X90783809Y-102549619D01*
X90783809Y-102549619D02*
X90688571Y-102692476D01*
X90688571Y-102692476D02*
X90593333Y-102787714D01*
X90593333Y-102787714D02*
X90498095Y-102835333D01*
X91402857Y-102549619D02*
X92021904Y-102549619D01*
X92021904Y-102549619D02*
X91688571Y-102930571D01*
X91688571Y-102930571D02*
X91831428Y-102930571D01*
X91831428Y-102930571D02*
X91926666Y-102978190D01*
X91926666Y-102978190D02*
X91974285Y-103025809D01*
X91974285Y-103025809D02*
X92021904Y-103121047D01*
X92021904Y-103121047D02*
X92021904Y-103359142D01*
X92021904Y-103359142D02*
X91974285Y-103454380D01*
X91974285Y-103454380D02*
X91926666Y-103502000D01*
X91926666Y-103502000D02*
X91831428Y-103549619D01*
X91831428Y-103549619D02*
X91545714Y-103549619D01*
X91545714Y-103549619D02*
X91450476Y-103502000D01*
X91450476Y-103502000D02*
X91402857Y-103454380D01*
X96554380Y-111642857D02*
X96602000Y-111690476D01*
X96602000Y-111690476D02*
X96649619Y-111833333D01*
X96649619Y-111833333D02*
X96649619Y-111928571D01*
X96649619Y-111928571D02*
X96602000Y-112071428D01*
X96602000Y-112071428D02*
X96506761Y-112166666D01*
X96506761Y-112166666D02*
X96411523Y-112214285D01*
X96411523Y-112214285D02*
X96221047Y-112261904D01*
X96221047Y-112261904D02*
X96078190Y-112261904D01*
X96078190Y-112261904D02*
X95887714Y-112214285D01*
X95887714Y-112214285D02*
X95792476Y-112166666D01*
X95792476Y-112166666D02*
X95697238Y-112071428D01*
X95697238Y-112071428D02*
X95649619Y-111928571D01*
X95649619Y-111928571D02*
X95649619Y-111833333D01*
X95649619Y-111833333D02*
X95697238Y-111690476D01*
X95697238Y-111690476D02*
X95744857Y-111642857D01*
X96649619Y-110690476D02*
X96649619Y-111261904D01*
X96649619Y-110976190D02*
X95649619Y-110976190D01*
X95649619Y-110976190D02*
X95792476Y-111071428D01*
X95792476Y-111071428D02*
X95887714Y-111166666D01*
X95887714Y-111166666D02*
X95935333Y-111261904D01*
X96649619Y-109738095D02*
X96649619Y-110309523D01*
X96649619Y-110023809D02*
X95649619Y-110023809D01*
X95649619Y-110023809D02*
X95792476Y-110119047D01*
X95792476Y-110119047D02*
X95887714Y-110214285D01*
X95887714Y-110214285D02*
X95935333Y-110309523D01*
X97949619Y-118033333D02*
X98663904Y-118033333D01*
X98663904Y-118033333D02*
X98806761Y-118080952D01*
X98806761Y-118080952D02*
X98902000Y-118176190D01*
X98902000Y-118176190D02*
X98949619Y-118319047D01*
X98949619Y-118319047D02*
X98949619Y-118414285D01*
X98282952Y-117128571D02*
X98949619Y-117128571D01*
X97902000Y-117366666D02*
X98616285Y-117604761D01*
X98616285Y-117604761D02*
X98616285Y-116985714D01*
X63549619Y-114966666D02*
X63073428Y-115299999D01*
X63549619Y-115538094D02*
X62549619Y-115538094D01*
X62549619Y-115538094D02*
X62549619Y-115157142D01*
X62549619Y-115157142D02*
X62597238Y-115061904D01*
X62597238Y-115061904D02*
X62644857Y-115014285D01*
X62644857Y-115014285D02*
X62740095Y-114966666D01*
X62740095Y-114966666D02*
X62882952Y-114966666D01*
X62882952Y-114966666D02*
X62978190Y-115014285D01*
X62978190Y-115014285D02*
X63025809Y-115061904D01*
X63025809Y-115061904D02*
X63073428Y-115157142D01*
X63073428Y-115157142D02*
X63073428Y-115538094D01*
X62644857Y-114585713D02*
X62597238Y-114538094D01*
X62597238Y-114538094D02*
X62549619Y-114442856D01*
X62549619Y-114442856D02*
X62549619Y-114204761D01*
X62549619Y-114204761D02*
X62597238Y-114109523D01*
X62597238Y-114109523D02*
X62644857Y-114061904D01*
X62644857Y-114061904D02*
X62740095Y-114014285D01*
X62740095Y-114014285D02*
X62835333Y-114014285D01*
X62835333Y-114014285D02*
X62978190Y-114061904D01*
X62978190Y-114061904D02*
X63549619Y-114633332D01*
X63549619Y-114633332D02*
X63549619Y-114014285D01*
X57033333Y-101354380D02*
X56985714Y-101402000D01*
X56985714Y-101402000D02*
X56842857Y-101449619D01*
X56842857Y-101449619D02*
X56747619Y-101449619D01*
X56747619Y-101449619D02*
X56604762Y-101402000D01*
X56604762Y-101402000D02*
X56509524Y-101306761D01*
X56509524Y-101306761D02*
X56461905Y-101211523D01*
X56461905Y-101211523D02*
X56414286Y-101021047D01*
X56414286Y-101021047D02*
X56414286Y-100878190D01*
X56414286Y-100878190D02*
X56461905Y-100687714D01*
X56461905Y-100687714D02*
X56509524Y-100592476D01*
X56509524Y-100592476D02*
X56604762Y-100497238D01*
X56604762Y-100497238D02*
X56747619Y-100449619D01*
X56747619Y-100449619D02*
X56842857Y-100449619D01*
X56842857Y-100449619D02*
X56985714Y-100497238D01*
X56985714Y-100497238D02*
X57033333Y-100544857D01*
X57366667Y-100449619D02*
X57985714Y-100449619D01*
X57985714Y-100449619D02*
X57652381Y-100830571D01*
X57652381Y-100830571D02*
X57795238Y-100830571D01*
X57795238Y-100830571D02*
X57890476Y-100878190D01*
X57890476Y-100878190D02*
X57938095Y-100925809D01*
X57938095Y-100925809D02*
X57985714Y-101021047D01*
X57985714Y-101021047D02*
X57985714Y-101259142D01*
X57985714Y-101259142D02*
X57938095Y-101354380D01*
X57938095Y-101354380D02*
X57890476Y-101402000D01*
X57890476Y-101402000D02*
X57795238Y-101449619D01*
X57795238Y-101449619D02*
X57509524Y-101449619D01*
X57509524Y-101449619D02*
X57414286Y-101402000D01*
X57414286Y-101402000D02*
X57366667Y-101354380D01*
X68057142Y-99649619D02*
X67723809Y-99173428D01*
X67485714Y-99649619D02*
X67485714Y-98649619D01*
X67485714Y-98649619D02*
X67866666Y-98649619D01*
X67866666Y-98649619D02*
X67961904Y-98697238D01*
X67961904Y-98697238D02*
X68009523Y-98744857D01*
X68009523Y-98744857D02*
X68057142Y-98840095D01*
X68057142Y-98840095D02*
X68057142Y-98982952D01*
X68057142Y-98982952D02*
X68009523Y-99078190D01*
X68009523Y-99078190D02*
X67961904Y-99125809D01*
X67961904Y-99125809D02*
X67866666Y-99173428D01*
X67866666Y-99173428D02*
X67485714Y-99173428D01*
X69009523Y-99649619D02*
X68438095Y-99649619D01*
X68723809Y-99649619D02*
X68723809Y-98649619D01*
X68723809Y-98649619D02*
X68628571Y-98792476D01*
X68628571Y-98792476D02*
X68533333Y-98887714D01*
X68533333Y-98887714D02*
X68438095Y-98935333D01*
X69390476Y-98744857D02*
X69438095Y-98697238D01*
X69438095Y-98697238D02*
X69533333Y-98649619D01*
X69533333Y-98649619D02*
X69771428Y-98649619D01*
X69771428Y-98649619D02*
X69866666Y-98697238D01*
X69866666Y-98697238D02*
X69914285Y-98744857D01*
X69914285Y-98744857D02*
X69961904Y-98840095D01*
X69961904Y-98840095D02*
X69961904Y-98935333D01*
X69961904Y-98935333D02*
X69914285Y-99078190D01*
X69914285Y-99078190D02*
X69342857Y-99649619D01*
X69342857Y-99649619D02*
X69961904Y-99649619D01*
X88961905Y-113449619D02*
X88961905Y-112449619D01*
X88961905Y-112449619D02*
X89200000Y-112449619D01*
X89200000Y-112449619D02*
X89342857Y-112497238D01*
X89342857Y-112497238D02*
X89438095Y-112592476D01*
X89438095Y-112592476D02*
X89485714Y-112687714D01*
X89485714Y-112687714D02*
X89533333Y-112878190D01*
X89533333Y-112878190D02*
X89533333Y-113021047D01*
X89533333Y-113021047D02*
X89485714Y-113211523D01*
X89485714Y-113211523D02*
X89438095Y-113306761D01*
X89438095Y-113306761D02*
X89342857Y-113402000D01*
X89342857Y-113402000D02*
X89200000Y-113449619D01*
X89200000Y-113449619D02*
X88961905Y-113449619D01*
X90390476Y-112782952D02*
X90390476Y-113449619D01*
X90152381Y-112402000D02*
X89914286Y-113116285D01*
X89914286Y-113116285D02*
X90533333Y-113116285D01*
X99614380Y-108442857D02*
X99662000Y-108490476D01*
X99662000Y-108490476D02*
X99709619Y-108633333D01*
X99709619Y-108633333D02*
X99709619Y-108728571D01*
X99709619Y-108728571D02*
X99662000Y-108871428D01*
X99662000Y-108871428D02*
X99566761Y-108966666D01*
X99566761Y-108966666D02*
X99471523Y-109014285D01*
X99471523Y-109014285D02*
X99281047Y-109061904D01*
X99281047Y-109061904D02*
X99138190Y-109061904D01*
X99138190Y-109061904D02*
X98947714Y-109014285D01*
X98947714Y-109014285D02*
X98852476Y-108966666D01*
X98852476Y-108966666D02*
X98757238Y-108871428D01*
X98757238Y-108871428D02*
X98709619Y-108728571D01*
X98709619Y-108728571D02*
X98709619Y-108633333D01*
X98709619Y-108633333D02*
X98757238Y-108490476D01*
X98757238Y-108490476D02*
X98804857Y-108442857D01*
X99709619Y-107490476D02*
X99709619Y-108061904D01*
X99709619Y-107776190D02*
X98709619Y-107776190D01*
X98709619Y-107776190D02*
X98852476Y-107871428D01*
X98852476Y-107871428D02*
X98947714Y-107966666D01*
X98947714Y-107966666D02*
X98995333Y-108061904D01*
X98709619Y-106871428D02*
X98709619Y-106776190D01*
X98709619Y-106776190D02*
X98757238Y-106680952D01*
X98757238Y-106680952D02*
X98804857Y-106633333D01*
X98804857Y-106633333D02*
X98900095Y-106585714D01*
X98900095Y-106585714D02*
X99090571Y-106538095D01*
X99090571Y-106538095D02*
X99328666Y-106538095D01*
X99328666Y-106538095D02*
X99519142Y-106585714D01*
X99519142Y-106585714D02*
X99614380Y-106633333D01*
X99614380Y-106633333D02*
X99662000Y-106680952D01*
X99662000Y-106680952D02*
X99709619Y-106776190D01*
X99709619Y-106776190D02*
X99709619Y-106871428D01*
X99709619Y-106871428D02*
X99662000Y-106966666D01*
X99662000Y-106966666D02*
X99614380Y-107014285D01*
X99614380Y-107014285D02*
X99519142Y-107061904D01*
X99519142Y-107061904D02*
X99328666Y-107109523D01*
X99328666Y-107109523D02*
X99090571Y-107109523D01*
X99090571Y-107109523D02*
X98900095Y-107061904D01*
X98900095Y-107061904D02*
X98804857Y-107014285D01*
X98804857Y-107014285D02*
X98757238Y-106966666D01*
X98757238Y-106966666D02*
X98709619Y-106871428D01*
X58566666Y-111363309D02*
X58233333Y-111363309D01*
X58233333Y-111887119D02*
X58233333Y-110887119D01*
X58233333Y-110887119D02*
X58709523Y-110887119D01*
X59423809Y-111363309D02*
X59566666Y-111410928D01*
X59566666Y-111410928D02*
X59614285Y-111458547D01*
X59614285Y-111458547D02*
X59661904Y-111553785D01*
X59661904Y-111553785D02*
X59661904Y-111696642D01*
X59661904Y-111696642D02*
X59614285Y-111791880D01*
X59614285Y-111791880D02*
X59566666Y-111839500D01*
X59566666Y-111839500D02*
X59471428Y-111887119D01*
X59471428Y-111887119D02*
X59090476Y-111887119D01*
X59090476Y-111887119D02*
X59090476Y-110887119D01*
X59090476Y-110887119D02*
X59423809Y-110887119D01*
X59423809Y-110887119D02*
X59519047Y-110934738D01*
X59519047Y-110934738D02*
X59566666Y-110982357D01*
X59566666Y-110982357D02*
X59614285Y-111077595D01*
X59614285Y-111077595D02*
X59614285Y-111172833D01*
X59614285Y-111172833D02*
X59566666Y-111268071D01*
X59566666Y-111268071D02*
X59519047Y-111315690D01*
X59519047Y-111315690D02*
X59423809Y-111363309D01*
X59423809Y-111363309D02*
X59090476Y-111363309D01*
X60614285Y-111887119D02*
X60042857Y-111887119D01*
X60328571Y-111887119D02*
X60328571Y-110887119D01*
X60328571Y-110887119D02*
X60233333Y-111029976D01*
X60233333Y-111029976D02*
X60138095Y-111125214D01*
X60138095Y-111125214D02*
X60042857Y-111172833D01*
X80449619Y-106766666D02*
X79973428Y-107099999D01*
X80449619Y-107338094D02*
X79449619Y-107338094D01*
X79449619Y-107338094D02*
X79449619Y-106957142D01*
X79449619Y-106957142D02*
X79497238Y-106861904D01*
X79497238Y-106861904D02*
X79544857Y-106814285D01*
X79544857Y-106814285D02*
X79640095Y-106766666D01*
X79640095Y-106766666D02*
X79782952Y-106766666D01*
X79782952Y-106766666D02*
X79878190Y-106814285D01*
X79878190Y-106814285D02*
X79925809Y-106861904D01*
X79925809Y-106861904D02*
X79973428Y-106957142D01*
X79973428Y-106957142D02*
X79973428Y-107338094D01*
X79449619Y-105909523D02*
X79449619Y-106099999D01*
X79449619Y-106099999D02*
X79497238Y-106195237D01*
X79497238Y-106195237D02*
X79544857Y-106242856D01*
X79544857Y-106242856D02*
X79687714Y-106338094D01*
X79687714Y-106338094D02*
X79878190Y-106385713D01*
X79878190Y-106385713D02*
X80259142Y-106385713D01*
X80259142Y-106385713D02*
X80354380Y-106338094D01*
X80354380Y-106338094D02*
X80402000Y-106290475D01*
X80402000Y-106290475D02*
X80449619Y-106195237D01*
X80449619Y-106195237D02*
X80449619Y-106004761D01*
X80449619Y-106004761D02*
X80402000Y-105909523D01*
X80402000Y-105909523D02*
X80354380Y-105861904D01*
X80354380Y-105861904D02*
X80259142Y-105814285D01*
X80259142Y-105814285D02*
X80021047Y-105814285D01*
X80021047Y-105814285D02*
X79925809Y-105861904D01*
X79925809Y-105861904D02*
X79878190Y-105909523D01*
X79878190Y-105909523D02*
X79830571Y-106004761D01*
X79830571Y-106004761D02*
X79830571Y-106195237D01*
X79830571Y-106195237D02*
X79878190Y-106290475D01*
X79878190Y-106290475D02*
X79925809Y-106338094D01*
X79925809Y-106338094D02*
X80021047Y-106385713D01*
X79333333Y-121949619D02*
X78857143Y-121949619D01*
X78857143Y-121949619D02*
X78857143Y-120949619D01*
X80190476Y-121949619D02*
X79619048Y-121949619D01*
X79904762Y-121949619D02*
X79904762Y-120949619D01*
X79904762Y-120949619D02*
X79809524Y-121092476D01*
X79809524Y-121092476D02*
X79714286Y-121187714D01*
X79714286Y-121187714D02*
X79619048Y-121235333D01*
X95833333Y-105949619D02*
X95500000Y-105473428D01*
X95261905Y-105949619D02*
X95261905Y-104949619D01*
X95261905Y-104949619D02*
X95642857Y-104949619D01*
X95642857Y-104949619D02*
X95738095Y-104997238D01*
X95738095Y-104997238D02*
X95785714Y-105044857D01*
X95785714Y-105044857D02*
X95833333Y-105140095D01*
X95833333Y-105140095D02*
X95833333Y-105282952D01*
X95833333Y-105282952D02*
X95785714Y-105378190D01*
X95785714Y-105378190D02*
X95738095Y-105425809D01*
X95738095Y-105425809D02*
X95642857Y-105473428D01*
X95642857Y-105473428D02*
X95261905Y-105473428D01*
X96690476Y-105282952D02*
X96690476Y-105949619D01*
X96452381Y-104902000D02*
X96214286Y-105616285D01*
X96214286Y-105616285D02*
X96833333Y-105616285D01*
X52323809Y-103873428D02*
X52323809Y-104349619D01*
X51990476Y-103349619D02*
X52323809Y-103873428D01*
X52323809Y-103873428D02*
X52657142Y-103349619D01*
X53514285Y-104349619D02*
X52942857Y-104349619D01*
X53228571Y-104349619D02*
X53228571Y-103349619D01*
X53228571Y-103349619D02*
X53133333Y-103492476D01*
X53133333Y-103492476D02*
X53038095Y-103587714D01*
X53038095Y-103587714D02*
X52942857Y-103635333D01*
X95457142Y-119754380D02*
X95409523Y-119802000D01*
X95409523Y-119802000D02*
X95266666Y-119849619D01*
X95266666Y-119849619D02*
X95171428Y-119849619D01*
X95171428Y-119849619D02*
X95028571Y-119802000D01*
X95028571Y-119802000D02*
X94933333Y-119706761D01*
X94933333Y-119706761D02*
X94885714Y-119611523D01*
X94885714Y-119611523D02*
X94838095Y-119421047D01*
X94838095Y-119421047D02*
X94838095Y-119278190D01*
X94838095Y-119278190D02*
X94885714Y-119087714D01*
X94885714Y-119087714D02*
X94933333Y-118992476D01*
X94933333Y-118992476D02*
X95028571Y-118897238D01*
X95028571Y-118897238D02*
X95171428Y-118849619D01*
X95171428Y-118849619D02*
X95266666Y-118849619D01*
X95266666Y-118849619D02*
X95409523Y-118897238D01*
X95409523Y-118897238D02*
X95457142Y-118944857D01*
X96409523Y-119849619D02*
X95838095Y-119849619D01*
X96123809Y-119849619D02*
X96123809Y-118849619D01*
X96123809Y-118849619D02*
X96028571Y-118992476D01*
X96028571Y-118992476D02*
X95933333Y-119087714D01*
X95933333Y-119087714D02*
X95838095Y-119135333D01*
X96980952Y-119278190D02*
X96885714Y-119230571D01*
X96885714Y-119230571D02*
X96838095Y-119182952D01*
X96838095Y-119182952D02*
X96790476Y-119087714D01*
X96790476Y-119087714D02*
X96790476Y-119040095D01*
X96790476Y-119040095D02*
X96838095Y-118944857D01*
X96838095Y-118944857D02*
X96885714Y-118897238D01*
X96885714Y-118897238D02*
X96980952Y-118849619D01*
X96980952Y-118849619D02*
X97171428Y-118849619D01*
X97171428Y-118849619D02*
X97266666Y-118897238D01*
X97266666Y-118897238D02*
X97314285Y-118944857D01*
X97314285Y-118944857D02*
X97361904Y-119040095D01*
X97361904Y-119040095D02*
X97361904Y-119087714D01*
X97361904Y-119087714D02*
X97314285Y-119182952D01*
X97314285Y-119182952D02*
X97266666Y-119230571D01*
X97266666Y-119230571D02*
X97171428Y-119278190D01*
X97171428Y-119278190D02*
X96980952Y-119278190D01*
X96980952Y-119278190D02*
X96885714Y-119325809D01*
X96885714Y-119325809D02*
X96838095Y-119373428D01*
X96838095Y-119373428D02*
X96790476Y-119468666D01*
X96790476Y-119468666D02*
X96790476Y-119659142D01*
X96790476Y-119659142D02*
X96838095Y-119754380D01*
X96838095Y-119754380D02*
X96885714Y-119802000D01*
X96885714Y-119802000D02*
X96980952Y-119849619D01*
X96980952Y-119849619D02*
X97171428Y-119849619D01*
X97171428Y-119849619D02*
X97266666Y-119802000D01*
X97266666Y-119802000D02*
X97314285Y-119754380D01*
X97314285Y-119754380D02*
X97361904Y-119659142D01*
X97361904Y-119659142D02*
X97361904Y-119468666D01*
X97361904Y-119468666D02*
X97314285Y-119373428D01*
X97314285Y-119373428D02*
X97266666Y-119325809D01*
X97266666Y-119325809D02*
X97171428Y-119278190D01*
X82049619Y-105166666D02*
X81573428Y-105499999D01*
X82049619Y-105738094D02*
X81049619Y-105738094D01*
X81049619Y-105738094D02*
X81049619Y-105357142D01*
X81049619Y-105357142D02*
X81097238Y-105261904D01*
X81097238Y-105261904D02*
X81144857Y-105214285D01*
X81144857Y-105214285D02*
X81240095Y-105166666D01*
X81240095Y-105166666D02*
X81382952Y-105166666D01*
X81382952Y-105166666D02*
X81478190Y-105214285D01*
X81478190Y-105214285D02*
X81525809Y-105261904D01*
X81525809Y-105261904D02*
X81573428Y-105357142D01*
X81573428Y-105357142D02*
X81573428Y-105738094D01*
X81478190Y-104595237D02*
X81430571Y-104690475D01*
X81430571Y-104690475D02*
X81382952Y-104738094D01*
X81382952Y-104738094D02*
X81287714Y-104785713D01*
X81287714Y-104785713D02*
X81240095Y-104785713D01*
X81240095Y-104785713D02*
X81144857Y-104738094D01*
X81144857Y-104738094D02*
X81097238Y-104690475D01*
X81097238Y-104690475D02*
X81049619Y-104595237D01*
X81049619Y-104595237D02*
X81049619Y-104404761D01*
X81049619Y-104404761D02*
X81097238Y-104309523D01*
X81097238Y-104309523D02*
X81144857Y-104261904D01*
X81144857Y-104261904D02*
X81240095Y-104214285D01*
X81240095Y-104214285D02*
X81287714Y-104214285D01*
X81287714Y-104214285D02*
X81382952Y-104261904D01*
X81382952Y-104261904D02*
X81430571Y-104309523D01*
X81430571Y-104309523D02*
X81478190Y-104404761D01*
X81478190Y-104404761D02*
X81478190Y-104595237D01*
X81478190Y-104595237D02*
X81525809Y-104690475D01*
X81525809Y-104690475D02*
X81573428Y-104738094D01*
X81573428Y-104738094D02*
X81668666Y-104785713D01*
X81668666Y-104785713D02*
X81859142Y-104785713D01*
X81859142Y-104785713D02*
X81954380Y-104738094D01*
X81954380Y-104738094D02*
X82002000Y-104690475D01*
X82002000Y-104690475D02*
X82049619Y-104595237D01*
X82049619Y-104595237D02*
X82049619Y-104404761D01*
X82049619Y-104404761D02*
X82002000Y-104309523D01*
X82002000Y-104309523D02*
X81954380Y-104261904D01*
X81954380Y-104261904D02*
X81859142Y-104214285D01*
X81859142Y-104214285D02*
X81668666Y-104214285D01*
X81668666Y-104214285D02*
X81573428Y-104261904D01*
X81573428Y-104261904D02*
X81525809Y-104309523D01*
X81525809Y-104309523D02*
X81478190Y-104404761D01*
X86457142Y-104654380D02*
X86409523Y-104702000D01*
X86409523Y-104702000D02*
X86266666Y-104749619D01*
X86266666Y-104749619D02*
X86171428Y-104749619D01*
X86171428Y-104749619D02*
X86028571Y-104702000D01*
X86028571Y-104702000D02*
X85933333Y-104606761D01*
X85933333Y-104606761D02*
X85885714Y-104511523D01*
X85885714Y-104511523D02*
X85838095Y-104321047D01*
X85838095Y-104321047D02*
X85838095Y-104178190D01*
X85838095Y-104178190D02*
X85885714Y-103987714D01*
X85885714Y-103987714D02*
X85933333Y-103892476D01*
X85933333Y-103892476D02*
X86028571Y-103797238D01*
X86028571Y-103797238D02*
X86171428Y-103749619D01*
X86171428Y-103749619D02*
X86266666Y-103749619D01*
X86266666Y-103749619D02*
X86409523Y-103797238D01*
X86409523Y-103797238D02*
X86457142Y-103844857D01*
X87409523Y-104749619D02*
X86838095Y-104749619D01*
X87123809Y-104749619D02*
X87123809Y-103749619D01*
X87123809Y-103749619D02*
X87028571Y-103892476D01*
X87028571Y-103892476D02*
X86933333Y-103987714D01*
X86933333Y-103987714D02*
X86838095Y-104035333D01*
X88314285Y-103749619D02*
X87838095Y-103749619D01*
X87838095Y-103749619D02*
X87790476Y-104225809D01*
X87790476Y-104225809D02*
X87838095Y-104178190D01*
X87838095Y-104178190D02*
X87933333Y-104130571D01*
X87933333Y-104130571D02*
X88171428Y-104130571D01*
X88171428Y-104130571D02*
X88266666Y-104178190D01*
X88266666Y-104178190D02*
X88314285Y-104225809D01*
X88314285Y-104225809D02*
X88361904Y-104321047D01*
X88361904Y-104321047D02*
X88361904Y-104559142D01*
X88361904Y-104559142D02*
X88314285Y-104654380D01*
X88314285Y-104654380D02*
X88266666Y-104702000D01*
X88266666Y-104702000D02*
X88171428Y-104749619D01*
X88171428Y-104749619D02*
X87933333Y-104749619D01*
X87933333Y-104749619D02*
X87838095Y-104702000D01*
X87838095Y-104702000D02*
X87790476Y-104654380D01*
D12*
%TO.C,G\u002A\u002A\u002A*%
G36*
X85522525Y-121102192D02*
G01*
X85523079Y-121124611D01*
X85523583Y-121160887D01*
X85524033Y-121210127D01*
X85524426Y-121271439D01*
X85524762Y-121343931D01*
X85525036Y-121426711D01*
X85525246Y-121518886D01*
X85525389Y-121619565D01*
X85525463Y-121727856D01*
X85525466Y-121842866D01*
X85525394Y-121963704D01*
X85525245Y-122089477D01*
X85525108Y-122171664D01*
X85523126Y-123248808D01*
X85353290Y-123347047D01*
X85306491Y-123374240D01*
X85264140Y-123399084D01*
X85228140Y-123420443D01*
X85200394Y-123437182D01*
X85182803Y-123448166D01*
X85177335Y-123452030D01*
X85177714Y-123453215D01*
X85185407Y-123449887D01*
X85201371Y-123441514D01*
X85226559Y-123427563D01*
X85261927Y-123407502D01*
X85308428Y-123380798D01*
X85367017Y-123346920D01*
X85397513Y-123329231D01*
X85438926Y-123305717D01*
X85476193Y-123285548D01*
X85507062Y-123269862D01*
X85529277Y-123259802D01*
X85540585Y-123256506D01*
X85541081Y-123256611D01*
X85549875Y-123261281D01*
X85571111Y-123273195D01*
X85603843Y-123291803D01*
X85647126Y-123316558D01*
X85700016Y-123346913D01*
X85761568Y-123382320D01*
X85830836Y-123422230D01*
X85906875Y-123466097D01*
X85988741Y-123513372D01*
X86075489Y-123563508D01*
X86166173Y-123615956D01*
X86259848Y-123670170D01*
X86355570Y-123725601D01*
X86452394Y-123781701D01*
X86549375Y-123837924D01*
X86645566Y-123893720D01*
X86740025Y-123948543D01*
X86831805Y-124001844D01*
X86919962Y-124053076D01*
X87003550Y-124101690D01*
X87081625Y-124147141D01*
X87153241Y-124188878D01*
X87217455Y-124226355D01*
X87273320Y-124259025D01*
X87319891Y-124286338D01*
X87356224Y-124307748D01*
X87381374Y-124322706D01*
X87394395Y-124330666D01*
X87396063Y-124331849D01*
X87389448Y-124336077D01*
X87370233Y-124347580D01*
X87339359Y-124365812D01*
X87297771Y-124390226D01*
X87246412Y-124420275D01*
X87186224Y-124455413D01*
X87118151Y-124495094D01*
X87043136Y-124538770D01*
X86962121Y-124585895D01*
X86876051Y-124635922D01*
X86785867Y-124688305D01*
X86692514Y-124742497D01*
X86596934Y-124797951D01*
X86500070Y-124854121D01*
X86402865Y-124910460D01*
X86306263Y-124966421D01*
X86211207Y-125021457D01*
X86118639Y-125075023D01*
X86029503Y-125126571D01*
X85944742Y-125175555D01*
X85865298Y-125221428D01*
X85792116Y-125263644D01*
X85726138Y-125301655D01*
X85668307Y-125334915D01*
X85619567Y-125362878D01*
X85580859Y-125384997D01*
X85553129Y-125400725D01*
X85537317Y-125409515D01*
X85533861Y-125411251D01*
X85526869Y-125407406D01*
X85507117Y-125396174D01*
X85475383Y-125378003D01*
X85432442Y-125353340D01*
X85379072Y-125322634D01*
X85316050Y-125286333D01*
X85244153Y-125244884D01*
X85164156Y-125198736D01*
X85076838Y-125148336D01*
X84982975Y-125094132D01*
X84883344Y-125036573D01*
X84778721Y-124976106D01*
X84669884Y-124913179D01*
X84602297Y-124874090D01*
X84491306Y-124809853D01*
X84384100Y-124747733D01*
X84281453Y-124688181D01*
X84184139Y-124631651D01*
X84092933Y-124578593D01*
X84008609Y-124529461D01*
X83931942Y-124484708D01*
X83863707Y-124444784D01*
X83804676Y-124410144D01*
X83755626Y-124381238D01*
X83717330Y-124358520D01*
X83690564Y-124342442D01*
X83676100Y-124333455D01*
X83673649Y-124331653D01*
X83680217Y-124326830D01*
X83699077Y-124314963D01*
X83728962Y-124296803D01*
X83768604Y-124273102D01*
X83816739Y-124244613D01*
X83872097Y-124212087D01*
X83933414Y-124176276D01*
X83999422Y-124137932D01*
X84021648Y-124125065D01*
X84088888Y-124086108D01*
X84151852Y-124049506D01*
X84209272Y-124016004D01*
X84259884Y-123986347D01*
X84302422Y-123961278D01*
X84335619Y-123941542D01*
X84358210Y-123927884D01*
X84368930Y-123921047D01*
X84369647Y-123920417D01*
X84369549Y-123919454D01*
X84368548Y-123919173D01*
X84365586Y-123920174D01*
X84359602Y-123923058D01*
X84349537Y-123928423D01*
X84334331Y-123936871D01*
X84312925Y-123949001D01*
X84284260Y-123965413D01*
X84247275Y-123986708D01*
X84200911Y-124013486D01*
X84144109Y-124046346D01*
X84075809Y-124085889D01*
X84001651Y-124128835D01*
X83935397Y-124167169D01*
X83873329Y-124203015D01*
X83816744Y-124235626D01*
X83766940Y-124264259D01*
X83725215Y-124288168D01*
X83692867Y-124306609D01*
X83671194Y-124318837D01*
X83661493Y-124324108D01*
X83661104Y-124324261D01*
X83660735Y-124316590D01*
X83660379Y-124294170D01*
X83660037Y-124257894D01*
X83659713Y-124208653D01*
X83659410Y-124147340D01*
X83659129Y-124074847D01*
X83658874Y-123992065D01*
X83658688Y-123916771D01*
X84377229Y-123916771D01*
X84379734Y-123915883D01*
X84385830Y-123912816D01*
X84396504Y-123907011D01*
X84412746Y-123897910D01*
X84435544Y-123884953D01*
X84465885Y-123867583D01*
X84504759Y-123845240D01*
X84553153Y-123817366D01*
X84612056Y-123783403D01*
X84682457Y-123742790D01*
X84765342Y-123694971D01*
X84772387Y-123690906D01*
X84843352Y-123649907D01*
X84910328Y-123611097D01*
X84972074Y-123575203D01*
X85027350Y-123542953D01*
X85074915Y-123515072D01*
X85113530Y-123492287D01*
X85141953Y-123475324D01*
X85158944Y-123464911D01*
X85163397Y-123461883D01*
X85167040Y-123456589D01*
X85163397Y-123457892D01*
X85151188Y-123464568D01*
X85127455Y-123477984D01*
X85093668Y-123497286D01*
X85051300Y-123521618D01*
X85001822Y-123550127D01*
X84946707Y-123581957D01*
X84887427Y-123616254D01*
X84825454Y-123652164D01*
X84762259Y-123688831D01*
X84699315Y-123725401D01*
X84638093Y-123761019D01*
X84580066Y-123794832D01*
X84526705Y-123825983D01*
X84479483Y-123853618D01*
X84439871Y-123876883D01*
X84409341Y-123894923D01*
X84389366Y-123906884D01*
X84381417Y-123911910D01*
X84381377Y-123911948D01*
X84379039Y-123914245D01*
X84377327Y-123916039D01*
X84377229Y-123916771D01*
X83658688Y-123916771D01*
X83658646Y-123899887D01*
X83658449Y-123799205D01*
X83658285Y-123690911D01*
X83658157Y-123575896D01*
X83658067Y-123455053D01*
X83658018Y-123329274D01*
X83658009Y-123246935D01*
X83658009Y-122169608D01*
X84587382Y-121632064D01*
X84698475Y-121567830D01*
X84805853Y-121505785D01*
X84908738Y-121446379D01*
X85006350Y-121390058D01*
X85097910Y-121337271D01*
X85182640Y-121288465D01*
X85259760Y-121244090D01*
X85328493Y-121204592D01*
X85388058Y-121170420D01*
X85437678Y-121142022D01*
X85476572Y-121119846D01*
X85503964Y-121104339D01*
X85519072Y-121095951D01*
X85521923Y-121094520D01*
X85522525Y-121102192D01*
G37*
G36*
X90209406Y-121629107D02*
G01*
X91141992Y-122168430D01*
X91140009Y-123250745D01*
X91138027Y-124333061D01*
X90219154Y-124864856D01*
X90108545Y-124928869D01*
X90001563Y-124990779D01*
X89898998Y-125050128D01*
X89801644Y-125106459D01*
X89710291Y-125159313D01*
X89625730Y-125208233D01*
X89548755Y-125252761D01*
X89480156Y-125292439D01*
X89420724Y-125326808D01*
X89371253Y-125355411D01*
X89332533Y-125377790D01*
X89305356Y-125393487D01*
X89290514Y-125402044D01*
X89287936Y-125403518D01*
X89282427Y-125402440D01*
X89269487Y-125396867D01*
X89248656Y-125386536D01*
X89219472Y-125371189D01*
X89181473Y-125350565D01*
X89134198Y-125324404D01*
X89077186Y-125292446D01*
X89009974Y-125254431D01*
X88932101Y-125210098D01*
X88843105Y-125159187D01*
X88742525Y-125101439D01*
X88629899Y-125036593D01*
X88504766Y-124964388D01*
X88366664Y-124884566D01*
X88347558Y-124873514D01*
X88236607Y-124809292D01*
X88129441Y-124747189D01*
X88026834Y-124687658D01*
X87929561Y-124631150D01*
X87838397Y-124578119D01*
X87754116Y-124529017D01*
X87677492Y-124484295D01*
X87609301Y-124444407D01*
X87550317Y-124409805D01*
X87501314Y-124380941D01*
X87463067Y-124358267D01*
X87436352Y-124342236D01*
X87421941Y-124333300D01*
X87419523Y-124331532D01*
X87426170Y-124327083D01*
X87445593Y-124315278D01*
X87477017Y-124296571D01*
X87519665Y-124271412D01*
X87572761Y-124240254D01*
X87635530Y-124203550D01*
X87707197Y-124161752D01*
X87786983Y-124115312D01*
X87874115Y-124064682D01*
X87967816Y-124010315D01*
X88067310Y-123952662D01*
X88171822Y-123892176D01*
X88280575Y-123829310D01*
X88345847Y-123791613D01*
X89272170Y-123256805D01*
X89274495Y-122173295D01*
X89276820Y-121089784D01*
X90209406Y-121629107D01*
G37*
G36*
X87961447Y-122707946D02*
G01*
X88001528Y-122716179D01*
X88035018Y-122731437D01*
X88061109Y-122750588D01*
X88081485Y-122771406D01*
X88100646Y-122796579D01*
X88115508Y-122821431D01*
X88122986Y-122841283D01*
X88123341Y-122844970D01*
X88116387Y-122850457D01*
X88098268Y-122857615D01*
X88076166Y-122864023D01*
X88028991Y-122875907D01*
X88014349Y-122847390D01*
X87991867Y-122817223D01*
X87960764Y-122798930D01*
X87919521Y-122791695D01*
X87910191Y-122791503D01*
X87865901Y-122797822D01*
X87830530Y-122816940D01*
X87803674Y-122849099D01*
X87798803Y-122858078D01*
X87791461Y-122875669D01*
X87786764Y-122895811D01*
X87784191Y-122922409D01*
X87783220Y-122959366D01*
X87783163Y-122975278D01*
X87783531Y-123014733D01*
X87785047Y-123042512D01*
X87788332Y-123062570D01*
X87794002Y-123078863D01*
X87801680Y-123093614D01*
X87828279Y-123126735D01*
X87861728Y-123148466D01*
X87898907Y-123158235D01*
X87936698Y-123155471D01*
X87971981Y-123139604D01*
X87986783Y-123127486D01*
X88005300Y-123105648D01*
X88019408Y-123082236D01*
X88022238Y-123075246D01*
X88031051Y-123056868D01*
X88041641Y-123052206D01*
X88043891Y-123052678D01*
X88081723Y-123063686D01*
X88106360Y-123072439D01*
X88119582Y-123081185D01*
X88123172Y-123092172D01*
X88118910Y-123107650D01*
X88108580Y-123129867D01*
X88107244Y-123132625D01*
X88078077Y-123175838D01*
X88038465Y-123209234D01*
X87990751Y-123232004D01*
X87937276Y-123243339D01*
X87880384Y-123242428D01*
X87826174Y-123229784D01*
X87782651Y-123207370D01*
X87742994Y-123173051D01*
X87710709Y-123130556D01*
X87689591Y-123084531D01*
X87679426Y-123036653D01*
X87675454Y-122981728D01*
X87677704Y-122926441D01*
X87686207Y-122877475D01*
X87688617Y-122869165D01*
X87713767Y-122812291D01*
X87749340Y-122766800D01*
X87794407Y-122733378D01*
X87848038Y-122712711D01*
X87909303Y-122705483D01*
X87910583Y-122705481D01*
X87961447Y-122707946D01*
G37*
G36*
X86744989Y-122713597D02*
G01*
X86788963Y-122714775D01*
X86822195Y-122717273D01*
X86847130Y-122721528D01*
X86866214Y-122727977D01*
X86881892Y-122737056D01*
X86896610Y-122749204D01*
X86898488Y-122750944D01*
X86923051Y-122781126D01*
X86937273Y-122817585D01*
X86942422Y-122863776D01*
X86942491Y-122870895D01*
X86937191Y-122922271D01*
X86920855Y-122963252D01*
X86892828Y-122995141D01*
X86873314Y-123008624D01*
X86856502Y-123017790D01*
X86840488Y-123024051D01*
X86821548Y-123028085D01*
X86795960Y-123030574D01*
X86760002Y-123032197D01*
X86741121Y-123032778D01*
X86645324Y-123035537D01*
X86645324Y-123136396D01*
X86645324Y-123237254D01*
X86594493Y-123237254D01*
X86543661Y-123237254D01*
X86543661Y-122975278D01*
X86543661Y-122799323D01*
X86645324Y-122799323D01*
X86645324Y-122874370D01*
X86645324Y-122949417D01*
X86720302Y-122946707D01*
X86755434Y-122945160D01*
X86778642Y-122942928D01*
X86793642Y-122939037D01*
X86804147Y-122932509D01*
X86813873Y-122922370D01*
X86814144Y-122922055D01*
X86830647Y-122892518D01*
X86832158Y-122861636D01*
X86818786Y-122832138D01*
X86810150Y-122822182D01*
X86798421Y-122811323D01*
X86787045Y-122804591D01*
X86771982Y-122801003D01*
X86749196Y-122799575D01*
X86716307Y-122799323D01*
X86645324Y-122799323D01*
X86543661Y-122799323D01*
X86543661Y-122713301D01*
X86687826Y-122713301D01*
X86744989Y-122713597D01*
G37*
G36*
X88733317Y-122975278D02*
G01*
X88733317Y-123237254D01*
X88682613Y-123237254D01*
X88631909Y-123237254D01*
X88629827Y-123029625D01*
X88627744Y-122821997D01*
X88581346Y-123004210D01*
X88567953Y-123056761D01*
X88555498Y-123105546D01*
X88544614Y-123148093D01*
X88535933Y-123181929D01*
X88530090Y-123204582D01*
X88528192Y-123211838D01*
X88523583Y-123226194D01*
X88516659Y-123233770D01*
X88503049Y-123236730D01*
X88478381Y-123237233D01*
X88476837Y-123237233D01*
X88432239Y-123237211D01*
X88382155Y-123039773D01*
X88368402Y-122986054D01*
X88355599Y-122936990D01*
X88344329Y-122894734D01*
X88335172Y-122861438D01*
X88328709Y-122839253D01*
X88325696Y-122830604D01*
X88324011Y-122834910D01*
X88322475Y-122852982D01*
X88321152Y-122882942D01*
X88320105Y-122922915D01*
X88319396Y-122971027D01*
X88319087Y-123025401D01*
X88319084Y-123028064D01*
X88318846Y-123237254D01*
X88271925Y-123237254D01*
X88225004Y-123237254D01*
X88225004Y-122975278D01*
X88225004Y-122713301D01*
X88297341Y-122713320D01*
X88369677Y-122713338D01*
X88415986Y-122887319D01*
X88429419Y-122937242D01*
X88441766Y-122982095D01*
X88452394Y-123019668D01*
X88460673Y-123047748D01*
X88465972Y-123064126D01*
X88467387Y-123067344D01*
X88470895Y-123062136D01*
X88477586Y-123044011D01*
X88486749Y-123015202D01*
X88497674Y-122977940D01*
X88509653Y-122934456D01*
X88509668Y-122934401D01*
X88522452Y-122886761D01*
X88534715Y-122841321D01*
X88545538Y-122801465D01*
X88554004Y-122770575D01*
X88558529Y-122754357D01*
X88570202Y-122713301D01*
X88651759Y-122713301D01*
X88733317Y-122713301D01*
X88733317Y-122975278D01*
G37*
G36*
X86473280Y-122748492D02*
G01*
X86473280Y-122783683D01*
X86391168Y-122783683D01*
X86309055Y-122783683D01*
X86309055Y-123006558D01*
X86309055Y-123229434D01*
X86262134Y-123229434D01*
X86215213Y-123229434D01*
X86215213Y-123006558D01*
X86215213Y-122783683D01*
X86137011Y-122783683D01*
X86058809Y-122783683D01*
X86058809Y-122748492D01*
X86058809Y-122713301D01*
X86266044Y-122713301D01*
X86473280Y-122713301D01*
X86473280Y-122748492D01*
G37*
G36*
X87044154Y-123182513D02*
G01*
X87044154Y-123229434D01*
X86993323Y-123229434D01*
X86942491Y-123229434D01*
X86942491Y-123182513D01*
X86942491Y-123135592D01*
X86993323Y-123135592D01*
X87044154Y-123135592D01*
X87044154Y-123182513D01*
G37*
G36*
X87247479Y-122814963D02*
G01*
X87247479Y-122916626D01*
X87356962Y-122916626D01*
X87466445Y-122916626D01*
X87466445Y-122814963D01*
X87466445Y-122713301D01*
X87517276Y-122713301D01*
X87568107Y-122713301D01*
X87568107Y-122971367D01*
X87568107Y-123229434D01*
X87517276Y-123229434D01*
X87466445Y-123229434D01*
X87466445Y-123116041D01*
X87466445Y-123002648D01*
X87356962Y-123002648D01*
X87247479Y-123002648D01*
X87247479Y-123116041D01*
X87247479Y-123229434D01*
X87200558Y-123229434D01*
X87153637Y-123229434D01*
X87153637Y-122971367D01*
X87153637Y-122713301D01*
X87200558Y-122713301D01*
X87247479Y-122713301D01*
X87247479Y-122814963D01*
G37*
G36*
X86424403Y-121055692D02*
G01*
X86520198Y-121055871D01*
X86601824Y-121056334D01*
X86670752Y-121057202D01*
X86728453Y-121058598D01*
X86776396Y-121060643D01*
X86816054Y-121063458D01*
X86848896Y-121067165D01*
X86876394Y-121071886D01*
X86900018Y-121077742D01*
X86921238Y-121084854D01*
X86941526Y-121093344D01*
X86954600Y-121099508D01*
X87009293Y-121134256D01*
X87058304Y-121181454D01*
X87098840Y-121238179D01*
X87113397Y-121265667D01*
X87126509Y-121294166D01*
X87134770Y-121316481D01*
X87139260Y-121337955D01*
X87141056Y-121363926D01*
X87141237Y-121399735D01*
X87141212Y-121403418D01*
X87139931Y-121447050D01*
X87136309Y-121480254D01*
X87129605Y-121508160D01*
X87123744Y-121524631D01*
X87091115Y-121586669D01*
X87045085Y-121642418D01*
X86987236Y-121690064D01*
X86969037Y-121701766D01*
X86958750Y-121709053D01*
X86962272Y-121713441D01*
X86969862Y-121716294D01*
X87039800Y-121748314D01*
X87099174Y-121790791D01*
X87147054Y-121842764D01*
X87182508Y-121903275D01*
X87200459Y-121953960D01*
X87206361Y-121988822D01*
X87209036Y-122032802D01*
X87208477Y-122079713D01*
X87204677Y-122123367D01*
X87200688Y-122146090D01*
X87179786Y-122209139D01*
X87147279Y-122269853D01*
X87105704Y-122324790D01*
X87057596Y-122370507D01*
X87014429Y-122399033D01*
X86994491Y-122409433D01*
X86975836Y-122418280D01*
X86957034Y-122425715D01*
X86936657Y-122431877D01*
X86913274Y-122436908D01*
X86885456Y-122440946D01*
X86851773Y-122444133D01*
X86810796Y-122446607D01*
X86761095Y-122448511D01*
X86701241Y-122449983D01*
X86629805Y-122451163D01*
X86545356Y-122452193D01*
X86463504Y-122453041D01*
X86058809Y-122457089D01*
X86058809Y-121853079D01*
X86340336Y-121853079D01*
X86340336Y-122041468D01*
X86340336Y-122229856D01*
X86569077Y-122226940D01*
X86636714Y-122225973D01*
X86690592Y-122224909D01*
X86732590Y-122223625D01*
X86764590Y-122222001D01*
X86788472Y-122219916D01*
X86806116Y-122217248D01*
X86819404Y-122213876D01*
X86829099Y-122210181D01*
X86874378Y-122182565D01*
X86907252Y-122145526D01*
X86927398Y-122099573D01*
X86934493Y-122045214D01*
X86934499Y-122044121D01*
X86927793Y-121989736D01*
X86907870Y-121943123D01*
X86875657Y-121905374D01*
X86832078Y-121877578D01*
X86779155Y-121861031D01*
X86759619Y-121858822D01*
X86727152Y-121856849D01*
X86684466Y-121855201D01*
X86634269Y-121853969D01*
X86579271Y-121853241D01*
X86538684Y-121853079D01*
X86340336Y-121853079D01*
X86058809Y-121853079D01*
X86058809Y-121756254D01*
X86058809Y-121288701D01*
X86340336Y-121288701D01*
X86340336Y-121449677D01*
X86340336Y-121610653D01*
X86526066Y-121610462D01*
X86580641Y-121610072D01*
X86631956Y-121609082D01*
X86677285Y-121607594D01*
X86713902Y-121605708D01*
X86739083Y-121603528D01*
X86746986Y-121602258D01*
X86795719Y-121584492D01*
X86833096Y-121556451D01*
X86858388Y-121519016D01*
X86870866Y-121473068D01*
X86872110Y-121451160D01*
X86868866Y-121408156D01*
X86857977Y-121374584D01*
X86837702Y-121345393D01*
X86834466Y-121341848D01*
X86821290Y-121328535D01*
X86808129Y-121317956D01*
X86793038Y-121309766D01*
X86774071Y-121303622D01*
X86749282Y-121299181D01*
X86716726Y-121296099D01*
X86674456Y-121294031D01*
X86620526Y-121292635D01*
X86552992Y-121291567D01*
X86549526Y-121291520D01*
X86340336Y-121288701D01*
X86058809Y-121288701D01*
X86058809Y-121055419D01*
X86424403Y-121055692D01*
G37*
G36*
X87788938Y-121364196D02*
G01*
X87790983Y-121672972D01*
X88064454Y-121364196D01*
X88337925Y-121055419D01*
X88521641Y-121055419D01*
X88705358Y-121055419D01*
X88669783Y-121092565D01*
X88641711Y-121122067D01*
X88607735Y-121158083D01*
X88569124Y-121199240D01*
X88527148Y-121244165D01*
X88483076Y-121291487D01*
X88438178Y-121339832D01*
X88393723Y-121387828D01*
X88350980Y-121434103D01*
X88311219Y-121477284D01*
X88275709Y-121515999D01*
X88245719Y-121548874D01*
X88222520Y-121574539D01*
X88207379Y-121591620D01*
X88201568Y-121598745D01*
X88201543Y-121598833D01*
X88205587Y-121606183D01*
X88217251Y-121625638D01*
X88235830Y-121656061D01*
X88260621Y-121696316D01*
X88290918Y-121745264D01*
X88326020Y-121801770D01*
X88365220Y-121864696D01*
X88407817Y-121932905D01*
X88453104Y-122005262D01*
X88462227Y-122019819D01*
X88508118Y-122093039D01*
X88551612Y-122162458D01*
X88591987Y-122226920D01*
X88628519Y-122285270D01*
X88660487Y-122336354D01*
X88687167Y-122379016D01*
X88707837Y-122412101D01*
X88721774Y-122434456D01*
X88728255Y-122444924D01*
X88728575Y-122445459D01*
X88727357Y-122448732D01*
X88718425Y-122451231D01*
X88700271Y-122453043D01*
X88671392Y-122454255D01*
X88630280Y-122454953D01*
X88575429Y-122455223D01*
X88558661Y-122455234D01*
X88383082Y-122455234D01*
X88196908Y-122125502D01*
X88010734Y-121795770D01*
X87899177Y-121912402D01*
X87787619Y-122029034D01*
X87787346Y-122242134D01*
X87787073Y-122455234D01*
X87650219Y-122455234D01*
X87513366Y-122455234D01*
X87513366Y-121755327D01*
X87513366Y-121055419D01*
X87650129Y-121055419D01*
X87786893Y-121055419D01*
X87788938Y-121364196D01*
G37*
G36*
X87396063Y-118922032D02*
G01*
X87396063Y-120004545D01*
X86545616Y-120496326D01*
X86437665Y-120558753D01*
X86332340Y-120619669D01*
X86230560Y-120678539D01*
X86133245Y-120734835D01*
X86041313Y-120788022D01*
X85955682Y-120837570D01*
X85877272Y-120882947D01*
X85807002Y-120923622D01*
X85745789Y-120959062D01*
X85694554Y-120988736D01*
X85654214Y-121012112D01*
X85625688Y-121028659D01*
X85611103Y-121037139D01*
X85527036Y-121086172D01*
X85527036Y-120004310D01*
X85527036Y-118922449D01*
X86443954Y-118392305D01*
X86554573Y-118328339D01*
X86661632Y-118266416D01*
X86764331Y-118206998D01*
X86861873Y-118150548D01*
X86953457Y-118097529D01*
X87038285Y-118048405D01*
X87115557Y-118003637D01*
X87184475Y-117963690D01*
X87244240Y-117929026D01*
X87294052Y-117900108D01*
X87333113Y-117877400D01*
X87360623Y-117861363D01*
X87375784Y-117852461D01*
X87378467Y-117850841D01*
X87396063Y-117839519D01*
X87396063Y-118922032D01*
G37*
G36*
X87414057Y-117852968D02*
G01*
X87433695Y-117864090D01*
X87464971Y-117881958D01*
X87506936Y-117906024D01*
X87558644Y-117935740D01*
X87619146Y-117970557D01*
X87687494Y-118009929D01*
X87762741Y-118053306D01*
X87843939Y-118100142D01*
X87930140Y-118149889D01*
X88020397Y-118201997D01*
X88113762Y-118255921D01*
X88209287Y-118311111D01*
X88306024Y-118367021D01*
X88403026Y-118423101D01*
X88499346Y-118478805D01*
X88594034Y-118533583D01*
X88686144Y-118586890D01*
X88774728Y-118638176D01*
X88858839Y-118686893D01*
X88937527Y-118732495D01*
X89009846Y-118774433D01*
X89074849Y-118812158D01*
X89131586Y-118845124D01*
X89179111Y-118872783D01*
X89216476Y-118894585D01*
X89242733Y-118909985D01*
X89256935Y-118918433D01*
X89259253Y-118919908D01*
X89259942Y-118928226D01*
X89260580Y-118951285D01*
X89261164Y-118988189D01*
X89261690Y-119038037D01*
X89262155Y-119099933D01*
X89262556Y-119172977D01*
X89262889Y-119256271D01*
X89263153Y-119348916D01*
X89263342Y-119450016D01*
X89263454Y-119558670D01*
X89263485Y-119673980D01*
X89263433Y-119795049D01*
X89263295Y-119920978D01*
X89263163Y-120001513D01*
X89261180Y-121077773D01*
X88332531Y-120540690D01*
X87403883Y-120003607D01*
X87403883Y-118926373D01*
X87403905Y-118797918D01*
X87403970Y-118673831D01*
X87404075Y-118555004D01*
X87404218Y-118442329D01*
X87404395Y-118336698D01*
X87404605Y-118239002D01*
X87404845Y-118150135D01*
X87405112Y-118070987D01*
X87405404Y-118002452D01*
X87405717Y-117945420D01*
X87406051Y-117900785D01*
X87406401Y-117869438D01*
X87406765Y-117852271D01*
X87407003Y-117849138D01*
X87414057Y-117852968D01*
G37*
D13*
%TO.C,J2*%
X93465000Y-101856000D02*
X93465000Y-91935000D01*
X94790000Y-97664000D02*
X94837000Y-97618000D01*
X94995000Y-97870000D02*
X95030000Y-97834000D01*
X97099000Y-95356000D02*
X97134000Y-95321000D01*
X97292000Y-95572000D02*
X97339000Y-95526000D01*
X103745000Y-91935000D02*
X93465000Y-91935000D01*
X103745000Y-92495000D02*
X93465000Y-92495000D01*
X103745000Y-93995000D02*
X93465000Y-93995000D01*
X103745000Y-98896000D02*
X93465000Y-98896000D01*
X103745000Y-101856000D02*
X93465000Y-101856000D01*
X103745000Y-101856000D02*
X103745000Y-91935000D01*
X103985000Y-91695000D02*
X103485000Y-91695000D01*
X103985000Y-92435000D02*
X103985000Y-91695000D01*
X99609574Y-97278042D02*
G75*
G02*
X99610000Y-95911000I1535426J683042D01*
G01*
X100461682Y-95060245D02*
G75*
G02*
X101145000Y-94915001I683318J-1534755D01*
G01*
X101116195Y-94914748D02*
G75*
G02*
X101829000Y-95060001I28806J-1680253D01*
G01*
X101828042Y-98130426D02*
G75*
G02*
X100461001Y-98129999I-683041J1535419D01*
G01*
X102680426Y-95911958D02*
G75*
G02*
X102679999Y-97278999I-1535419J-683041D01*
G01*
X97745000Y-96595000D02*
G75*
G02*
X94385000Y-96595000I-1680000J0D01*
G01*
X94385000Y-96595000D02*
G75*
G02*
X97745000Y-96595000I1680000J0D01*
G01*
%TO.C,R5*%
X94037258Y-103277500D02*
X93562742Y-103277500D01*
X94037258Y-104322500D02*
X93562742Y-104322500D01*
%TO.C,J5*%
X80790000Y-100030000D02*
X80790000Y-98700000D01*
X82120000Y-100030000D02*
X80790000Y-100030000D01*
X83390000Y-97370000D02*
X91070000Y-97370000D01*
X83390000Y-100030000D02*
X83390000Y-97370000D01*
X83390000Y-100030000D02*
X91070000Y-100030000D01*
X91070000Y-100030000D02*
X91070000Y-97370000D01*
%TO.C,SW1*%
X55320000Y-119320000D02*
X55320000Y-117320000D01*
X56370000Y-116020000D02*
X56820000Y-115570000D01*
X56370000Y-120620000D02*
X56820000Y-121070000D01*
X59320000Y-115570000D02*
X56820000Y-115570000D01*
X59320000Y-121070000D02*
X56820000Y-121070000D01*
X59770000Y-116020000D02*
X59320000Y-115570000D01*
X59770000Y-120620000D02*
X59320000Y-121070000D01*
X60820000Y-119320000D02*
X60820000Y-117320000D01*
%TO.C,C14*%
X87307836Y-110940000D02*
X87092164Y-110940000D01*
X87307836Y-111660000D02*
X87092164Y-111660000D01*
%TO.C,U1*%
X61390000Y-101565000D02*
X61390000Y-101865000D01*
X61390000Y-108785000D02*
X61390000Y-108485000D01*
X61690000Y-101565000D02*
X61390000Y-101565000D01*
X61690000Y-108785000D02*
X61390000Y-108785000D01*
X68310000Y-101565000D02*
X68610000Y-101565000D01*
X68310000Y-108785000D02*
X68610000Y-108785000D01*
X68610000Y-101565000D02*
X68610000Y-101865000D01*
X68610000Y-108785000D02*
X68610000Y-108485000D01*
X60787500Y-101865000D02*
X60447500Y-101395000D01*
X61127500Y-101395000D01*
X60787500Y-101865000D01*
G36*
X60787500Y-101865000D02*
G01*
X60447500Y-101395000D01*
X61127500Y-101395000D01*
X60787500Y-101865000D01*
G37*
%TO.C,C4*%
X70440000Y-108772164D02*
X70440000Y-108987836D01*
X71160000Y-108772164D02*
X71160000Y-108987836D01*
%TO.C,J6*%
X72670000Y-93670000D02*
X74000000Y-93670000D01*
X72670000Y-95000000D02*
X72670000Y-93670000D01*
X75270000Y-93670000D02*
X82950000Y-93670000D01*
X75270000Y-96330000D02*
X75270000Y-93670000D01*
X75270000Y-96330000D02*
X82950000Y-96330000D01*
X82950000Y-96330000D02*
X82950000Y-93670000D01*
%TO.C,R10*%
X81920000Y-107256359D02*
X81920000Y-107563641D01*
X82680000Y-107256359D02*
X82680000Y-107563641D01*
%TO.C,C19*%
X69527836Y-110140000D02*
X69312164Y-110140000D01*
X69527836Y-110860000D02*
X69312164Y-110860000D01*
%TO.C,C2*%
X59292164Y-112840000D02*
X59507836Y-112840000D01*
X59292164Y-113560000D02*
X59507836Y-113560000D01*
%TO.C,D2*%
X65665000Y-111312500D02*
X65665000Y-113597500D01*
X65665000Y-113597500D02*
X67135000Y-113597500D01*
X67135000Y-113597500D02*
X67135000Y-111312500D01*
%TO.C,R3*%
X66020000Y-114656359D02*
X66020000Y-114963641D01*
X66780000Y-114656359D02*
X66780000Y-114963641D01*
D14*
%TO.C,U3*%
X73465000Y-102085000D02*
X77365000Y-102085000D01*
X73465000Y-107125000D02*
X77365000Y-107125000D01*
D15*
X71415000Y-102405000D02*
G75*
G02*
X71215000Y-102405000I-100000J0D01*
G01*
X71215000Y-102405000D02*
G75*
G02*
X71415000Y-102405000I100000J0D01*
G01*
D13*
%TO.C,R9*%
X84546359Y-103920000D02*
X84853641Y-103920000D01*
X84546359Y-104680000D02*
X84853641Y-104680000D01*
%TO.C,C5*%
X57640000Y-104972164D02*
X57640000Y-105187836D01*
X58360000Y-104972164D02*
X58360000Y-105187836D01*
%TO.C,R7*%
X83177500Y-107687742D02*
X83177500Y-108162258D01*
X84222500Y-107687742D02*
X84222500Y-108162258D01*
D14*
%TO.C,U2*%
X91520000Y-105180000D02*
X87620000Y-105180000D01*
X91520000Y-110230000D02*
X87620000Y-110230000D01*
D15*
X93710000Y-110010000D02*
G75*
G02*
X93510000Y-110010000I-100000J0D01*
G01*
X93510000Y-110010000D02*
G75*
G02*
X93710000Y-110010000I100000J0D01*
G01*
D13*
%TO.C,R11*%
X65853641Y-97420000D02*
X65546359Y-97420000D01*
X65853641Y-98180000D02*
X65546359Y-98180000D01*
%TO.C,C17*%
X93572164Y-117840000D02*
X93787836Y-117840000D01*
X93572164Y-118560000D02*
X93787836Y-118560000D01*
%TO.C,J1*%
X54615000Y-93670000D02*
X54615000Y-96330000D01*
X59755000Y-93670000D02*
X54615000Y-93670000D01*
X59755000Y-93670000D02*
X59755000Y-96330000D01*
X59755000Y-96330000D02*
X54615000Y-96330000D01*
X61025000Y-93670000D02*
X62355000Y-93670000D01*
X62355000Y-93670000D02*
X62355000Y-95000000D01*
%TO.C,R13*%
X52853641Y-112720000D02*
X52546359Y-112720000D01*
X52853641Y-113480000D02*
X52546359Y-113480000D01*
%TO.C,C12*%
X93680000Y-108772164D02*
X93680000Y-108987836D01*
X94400000Y-108772164D02*
X94400000Y-108987836D01*
%TO.C,D3*%
X54627500Y-112140000D02*
X54627500Y-114060000D01*
X54627500Y-114060000D02*
X57312500Y-114060000D01*
X57312500Y-112140000D02*
X54627500Y-112140000D01*
%TO.C,J3*%
X63830000Y-121170000D02*
X63830000Y-123830000D01*
X68970000Y-121170000D02*
X63830000Y-121170000D01*
X68970000Y-121170000D02*
X68970000Y-123830000D01*
X68970000Y-123830000D02*
X63830000Y-123830000D01*
X70240000Y-121170000D02*
X71570000Y-121170000D01*
X71570000Y-121170000D02*
X71570000Y-122500000D01*
%TO.C,C16*%
X84780000Y-107222164D02*
X84780000Y-107437836D01*
X85500000Y-107222164D02*
X85500000Y-107437836D01*
%TO.C,C1*%
X59884420Y-98590000D02*
X60165580Y-98590000D01*
X59884420Y-99610000D02*
X60165580Y-99610000D01*
%TO.C,C6*%
X60192164Y-100340000D02*
X60407836Y-100340000D01*
X60192164Y-101060000D02*
X60407836Y-101060000D01*
%TO.C,C7*%
X58740000Y-106187836D02*
X58740000Y-105972164D01*
X59460000Y-106187836D02*
X59460000Y-105972164D01*
%TO.C,C9*%
X56927836Y-109315000D02*
X56712164Y-109315000D01*
X56927836Y-110035000D02*
X56712164Y-110035000D01*
%TO.C,C8*%
X56907836Y-107715000D02*
X56692164Y-107715000D01*
X56907836Y-108435000D02*
X56692164Y-108435000D01*
%TO.C,D1*%
X63665000Y-111287500D02*
X63665000Y-113572500D01*
X63665000Y-113572500D02*
X65135000Y-113572500D01*
X65135000Y-113572500D02*
X65135000Y-111287500D01*
%TO.C,C13*%
X90872164Y-104040000D02*
X91087836Y-104040000D01*
X90872164Y-104760000D02*
X91087836Y-104760000D01*
%TO.C,C11*%
X95490000Y-107694420D02*
X95490000Y-107975580D01*
X96510000Y-107694420D02*
X96510000Y-107975580D01*
%TO.C,J4*%
X99644000Y-109665000D02*
X109565000Y-109665000D01*
X99644000Y-119945000D02*
X99644000Y-109665000D01*
X99644000Y-119945000D02*
X109565000Y-119945000D01*
X102604000Y-119945000D02*
X102604000Y-109665000D01*
X103630000Y-111195000D02*
X103666000Y-111230000D01*
X103836000Y-110990000D02*
X103882000Y-111037000D01*
X105928000Y-113492000D02*
X105974000Y-113539000D01*
X106144000Y-113299000D02*
X106179000Y-113334000D01*
X107505000Y-119945000D02*
X107505000Y-109665000D01*
X109005000Y-119945000D02*
X109005000Y-109665000D01*
X109065000Y-120185000D02*
X109805000Y-120185000D01*
X109565000Y-119945000D02*
X109565000Y-109665000D01*
X109805000Y-120185000D02*
X109805000Y-119685000D01*
X103369574Y-118028042D02*
G75*
G02*
X103370001Y-116661001I1535419J683041D01*
G01*
X104221958Y-115809574D02*
G75*
G02*
X105589000Y-115810000I683042J-1535426D01*
G01*
X105588042Y-118880426D02*
G75*
G02*
X104221001Y-118879999I-683041J1535419D01*
G01*
X106439755Y-116661682D02*
G75*
G02*
X106584999Y-117345000I-1534755J-683318D01*
G01*
X106585252Y-117316195D02*
G75*
G02*
X106439999Y-118029000I-1680253J-28806D01*
G01*
X106585000Y-112265000D02*
G75*
G02*
X103225000Y-112265000I-1680000J0D01*
G01*
X103225000Y-112265000D02*
G75*
G02*
X106585000Y-112265000I1680000J0D01*
G01*
%TO.C,R2*%
X64020000Y-114656359D02*
X64020000Y-114963641D01*
X64780000Y-114656359D02*
X64780000Y-114963641D01*
%TO.C,C3*%
X57640000Y-102572164D02*
X57640000Y-102787836D01*
X58360000Y-102572164D02*
X58360000Y-102787836D01*
%TO.C,R12*%
X67736359Y-97420000D02*
X68043641Y-97420000D01*
X67736359Y-98180000D02*
X68043641Y-98180000D01*
%TO.C,D4*%
X86190000Y-113950000D02*
X86190000Y-117250000D01*
X86190000Y-113950000D02*
X91700000Y-113950000D01*
X86190000Y-117250000D02*
X91700000Y-117250000D01*
%TO.C,C10*%
X97190000Y-107694420D02*
X97190000Y-107975580D01*
X98210000Y-107694420D02*
X98210000Y-107975580D01*
%TO.C,FB1*%
X58240000Y-109399622D02*
X58240000Y-108600378D01*
X59360000Y-109399622D02*
X59360000Y-108600378D01*
%TO.C,R6*%
X79550000Y-104446359D02*
X79550000Y-104753641D01*
X80310000Y-104446359D02*
X80310000Y-104753641D01*
%TO.C,L1*%
X75240000Y-111940000D02*
X75240000Y-112190000D01*
X75240000Y-120460000D02*
X75240000Y-120210000D01*
X83760000Y-111940000D02*
X75240000Y-111940000D01*
X83760000Y-111940000D02*
X83760000Y-112190000D01*
X83760000Y-120460000D02*
X75240000Y-120460000D01*
X83760000Y-120460000D02*
X83760000Y-120210000D01*
%TO.C,R4*%
X93777500Y-106462258D02*
X93777500Y-105987742D01*
X94822500Y-106462258D02*
X94822500Y-105987742D01*
%TO.C,Y1*%
X54000000Y-101900000D02*
X54000000Y-105900000D01*
X57300000Y-101900000D02*
X54000000Y-101900000D01*
%TO.C,C18*%
X93572164Y-119040000D02*
X93787836Y-119040000D01*
X93572164Y-119760000D02*
X93787836Y-119760000D01*
%TO.C,R8*%
X82520000Y-105153641D02*
X82520000Y-104846359D01*
X83280000Y-105153641D02*
X83280000Y-104846359D01*
%TO.C,C15*%
X84807836Y-105340000D02*
X84592164Y-105340000D01*
X84807836Y-106060000D02*
X84592164Y-106060000D01*
%TD*%
M02*
