%TF.GenerationSoftware,KiCad,Pcbnew,8.0.1*%
%TF.CreationDate,2024-11-24T12:48:57+07:00*%
%TF.ProjectId,TPMS,54504d53-2e6b-4696-9361-645f70636258,rev?*%
%TF.SameCoordinates,Original*%
%TF.FileFunction,Copper,L1,Top*%
%TF.FilePolarity,Positive*%
%FSLAX46Y46*%
G04 Gerber Fmt 4.6, Leading zero omitted, Abs format (unit mm)*
G04 Created by KiCad (PCBNEW 8.0.1) date 2024-11-24 12:48:57*
%MOMM*%
%LPD*%
G01*
G04 APERTURE LIST*
G04 Aperture macros list*
%AMRoundRect*
0 Rectangle with rounded corners*
0 $1 Rounding radius*
0 $2 $3 $4 $5 $6 $7 $8 $9 X,Y pos of 4 corners*
0 Add a 4 corners polygon primitive as box body*
4,1,4,$2,$3,$4,$5,$6,$7,$8,$9,$2,$3,0*
0 Add four circle primitives for the rounded corners*
1,1,$1+$1,$2,$3*
1,1,$1+$1,$4,$5*
1,1,$1+$1,$6,$7*
1,1,$1+$1,$8,$9*
0 Add four rect primitives between the rounded corners*
20,1,$1+$1,$2,$3,$4,$5,0*
20,1,$1+$1,$4,$5,$6,$7,0*
20,1,$1+$1,$6,$7,$8,$9,0*
20,1,$1+$1,$8,$9,$2,$3,0*%
G04 Aperture macros list end*
%TA.AperFunction,ComponentPad*%
%ADD10R,1.700000X1.700000*%
%TD*%
%TA.AperFunction,ComponentPad*%
%ADD11O,1.700000X1.700000*%
%TD*%
%TA.AperFunction,SMDPad,CuDef*%
%ADD12RoundRect,0.225000X-0.250000X0.225000X-0.250000X-0.225000X0.250000X-0.225000X0.250000X0.225000X0*%
%TD*%
%TA.AperFunction,SMDPad,CuDef*%
%ADD13RoundRect,0.250000X-1.000000X-0.650000X1.000000X-0.650000X1.000000X0.650000X-1.000000X0.650000X0*%
%TD*%
%TA.AperFunction,SMDPad,CuDef*%
%ADD14RoundRect,0.135000X-0.135000X-0.185000X0.135000X-0.185000X0.135000X0.185000X-0.135000X0.185000X0*%
%TD*%
%TA.AperFunction,ComponentPad*%
%ADD15R,2.600000X2.600000*%
%TD*%
%TA.AperFunction,ComponentPad*%
%ADD16C,2.600000*%
%TD*%
%TA.AperFunction,SMDPad,CuDef*%
%ADD17RoundRect,0.140000X-0.170000X0.140000X-0.170000X-0.140000X0.170000X-0.140000X0.170000X0.140000X0*%
%TD*%
%TA.AperFunction,SMDPad,CuDef*%
%ADD18RoundRect,0.225000X-0.225000X-0.250000X0.225000X-0.250000X0.225000X0.250000X-0.225000X0.250000X0*%
%TD*%
%TA.AperFunction,SMDPad,CuDef*%
%ADD19RoundRect,0.140000X0.140000X0.170000X-0.140000X0.170000X-0.140000X-0.170000X0.140000X-0.170000X0*%
%TD*%
%TA.AperFunction,SMDPad,CuDef*%
%ADD20RoundRect,0.075000X0.910000X0.225000X-0.910000X0.225000X-0.910000X-0.225000X0.910000X-0.225000X0*%
%TD*%
%TA.AperFunction,SMDPad,CuDef*%
%ADD21RoundRect,0.200000X-0.275000X0.200000X-0.275000X-0.200000X0.275000X-0.200000X0.275000X0.200000X0*%
%TD*%
%TA.AperFunction,SMDPad,CuDef*%
%ADD22RoundRect,0.140000X-0.140000X-0.170000X0.140000X-0.170000X0.140000X0.170000X-0.140000X0.170000X0*%
%TD*%
%TA.AperFunction,SMDPad,CuDef*%
%ADD23RoundRect,0.125000X-0.625000X-0.125000X0.625000X-0.125000X0.625000X0.125000X-0.625000X0.125000X0*%
%TD*%
%TA.AperFunction,SMDPad,CuDef*%
%ADD24RoundRect,0.125000X-0.125000X-0.625000X0.125000X-0.625000X0.125000X0.625000X-0.125000X0.625000X0*%
%TD*%
%TA.AperFunction,SMDPad,CuDef*%
%ADD25RoundRect,0.135000X-0.185000X0.135000X-0.185000X-0.135000X0.185000X-0.135000X0.185000X0.135000X0*%
%TD*%
%TA.AperFunction,SMDPad,CuDef*%
%ADD26RoundRect,0.073750X-0.801250X-0.221250X0.801250X-0.221250X0.801250X0.221250X-0.801250X0.221250X0*%
%TD*%
%TA.AperFunction,SMDPad,CuDef*%
%ADD27RoundRect,0.135000X0.185000X-0.135000X0.185000X0.135000X-0.185000X0.135000X-0.185000X-0.135000X0*%
%TD*%
%TA.AperFunction,SMDPad,CuDef*%
%ADD28RoundRect,0.218750X0.256250X-0.218750X0.256250X0.218750X-0.256250X0.218750X-0.256250X-0.218750X0*%
%TD*%
%TA.AperFunction,SMDPad,CuDef*%
%ADD29RoundRect,0.200000X0.275000X-0.200000X0.275000X0.200000X-0.275000X0.200000X-0.275000X-0.200000X0*%
%TD*%
%TA.AperFunction,SMDPad,CuDef*%
%ADD30RoundRect,0.200000X0.200000X0.275000X-0.200000X0.275000X-0.200000X-0.275000X0.200000X-0.275000X0*%
%TD*%
%TA.AperFunction,SMDPad,CuDef*%
%ADD31RoundRect,0.243750X-0.243750X-0.456250X0.243750X-0.456250X0.243750X0.456250X-0.243750X0.456250X0*%
%TD*%
%TA.AperFunction,SMDPad,CuDef*%
%ADD32RoundRect,0.140000X0.170000X-0.140000X0.170000X0.140000X-0.170000X0.140000X-0.170000X-0.140000X0*%
%TD*%
%TA.AperFunction,SMDPad,CuDef*%
%ADD33RoundRect,0.218750X0.381250X-0.218750X0.381250X0.218750X-0.381250X0.218750X-0.381250X-0.218750X0*%
%TD*%
%TA.AperFunction,SMDPad,CuDef*%
%ADD34R,2.200000X7.500000*%
%TD*%
%TA.AperFunction,SMDPad,CuDef*%
%ADD35R,1.200000X1.400000*%
%TD*%
%TA.AperFunction,SMDPad,CuDef*%
%ADD36RoundRect,0.135000X0.135000X0.185000X-0.135000X0.185000X-0.135000X-0.185000X0.135000X-0.185000X0*%
%TD*%
%TA.AperFunction,SMDPad,CuDef*%
%ADD37R,1.700000X1.000000*%
%TD*%
%TA.AperFunction,ViaPad*%
%ADD38C,0.700000*%
%TD*%
%TA.AperFunction,Conductor*%
%ADD39C,0.500000*%
%TD*%
%TA.AperFunction,Conductor*%
%ADD40C,0.300000*%
%TD*%
G04 APERTURE END LIST*
D10*
%TO.P,J7,1,Pin_1*%
%TO.N,unconnected-(J7-Pin_1-Pad1)*%
X140990000Y-78925000D03*
D11*
%TO.P,J7,2,Pin_2*%
%TO.N,unconnected-(J7-Pin_2-Pad2)*%
X143530000Y-78925000D03*
%TO.P,J7,3,Pin_3*%
%TO.N,SPI_MOSI*%
X146070000Y-78925000D03*
%TO.P,J7,4,Pin_4*%
%TO.N,SPI_MISO*%
X148610000Y-78925000D03*
%TO.P,J7,5,Pin_5*%
%TO.N,SPI_SCK*%
X151150000Y-78925000D03*
%TO.P,J7,6,Pin_6*%
%TO.N,unconnected-(J7-Pin_6-Pad6)*%
X153690000Y-78925000D03*
%TO.P,J7,7,Pin_7*%
%TO.N,unconnected-(J7-Pin_7-Pad7)*%
X156230000Y-78925000D03*
%TO.P,J7,8,Pin_8*%
%TO.N,unconnected-(J7-Pin_8-Pad8)*%
X158770000Y-78925000D03*
%TO.P,J7,9,Pin_9*%
%TO.N,unconnected-(J7-Pin_9-Pad9)*%
X161310000Y-78925000D03*
%TO.P,J7,10,Pin_10*%
%TO.N,unconnected-(J7-Pin_10-Pad10)*%
X163850000Y-78925000D03*
%TD*%
%TO.P,J6,10,Pin_10*%
%TO.N,unconnected-(J6-Pin_10-Pad10)*%
X163840000Y-94000000D03*
%TO.P,J6,9,Pin_9*%
%TO.N,GND*%
X161300000Y-94000000D03*
%TO.P,J6,8,Pin_8*%
%TO.N,+3.3V*%
X158760000Y-94000000D03*
%TO.P,J6,7,Pin_7*%
%TO.N,unconnected-(J6-Pin_7-Pad7)*%
X156220000Y-94000000D03*
%TO.P,J6,6,Pin_6*%
%TO.N,unconnected-(J6-Pin_6-Pad6)*%
X153680000Y-94000000D03*
%TO.P,J6,5,Pin_5*%
%TO.N,unconnected-(J6-Pin_5-Pad5)*%
X151140000Y-94000000D03*
%TO.P,J6,4,Pin_4*%
%TO.N,unconnected-(J6-Pin_4-Pad4)*%
X148600000Y-94000000D03*
%TO.P,J6,3,Pin_3*%
%TO.N,SPI_CS*%
X146060000Y-94000000D03*
%TO.P,J6,2,Pin_2*%
%TO.N,unconnected-(J6-Pin_2-Pad2)*%
X143520000Y-94000000D03*
D10*
%TO.P,J6,1,Pin_1*%
%TO.N,unconnected-(J6-Pin_1-Pad1)*%
X140980000Y-94000000D03*
%TD*%
D12*
%TO.P,C10,1*%
%TO.N,/Vin*%
X174880000Y-104180000D03*
%TO.P,C10,2*%
%TO.N,GND*%
X174880000Y-105730000D03*
%TD*%
D13*
%TO.P,D4,1,K*%
%TO.N,/PH*%
X164880000Y-112720000D03*
%TO.P,D4,2,A*%
%TO.N,GND*%
X168880000Y-112720000D03*
%TD*%
D10*
%TO.P,J3,1,Pin_1*%
%TO.N,GND*%
X147420000Y-119620000D03*
D11*
%TO.P,J3,2,Pin_2*%
%TO.N,USART1_Rx*%
X144880000Y-119620000D03*
%TO.P,J3,3,Pin_3*%
%TO.N,USART1_Tx*%
X142340000Y-119620000D03*
%TD*%
D14*
%TO.P,R9,1*%
%TO.N,Net-(R8-Pad2)*%
X161370000Y-101420000D03*
%TO.P,R9,2*%
%TO.N,/VSense*%
X162390000Y-101420000D03*
%TD*%
D15*
%TO.P,J4,1,Pin_1*%
%TO.N,GND*%
X182085000Y-114465000D03*
D16*
%TO.P,J4,2,Pin_2*%
%TO.N,/Vin*%
X182085000Y-109385000D03*
%TD*%
D17*
%TO.P,C16,1*%
%TO.N,/COMP*%
X162320000Y-103970000D03*
%TO.P,C16,2*%
%TO.N,GND*%
X162320000Y-104930000D03*
%TD*%
%TO.P,C3,1*%
%TO.N,OSC_IN*%
X135180000Y-99320000D03*
%TO.P,C3,2*%
%TO.N,GND*%
X135180000Y-100280000D03*
%TD*%
%TO.P,C12,1*%
%TO.N,/Vin*%
X171220000Y-105520000D03*
%TO.P,C12,2*%
%TO.N,GND*%
X171220000Y-106480000D03*
%TD*%
D18*
%TO.P,C1,1*%
%TO.N,+3.3V*%
X136430000Y-96220000D03*
%TO.P,C1,2*%
%TO.N,GND*%
X137980000Y-96220000D03*
%TD*%
D19*
%TO.P,C8,1*%
%TO.N,+3.3VA*%
X134460000Y-105195000D03*
%TO.P,C8,2*%
%TO.N,GND*%
X133500000Y-105195000D03*
%TD*%
D20*
%TO.P,U2,1,BOOT*%
%TO.N,/POWER BOOT*%
X169220000Y-106730000D03*
%TO.P,U2,2,VIN*%
%TO.N,/Vin*%
X169220000Y-105460000D03*
%TO.P,U2,3,EN*%
%TO.N,/EN*%
X169220000Y-104190000D03*
%TO.P,U2,4,SS*%
%TO.N,/SS*%
X169220000Y-102920000D03*
%TO.P,U2,5,VSENSE*%
%TO.N,/VSense*%
X164280000Y-102920000D03*
%TO.P,U2,6,COMP*%
%TO.N,/COMP*%
X164280000Y-104190000D03*
%TO.P,U2,7,GND*%
%TO.N,GND*%
X164280000Y-105460000D03*
%TO.P,U2,8,PH*%
%TO.N,/PH*%
X164280000Y-106730000D03*
%TD*%
D21*
%TO.P,R7,1*%
%TO.N,Net-(C15-Pad2)*%
X160880000Y-104220000D03*
%TO.P,R7,2*%
%TO.N,GND*%
X160880000Y-105870000D03*
%TD*%
D17*
%TO.P,C4,1*%
%TO.N,+3.3V*%
X147980000Y-105520000D03*
%TO.P,C4,2*%
%TO.N,GND*%
X147980000Y-106480000D03*
%TD*%
D22*
%TO.P,C13,1*%
%TO.N,/SS*%
X167680000Y-101520000D03*
%TO.P,C13,2*%
%TO.N,GND*%
X168640000Y-101520000D03*
%TD*%
D23*
%TO.P,U1,1,VDD*%
%TO.N,+3.3V*%
X138005000Y-99495000D03*
%TO.P,U1,2,PF0*%
%TO.N,OSC_IN*%
X138005000Y-100295000D03*
%TO.P,U1,3,PF1*%
%TO.N,OSC_OUT*%
X138005000Y-101095000D03*
%TO.P,U1,4,NRST*%
%TO.N,NRST*%
X138005000Y-101895000D03*
%TO.P,U1,5,VDDA*%
%TO.N,+3.3VA*%
X138005000Y-102695000D03*
%TO.P,U1,6,PA0*%
%TO.N,unconnected-(U1-PA0-Pad6)*%
X138005000Y-103495000D03*
%TO.P,U1,7,PA1*%
%TO.N,unconnected-(U1-PA1-Pad7)*%
X138005000Y-104295000D03*
%TO.P,U1,8,PA2*%
%TO.N,unconnected-(U1-PA2-Pad8)*%
X138005000Y-105095000D03*
D24*
%TO.P,U1,9,PA3*%
%TO.N,unconnected-(U1-PA3-Pad9)*%
X139380000Y-106470000D03*
%TO.P,U1,10,PA4*%
%TO.N,unconnected-(U1-PA4-Pad10)*%
X140180000Y-106470000D03*
%TO.P,U1,11,PA5*%
%TO.N,unconnected-(U1-PA5-Pad11)*%
X140980000Y-106470000D03*
%TO.P,U1,12,PA6*%
%TO.N,LED_WHITE*%
X141780000Y-106470000D03*
%TO.P,U1,13,PA7*%
%TO.N,unconnected-(U1-PA7-Pad13)*%
X142580000Y-106470000D03*
%TO.P,U1,14,PB0*%
%TO.N,LED_RED*%
X143380000Y-106470000D03*
%TO.P,U1,15,PB1*%
%TO.N,unconnected-(U1-PB1-Pad15)*%
X144180000Y-106470000D03*
%TO.P,U1,16,VSS*%
%TO.N,GND*%
X144980000Y-106470000D03*
D23*
%TO.P,U1,17,VDDIO2*%
%TO.N,+3.3V*%
X146355000Y-105095000D03*
%TO.P,U1,18,PA8*%
%TO.N,CAN_S*%
X146355000Y-104295000D03*
%TO.P,U1,19,PA9*%
%TO.N,USART1_Tx*%
X146355000Y-103495000D03*
%TO.P,U1,20,PA10*%
%TO.N,USART1_Rx*%
X146355000Y-102695000D03*
%TO.P,U1,21,PA11*%
%TO.N,CAN_Rx*%
X146355000Y-101895000D03*
%TO.P,U1,22,PA12*%
%TO.N,CAN_Tx*%
X146355000Y-101095000D03*
%TO.P,U1,23,PA13*%
%TO.N,SWDIO*%
X146355000Y-100295000D03*
%TO.P,U1,24,PA14*%
%TO.N,SWCLK*%
X146355000Y-99495000D03*
D24*
%TO.P,U1,25,PA15*%
%TO.N,SPI_CS*%
X144980000Y-98120000D03*
%TO.P,U1,26,PB3*%
%TO.N,SPI_SCK*%
X144180000Y-98120000D03*
%TO.P,U1,27,PB4*%
%TO.N,SPI_MISO*%
X143380000Y-98120000D03*
%TO.P,U1,28,PB5*%
%TO.N,SPI_MOSI*%
X142580000Y-98120000D03*
%TO.P,U1,29,PB6*%
%TO.N,unconnected-(U1-PB6-Pad29)*%
X141780000Y-98120000D03*
%TO.P,U1,30,PB7*%
%TO.N,unconnected-(U1-PB7-Pad30)*%
X140980000Y-98120000D03*
%TO.P,U1,31,PB8*%
%TO.N,BOOT*%
X140180000Y-98120000D03*
%TO.P,U1,32,VSSA*%
%TO.N,GND*%
X139380000Y-98120000D03*
%TD*%
D19*
%TO.P,C14,1*%
%TO.N,/POWER BOOT*%
X164860000Y-108420000D03*
%TO.P,C14,2*%
%TO.N,/PH*%
X163900000Y-108420000D03*
%TD*%
D25*
%TO.P,R1,1*%
%TO.N,Net-(D1-K)*%
X141580000Y-111420000D03*
%TO.P,R1,2*%
%TO.N,GND*%
X141580000Y-112440000D03*
%TD*%
D17*
%TO.P,C5,1*%
%TO.N,OSC_OUT*%
X135180000Y-101720000D03*
%TO.P,C5,2*%
%TO.N,GND*%
X135180000Y-102680000D03*
%TD*%
D26*
%TO.P,U3,1,TXD*%
%TO.N,CAN_Tx*%
X150010000Y-99820000D03*
%TO.P,U3,2,GND*%
%TO.N,GND*%
X150010000Y-101090000D03*
%TO.P,U3,3,VCC*%
%TO.N,+3.3V*%
X150010000Y-102360000D03*
%TO.P,U3,4,RXD*%
%TO.N,CAN_Rx*%
X150010000Y-103630000D03*
%TO.P,U3,5,VREF*%
%TO.N,unconnected-(U3-VREF-Pad5)*%
X155180000Y-103630000D03*
%TO.P,U3,6,CANL*%
%TO.N,/CAN-*%
X155180000Y-102360000D03*
%TO.P,U3,7,CANH*%
%TO.N,/CAN+*%
X155180000Y-101090000D03*
%TO.P,U3,8,S*%
%TO.N,CAN_S*%
X155180000Y-99820000D03*
%TD*%
D27*
%TO.P,R8,1*%
%TO.N,+3.3V*%
X160080000Y-102630000D03*
%TO.P,R8,2*%
%TO.N,Net-(R8-Pad2)*%
X160080000Y-101610000D03*
%TD*%
D28*
%TO.P,D1,1,K*%
%TO.N,Net-(D1-K)*%
X141580000Y-109995000D03*
%TO.P,D1,2,A*%
%TO.N,LED_WHITE*%
X141580000Y-108420000D03*
%TD*%
D19*
%TO.P,C9,1*%
%TO.N,+3.3V*%
X134480000Y-106795000D03*
%TO.P,C9,2*%
%TO.N,GND*%
X133520000Y-106795000D03*
%TD*%
D15*
%TO.P,J2,1,Pin_1*%
%TO.N,/CAN-*%
X175580000Y-82000000D03*
D16*
%TO.P,J2,2,Pin_2*%
%TO.N,/CAN+*%
X170500000Y-82000000D03*
%TD*%
D29*
%TO.P,R4,1*%
%TO.N,/Vin*%
X171480000Y-104170000D03*
%TO.P,R4,2*%
%TO.N,/EN*%
X171480000Y-102520000D03*
%TD*%
D22*
%TO.P,C17,1*%
%TO.N,+3.3V*%
X170380000Y-115320000D03*
%TO.P,C17,2*%
%TO.N,GND*%
X171340000Y-115320000D03*
%TD*%
D30*
%TO.P,R5,1*%
%TO.N,/EN*%
X171805000Y-100920000D03*
%TO.P,R5,2*%
%TO.N,GND*%
X170155000Y-100920000D03*
%TD*%
D22*
%TO.P,C2,1*%
%TO.N,GND*%
X136100000Y-110320000D03*
%TO.P,C2,2*%
%TO.N,NRST*%
X137060000Y-110320000D03*
%TD*%
D19*
%TO.P,C15,1*%
%TO.N,/COMP*%
X162360000Y-102820000D03*
%TO.P,C15,2*%
%TO.N,Net-(C15-Pad2)*%
X161400000Y-102820000D03*
%TD*%
D28*
%TO.P,D2,1,K*%
%TO.N,Net-(D2-K)*%
X143580000Y-110020000D03*
%TO.P,D2,2,A*%
%TO.N,LED_RED*%
X143580000Y-108445000D03*
%TD*%
D25*
%TO.P,R2,1*%
%TO.N,Net-(D2-K)*%
X143580000Y-111420000D03*
%TO.P,R2,2*%
%TO.N,GND*%
X143580000Y-112440000D03*
%TD*%
D22*
%TO.P,C6,1*%
%TO.N,+3.3V*%
X137000000Y-97820000D03*
%TO.P,C6,2*%
%TO.N,GND*%
X137960000Y-97820000D03*
%TD*%
D10*
%TO.P,J5,1,Pin_1*%
%TO.N,GND*%
X184580000Y-92100000D03*
D11*
%TO.P,J5,2,Pin_2*%
%TO.N,SWCLK*%
X184580000Y-94640000D03*
%TO.P,J5,3,Pin_3*%
%TO.N,SWDIO*%
X184580000Y-97180000D03*
%TO.P,J5,4,Pin_4*%
%TO.N,+3.3V*%
X184580000Y-99720000D03*
%TD*%
D31*
%TO.P,D3,1,K*%
%TO.N,Net-(D3-K)*%
X132555000Y-110220000D03*
%TO.P,D3,2,A*%
%TO.N,+3.3V*%
X134430000Y-110220000D03*
%TD*%
D32*
%TO.P,C7,1*%
%TO.N,+3.3VA*%
X136280000Y-103680000D03*
%TO.P,C7,2*%
%TO.N,GND*%
X136280000Y-102720000D03*
%TD*%
D33*
%TO.P,FB1,1*%
%TO.N,+3.3V*%
X135980000Y-107182500D03*
%TO.P,FB1,2*%
%TO.N,+3.3VA*%
X135980000Y-105057500D03*
%TD*%
D25*
%TO.P,R10,1*%
%TO.N,/VSense*%
X159480000Y-104020000D03*
%TO.P,R10,2*%
%TO.N,GND*%
X159480000Y-105040000D03*
%TD*%
D34*
%TO.P,L1,1,1*%
%TO.N,/PH*%
X159680000Y-113320000D03*
%TO.P,L1,2,2*%
%TO.N,+3.3V*%
X153680000Y-113320000D03*
%TD*%
D35*
%TO.P,Y1,1,1*%
%TO.N,OSC_IN*%
X131980000Y-99920000D03*
%TO.P,Y1,2,2*%
%TO.N,GND*%
X131980000Y-102120000D03*
%TO.P,Y1,3,3*%
%TO.N,OSC_OUT*%
X133680000Y-102120000D03*
%TO.P,Y1,4,4*%
%TO.N,GND*%
X133680000Y-99920000D03*
%TD*%
D12*
%TO.P,C11,1*%
%TO.N,/Vin*%
X173180000Y-104180000D03*
%TO.P,C11,2*%
%TO.N,GND*%
X173180000Y-105730000D03*
%TD*%
D22*
%TO.P,C18,1*%
%TO.N,+3.3V*%
X170380000Y-116520000D03*
%TO.P,C18,2*%
%TO.N,GND*%
X171340000Y-116520000D03*
%TD*%
D19*
%TO.P,C19,1*%
%TO.N,+3.3V*%
X147080000Y-107620000D03*
%TO.P,C19,2*%
%TO.N,GND*%
X146120000Y-107620000D03*
%TD*%
D36*
%TO.P,R3,1*%
%TO.N,Net-(D3-K)*%
X130390000Y-110220000D03*
%TO.P,R3,2*%
%TO.N,GND*%
X129370000Y-110220000D03*
%TD*%
D25*
%TO.P,R6,1*%
%TO.N,/CAN+*%
X157110000Y-101210000D03*
%TO.P,R6,2*%
%TO.N,/CAN-*%
X157110000Y-102230000D03*
%TD*%
D37*
%TO.P,SW1,1,1*%
%TO.N,GND*%
X138400000Y-117340000D03*
X132100000Y-117340000D03*
%TO.P,SW1,2,2*%
%TO.N,NRST*%
X138400000Y-113540000D03*
X132100000Y-113540000D03*
%TD*%
D10*
%TO.P,J1,1,Pin_1*%
%TO.N,GND*%
X134200000Y-84600000D03*
D11*
%TO.P,J1,2,Pin_2*%
%TO.N,BOOT*%
X134200000Y-87140000D03*
%TO.P,J1,3,Pin_3*%
%TO.N,+3.3V*%
X134200000Y-89680000D03*
%TD*%
D38*
%TO.N,GND*%
X135421382Y-103487245D03*
X139380000Y-99520000D03*
X144980000Y-104920000D03*
X136180000Y-100320000D03*
X168680000Y-100420000D03*
X140600000Y-117340000D03*
X129370000Y-111510000D03*
X132930000Y-104370000D03*
X142580000Y-113420000D03*
X136080000Y-111520000D03*
X148180000Y-101120000D03*
X158280000Y-105020000D03*
%TO.N,+3.3V*%
X150880000Y-106420000D03*
X148980000Y-106420000D03*
X138180000Y-108620000D03*
X135980000Y-108620000D03*
%TO.N,NRST*%
X139305000Y-105160316D03*
X138180000Y-106400000D03*
%TO.N,/POWER BOOT*%
X165880000Y-108420000D03*
X167570000Y-106730000D03*
%TO.N,SWDIO*%
X170580000Y-97300000D03*
X173780000Y-97300000D03*
%TO.N,SWCLK*%
X173780000Y-96300000D03*
X170580000Y-96300000D03*
%TO.N,CAN_S*%
X146480000Y-98000000D03*
X144880000Y-99600000D03*
%TD*%
D39*
%TO.N,+3.3V*%
X134430000Y-109530000D02*
X134430000Y-110220000D01*
X129900000Y-105000000D02*
X134430000Y-109530000D01*
X134200000Y-89680000D02*
X129900000Y-93980000D01*
X129900000Y-93980000D02*
X129900000Y-105000000D01*
X158760000Y-87640000D02*
X169400000Y-77000000D01*
X158760000Y-94000000D02*
X158760000Y-87640000D01*
X169400000Y-77000000D02*
X179200000Y-77000000D01*
X135700000Y-77000000D02*
X169400000Y-77000000D01*
X186700000Y-97600000D02*
X184580000Y-99720000D01*
X179200000Y-77000000D02*
X186700000Y-84500000D01*
X131200000Y-81500000D02*
X135700000Y-77000000D01*
X131200000Y-88400000D02*
X131200000Y-81500000D01*
X186700000Y-84500000D02*
X186700000Y-97600000D01*
X132480000Y-89680000D02*
X131200000Y-88400000D01*
X134200000Y-89680000D02*
X132480000Y-89680000D01*
D40*
%TO.N,BOOT*%
X136500000Y-89440000D02*
X134200000Y-87140000D01*
X140180000Y-96780000D02*
X136500000Y-93100000D01*
X136500000Y-93100000D02*
X136500000Y-89440000D01*
X140180000Y-98120000D02*
X140180000Y-96780000D01*
%TO.N,SPI_MOSI*%
X146070000Y-82330000D02*
X146070000Y-78925000D01*
X140300000Y-95900000D02*
X139300000Y-94900000D01*
X139300000Y-94900000D02*
X139300000Y-89100000D01*
X142580000Y-96880000D02*
X141600000Y-95900000D01*
X141600000Y-95900000D02*
X140300000Y-95900000D01*
X142580000Y-98120000D02*
X142580000Y-96880000D01*
X139300000Y-89100000D02*
X146070000Y-82330000D01*
%TO.N,SPI_MISO*%
X148600000Y-82900000D02*
X148600000Y-78935000D01*
X142300000Y-89200000D02*
X148600000Y-82900000D01*
X142300000Y-94477057D02*
X142300000Y-89200000D01*
X143380000Y-95557057D02*
X142300000Y-94477057D01*
X143380000Y-98120000D02*
X143380000Y-95557057D01*
X148600000Y-78935000D02*
X148610000Y-78925000D01*
%TO.N,SPI_SCK*%
X151150000Y-82750000D02*
X151150000Y-78925000D01*
X144800000Y-89100000D02*
X151150000Y-82750000D01*
X144180000Y-96620000D02*
X144800000Y-96000000D01*
X144180000Y-98120000D02*
X144180000Y-96620000D01*
X144800000Y-96000000D02*
X144800000Y-89100000D01*
%TO.N,SPI_CS*%
X146100000Y-94040000D02*
X146060000Y-94000000D01*
X146100000Y-97000000D02*
X146100000Y-94040000D01*
X144980000Y-98120000D02*
X146100000Y-97000000D01*
D39*
%TO.N,GND*%
X168640000Y-101520000D02*
X168640000Y-100460000D01*
X136100000Y-111500000D02*
X136080000Y-111520000D01*
X162320000Y-104930000D02*
X162850000Y-105460000D01*
X131980000Y-102120000D02*
X131980000Y-103420000D01*
X135180000Y-103245863D02*
X135421382Y-103487245D01*
X133500000Y-105195000D02*
X133500000Y-106775000D01*
X160880000Y-105870000D02*
X160310000Y-105870000D01*
X132100000Y-117340000D02*
X138400000Y-117340000D01*
X131980000Y-103420000D02*
X132930000Y-104370000D01*
D40*
X137960000Y-97820000D02*
X139080000Y-97820000D01*
D39*
X129370000Y-111510000D02*
X129370000Y-110220000D01*
X132930000Y-104370000D02*
X133500000Y-104940000D01*
X162850000Y-105460000D02*
X164280000Y-105460000D01*
X142580000Y-112440000D02*
X143580000Y-112440000D01*
X168640000Y-101520000D02*
X169555000Y-101520000D01*
X169555000Y-101520000D02*
X170155000Y-100920000D01*
D40*
X139380000Y-98120000D02*
X139380000Y-99520000D01*
D39*
X168640000Y-100460000D02*
X168680000Y-100420000D01*
X135180000Y-102680000D02*
X136240000Y-102680000D01*
X142580000Y-112820000D02*
X142580000Y-113420000D01*
X136100000Y-110320000D02*
X136100000Y-111500000D01*
X137980000Y-97800000D02*
X137960000Y-97820000D01*
X161380000Y-105870000D02*
X162320000Y-104930000D01*
X136240000Y-102680000D02*
X136280000Y-102720000D01*
X142580000Y-112440000D02*
X142580000Y-112820000D01*
D40*
X144980000Y-104920000D02*
X144980000Y-106470000D01*
X144980000Y-106470000D02*
X144980000Y-106480000D01*
D39*
X150010000Y-101090000D02*
X148210000Y-101090000D01*
X134040000Y-100280000D02*
X135180000Y-100280000D01*
X135180000Y-102680000D02*
X135180000Y-103245863D01*
X140600000Y-117340000D02*
X138400000Y-117340000D01*
D40*
X144980000Y-106480000D02*
X146120000Y-107620000D01*
X147970000Y-106470000D02*
X147980000Y-106480000D01*
X139080000Y-97820000D02*
X139380000Y-98120000D01*
D39*
X133680000Y-99920000D02*
X134040000Y-100280000D01*
X148210000Y-101090000D02*
X148180000Y-101120000D01*
X158300000Y-105040000D02*
X158280000Y-105020000D01*
X135180000Y-100280000D02*
X136140000Y-100280000D01*
X141580000Y-112440000D02*
X142580000Y-112440000D01*
D40*
X144980000Y-106470000D02*
X147970000Y-106470000D01*
D39*
X137980000Y-96220000D02*
X137980000Y-97800000D01*
X136140000Y-100280000D02*
X136180000Y-100320000D01*
X133500000Y-106775000D02*
X133520000Y-106795000D01*
X160310000Y-105870000D02*
X159480000Y-105040000D01*
X159480000Y-105040000D02*
X158300000Y-105040000D01*
X160880000Y-105870000D02*
X161380000Y-105870000D01*
X133500000Y-104940000D02*
X133500000Y-105195000D01*
%TO.N,+3.3V*%
X134480000Y-106795000D02*
X134480000Y-109620000D01*
D40*
X146355000Y-105095000D02*
X147555000Y-105095000D01*
D39*
X134200000Y-95040000D02*
X134200000Y-89680000D01*
X152130000Y-106420000D02*
X151630000Y-106420000D01*
X134867500Y-107182500D02*
X134480000Y-106795000D01*
X148980000Y-106331734D02*
X148168266Y-105520000D01*
X136430000Y-97250000D02*
X137000000Y-97820000D01*
D40*
X138005000Y-99495000D02*
X137980000Y-99520000D01*
D39*
X136430000Y-96220000D02*
X135380000Y-96220000D01*
X134480000Y-109620000D02*
X134280000Y-109820000D01*
X151630000Y-103220000D02*
X151630000Y-106420000D01*
X150770000Y-102360000D02*
X151630000Y-103220000D01*
X151630000Y-106420000D02*
X150880000Y-106420000D01*
X147080000Y-107620000D02*
X147080000Y-111720000D01*
X141480000Y-114320000D02*
X138180000Y-111020000D01*
X147080000Y-111720000D02*
X144480000Y-114320000D01*
X149080000Y-106528266D02*
X149080000Y-106420000D01*
X153680000Y-108070000D02*
X153680000Y-113320000D01*
X135380000Y-96220000D02*
X134200000Y-95040000D01*
X135980000Y-108620000D02*
X135980000Y-107182500D01*
X150010000Y-102360000D02*
X150770000Y-102360000D01*
X148980000Y-106420000D02*
X148980000Y-106331734D01*
D40*
X137980000Y-99520000D02*
X137000000Y-98540000D01*
D39*
X153730000Y-108020000D02*
X153680000Y-108070000D01*
X136430000Y-96220000D02*
X136430000Y-97250000D01*
X148168266Y-105520000D02*
X147980000Y-105520000D01*
X144480000Y-114320000D02*
X141480000Y-114320000D01*
X147988266Y-107620000D02*
X149080000Y-106528266D01*
X147080000Y-107620000D02*
X147988266Y-107620000D01*
X153730000Y-108020000D02*
X152130000Y-106420000D01*
D40*
X137000000Y-98540000D02*
X137000000Y-97820000D01*
D39*
X135980000Y-107182500D02*
X134867500Y-107182500D01*
X160080000Y-102630000D02*
X159120000Y-102630000D01*
X159120000Y-102630000D02*
X153730000Y-108020000D01*
X138180000Y-111020000D02*
X138180000Y-108620000D01*
D40*
X147555000Y-105095000D02*
X147980000Y-105520000D01*
%TO.N,NRST*%
X138754999Y-101895000D02*
X139280000Y-102420001D01*
X139280000Y-105135316D02*
X139305000Y-105160316D01*
X139280000Y-102420001D02*
X139280000Y-105135316D01*
X137060000Y-107520000D02*
X137060000Y-112200000D01*
X138180000Y-106400000D02*
X137060000Y-107520000D01*
X137060000Y-112200000D02*
X138400000Y-113540000D01*
X138005000Y-101895000D02*
X138754999Y-101895000D01*
X132100000Y-113540000D02*
X138400000Y-113540000D01*
%TO.N,OSC_IN*%
X134730000Y-98870000D02*
X132730000Y-98870000D01*
X135180000Y-99320000D02*
X134730000Y-98870000D01*
X132730000Y-98870000D02*
X131980000Y-99620000D01*
X131980000Y-99620000D02*
X131980000Y-99920000D01*
X137255001Y-100295000D02*
X136280001Y-99320000D01*
X136280001Y-99320000D02*
X135180000Y-99320000D01*
X138005000Y-100295000D02*
X137255001Y-100295000D01*
%TO.N,OSC_OUT*%
X138005000Y-101095000D02*
X135805000Y-101095000D01*
X135805000Y-101095000D02*
X135180000Y-101720000D01*
X135180000Y-101720000D02*
X134080000Y-101720000D01*
X134080000Y-101720000D02*
X133680000Y-102120000D01*
D39*
%TO.N,+3.3VA*%
X135980000Y-105057500D02*
X136280000Y-104757500D01*
X136280000Y-104757500D02*
X136280000Y-103680000D01*
D40*
X136394784Y-103680000D02*
X136280000Y-103680000D01*
X138005000Y-102695000D02*
X137379784Y-102695000D01*
D39*
X134597500Y-105057500D02*
X134460000Y-105195000D01*
D40*
X137379784Y-102695000D02*
X136394784Y-103680000D01*
D39*
X135980000Y-105057500D02*
X134597500Y-105057500D01*
D40*
%TO.N,/SS*%
X167680000Y-101520000D02*
X167680000Y-101829999D01*
X167680000Y-101829999D02*
X168770001Y-102920000D01*
X168770001Y-102920000D02*
X169220000Y-102920000D01*
%TO.N,/POWER BOOT*%
X165880000Y-108420000D02*
X164860000Y-108420000D01*
X167570000Y-106730000D02*
X169220000Y-106730000D01*
%TO.N,/COMP*%
X162570000Y-104220000D02*
X164250000Y-104220000D01*
X162320000Y-103970000D02*
X162570000Y-104220000D01*
X164250000Y-104220000D02*
X164280000Y-104190000D01*
X162300000Y-102830000D02*
X162300000Y-103950000D01*
X162300000Y-103950000D02*
X162320000Y-103970000D01*
%TO.N,Net-(C15-Pad2)*%
X161400000Y-102820000D02*
X161400000Y-103700000D01*
X161400000Y-103700000D02*
X160880000Y-104220000D01*
%TO.N,LED_WHITE*%
X141780000Y-108220000D02*
X141580000Y-108420000D01*
X141780000Y-106470000D02*
X141780000Y-108220000D01*
%TO.N,Net-(D1-K)*%
X141580000Y-109987500D02*
X141580000Y-111387500D01*
%TO.N,Net-(D2-K)*%
X143580000Y-110020000D02*
X143580000Y-111420000D01*
%TO.N,LED_RED*%
X143380000Y-108245000D02*
X143580000Y-108445000D01*
X143380000Y-106470000D02*
X143380000Y-108245000D01*
%TO.N,Net-(D3-K)*%
X130390000Y-110220000D02*
X132555000Y-110220000D01*
%TO.N,SWDIO*%
X173780000Y-97300000D02*
X184460000Y-97300000D01*
X163200000Y-97300000D02*
X170580000Y-97300000D01*
X148775216Y-98500000D02*
X162000000Y-98500000D01*
X146980216Y-100295000D02*
X148775216Y-98500000D01*
X146355000Y-100295000D02*
X146980216Y-100295000D01*
X162000000Y-98500000D02*
X163200000Y-97300000D01*
X184460000Y-97300000D02*
X184580000Y-97180000D01*
%TO.N,SWCLK*%
X173780000Y-96300000D02*
X182920000Y-96300000D01*
X162880000Y-96300000D02*
X163180000Y-96300000D01*
X182920000Y-96300000D02*
X184580000Y-94640000D01*
X163180000Y-96300000D02*
X170580000Y-96300000D01*
X146905000Y-99495000D02*
X148500000Y-97900000D01*
X161280000Y-97900000D02*
X162880000Y-96300000D01*
X148500000Y-97900000D02*
X161280000Y-97900000D01*
X146355000Y-99495000D02*
X146905000Y-99495000D01*
%TO.N,/CAN-*%
X167810050Y-100300000D02*
X168410050Y-99700000D01*
X155180000Y-102360000D02*
X157620000Y-102360000D01*
X171080000Y-99700000D02*
X172980000Y-97800000D01*
X172980000Y-83920000D02*
X174900000Y-82000000D01*
X159680000Y-100300000D02*
X167810050Y-100300000D01*
X172980000Y-97800000D02*
X172980000Y-83920000D01*
X168410050Y-99700000D02*
X171080000Y-99700000D01*
X157620000Y-102360000D02*
X159680000Y-100300000D01*
X174900000Y-82000000D02*
X175580000Y-82000000D01*
%TO.N,/CAN+*%
X167461550Y-99800000D02*
X168141530Y-99120020D01*
X158090000Y-101090000D02*
X159380000Y-99800000D01*
X159380000Y-99800000D02*
X167461550Y-99800000D01*
X172380000Y-97500000D02*
X172380000Y-83880000D01*
X172380000Y-83880000D02*
X170500000Y-82000000D01*
X155180000Y-101090000D02*
X158090000Y-101090000D01*
X170759980Y-99120020D02*
X172380000Y-97500000D01*
X168141530Y-99120020D02*
X170759980Y-99120020D01*
%TO.N,USART1_Tx*%
X149680000Y-112280000D02*
X142340000Y-119620000D01*
X147447894Y-103495000D02*
X149680000Y-105727106D01*
X149680000Y-105727106D02*
X149680000Y-112280000D01*
X146355000Y-103495000D02*
X147447894Y-103495000D01*
%TO.N,USART1_Rx*%
X150180000Y-105520000D02*
X150180000Y-114320000D01*
X147355000Y-102695000D02*
X150180000Y-105520000D01*
X146355000Y-102695000D02*
X147355000Y-102695000D01*
X150180000Y-114320000D02*
X144880000Y-119620000D01*
%TO.N,/EN*%
X169220000Y-104190000D02*
X170201642Y-104190000D01*
X170201642Y-104190000D02*
X171480000Y-102911642D01*
X171480000Y-102911642D02*
X171480000Y-102520000D01*
X171480000Y-101245000D02*
X171805000Y-100920000D01*
X171480000Y-102520000D02*
X171480000Y-101245000D01*
%TO.N,/VSense*%
X162390000Y-101420000D02*
X162780000Y-101420000D01*
X160750000Y-102250000D02*
X160910000Y-102090000D01*
X162180000Y-102090000D02*
X162390000Y-101880000D01*
X159699634Y-104020000D02*
X159480000Y-104020000D01*
X160910000Y-102090000D02*
X162180000Y-102090000D01*
X162390000Y-101880000D02*
X162390000Y-101420000D01*
X160750000Y-102969634D02*
X159699634Y-104020000D01*
X160750000Y-102250000D02*
X160750000Y-102969634D01*
X162780000Y-101420000D02*
X164280000Y-102920000D01*
%TO.N,CAN_S*%
X171480000Y-96000000D02*
X171480000Y-97600000D01*
X171080000Y-95600000D02*
X171480000Y-96000000D01*
X162880000Y-99100000D02*
X155900000Y-99100000D01*
X146355000Y-104295000D02*
X145605001Y-104295000D01*
X170580000Y-98500000D02*
X163480000Y-98500000D01*
X144880000Y-103569999D02*
X144880000Y-99600000D01*
X146480000Y-98000000D02*
X148880000Y-95600000D01*
X145605001Y-104295000D02*
X144880000Y-103569999D01*
X163480000Y-98500000D02*
X162880000Y-99100000D01*
X155900000Y-99100000D02*
X155180000Y-99820000D01*
X171480000Y-97600000D02*
X170580000Y-98500000D01*
X148880000Y-95600000D02*
X171080000Y-95600000D01*
%TO.N,CAN_Rx*%
X147400000Y-101895000D02*
X149135000Y-103630000D01*
X146355000Y-101895000D02*
X147400000Y-101895000D01*
X149135000Y-103630000D02*
X150010000Y-103630000D01*
%TO.N,CAN_Tx*%
X148490050Y-99820000D02*
X150010000Y-99820000D01*
X146355000Y-101095000D02*
X147215050Y-101095000D01*
X147215050Y-101095000D02*
X148490050Y-99820000D01*
%TO.N,Net-(R8-Pad2)*%
X160080000Y-101610000D02*
X160270000Y-101420000D01*
X160270000Y-101420000D02*
X161370000Y-101420000D01*
%TD*%
%TA.AperFunction,Conductor*%
%TO.N,+3.3V*%
G36*
X155124542Y-109139685D02*
G01*
X155170297Y-109192489D01*
X155181494Y-109242488D01*
X155279999Y-117319999D01*
X155280000Y-117320000D01*
X158104470Y-117351038D01*
X158171286Y-117371458D01*
X158202370Y-117400719D01*
X158222448Y-117427539D01*
X158222451Y-117427542D01*
X158222454Y-117427546D01*
X158222457Y-117427548D01*
X158337664Y-117513793D01*
X158337671Y-117513797D01*
X158472517Y-117564091D01*
X158472516Y-117564091D01*
X158479444Y-117564835D01*
X158532127Y-117570500D01*
X160827872Y-117570499D01*
X160887483Y-117564091D01*
X161022331Y-117513796D01*
X161137546Y-117427546D01*
X161137551Y-117427538D01*
X161143366Y-117421725D01*
X161204688Y-117388238D01*
X161232403Y-117385411D01*
X164380000Y-117420000D01*
X166880000Y-117320000D01*
X166880000Y-114044000D01*
X166899685Y-113976961D01*
X166952489Y-113931206D01*
X167004000Y-113920000D01*
X167317270Y-113920000D01*
X167384309Y-113939685D01*
X167404951Y-113956319D01*
X167411344Y-113962712D01*
X167560666Y-114054814D01*
X167727203Y-114109999D01*
X167829991Y-114120500D01*
X169930008Y-114120499D01*
X170032797Y-114109999D01*
X170199334Y-114054814D01*
X170348656Y-113962712D01*
X170355049Y-113956319D01*
X170416372Y-113922834D01*
X170442730Y-113920000D01*
X170656000Y-113920000D01*
X170723039Y-113939685D01*
X170768794Y-113992489D01*
X170780000Y-114044000D01*
X170780000Y-114612833D01*
X170760315Y-114679872D01*
X170743681Y-114700514D01*
X170689887Y-114754307D01*
X170689881Y-114754315D01*
X170607505Y-114893606D01*
X170607504Y-114893609D01*
X170562357Y-115049002D01*
X170562356Y-115049008D01*
X170559500Y-115085302D01*
X170559500Y-115554697D01*
X170562356Y-115590991D01*
X170562357Y-115590997D01*
X170607504Y-115746390D01*
X170607504Y-115746391D01*
X170672846Y-115856880D01*
X170690028Y-115924604D01*
X170672846Y-115983120D01*
X170607504Y-116093608D01*
X170607504Y-116093609D01*
X170562357Y-116249002D01*
X170562356Y-116249008D01*
X170559500Y-116285302D01*
X170559500Y-116754697D01*
X170562356Y-116790991D01*
X170562357Y-116790997D01*
X170607504Y-116946390D01*
X170607505Y-116946393D01*
X170607506Y-116946395D01*
X170689883Y-117085687D01*
X170743682Y-117139486D01*
X170777166Y-117200807D01*
X170780000Y-117227166D01*
X170780000Y-117696000D01*
X170760315Y-117763039D01*
X170707511Y-117808794D01*
X170656000Y-117820000D01*
X152502583Y-117820000D01*
X152435544Y-117800315D01*
X152389789Y-117747511D01*
X152378591Y-117697425D01*
X152377058Y-117564091D01*
X152335205Y-113922834D01*
X152281442Y-109245425D01*
X152300355Y-109178164D01*
X152352630Y-109131805D01*
X152405434Y-109120000D01*
X155057503Y-109120000D01*
X155124542Y-109139685D01*
G37*
%TD.AperFunction*%
%TD*%
%TA.AperFunction,Conductor*%
%TO.N,/Vin*%
G36*
X187173079Y-103339685D02*
G01*
X187218834Y-103392489D01*
X187230039Y-103444003D01*
X187229808Y-110702379D01*
X187229800Y-110936858D01*
X187210113Y-111003897D01*
X187157308Y-111049650D01*
X187105800Y-111060854D01*
X179163832Y-111060854D01*
X179096793Y-111041169D01*
X179053599Y-110993641D01*
X178832599Y-110564642D01*
X175930791Y-104931721D01*
X175895148Y-104872780D01*
X175875780Y-104845190D01*
X175832470Y-104791656D01*
X175725515Y-104705235D01*
X175720561Y-104701232D01*
X175720555Y-104701228D01*
X175660512Y-104665496D01*
X175660513Y-104665496D01*
X175547959Y-104618703D01*
X175527661Y-104610264D01*
X175527663Y-104610264D01*
X175456143Y-104602480D01*
X175384626Y-104594696D01*
X175384624Y-104594696D01*
X175316919Y-104597025D01*
X175315297Y-104597052D01*
X175314791Y-104597097D01*
X175172091Y-104622651D01*
X175162866Y-104623948D01*
X175158911Y-104624353D01*
X175146279Y-104624998D01*
X174614504Y-104624998D01*
X174575504Y-104618705D01*
X174550152Y-104610305D01*
X174524055Y-104598137D01*
X174522296Y-104597052D01*
X174453432Y-104554576D01*
X174453429Y-104554574D01*
X174453428Y-104554574D01*
X174325982Y-104498496D01*
X174325972Y-104498493D01*
X174260881Y-104480033D01*
X174122962Y-104460854D01*
X174122960Y-104460854D01*
X173937040Y-104460854D01*
X173937037Y-104460854D01*
X173799118Y-104480033D01*
X173734027Y-104498493D01*
X173734017Y-104498496D01*
X173606573Y-104554573D01*
X173535943Y-104598137D01*
X173509854Y-104610302D01*
X173484503Y-104618703D01*
X173445497Y-104624998D01*
X172914504Y-104624998D01*
X172875504Y-104618705D01*
X172850152Y-104610305D01*
X172824055Y-104598137D01*
X172822296Y-104597052D01*
X172753432Y-104554576D01*
X172753429Y-104554574D01*
X172753428Y-104554574D01*
X172625982Y-104498496D01*
X172625972Y-104498493D01*
X172560881Y-104480033D01*
X172422962Y-104460854D01*
X172422960Y-104460854D01*
X172157126Y-104460854D01*
X172133768Y-104464048D01*
X172021387Y-104479419D01*
X172021381Y-104479421D01*
X171957236Y-104497302D01*
X171831471Y-104551634D01*
X171831468Y-104551635D01*
X171784547Y-104579999D01*
X171749285Y-104603384D01*
X171732507Y-104615551D01*
X171699327Y-104641799D01*
X171604791Y-104750273D01*
X171604789Y-104750277D01*
X171567303Y-104808241D01*
X171566900Y-104808853D01*
X171566847Y-104808948D01*
X171506710Y-104939644D01*
X171506708Y-104939652D01*
X171485826Y-105082008D01*
X171485627Y-105151859D01*
X171485628Y-105151875D01*
X171505698Y-105294346D01*
X171520076Y-105343832D01*
X171525000Y-105378429D01*
X171525000Y-105575500D01*
X171505315Y-105642539D01*
X171452511Y-105688294D01*
X171401000Y-105699500D01*
X170985302Y-105699500D01*
X170949008Y-105702356D01*
X170949002Y-105702357D01*
X170793609Y-105747504D01*
X170793603Y-105747506D01*
X170778603Y-105756377D01*
X170731675Y-105772581D01*
X170685151Y-105778707D01*
X170617884Y-105797592D01*
X170617878Y-105797594D01*
X170541585Y-105831345D01*
X170486305Y-105855801D01*
X170486304Y-105855802D01*
X170486299Y-105855804D01*
X170465706Y-105873224D01*
X170441079Y-105889459D01*
X170354689Y-105932653D01*
X170285924Y-105945027D01*
X170283051Y-105944683D01*
X170167730Y-105929501D01*
X170167725Y-105929500D01*
X170167720Y-105929500D01*
X168272280Y-105929500D01*
X168272275Y-105929500D01*
X168272267Y-105929501D01*
X168268775Y-105929961D01*
X168199740Y-105919195D01*
X168147485Y-105872814D01*
X168128600Y-105805545D01*
X168129045Y-105796423D01*
X168133241Y-105747506D01*
X168135644Y-105719501D01*
X168107057Y-105578489D01*
X168083571Y-105512685D01*
X168083570Y-105512683D01*
X168016413Y-105385437D01*
X168003688Y-105367926D01*
X167980203Y-105302122D01*
X167980000Y-105295032D01*
X167980000Y-105086805D01*
X167999685Y-105019766D01*
X168052489Y-104974011D01*
X168121647Y-104964067D01*
X168151447Y-104972242D01*
X168159764Y-104975687D01*
X168272280Y-104990500D01*
X168272287Y-104990500D01*
X170167713Y-104990500D01*
X170167720Y-104990500D01*
X170280236Y-104975687D01*
X170420233Y-104917698D01*
X170478771Y-104872780D01*
X170514162Y-104845624D01*
X170579331Y-104820430D01*
X170579580Y-104820419D01*
X170580000Y-104820000D01*
X170580000Y-104816003D01*
X170599685Y-104748964D01*
X170605624Y-104740517D01*
X170632696Y-104705235D01*
X170632698Y-104705233D01*
X170641887Y-104683046D01*
X170668764Y-104642822D01*
X171355268Y-103956319D01*
X171416591Y-103922834D01*
X171442949Y-103920000D01*
X171779999Y-103920000D01*
X171780000Y-103920000D01*
X172045727Y-103388546D01*
X172093314Y-103337387D01*
X172156636Y-103320000D01*
X187106040Y-103320000D01*
X187173079Y-103339685D01*
G37*
%TD.AperFunction*%
%TD*%
%TA.AperFunction,Conductor*%
%TO.N,GND*%
G36*
X166856772Y-104736275D02*
G01*
X166923785Y-104756043D01*
X166956926Y-104787378D01*
X167340567Y-105315302D01*
X167607485Y-105682604D01*
X167630971Y-105748408D01*
X167615153Y-105816464D01*
X167565052Y-105865164D01*
X167507174Y-105879500D01*
X167480609Y-105879500D01*
X167449954Y-105886015D01*
X167305733Y-105916670D01*
X167305728Y-105916672D01*
X167142408Y-105989387D01*
X166997768Y-106094475D01*
X166878140Y-106227336D01*
X166788750Y-106382164D01*
X166788747Y-106382170D01*
X166733504Y-106552192D01*
X166733503Y-106552194D01*
X166714815Y-106730000D01*
X166733503Y-106907805D01*
X166733504Y-106907807D01*
X166788747Y-107077829D01*
X166788750Y-107077835D01*
X166878141Y-107232665D01*
X166919812Y-107278946D01*
X166997764Y-107365521D01*
X166997767Y-107365523D01*
X166997770Y-107365526D01*
X167142407Y-107470612D01*
X167305733Y-107543329D01*
X167480609Y-107580500D01*
X167480610Y-107580500D01*
X167659389Y-107580500D01*
X167659391Y-107580500D01*
X167834267Y-107543329D01*
X167974639Y-107480831D01*
X168043885Y-107471548D01*
X168072523Y-107479551D01*
X168128670Y-107502807D01*
X168159764Y-107515687D01*
X168272280Y-107530500D01*
X168272287Y-107530500D01*
X170167713Y-107530500D01*
X170167720Y-107530500D01*
X170280236Y-107515687D01*
X170420233Y-107457698D01*
X170421156Y-107456989D01*
X170422079Y-107456632D01*
X170427273Y-107453634D01*
X170427740Y-107454443D01*
X170486324Y-107431793D01*
X170494744Y-107431460D01*
X170494846Y-107431353D01*
X170508304Y-107417394D01*
X170513174Y-107397886D01*
X170535784Y-107372279D01*
X170534704Y-107371199D01*
X170540449Y-107365453D01*
X170540451Y-107365451D01*
X170632698Y-107245233D01*
X170690687Y-107105236D01*
X170705500Y-106992720D01*
X170705500Y-106467280D01*
X170697375Y-106405565D01*
X170708140Y-106336532D01*
X170754520Y-106284276D01*
X170821789Y-106265390D01*
X170854909Y-106270305D01*
X170949002Y-106297642D01*
X170949005Y-106297642D01*
X170949007Y-106297643D01*
X170985310Y-106300500D01*
X170985318Y-106300500D01*
X171454682Y-106300500D01*
X171454690Y-106300500D01*
X171490993Y-106297643D01*
X171490995Y-106297642D01*
X171490997Y-106297642D01*
X171537002Y-106284276D01*
X171646395Y-106252494D01*
X171785687Y-106170117D01*
X171900117Y-106055687D01*
X171982494Y-105916395D01*
X172027643Y-105760993D01*
X172030500Y-105724690D01*
X172030500Y-105315310D01*
X172027643Y-105279007D01*
X171991126Y-105153315D01*
X171991325Y-105083446D01*
X172029267Y-105024776D01*
X172046053Y-105012603D01*
X172092977Y-104984237D01*
X172157126Y-104966354D01*
X172422960Y-104966354D01*
X172488057Y-104984816D01*
X172621294Y-105066998D01*
X172621297Y-105066999D01*
X172621303Y-105067003D01*
X172782292Y-105120349D01*
X172881655Y-105130500D01*
X173478344Y-105130499D01*
X173478352Y-105130498D01*
X173478355Y-105130498D01*
X173545833Y-105123605D01*
X173577708Y-105120349D01*
X173738697Y-105067003D01*
X173749187Y-105060532D01*
X173871943Y-104984816D01*
X173937040Y-104966354D01*
X174122960Y-104966354D01*
X174188057Y-104984816D01*
X174321294Y-105066998D01*
X174321297Y-105066999D01*
X174321303Y-105067003D01*
X174482292Y-105120349D01*
X174581655Y-105130500D01*
X175178344Y-105130499D01*
X175178352Y-105130498D01*
X175178355Y-105130498D01*
X175245833Y-105123605D01*
X175277708Y-105120349D01*
X175332176Y-105102299D01*
X175402004Y-105099897D01*
X175462046Y-105135628D01*
X175481414Y-105163218D01*
X178780000Y-111566354D01*
X187105776Y-111566354D01*
X187172815Y-111586039D01*
X187218570Y-111638843D01*
X187229776Y-111690358D01*
X187229649Y-115642741D01*
X187209962Y-115709780D01*
X187157157Y-115755533D01*
X187129967Y-115764329D01*
X179806887Y-117228946D01*
X179782569Y-117231354D01*
X171399000Y-117231354D01*
X171331961Y-117211669D01*
X171286206Y-117158865D01*
X171276597Y-117127191D01*
X171271113Y-117093355D01*
X171271113Y-117093354D01*
X171220832Y-116958546D01*
X171187348Y-116897225D01*
X171180313Y-116887827D01*
X171155896Y-116822363D01*
X171157267Y-116797320D01*
X171157146Y-116797311D01*
X171157545Y-116792229D01*
X171157601Y-116791223D01*
X171157643Y-116790991D01*
X171160499Y-116754697D01*
X171160500Y-116754690D01*
X171160500Y-116285310D01*
X171157643Y-116249007D01*
X171148720Y-116218294D01*
X171148918Y-116148428D01*
X171154069Y-116134283D01*
X171157866Y-116125544D01*
X171157866Y-116125543D01*
X171157869Y-116125537D01*
X171175051Y-116067021D01*
X171195179Y-115943372D01*
X171195178Y-115943368D01*
X171195179Y-115943367D01*
X171180005Y-115800297D01*
X171180005Y-115800294D01*
X171163627Y-115735741D01*
X171163018Y-115733043D01*
X171162823Y-115732570D01*
X171162823Y-115732569D01*
X171152216Y-115706859D01*
X171144846Y-115637382D01*
X171147765Y-115624990D01*
X171157643Y-115590993D01*
X171160500Y-115554690D01*
X171160500Y-115085310D01*
X171157643Y-115049007D01*
X171157641Y-115049003D01*
X171157159Y-115042867D01*
X171171523Y-114974490D01*
X171180189Y-114960626D01*
X171185567Y-114953169D01*
X171245338Y-114822292D01*
X171265023Y-114755253D01*
X171265024Y-114755249D01*
X171285500Y-114612833D01*
X171285500Y-114044000D01*
X171273947Y-113936544D01*
X171262741Y-113885033D01*
X171262637Y-113884722D01*
X171228616Y-113782502D01*
X171228613Y-113782496D01*
X171150828Y-113661462D01*
X171150825Y-113661457D01*
X171150820Y-113661451D01*
X171105076Y-113608659D01*
X171105072Y-113608656D01*
X171105070Y-113608653D01*
X170996336Y-113514433D01*
X170996333Y-113514431D01*
X170996331Y-113514430D01*
X170865465Y-113454664D01*
X170865460Y-113454662D01*
X170865459Y-113454662D01*
X170798420Y-113434977D01*
X170798422Y-113434977D01*
X170798417Y-113434976D01*
X170730581Y-113425223D01*
X170656000Y-113414500D01*
X170442730Y-113414500D01*
X170442728Y-113414500D01*
X170388679Y-113417397D01*
X170388678Y-113417397D01*
X170362345Y-113420229D01*
X170362318Y-113420232D01*
X170308922Y-113428885D01*
X170308920Y-113428885D01*
X170174112Y-113479167D01*
X170112784Y-113512655D01*
X170112783Y-113512655D01*
X170104952Y-113518517D01*
X170095747Y-113524782D01*
X169996583Y-113585946D01*
X169970492Y-113598112D01*
X169939238Y-113608469D01*
X169912848Y-113614121D01*
X169911399Y-113614269D01*
X169910548Y-113614356D01*
X169897935Y-113614999D01*
X167862065Y-113614999D01*
X167849456Y-113614356D01*
X167847157Y-113614121D01*
X167820763Y-113608470D01*
X167789507Y-113598113D01*
X167763419Y-113585949D01*
X167716973Y-113557301D01*
X167704268Y-113548317D01*
X167701490Y-113546078D01*
X167657606Y-113514433D01*
X167657604Y-113514432D01*
X167526732Y-113454663D01*
X167459687Y-113434976D01*
X167391853Y-113425223D01*
X167328297Y-113396198D01*
X167290523Y-113337420D01*
X167285500Y-113302485D01*
X167285500Y-110744010D01*
X167285500Y-110744000D01*
X167273947Y-110636544D01*
X167262741Y-110585033D01*
X167262637Y-110584722D01*
X167228616Y-110482502D01*
X167228613Y-110482496D01*
X167150828Y-110361462D01*
X167150825Y-110361457D01*
X167150820Y-110361451D01*
X167105076Y-110308659D01*
X167105072Y-110308656D01*
X167105070Y-110308653D01*
X166996336Y-110214433D01*
X166996334Y-110214432D01*
X166996333Y-110214431D01*
X166926674Y-110182618D01*
X166873871Y-110136862D01*
X166856280Y-110092509D01*
X166630737Y-108880212D01*
X166637827Y-108810705D01*
X166645254Y-108795539D01*
X166661250Y-108767835D01*
X166716497Y-108597803D01*
X166735185Y-108420000D01*
X166716497Y-108242197D01*
X166661250Y-108072165D01*
X166571859Y-107917335D01*
X166485433Y-107821349D01*
X166447882Y-107779644D01*
X166448993Y-107778642D01*
X166416377Y-107725714D01*
X166414090Y-107715737D01*
X166230698Y-106730000D01*
X166187592Y-106498305D01*
X166185500Y-106475625D01*
X166185500Y-106285862D01*
X166185500Y-106285858D01*
X166169043Y-106157923D01*
X166153158Y-106097201D01*
X166104857Y-105977595D01*
X166104289Y-105976854D01*
X166103776Y-105975705D01*
X166100688Y-105970301D01*
X166101230Y-105969991D01*
X166080752Y-105924042D01*
X166080000Y-105920000D01*
X166079999Y-105920000D01*
X166079999Y-105919999D01*
X166057024Y-105900972D01*
X166054989Y-105900382D01*
X166023319Y-105871341D01*
X166017265Y-105863452D01*
X166017264Y-105863451D01*
X165967271Y-105814638D01*
X165967263Y-105814631D01*
X165851074Y-105729798D01*
X165731738Y-105686904D01*
X165715672Y-105681129D01*
X165701635Y-105678250D01*
X165647226Y-105667092D01*
X165503603Y-105658542D01*
X165503602Y-105658542D01*
X165478973Y-105664208D01*
X165363388Y-105690800D01*
X165346434Y-105697355D01*
X165332765Y-105702640D01*
X165329717Y-105702894D01*
X165297551Y-105716217D01*
X165294822Y-105717309D01*
X165266796Y-105728145D01*
X165259833Y-105731840D01*
X165226707Y-105745561D01*
X165179255Y-105755000D01*
X163305158Y-105755000D01*
X163303568Y-105755868D01*
X163278337Y-105758693D01*
X163263878Y-105758822D01*
X163245282Y-105758989D01*
X163245278Y-105758989D01*
X163177582Y-105769133D01*
X163177570Y-105769136D01*
X163054133Y-105805777D01*
X162984264Y-105805984D01*
X162925374Y-105768383D01*
X162896162Y-105704914D01*
X162894847Y-105686904D01*
X162894847Y-105025708D01*
X162914532Y-104958669D01*
X162967336Y-104912914D01*
X163036494Y-104902970D01*
X163071981Y-104915255D01*
X163072258Y-104914588D01*
X163079769Y-104917699D01*
X163219764Y-104975687D01*
X163332280Y-104990500D01*
X163332287Y-104990500D01*
X165227713Y-104990500D01*
X165227720Y-104990500D01*
X165340236Y-104975687D01*
X165480233Y-104917698D01*
X165600451Y-104825451D01*
X165632726Y-104783389D01*
X165689151Y-104742188D01*
X165731251Y-104734877D01*
X166856772Y-104736275D01*
G37*
%TD.AperFunction*%
%TD*%
%TA.AperFunction,Conductor*%
%TO.N,/PH*%
G36*
X165614123Y-106176324D02*
G01*
X165664115Y-106225136D01*
X165680000Y-106285858D01*
X165680000Y-107496000D01*
X165660315Y-107563039D01*
X165607511Y-107608794D01*
X165556000Y-107620000D01*
X165144947Y-107620000D01*
X165110354Y-107615076D01*
X165100993Y-107612357D01*
X165100989Y-107612356D01*
X165100991Y-107612356D01*
X165064697Y-107609500D01*
X165064690Y-107609500D01*
X164655310Y-107609500D01*
X164655302Y-107609500D01*
X164619010Y-107612356D01*
X164619007Y-107612357D01*
X164609645Y-107615076D01*
X164575053Y-107620000D01*
X164380000Y-107620000D01*
X164380000Y-107636221D01*
X164360315Y-107703260D01*
X164329110Y-107733337D01*
X164330479Y-107735101D01*
X164324312Y-107739884D01*
X164209884Y-107854311D01*
X164209881Y-107854315D01*
X164127505Y-107993606D01*
X164127504Y-107993609D01*
X164082357Y-108149002D01*
X164082356Y-108149008D01*
X164079500Y-108185302D01*
X164079500Y-108654697D01*
X164082356Y-108690991D01*
X164082357Y-108690997D01*
X164127504Y-108846390D01*
X164127505Y-108846393D01*
X164209881Y-108985684D01*
X164209887Y-108985692D01*
X164324307Y-109100112D01*
X164330476Y-109104897D01*
X164328645Y-109107257D01*
X164366786Y-109148077D01*
X164380000Y-109203778D01*
X164380000Y-110620000D01*
X166656000Y-110620000D01*
X166723039Y-110639685D01*
X166768794Y-110692489D01*
X166780000Y-110744000D01*
X166780000Y-113379575D01*
X166760315Y-113446614D01*
X166723040Y-113483890D01*
X166621462Y-113549170D01*
X166621451Y-113549179D01*
X166568659Y-113594923D01*
X166474433Y-113703664D01*
X166474430Y-113703668D01*
X166414664Y-113834534D01*
X166394976Y-113901582D01*
X166374500Y-114044001D01*
X166374500Y-116715175D01*
X166354815Y-116782214D01*
X166302011Y-116827969D01*
X166255456Y-116839076D01*
X164375828Y-116914262D01*
X164369509Y-116914354D01*
X161422016Y-116881964D01*
X161237958Y-116879942D01*
X161237957Y-116879942D01*
X161237956Y-116879942D01*
X161181110Y-116882519D01*
X161153387Y-116885347D01*
X161097229Y-116894292D01*
X161097220Y-116894294D01*
X160962410Y-116944579D01*
X160901091Y-116978065D01*
X160901089Y-116978067D01*
X160881276Y-116992897D01*
X160868078Y-116997818D01*
X160811376Y-117040266D01*
X160745912Y-117064683D01*
X160737065Y-117064999D01*
X158632407Y-117064999D01*
X158565368Y-117045314D01*
X158547413Y-117031288D01*
X158517772Y-117003385D01*
X158449239Y-116949234D01*
X158443194Y-116945495D01*
X158444171Y-116943914D01*
X158398944Y-116903833D01*
X158380000Y-116837960D01*
X158380000Y-109041443D01*
X158399685Y-108974404D01*
X158452489Y-108928649D01*
X158501414Y-108917470D01*
X163180000Y-108820000D01*
X163180000Y-106381846D01*
X163199685Y-106314807D01*
X163252489Y-106269052D01*
X163320189Y-106258908D01*
X163332280Y-106260500D01*
X163332287Y-106260500D01*
X165227713Y-106260500D01*
X165227720Y-106260500D01*
X165340236Y-106245687D01*
X165480233Y-106187698D01*
X165480511Y-106187484D01*
X165480788Y-106187377D01*
X165487268Y-106183636D01*
X165487851Y-106184646D01*
X165545678Y-106162288D01*
X165614123Y-106176324D01*
G37*
%TD.AperFunction*%
%TD*%
M02*
