%TF.GenerationSoftware,KiCad,Pcbnew,8.0.1*%
%TF.CreationDate,2024-11-24T12:48:57+07:00*%
%TF.ProjectId,TPMS,54504d53-2e6b-4696-9361-645f70636258,rev?*%
%TF.SameCoordinates,Original*%
%TF.FileFunction,Legend,Top*%
%TF.FilePolarity,Positive*%
%FSLAX46Y46*%
G04 Gerber Fmt 4.6, Leading zero omitted, Abs format (unit mm)*
G04 Created by KiCad (PCBNEW 8.0.1) date 2024-11-24 12:48:57*
%MOMM*%
%LPD*%
G01*
G04 APERTURE LIST*
%ADD10C,0.250000*%
%ADD11C,0.360000*%
%ADD12C,0.120000*%
%ADD13C,0.127000*%
%ADD14C,0.200000*%
%ADD15C,0.000000*%
G04 APERTURE END LIST*
D10*
X178334949Y-97737000D02*
X178477806Y-97784619D01*
X178477806Y-97784619D02*
X178715901Y-97784619D01*
X178715901Y-97784619D02*
X178811139Y-97737000D01*
X178811139Y-97737000D02*
X178858758Y-97689380D01*
X178858758Y-97689380D02*
X178906377Y-97594142D01*
X178906377Y-97594142D02*
X178906377Y-97498904D01*
X178906377Y-97498904D02*
X178858758Y-97403666D01*
X178858758Y-97403666D02*
X178811139Y-97356047D01*
X178811139Y-97356047D02*
X178715901Y-97308428D01*
X178715901Y-97308428D02*
X178525425Y-97260809D01*
X178525425Y-97260809D02*
X178430187Y-97213190D01*
X178430187Y-97213190D02*
X178382568Y-97165571D01*
X178382568Y-97165571D02*
X178334949Y-97070333D01*
X178334949Y-97070333D02*
X178334949Y-96975095D01*
X178334949Y-96975095D02*
X178382568Y-96879857D01*
X178382568Y-96879857D02*
X178430187Y-96832238D01*
X178430187Y-96832238D02*
X178525425Y-96784619D01*
X178525425Y-96784619D02*
X178763520Y-96784619D01*
X178763520Y-96784619D02*
X178906377Y-96832238D01*
X179239711Y-96784619D02*
X179477806Y-97784619D01*
X179477806Y-97784619D02*
X179668282Y-97070333D01*
X179668282Y-97070333D02*
X179858758Y-97784619D01*
X179858758Y-97784619D02*
X180096854Y-96784619D01*
X180477806Y-97784619D02*
X180477806Y-96784619D01*
X180477806Y-96784619D02*
X180715901Y-96784619D01*
X180715901Y-96784619D02*
X180858758Y-96832238D01*
X180858758Y-96832238D02*
X180953996Y-96927476D01*
X180953996Y-96927476D02*
X181001615Y-97022714D01*
X181001615Y-97022714D02*
X181049234Y-97213190D01*
X181049234Y-97213190D02*
X181049234Y-97356047D01*
X181049234Y-97356047D02*
X181001615Y-97546523D01*
X181001615Y-97546523D02*
X180953996Y-97641761D01*
X180953996Y-97641761D02*
X180858758Y-97737000D01*
X180858758Y-97737000D02*
X180715901Y-97784619D01*
X180715901Y-97784619D02*
X180477806Y-97784619D01*
X181477806Y-97784619D02*
X181477806Y-96784619D01*
X182144472Y-96784619D02*
X182334948Y-96784619D01*
X182334948Y-96784619D02*
X182430186Y-96832238D01*
X182430186Y-96832238D02*
X182525424Y-96927476D01*
X182525424Y-96927476D02*
X182573043Y-97117952D01*
X182573043Y-97117952D02*
X182573043Y-97451285D01*
X182573043Y-97451285D02*
X182525424Y-97641761D01*
X182525424Y-97641761D02*
X182430186Y-97737000D01*
X182430186Y-97737000D02*
X182334948Y-97784619D01*
X182334948Y-97784619D02*
X182144472Y-97784619D01*
X182144472Y-97784619D02*
X182049234Y-97737000D01*
X182049234Y-97737000D02*
X181953996Y-97641761D01*
X181953996Y-97641761D02*
X181906377Y-97451285D01*
X181906377Y-97451285D02*
X181906377Y-97117952D01*
X181906377Y-97117952D02*
X181953996Y-96927476D01*
X181953996Y-96927476D02*
X182049234Y-96832238D01*
X182049234Y-96832238D02*
X182144472Y-96784619D01*
X178034949Y-95037000D02*
X178177806Y-95084619D01*
X178177806Y-95084619D02*
X178415901Y-95084619D01*
X178415901Y-95084619D02*
X178511139Y-95037000D01*
X178511139Y-95037000D02*
X178558758Y-94989380D01*
X178558758Y-94989380D02*
X178606377Y-94894142D01*
X178606377Y-94894142D02*
X178606377Y-94798904D01*
X178606377Y-94798904D02*
X178558758Y-94703666D01*
X178558758Y-94703666D02*
X178511139Y-94656047D01*
X178511139Y-94656047D02*
X178415901Y-94608428D01*
X178415901Y-94608428D02*
X178225425Y-94560809D01*
X178225425Y-94560809D02*
X178130187Y-94513190D01*
X178130187Y-94513190D02*
X178082568Y-94465571D01*
X178082568Y-94465571D02*
X178034949Y-94370333D01*
X178034949Y-94370333D02*
X178034949Y-94275095D01*
X178034949Y-94275095D02*
X178082568Y-94179857D01*
X178082568Y-94179857D02*
X178130187Y-94132238D01*
X178130187Y-94132238D02*
X178225425Y-94084619D01*
X178225425Y-94084619D02*
X178463520Y-94084619D01*
X178463520Y-94084619D02*
X178606377Y-94132238D01*
X178939711Y-94084619D02*
X179177806Y-95084619D01*
X179177806Y-95084619D02*
X179368282Y-94370333D01*
X179368282Y-94370333D02*
X179558758Y-95084619D01*
X179558758Y-95084619D02*
X179796854Y-94084619D01*
X180749234Y-94989380D02*
X180701615Y-95037000D01*
X180701615Y-95037000D02*
X180558758Y-95084619D01*
X180558758Y-95084619D02*
X180463520Y-95084619D01*
X180463520Y-95084619D02*
X180320663Y-95037000D01*
X180320663Y-95037000D02*
X180225425Y-94941761D01*
X180225425Y-94941761D02*
X180177806Y-94846523D01*
X180177806Y-94846523D02*
X180130187Y-94656047D01*
X180130187Y-94656047D02*
X180130187Y-94513190D01*
X180130187Y-94513190D02*
X180177806Y-94322714D01*
X180177806Y-94322714D02*
X180225425Y-94227476D01*
X180225425Y-94227476D02*
X180320663Y-94132238D01*
X180320663Y-94132238D02*
X180463520Y-94084619D01*
X180463520Y-94084619D02*
X180558758Y-94084619D01*
X180558758Y-94084619D02*
X180701615Y-94132238D01*
X180701615Y-94132238D02*
X180749234Y-94179857D01*
X181653996Y-95084619D02*
X181177806Y-95084619D01*
X181177806Y-95084619D02*
X181177806Y-94084619D01*
X181987330Y-95084619D02*
X181987330Y-94084619D01*
X182558758Y-95084619D02*
X182130187Y-94513190D01*
X182558758Y-94084619D02*
X181987330Y-94656047D01*
X180406377Y-91632238D02*
X180311139Y-91584619D01*
X180311139Y-91584619D02*
X180168282Y-91584619D01*
X180168282Y-91584619D02*
X180025425Y-91632238D01*
X180025425Y-91632238D02*
X179930187Y-91727476D01*
X179930187Y-91727476D02*
X179882568Y-91822714D01*
X179882568Y-91822714D02*
X179834949Y-92013190D01*
X179834949Y-92013190D02*
X179834949Y-92156047D01*
X179834949Y-92156047D02*
X179882568Y-92346523D01*
X179882568Y-92346523D02*
X179930187Y-92441761D01*
X179930187Y-92441761D02*
X180025425Y-92537000D01*
X180025425Y-92537000D02*
X180168282Y-92584619D01*
X180168282Y-92584619D02*
X180263520Y-92584619D01*
X180263520Y-92584619D02*
X180406377Y-92537000D01*
X180406377Y-92537000D02*
X180453996Y-92489380D01*
X180453996Y-92489380D02*
X180453996Y-92156047D01*
X180453996Y-92156047D02*
X180263520Y-92156047D01*
X180882568Y-92584619D02*
X180882568Y-91584619D01*
X180882568Y-91584619D02*
X181453996Y-92584619D01*
X181453996Y-92584619D02*
X181453996Y-91584619D01*
X181930187Y-92584619D02*
X181930187Y-91584619D01*
X181930187Y-91584619D02*
X182168282Y-91584619D01*
X182168282Y-91584619D02*
X182311139Y-91632238D01*
X182311139Y-91632238D02*
X182406377Y-91727476D01*
X182406377Y-91727476D02*
X182453996Y-91822714D01*
X182453996Y-91822714D02*
X182501615Y-92013190D01*
X182501615Y-92013190D02*
X182501615Y-92156047D01*
X182501615Y-92156047D02*
X182453996Y-92346523D01*
X182453996Y-92346523D02*
X182406377Y-92441761D01*
X182406377Y-92441761D02*
X182311139Y-92537000D01*
X182311139Y-92537000D02*
X182168282Y-92584619D01*
X182168282Y-92584619D02*
X181930187Y-92584619D01*
X179944619Y-106060288D02*
X180944619Y-105726955D01*
X180944619Y-105726955D02*
X179944619Y-105393622D01*
X180563666Y-105060288D02*
X180563666Y-104298384D01*
X180944619Y-104679336D02*
X180182714Y-104679336D01*
D11*
X128243481Y-89208270D02*
X126243481Y-89808270D01*
X126243481Y-89808270D02*
X128243481Y-90408270D01*
X126243481Y-91265413D02*
X126338720Y-91093984D01*
X126338720Y-91093984D02*
X126433958Y-91008270D01*
X126433958Y-91008270D02*
X126624434Y-90922556D01*
X126624434Y-90922556D02*
X127195862Y-90922556D01*
X127195862Y-90922556D02*
X127386339Y-91008270D01*
X127386339Y-91008270D02*
X127481577Y-91093984D01*
X127481577Y-91093984D02*
X127576815Y-91265413D01*
X127576815Y-91265413D02*
X127576815Y-91522556D01*
X127576815Y-91522556D02*
X127481577Y-91693984D01*
X127481577Y-91693984D02*
X127386339Y-91779699D01*
X127386339Y-91779699D02*
X127195862Y-91865413D01*
X127195862Y-91865413D02*
X126624434Y-91865413D01*
X126624434Y-91865413D02*
X126433958Y-91779699D01*
X126433958Y-91779699D02*
X126338720Y-91693984D01*
X126338720Y-91693984D02*
X126243481Y-91522556D01*
X126243481Y-91522556D02*
X126243481Y-91265413D01*
X128053005Y-91008270D02*
X128148243Y-91093984D01*
X128148243Y-91093984D02*
X128243481Y-91265413D01*
X128243481Y-91265413D02*
X128053005Y-91608270D01*
X128053005Y-91608270D02*
X128148243Y-91779699D01*
X128148243Y-91779699D02*
X128243481Y-91865413D01*
X128243481Y-93751127D02*
X128243481Y-94779699D01*
X126243481Y-94265413D02*
X128243481Y-94265413D01*
X126243481Y-95379699D02*
X128243481Y-95379699D01*
X126243481Y-96151128D02*
X127291100Y-96151128D01*
X127291100Y-96151128D02*
X127481577Y-96065413D01*
X127481577Y-96065413D02*
X127576815Y-95893985D01*
X127576815Y-95893985D02*
X127576815Y-95636842D01*
X127576815Y-95636842D02*
X127481577Y-95465413D01*
X127481577Y-95465413D02*
X127386339Y-95379699D01*
X126243481Y-97779699D02*
X127291100Y-97779699D01*
X127291100Y-97779699D02*
X127481577Y-97693984D01*
X127481577Y-97693984D02*
X127576815Y-97522556D01*
X127576815Y-97522556D02*
X127576815Y-97179699D01*
X127576815Y-97179699D02*
X127481577Y-97008270D01*
X126338720Y-97779699D02*
X126243481Y-97608270D01*
X126243481Y-97608270D02*
X126243481Y-97179699D01*
X126243481Y-97179699D02*
X126338720Y-97008270D01*
X126338720Y-97008270D02*
X126529196Y-96922556D01*
X126529196Y-96922556D02*
X126719672Y-96922556D01*
X126719672Y-96922556D02*
X126910148Y-97008270D01*
X126910148Y-97008270D02*
X127005386Y-97179699D01*
X127005386Y-97179699D02*
X127005386Y-97608270D01*
X127005386Y-97608270D02*
X127100624Y-97779699D01*
X128338720Y-97179699D02*
X128053005Y-97436841D01*
X127576815Y-98636841D02*
X126243481Y-98636841D01*
X127386339Y-98636841D02*
X127481577Y-98722555D01*
X127481577Y-98722555D02*
X127576815Y-98893984D01*
X127576815Y-98893984D02*
X127576815Y-99151127D01*
X127576815Y-99151127D02*
X127481577Y-99322555D01*
X127481577Y-99322555D02*
X127291100Y-99408270D01*
X127291100Y-99408270D02*
X126243481Y-99408270D01*
X126243481Y-100265412D02*
X128243481Y-100265412D01*
X126243481Y-101036841D02*
X127291100Y-101036841D01*
X127291100Y-101036841D02*
X127481577Y-100951126D01*
X127481577Y-100951126D02*
X127576815Y-100779698D01*
X127576815Y-100779698D02*
X127576815Y-100522555D01*
X127576815Y-100522555D02*
X127481577Y-100351126D01*
X127481577Y-100351126D02*
X127386339Y-100265412D01*
X126243481Y-103265412D02*
X128243481Y-103265412D01*
X128243481Y-103265412D02*
X128243481Y-103693983D01*
X128243481Y-103693983D02*
X128148243Y-103951126D01*
X128148243Y-103951126D02*
X127957767Y-104122555D01*
X127957767Y-104122555D02*
X127767291Y-104208269D01*
X127767291Y-104208269D02*
X127386339Y-104293983D01*
X127386339Y-104293983D02*
X127100624Y-104293983D01*
X127100624Y-104293983D02*
X126719672Y-104208269D01*
X126719672Y-104208269D02*
X126529196Y-104122555D01*
X126529196Y-104122555D02*
X126338720Y-103951126D01*
X126338720Y-103951126D02*
X126243481Y-103693983D01*
X126243481Y-103693983D02*
X126243481Y-103265412D01*
X126243481Y-105836841D02*
X127291100Y-105836841D01*
X127291100Y-105836841D02*
X127481577Y-105751126D01*
X127481577Y-105751126D02*
X127576815Y-105579698D01*
X127576815Y-105579698D02*
X127576815Y-105236841D01*
X127576815Y-105236841D02*
X127481577Y-105065412D01*
X126338720Y-105836841D02*
X126243481Y-105665412D01*
X126243481Y-105665412D02*
X126243481Y-105236841D01*
X126243481Y-105236841D02*
X126338720Y-105065412D01*
X126338720Y-105065412D02*
X126529196Y-104979698D01*
X126529196Y-104979698D02*
X126719672Y-104979698D01*
X126719672Y-104979698D02*
X126910148Y-105065412D01*
X126910148Y-105065412D02*
X127005386Y-105236841D01*
X127005386Y-105236841D02*
X127005386Y-105665412D01*
X127005386Y-105665412D02*
X127100624Y-105836841D01*
X127576815Y-106693983D02*
X126243481Y-106693983D01*
X127386339Y-106693983D02*
X127481577Y-106779697D01*
X127481577Y-106779697D02*
X127576815Y-106951126D01*
X127576815Y-106951126D02*
X127576815Y-107208269D01*
X127576815Y-107208269D02*
X127481577Y-107379697D01*
X127481577Y-107379697D02*
X127291100Y-107465412D01*
X127291100Y-107465412D02*
X126243481Y-107465412D01*
X126243481Y-108322554D02*
X128243481Y-108322554D01*
X126243481Y-109093983D02*
X127291100Y-109093983D01*
X127291100Y-109093983D02*
X127481577Y-109008268D01*
X127481577Y-109008268D02*
X127576815Y-108836840D01*
X127576815Y-108836840D02*
X127576815Y-108579697D01*
X127576815Y-108579697D02*
X127481577Y-108408268D01*
X127481577Y-108408268D02*
X127386339Y-108322554D01*
D10*
X131235380Y-90051377D02*
X131235380Y-89479949D01*
X131235380Y-89765663D02*
X132235380Y-89765663D01*
X132235380Y-89765663D02*
X132092523Y-89670425D01*
X132092523Y-89670425D02*
X131997285Y-89575187D01*
X131997285Y-89575187D02*
X131949666Y-89479949D01*
X141739711Y-121584619D02*
X142311139Y-121584619D01*
X142025425Y-122584619D02*
X142025425Y-121584619D01*
X142549235Y-122584619D02*
X143073044Y-121917952D01*
X142549235Y-121917952D02*
X143073044Y-122584619D01*
X180187330Y-99484619D02*
X180806377Y-99484619D01*
X180806377Y-99484619D02*
X180473044Y-99865571D01*
X180473044Y-99865571D02*
X180615901Y-99865571D01*
X180615901Y-99865571D02*
X180711139Y-99913190D01*
X180711139Y-99913190D02*
X180758758Y-99960809D01*
X180758758Y-99960809D02*
X180806377Y-100056047D01*
X180806377Y-100056047D02*
X180806377Y-100294142D01*
X180806377Y-100294142D02*
X180758758Y-100389380D01*
X180758758Y-100389380D02*
X180711139Y-100437000D01*
X180711139Y-100437000D02*
X180615901Y-100484619D01*
X180615901Y-100484619D02*
X180330187Y-100484619D01*
X180330187Y-100484619D02*
X180234949Y-100437000D01*
X180234949Y-100437000D02*
X180187330Y-100389380D01*
X181092092Y-99484619D02*
X181425425Y-100484619D01*
X181425425Y-100484619D02*
X181758758Y-99484619D01*
X181996854Y-99484619D02*
X182615901Y-99484619D01*
X182615901Y-99484619D02*
X182282568Y-99865571D01*
X182282568Y-99865571D02*
X182425425Y-99865571D01*
X182425425Y-99865571D02*
X182520663Y-99913190D01*
X182520663Y-99913190D02*
X182568282Y-99960809D01*
X182568282Y-99960809D02*
X182615901Y-100056047D01*
X182615901Y-100056047D02*
X182615901Y-100294142D01*
X182615901Y-100294142D02*
X182568282Y-100389380D01*
X182568282Y-100389380D02*
X182520663Y-100437000D01*
X182520663Y-100437000D02*
X182425425Y-100484619D01*
X182425425Y-100484619D02*
X182139711Y-100484619D01*
X182139711Y-100484619D02*
X182044473Y-100437000D01*
X182044473Y-100437000D02*
X181996854Y-100389380D01*
X175144619Y-112760288D02*
X176144619Y-112426955D01*
X176144619Y-112426955D02*
X175144619Y-112093622D01*
X176144619Y-111760288D02*
X175477952Y-111760288D01*
X175144619Y-111760288D02*
X175192238Y-111807907D01*
X175192238Y-111807907D02*
X175239857Y-111760288D01*
X175239857Y-111760288D02*
X175192238Y-111712669D01*
X175192238Y-111712669D02*
X175144619Y-111760288D01*
X175144619Y-111760288D02*
X175239857Y-111760288D01*
X175477952Y-111284098D02*
X176144619Y-111284098D01*
X175573190Y-111284098D02*
X175525571Y-111236479D01*
X175525571Y-111236479D02*
X175477952Y-111141241D01*
X175477952Y-111141241D02*
X175477952Y-110998384D01*
X175477952Y-110998384D02*
X175525571Y-110903146D01*
X175525571Y-110903146D02*
X175620809Y-110855527D01*
X175620809Y-110855527D02*
X176144619Y-110855527D01*
X183434949Y-89837000D02*
X183577806Y-89884619D01*
X183577806Y-89884619D02*
X183815901Y-89884619D01*
X183815901Y-89884619D02*
X183911139Y-89837000D01*
X183911139Y-89837000D02*
X183958758Y-89789380D01*
X183958758Y-89789380D02*
X184006377Y-89694142D01*
X184006377Y-89694142D02*
X184006377Y-89598904D01*
X184006377Y-89598904D02*
X183958758Y-89503666D01*
X183958758Y-89503666D02*
X183911139Y-89456047D01*
X183911139Y-89456047D02*
X183815901Y-89408428D01*
X183815901Y-89408428D02*
X183625425Y-89360809D01*
X183625425Y-89360809D02*
X183530187Y-89313190D01*
X183530187Y-89313190D02*
X183482568Y-89265571D01*
X183482568Y-89265571D02*
X183434949Y-89170333D01*
X183434949Y-89170333D02*
X183434949Y-89075095D01*
X183434949Y-89075095D02*
X183482568Y-88979857D01*
X183482568Y-88979857D02*
X183530187Y-88932238D01*
X183530187Y-88932238D02*
X183625425Y-88884619D01*
X183625425Y-88884619D02*
X183863520Y-88884619D01*
X183863520Y-88884619D02*
X184006377Y-88932238D01*
X184339711Y-88884619D02*
X184577806Y-89884619D01*
X184577806Y-89884619D02*
X184768282Y-89170333D01*
X184768282Y-89170333D02*
X184958758Y-89884619D01*
X184958758Y-89884619D02*
X185196854Y-88884619D01*
X185577806Y-89884619D02*
X185577806Y-88884619D01*
X185577806Y-88884619D02*
X185815901Y-88884619D01*
X185815901Y-88884619D02*
X185958758Y-88932238D01*
X185958758Y-88932238D02*
X186053996Y-89027476D01*
X186053996Y-89027476D02*
X186101615Y-89122714D01*
X186101615Y-89122714D02*
X186149234Y-89313190D01*
X186149234Y-89313190D02*
X186149234Y-89456047D01*
X186149234Y-89456047D02*
X186101615Y-89646523D01*
X186101615Y-89646523D02*
X186053996Y-89741761D01*
X186053996Y-89741761D02*
X185958758Y-89837000D01*
X185958758Y-89837000D02*
X185815901Y-89884619D01*
X185815901Y-89884619D02*
X185577806Y-89884619D01*
X132235380Y-84618044D02*
X132235380Y-84713282D01*
X132235380Y-84713282D02*
X132187761Y-84808520D01*
X132187761Y-84808520D02*
X132140142Y-84856139D01*
X132140142Y-84856139D02*
X132044904Y-84903758D01*
X132044904Y-84903758D02*
X131854428Y-84951377D01*
X131854428Y-84951377D02*
X131616333Y-84951377D01*
X131616333Y-84951377D02*
X131425857Y-84903758D01*
X131425857Y-84903758D02*
X131330619Y-84856139D01*
X131330619Y-84856139D02*
X131283000Y-84808520D01*
X131283000Y-84808520D02*
X131235380Y-84713282D01*
X131235380Y-84713282D02*
X131235380Y-84618044D01*
X131235380Y-84618044D02*
X131283000Y-84522806D01*
X131283000Y-84522806D02*
X131330619Y-84475187D01*
X131330619Y-84475187D02*
X131425857Y-84427568D01*
X131425857Y-84427568D02*
X131616333Y-84379949D01*
X131616333Y-84379949D02*
X131854428Y-84379949D01*
X131854428Y-84379949D02*
X132044904Y-84427568D01*
X132044904Y-84427568D02*
X132140142Y-84475187D01*
X132140142Y-84475187D02*
X132187761Y-84522806D01*
X132187761Y-84522806D02*
X132235380Y-84618044D01*
X167049380Y-80326003D02*
X167097000Y-80373622D01*
X167097000Y-80373622D02*
X167144619Y-80516479D01*
X167144619Y-80516479D02*
X167144619Y-80611717D01*
X167144619Y-80611717D02*
X167097000Y-80754574D01*
X167097000Y-80754574D02*
X167001761Y-80849812D01*
X167001761Y-80849812D02*
X166906523Y-80897431D01*
X166906523Y-80897431D02*
X166716047Y-80945050D01*
X166716047Y-80945050D02*
X166573190Y-80945050D01*
X166573190Y-80945050D02*
X166382714Y-80897431D01*
X166382714Y-80897431D02*
X166287476Y-80849812D01*
X166287476Y-80849812D02*
X166192238Y-80754574D01*
X166192238Y-80754574D02*
X166144619Y-80611717D01*
X166144619Y-80611717D02*
X166144619Y-80516479D01*
X166144619Y-80516479D02*
X166192238Y-80373622D01*
X166192238Y-80373622D02*
X166239857Y-80326003D01*
X166858904Y-79945050D02*
X166858904Y-79468860D01*
X167144619Y-80040288D02*
X166144619Y-79706955D01*
X166144619Y-79706955D02*
X167144619Y-79373622D01*
X167144619Y-79040288D02*
X166144619Y-79040288D01*
X166144619Y-79040288D02*
X167144619Y-78468860D01*
X167144619Y-78468860D02*
X166144619Y-78468860D01*
X167144619Y-77992669D02*
X166144619Y-77992669D01*
X166620809Y-77992669D02*
X166620809Y-77421241D01*
X167144619Y-77421241D02*
X166144619Y-77421241D01*
X133873996Y-119604619D02*
X133540663Y-119128428D01*
X133302568Y-119604619D02*
X133302568Y-118604619D01*
X133302568Y-118604619D02*
X133683520Y-118604619D01*
X133683520Y-118604619D02*
X133778758Y-118652238D01*
X133778758Y-118652238D02*
X133826377Y-118699857D01*
X133826377Y-118699857D02*
X133873996Y-118795095D01*
X133873996Y-118795095D02*
X133873996Y-118937952D01*
X133873996Y-118937952D02*
X133826377Y-119033190D01*
X133826377Y-119033190D02*
X133778758Y-119080809D01*
X133778758Y-119080809D02*
X133683520Y-119128428D01*
X133683520Y-119128428D02*
X133302568Y-119128428D01*
X134302568Y-119080809D02*
X134635901Y-119080809D01*
X134778758Y-119604619D02*
X134302568Y-119604619D01*
X134302568Y-119604619D02*
X134302568Y-118604619D01*
X134302568Y-118604619D02*
X134778758Y-118604619D01*
X135159711Y-119557000D02*
X135302568Y-119604619D01*
X135302568Y-119604619D02*
X135540663Y-119604619D01*
X135540663Y-119604619D02*
X135635901Y-119557000D01*
X135635901Y-119557000D02*
X135683520Y-119509380D01*
X135683520Y-119509380D02*
X135731139Y-119414142D01*
X135731139Y-119414142D02*
X135731139Y-119318904D01*
X135731139Y-119318904D02*
X135683520Y-119223666D01*
X135683520Y-119223666D02*
X135635901Y-119176047D01*
X135635901Y-119176047D02*
X135540663Y-119128428D01*
X135540663Y-119128428D02*
X135350187Y-119080809D01*
X135350187Y-119080809D02*
X135254949Y-119033190D01*
X135254949Y-119033190D02*
X135207330Y-118985571D01*
X135207330Y-118985571D02*
X135159711Y-118890333D01*
X135159711Y-118890333D02*
X135159711Y-118795095D01*
X135159711Y-118795095D02*
X135207330Y-118699857D01*
X135207330Y-118699857D02*
X135254949Y-118652238D01*
X135254949Y-118652238D02*
X135350187Y-118604619D01*
X135350187Y-118604619D02*
X135588282Y-118604619D01*
X135588282Y-118604619D02*
X135731139Y-118652238D01*
X136159711Y-119080809D02*
X136493044Y-119080809D01*
X136635901Y-119604619D02*
X136159711Y-119604619D01*
X136159711Y-119604619D02*
X136159711Y-118604619D01*
X136159711Y-118604619D02*
X136635901Y-118604619D01*
X136921616Y-118604619D02*
X137493044Y-118604619D01*
X137207330Y-119604619D02*
X137207330Y-118604619D01*
X147206377Y-121632238D02*
X147111139Y-121584619D01*
X147111139Y-121584619D02*
X146968282Y-121584619D01*
X146968282Y-121584619D02*
X146825425Y-121632238D01*
X146825425Y-121632238D02*
X146730187Y-121727476D01*
X146730187Y-121727476D02*
X146682568Y-121822714D01*
X146682568Y-121822714D02*
X146634949Y-122013190D01*
X146634949Y-122013190D02*
X146634949Y-122156047D01*
X146634949Y-122156047D02*
X146682568Y-122346523D01*
X146682568Y-122346523D02*
X146730187Y-122441761D01*
X146730187Y-122441761D02*
X146825425Y-122537000D01*
X146825425Y-122537000D02*
X146968282Y-122584619D01*
X146968282Y-122584619D02*
X147063520Y-122584619D01*
X147063520Y-122584619D02*
X147206377Y-122537000D01*
X147206377Y-122537000D02*
X147253996Y-122489380D01*
X147253996Y-122489380D02*
X147253996Y-122156047D01*
X147253996Y-122156047D02*
X147063520Y-122156047D01*
X147682568Y-122584619D02*
X147682568Y-121584619D01*
X147682568Y-121584619D02*
X148253996Y-122584619D01*
X148253996Y-122584619D02*
X148253996Y-121584619D01*
X148730187Y-122584619D02*
X148730187Y-121584619D01*
X148730187Y-121584619D02*
X148968282Y-121584619D01*
X148968282Y-121584619D02*
X149111139Y-121632238D01*
X149111139Y-121632238D02*
X149206377Y-121727476D01*
X149206377Y-121727476D02*
X149253996Y-121822714D01*
X149253996Y-121822714D02*
X149301615Y-122013190D01*
X149301615Y-122013190D02*
X149301615Y-122156047D01*
X149301615Y-122156047D02*
X149253996Y-122346523D01*
X149253996Y-122346523D02*
X149206377Y-122441761D01*
X149206377Y-122441761D02*
X149111139Y-122537000D01*
X149111139Y-122537000D02*
X148968282Y-122584619D01*
X148968282Y-122584619D02*
X148730187Y-122584619D01*
X179030619Y-78073996D02*
X178983000Y-78026377D01*
X178983000Y-78026377D02*
X178935380Y-77883520D01*
X178935380Y-77883520D02*
X178935380Y-77788282D01*
X178935380Y-77788282D02*
X178983000Y-77645425D01*
X178983000Y-77645425D02*
X179078238Y-77550187D01*
X179078238Y-77550187D02*
X179173476Y-77502568D01*
X179173476Y-77502568D02*
X179363952Y-77454949D01*
X179363952Y-77454949D02*
X179506809Y-77454949D01*
X179506809Y-77454949D02*
X179697285Y-77502568D01*
X179697285Y-77502568D02*
X179792523Y-77550187D01*
X179792523Y-77550187D02*
X179887761Y-77645425D01*
X179887761Y-77645425D02*
X179935380Y-77788282D01*
X179935380Y-77788282D02*
X179935380Y-77883520D01*
X179935380Y-77883520D02*
X179887761Y-78026377D01*
X179887761Y-78026377D02*
X179840142Y-78073996D01*
X179221095Y-78454949D02*
X179221095Y-78931139D01*
X178935380Y-78359711D02*
X179935380Y-78693044D01*
X179935380Y-78693044D02*
X178935380Y-79026377D01*
X178935380Y-79359711D02*
X179935380Y-79359711D01*
X179935380Y-79359711D02*
X178935380Y-79931139D01*
X178935380Y-79931139D02*
X179935380Y-79931139D01*
X178935380Y-80883520D02*
X178935380Y-80407330D01*
X178935380Y-80407330D02*
X179935380Y-80407330D01*
X136659190Y-85660901D02*
X136611571Y-85803758D01*
X136611571Y-85803758D02*
X136563952Y-85851377D01*
X136563952Y-85851377D02*
X136468714Y-85898996D01*
X136468714Y-85898996D02*
X136325857Y-85898996D01*
X136325857Y-85898996D02*
X136230619Y-85851377D01*
X136230619Y-85851377D02*
X136183000Y-85803758D01*
X136183000Y-85803758D02*
X136135380Y-85708520D01*
X136135380Y-85708520D02*
X136135380Y-85327568D01*
X136135380Y-85327568D02*
X137135380Y-85327568D01*
X137135380Y-85327568D02*
X137135380Y-85660901D01*
X137135380Y-85660901D02*
X137087761Y-85756139D01*
X137087761Y-85756139D02*
X137040142Y-85803758D01*
X137040142Y-85803758D02*
X136944904Y-85851377D01*
X136944904Y-85851377D02*
X136849666Y-85851377D01*
X136849666Y-85851377D02*
X136754428Y-85803758D01*
X136754428Y-85803758D02*
X136706809Y-85756139D01*
X136706809Y-85756139D02*
X136659190Y-85660901D01*
X136659190Y-85660901D02*
X136659190Y-85327568D01*
X137135380Y-86518044D02*
X137135380Y-86708520D01*
X137135380Y-86708520D02*
X137087761Y-86803758D01*
X137087761Y-86803758D02*
X136992523Y-86898996D01*
X136992523Y-86898996D02*
X136802047Y-86946615D01*
X136802047Y-86946615D02*
X136468714Y-86946615D01*
X136468714Y-86946615D02*
X136278238Y-86898996D01*
X136278238Y-86898996D02*
X136183000Y-86803758D01*
X136183000Y-86803758D02*
X136135380Y-86708520D01*
X136135380Y-86708520D02*
X136135380Y-86518044D01*
X136135380Y-86518044D02*
X136183000Y-86422806D01*
X136183000Y-86422806D02*
X136278238Y-86327568D01*
X136278238Y-86327568D02*
X136468714Y-86279949D01*
X136468714Y-86279949D02*
X136802047Y-86279949D01*
X136802047Y-86279949D02*
X136992523Y-86327568D01*
X136992523Y-86327568D02*
X137087761Y-86422806D01*
X137087761Y-86422806D02*
X137135380Y-86518044D01*
X137135380Y-87565663D02*
X137135380Y-87756139D01*
X137135380Y-87756139D02*
X137087761Y-87851377D01*
X137087761Y-87851377D02*
X136992523Y-87946615D01*
X136992523Y-87946615D02*
X136802047Y-87994234D01*
X136802047Y-87994234D02*
X136468714Y-87994234D01*
X136468714Y-87994234D02*
X136278238Y-87946615D01*
X136278238Y-87946615D02*
X136183000Y-87851377D01*
X136183000Y-87851377D02*
X136135380Y-87756139D01*
X136135380Y-87756139D02*
X136135380Y-87565663D01*
X136135380Y-87565663D02*
X136183000Y-87470425D01*
X136183000Y-87470425D02*
X136278238Y-87375187D01*
X136278238Y-87375187D02*
X136468714Y-87327568D01*
X136468714Y-87327568D02*
X136802047Y-87327568D01*
X136802047Y-87327568D02*
X136992523Y-87375187D01*
X136992523Y-87375187D02*
X137087761Y-87470425D01*
X137087761Y-87470425D02*
X137135380Y-87565663D01*
X137135380Y-88279949D02*
X137135380Y-88851377D01*
X136135380Y-88565663D02*
X137135380Y-88565663D01*
X144853996Y-122584619D02*
X144520663Y-122108428D01*
X144282568Y-122584619D02*
X144282568Y-121584619D01*
X144282568Y-121584619D02*
X144663520Y-121584619D01*
X144663520Y-121584619D02*
X144758758Y-121632238D01*
X144758758Y-121632238D02*
X144806377Y-121679857D01*
X144806377Y-121679857D02*
X144853996Y-121775095D01*
X144853996Y-121775095D02*
X144853996Y-121917952D01*
X144853996Y-121917952D02*
X144806377Y-122013190D01*
X144806377Y-122013190D02*
X144758758Y-122060809D01*
X144758758Y-122060809D02*
X144663520Y-122108428D01*
X144663520Y-122108428D02*
X144282568Y-122108428D01*
X145187330Y-122584619D02*
X145711139Y-121917952D01*
X145187330Y-121917952D02*
X145711139Y-122584619D01*
X158692238Y-100093622D02*
X158644619Y-100188860D01*
X158644619Y-100188860D02*
X158644619Y-100331717D01*
X158644619Y-100331717D02*
X158692238Y-100474574D01*
X158692238Y-100474574D02*
X158787476Y-100569812D01*
X158787476Y-100569812D02*
X158882714Y-100617431D01*
X158882714Y-100617431D02*
X159073190Y-100665050D01*
X159073190Y-100665050D02*
X159216047Y-100665050D01*
X159216047Y-100665050D02*
X159406523Y-100617431D01*
X159406523Y-100617431D02*
X159501761Y-100569812D01*
X159501761Y-100569812D02*
X159597000Y-100474574D01*
X159597000Y-100474574D02*
X159644619Y-100331717D01*
X159644619Y-100331717D02*
X159644619Y-100236479D01*
X159644619Y-100236479D02*
X159597000Y-100093622D01*
X159597000Y-100093622D02*
X159549380Y-100046003D01*
X159549380Y-100046003D02*
X159216047Y-100046003D01*
X159216047Y-100046003D02*
X159216047Y-100236479D01*
X159644619Y-99617431D02*
X158644619Y-99617431D01*
X158644619Y-99617431D02*
X159644619Y-99046003D01*
X159644619Y-99046003D02*
X158644619Y-99046003D01*
X159644619Y-98569812D02*
X158644619Y-98569812D01*
X158644619Y-98569812D02*
X158644619Y-98331717D01*
X158644619Y-98331717D02*
X158692238Y-98188860D01*
X158692238Y-98188860D02*
X158787476Y-98093622D01*
X158787476Y-98093622D02*
X158882714Y-98046003D01*
X158882714Y-98046003D02*
X159073190Y-97998384D01*
X159073190Y-97998384D02*
X159216047Y-97998384D01*
X159216047Y-97998384D02*
X159406523Y-98046003D01*
X159406523Y-98046003D02*
X159501761Y-98093622D01*
X159501761Y-98093622D02*
X159597000Y-98188860D01*
X159597000Y-98188860D02*
X159644619Y-98331717D01*
X159644619Y-98331717D02*
X159644619Y-98569812D01*
X180092238Y-119893622D02*
X180044619Y-119988860D01*
X180044619Y-119988860D02*
X180044619Y-120131717D01*
X180044619Y-120131717D02*
X180092238Y-120274574D01*
X180092238Y-120274574D02*
X180187476Y-120369812D01*
X180187476Y-120369812D02*
X180282714Y-120417431D01*
X180282714Y-120417431D02*
X180473190Y-120465050D01*
X180473190Y-120465050D02*
X180616047Y-120465050D01*
X180616047Y-120465050D02*
X180806523Y-120417431D01*
X180806523Y-120417431D02*
X180901761Y-120369812D01*
X180901761Y-120369812D02*
X180997000Y-120274574D01*
X180997000Y-120274574D02*
X181044619Y-120131717D01*
X181044619Y-120131717D02*
X181044619Y-120036479D01*
X181044619Y-120036479D02*
X180997000Y-119893622D01*
X180997000Y-119893622D02*
X180949380Y-119846003D01*
X180949380Y-119846003D02*
X180616047Y-119846003D01*
X180616047Y-119846003D02*
X180616047Y-120036479D01*
X181044619Y-119417431D02*
X180044619Y-119417431D01*
X180044619Y-119417431D02*
X181044619Y-118846003D01*
X181044619Y-118846003D02*
X180044619Y-118846003D01*
X181044619Y-118369812D02*
X180044619Y-118369812D01*
X180044619Y-118369812D02*
X180044619Y-118131717D01*
X180044619Y-118131717D02*
X180092238Y-117988860D01*
X180092238Y-117988860D02*
X180187476Y-117893622D01*
X180187476Y-117893622D02*
X180282714Y-117846003D01*
X180282714Y-117846003D02*
X180473190Y-117798384D01*
X180473190Y-117798384D02*
X180616047Y-117798384D01*
X180616047Y-117798384D02*
X180806523Y-117846003D01*
X180806523Y-117846003D02*
X180901761Y-117893622D01*
X180901761Y-117893622D02*
X180997000Y-117988860D01*
X180997000Y-117988860D02*
X181044619Y-118131717D01*
X181044619Y-118131717D02*
X181044619Y-118369812D01*
X137669619Y-79258333D02*
X138383904Y-79258333D01*
X138383904Y-79258333D02*
X138526761Y-79305952D01*
X138526761Y-79305952D02*
X138622000Y-79401190D01*
X138622000Y-79401190D02*
X138669619Y-79544047D01*
X138669619Y-79544047D02*
X138669619Y-79639285D01*
X137669619Y-78877380D02*
X137669619Y-78210714D01*
X137669619Y-78210714D02*
X138669619Y-78639285D01*
X140166666Y-90749619D02*
X140166666Y-91463904D01*
X140166666Y-91463904D02*
X140119047Y-91606761D01*
X140119047Y-91606761D02*
X140023809Y-91702000D01*
X140023809Y-91702000D02*
X139880952Y-91749619D01*
X139880952Y-91749619D02*
X139785714Y-91749619D01*
X141071428Y-90749619D02*
X140880952Y-90749619D01*
X140880952Y-90749619D02*
X140785714Y-90797238D01*
X140785714Y-90797238D02*
X140738095Y-90844857D01*
X140738095Y-90844857D02*
X140642857Y-90987714D01*
X140642857Y-90987714D02*
X140595238Y-91178190D01*
X140595238Y-91178190D02*
X140595238Y-91559142D01*
X140595238Y-91559142D02*
X140642857Y-91654380D01*
X140642857Y-91654380D02*
X140690476Y-91702000D01*
X140690476Y-91702000D02*
X140785714Y-91749619D01*
X140785714Y-91749619D02*
X140976190Y-91749619D01*
X140976190Y-91749619D02*
X141071428Y-91702000D01*
X141071428Y-91702000D02*
X141119047Y-91654380D01*
X141119047Y-91654380D02*
X141166666Y-91559142D01*
X141166666Y-91559142D02*
X141166666Y-91321047D01*
X141166666Y-91321047D02*
X141119047Y-91225809D01*
X141119047Y-91225809D02*
X141071428Y-91178190D01*
X141071428Y-91178190D02*
X140976190Y-91130571D01*
X140976190Y-91130571D02*
X140785714Y-91130571D01*
X140785714Y-91130571D02*
X140690476Y-91178190D01*
X140690476Y-91178190D02*
X140642857Y-91225809D01*
X140642857Y-91225809D02*
X140595238Y-91321047D01*
X176794380Y-105562857D02*
X176842000Y-105610476D01*
X176842000Y-105610476D02*
X176889619Y-105753333D01*
X176889619Y-105753333D02*
X176889619Y-105848571D01*
X176889619Y-105848571D02*
X176842000Y-105991428D01*
X176842000Y-105991428D02*
X176746761Y-106086666D01*
X176746761Y-106086666D02*
X176651523Y-106134285D01*
X176651523Y-106134285D02*
X176461047Y-106181904D01*
X176461047Y-106181904D02*
X176318190Y-106181904D01*
X176318190Y-106181904D02*
X176127714Y-106134285D01*
X176127714Y-106134285D02*
X176032476Y-106086666D01*
X176032476Y-106086666D02*
X175937238Y-105991428D01*
X175937238Y-105991428D02*
X175889619Y-105848571D01*
X175889619Y-105848571D02*
X175889619Y-105753333D01*
X175889619Y-105753333D02*
X175937238Y-105610476D01*
X175937238Y-105610476D02*
X175984857Y-105562857D01*
X176889619Y-104610476D02*
X176889619Y-105181904D01*
X176889619Y-104896190D02*
X175889619Y-104896190D01*
X175889619Y-104896190D02*
X176032476Y-104991428D01*
X176032476Y-104991428D02*
X176127714Y-105086666D01*
X176127714Y-105086666D02*
X176175333Y-105181904D01*
X175889619Y-103991428D02*
X175889619Y-103896190D01*
X175889619Y-103896190D02*
X175937238Y-103800952D01*
X175937238Y-103800952D02*
X175984857Y-103753333D01*
X175984857Y-103753333D02*
X176080095Y-103705714D01*
X176080095Y-103705714D02*
X176270571Y-103658095D01*
X176270571Y-103658095D02*
X176508666Y-103658095D01*
X176508666Y-103658095D02*
X176699142Y-103705714D01*
X176699142Y-103705714D02*
X176794380Y-103753333D01*
X176794380Y-103753333D02*
X176842000Y-103800952D01*
X176842000Y-103800952D02*
X176889619Y-103896190D01*
X176889619Y-103896190D02*
X176889619Y-103991428D01*
X176889619Y-103991428D02*
X176842000Y-104086666D01*
X176842000Y-104086666D02*
X176794380Y-104134285D01*
X176794380Y-104134285D02*
X176699142Y-104181904D01*
X176699142Y-104181904D02*
X176508666Y-104229523D01*
X176508666Y-104229523D02*
X176270571Y-104229523D01*
X176270571Y-104229523D02*
X176080095Y-104181904D01*
X176080095Y-104181904D02*
X175984857Y-104134285D01*
X175984857Y-104134285D02*
X175937238Y-104086666D01*
X175937238Y-104086666D02*
X175889619Y-103991428D01*
X166141905Y-110569619D02*
X166141905Y-109569619D01*
X166141905Y-109569619D02*
X166380000Y-109569619D01*
X166380000Y-109569619D02*
X166522857Y-109617238D01*
X166522857Y-109617238D02*
X166618095Y-109712476D01*
X166618095Y-109712476D02*
X166665714Y-109807714D01*
X166665714Y-109807714D02*
X166713333Y-109998190D01*
X166713333Y-109998190D02*
X166713333Y-110141047D01*
X166713333Y-110141047D02*
X166665714Y-110331523D01*
X166665714Y-110331523D02*
X166618095Y-110426761D01*
X166618095Y-110426761D02*
X166522857Y-110522000D01*
X166522857Y-110522000D02*
X166380000Y-110569619D01*
X166380000Y-110569619D02*
X166141905Y-110569619D01*
X167570476Y-109902952D02*
X167570476Y-110569619D01*
X167332381Y-109522000D02*
X167094286Y-110236285D01*
X167094286Y-110236285D02*
X167713333Y-110236285D01*
X144546666Y-116569619D02*
X144546666Y-117283904D01*
X144546666Y-117283904D02*
X144499047Y-117426761D01*
X144499047Y-117426761D02*
X144403809Y-117522000D01*
X144403809Y-117522000D02*
X144260952Y-117569619D01*
X144260952Y-117569619D02*
X144165714Y-117569619D01*
X144927619Y-116569619D02*
X145546666Y-116569619D01*
X145546666Y-116569619D02*
X145213333Y-116950571D01*
X145213333Y-116950571D02*
X145356190Y-116950571D01*
X145356190Y-116950571D02*
X145451428Y-116998190D01*
X145451428Y-116998190D02*
X145499047Y-117045809D01*
X145499047Y-117045809D02*
X145546666Y-117141047D01*
X145546666Y-117141047D02*
X145546666Y-117379142D01*
X145546666Y-117379142D02*
X145499047Y-117474380D01*
X145499047Y-117474380D02*
X145451428Y-117522000D01*
X145451428Y-117522000D02*
X145356190Y-117569619D01*
X145356190Y-117569619D02*
X145070476Y-117569619D01*
X145070476Y-117569619D02*
X144975238Y-117522000D01*
X144975238Y-117522000D02*
X144927619Y-117474380D01*
X161713333Y-100469619D02*
X161380000Y-99993428D01*
X161141905Y-100469619D02*
X161141905Y-99469619D01*
X161141905Y-99469619D02*
X161522857Y-99469619D01*
X161522857Y-99469619D02*
X161618095Y-99517238D01*
X161618095Y-99517238D02*
X161665714Y-99564857D01*
X161665714Y-99564857D02*
X161713333Y-99660095D01*
X161713333Y-99660095D02*
X161713333Y-99802952D01*
X161713333Y-99802952D02*
X161665714Y-99898190D01*
X161665714Y-99898190D02*
X161618095Y-99945809D01*
X161618095Y-99945809D02*
X161522857Y-99993428D01*
X161522857Y-99993428D02*
X161141905Y-99993428D01*
X162189524Y-100469619D02*
X162380000Y-100469619D01*
X162380000Y-100469619D02*
X162475238Y-100422000D01*
X162475238Y-100422000D02*
X162522857Y-100374380D01*
X162522857Y-100374380D02*
X162618095Y-100231523D01*
X162618095Y-100231523D02*
X162665714Y-100041047D01*
X162665714Y-100041047D02*
X162665714Y-99660095D01*
X162665714Y-99660095D02*
X162618095Y-99564857D01*
X162618095Y-99564857D02*
X162570476Y-99517238D01*
X162570476Y-99517238D02*
X162475238Y-99469619D01*
X162475238Y-99469619D02*
X162284762Y-99469619D01*
X162284762Y-99469619D02*
X162189524Y-99517238D01*
X162189524Y-99517238D02*
X162141905Y-99564857D01*
X162141905Y-99564857D02*
X162094286Y-99660095D01*
X162094286Y-99660095D02*
X162094286Y-99898190D01*
X162094286Y-99898190D02*
X162141905Y-99993428D01*
X162141905Y-99993428D02*
X162189524Y-100041047D01*
X162189524Y-100041047D02*
X162284762Y-100088666D01*
X162284762Y-100088666D02*
X162475238Y-100088666D01*
X162475238Y-100088666D02*
X162570476Y-100041047D01*
X162570476Y-100041047D02*
X162618095Y-99993428D01*
X162618095Y-99993428D02*
X162665714Y-99898190D01*
X175129619Y-115153333D02*
X175843904Y-115153333D01*
X175843904Y-115153333D02*
X175986761Y-115200952D01*
X175986761Y-115200952D02*
X176082000Y-115296190D01*
X176082000Y-115296190D02*
X176129619Y-115439047D01*
X176129619Y-115439047D02*
X176129619Y-115534285D01*
X175462952Y-114248571D02*
X176129619Y-114248571D01*
X175082000Y-114486666D02*
X175796285Y-114724761D01*
X175796285Y-114724761D02*
X175796285Y-114105714D01*
X162834380Y-107562857D02*
X162882000Y-107610476D01*
X162882000Y-107610476D02*
X162929619Y-107753333D01*
X162929619Y-107753333D02*
X162929619Y-107848571D01*
X162929619Y-107848571D02*
X162882000Y-107991428D01*
X162882000Y-107991428D02*
X162786761Y-108086666D01*
X162786761Y-108086666D02*
X162691523Y-108134285D01*
X162691523Y-108134285D02*
X162501047Y-108181904D01*
X162501047Y-108181904D02*
X162358190Y-108181904D01*
X162358190Y-108181904D02*
X162167714Y-108134285D01*
X162167714Y-108134285D02*
X162072476Y-108086666D01*
X162072476Y-108086666D02*
X161977238Y-107991428D01*
X161977238Y-107991428D02*
X161929619Y-107848571D01*
X161929619Y-107848571D02*
X161929619Y-107753333D01*
X161929619Y-107753333D02*
X161977238Y-107610476D01*
X161977238Y-107610476D02*
X162024857Y-107562857D01*
X162929619Y-106610476D02*
X162929619Y-107181904D01*
X162929619Y-106896190D02*
X161929619Y-106896190D01*
X161929619Y-106896190D02*
X162072476Y-106991428D01*
X162072476Y-106991428D02*
X162167714Y-107086666D01*
X162167714Y-107086666D02*
X162215333Y-107181904D01*
X161929619Y-105753333D02*
X161929619Y-105943809D01*
X161929619Y-105943809D02*
X161977238Y-106039047D01*
X161977238Y-106039047D02*
X162024857Y-106086666D01*
X162024857Y-106086666D02*
X162167714Y-106181904D01*
X162167714Y-106181904D02*
X162358190Y-106229523D01*
X162358190Y-106229523D02*
X162739142Y-106229523D01*
X162739142Y-106229523D02*
X162834380Y-106181904D01*
X162834380Y-106181904D02*
X162882000Y-106134285D01*
X162882000Y-106134285D02*
X162929619Y-106039047D01*
X162929619Y-106039047D02*
X162929619Y-105848571D01*
X162929619Y-105848571D02*
X162882000Y-105753333D01*
X162882000Y-105753333D02*
X162834380Y-105705714D01*
X162834380Y-105705714D02*
X162739142Y-105658095D01*
X162739142Y-105658095D02*
X162501047Y-105658095D01*
X162501047Y-105658095D02*
X162405809Y-105705714D01*
X162405809Y-105705714D02*
X162358190Y-105753333D01*
X162358190Y-105753333D02*
X162310571Y-105848571D01*
X162310571Y-105848571D02*
X162310571Y-106039047D01*
X162310571Y-106039047D02*
X162358190Y-106134285D01*
X162358190Y-106134285D02*
X162405809Y-106181904D01*
X162405809Y-106181904D02*
X162501047Y-106229523D01*
X134213333Y-98474380D02*
X134165714Y-98522000D01*
X134165714Y-98522000D02*
X134022857Y-98569619D01*
X134022857Y-98569619D02*
X133927619Y-98569619D01*
X133927619Y-98569619D02*
X133784762Y-98522000D01*
X133784762Y-98522000D02*
X133689524Y-98426761D01*
X133689524Y-98426761D02*
X133641905Y-98331523D01*
X133641905Y-98331523D02*
X133594286Y-98141047D01*
X133594286Y-98141047D02*
X133594286Y-97998190D01*
X133594286Y-97998190D02*
X133641905Y-97807714D01*
X133641905Y-97807714D02*
X133689524Y-97712476D01*
X133689524Y-97712476D02*
X133784762Y-97617238D01*
X133784762Y-97617238D02*
X133927619Y-97569619D01*
X133927619Y-97569619D02*
X134022857Y-97569619D01*
X134022857Y-97569619D02*
X134165714Y-97617238D01*
X134165714Y-97617238D02*
X134213333Y-97664857D01*
X134546667Y-97569619D02*
X135165714Y-97569619D01*
X135165714Y-97569619D02*
X134832381Y-97950571D01*
X134832381Y-97950571D02*
X134975238Y-97950571D01*
X134975238Y-97950571D02*
X135070476Y-97998190D01*
X135070476Y-97998190D02*
X135118095Y-98045809D01*
X135118095Y-98045809D02*
X135165714Y-98141047D01*
X135165714Y-98141047D02*
X135165714Y-98379142D01*
X135165714Y-98379142D02*
X135118095Y-98474380D01*
X135118095Y-98474380D02*
X135070476Y-98522000D01*
X135070476Y-98522000D02*
X134975238Y-98569619D01*
X134975238Y-98569619D02*
X134689524Y-98569619D01*
X134689524Y-98569619D02*
X134594286Y-98522000D01*
X134594286Y-98522000D02*
X134546667Y-98474380D01*
X172234380Y-109112857D02*
X172282000Y-109160476D01*
X172282000Y-109160476D02*
X172329619Y-109303333D01*
X172329619Y-109303333D02*
X172329619Y-109398571D01*
X172329619Y-109398571D02*
X172282000Y-109541428D01*
X172282000Y-109541428D02*
X172186761Y-109636666D01*
X172186761Y-109636666D02*
X172091523Y-109684285D01*
X172091523Y-109684285D02*
X171901047Y-109731904D01*
X171901047Y-109731904D02*
X171758190Y-109731904D01*
X171758190Y-109731904D02*
X171567714Y-109684285D01*
X171567714Y-109684285D02*
X171472476Y-109636666D01*
X171472476Y-109636666D02*
X171377238Y-109541428D01*
X171377238Y-109541428D02*
X171329619Y-109398571D01*
X171329619Y-109398571D02*
X171329619Y-109303333D01*
X171329619Y-109303333D02*
X171377238Y-109160476D01*
X171377238Y-109160476D02*
X171424857Y-109112857D01*
X172329619Y-108160476D02*
X172329619Y-108731904D01*
X172329619Y-108446190D02*
X171329619Y-108446190D01*
X171329619Y-108446190D02*
X171472476Y-108541428D01*
X171472476Y-108541428D02*
X171567714Y-108636666D01*
X171567714Y-108636666D02*
X171615333Y-108731904D01*
X171424857Y-107779523D02*
X171377238Y-107731904D01*
X171377238Y-107731904D02*
X171329619Y-107636666D01*
X171329619Y-107636666D02*
X171329619Y-107398571D01*
X171329619Y-107398571D02*
X171377238Y-107303333D01*
X171377238Y-107303333D02*
X171424857Y-107255714D01*
X171424857Y-107255714D02*
X171520095Y-107208095D01*
X171520095Y-107208095D02*
X171615333Y-107208095D01*
X171615333Y-107208095D02*
X171758190Y-107255714D01*
X171758190Y-107255714D02*
X172329619Y-107827142D01*
X172329619Y-107827142D02*
X172329619Y-107208095D01*
X134513333Y-96574380D02*
X134465714Y-96622000D01*
X134465714Y-96622000D02*
X134322857Y-96669619D01*
X134322857Y-96669619D02*
X134227619Y-96669619D01*
X134227619Y-96669619D02*
X134084762Y-96622000D01*
X134084762Y-96622000D02*
X133989524Y-96526761D01*
X133989524Y-96526761D02*
X133941905Y-96431523D01*
X133941905Y-96431523D02*
X133894286Y-96241047D01*
X133894286Y-96241047D02*
X133894286Y-96098190D01*
X133894286Y-96098190D02*
X133941905Y-95907714D01*
X133941905Y-95907714D02*
X133989524Y-95812476D01*
X133989524Y-95812476D02*
X134084762Y-95717238D01*
X134084762Y-95717238D02*
X134227619Y-95669619D01*
X134227619Y-95669619D02*
X134322857Y-95669619D01*
X134322857Y-95669619D02*
X134465714Y-95717238D01*
X134465714Y-95717238D02*
X134513333Y-95764857D01*
X135465714Y-96669619D02*
X134894286Y-96669619D01*
X135180000Y-96669619D02*
X135180000Y-95669619D01*
X135180000Y-95669619D02*
X135084762Y-95812476D01*
X135084762Y-95812476D02*
X134989524Y-95907714D01*
X134989524Y-95907714D02*
X134894286Y-95955333D01*
X131813333Y-105549380D02*
X131765714Y-105597000D01*
X131765714Y-105597000D02*
X131622857Y-105644619D01*
X131622857Y-105644619D02*
X131527619Y-105644619D01*
X131527619Y-105644619D02*
X131384762Y-105597000D01*
X131384762Y-105597000D02*
X131289524Y-105501761D01*
X131289524Y-105501761D02*
X131241905Y-105406523D01*
X131241905Y-105406523D02*
X131194286Y-105216047D01*
X131194286Y-105216047D02*
X131194286Y-105073190D01*
X131194286Y-105073190D02*
X131241905Y-104882714D01*
X131241905Y-104882714D02*
X131289524Y-104787476D01*
X131289524Y-104787476D02*
X131384762Y-104692238D01*
X131384762Y-104692238D02*
X131527619Y-104644619D01*
X131527619Y-104644619D02*
X131622857Y-104644619D01*
X131622857Y-104644619D02*
X131765714Y-104692238D01*
X131765714Y-104692238D02*
X131813333Y-104739857D01*
X132384762Y-105073190D02*
X132289524Y-105025571D01*
X132289524Y-105025571D02*
X132241905Y-104977952D01*
X132241905Y-104977952D02*
X132194286Y-104882714D01*
X132194286Y-104882714D02*
X132194286Y-104835095D01*
X132194286Y-104835095D02*
X132241905Y-104739857D01*
X132241905Y-104739857D02*
X132289524Y-104692238D01*
X132289524Y-104692238D02*
X132384762Y-104644619D01*
X132384762Y-104644619D02*
X132575238Y-104644619D01*
X132575238Y-104644619D02*
X132670476Y-104692238D01*
X132670476Y-104692238D02*
X132718095Y-104739857D01*
X132718095Y-104739857D02*
X132765714Y-104835095D01*
X132765714Y-104835095D02*
X132765714Y-104882714D01*
X132765714Y-104882714D02*
X132718095Y-104977952D01*
X132718095Y-104977952D02*
X132670476Y-105025571D01*
X132670476Y-105025571D02*
X132575238Y-105073190D01*
X132575238Y-105073190D02*
X132384762Y-105073190D01*
X132384762Y-105073190D02*
X132289524Y-105120809D01*
X132289524Y-105120809D02*
X132241905Y-105168428D01*
X132241905Y-105168428D02*
X132194286Y-105263666D01*
X132194286Y-105263666D02*
X132194286Y-105454142D01*
X132194286Y-105454142D02*
X132241905Y-105549380D01*
X132241905Y-105549380D02*
X132289524Y-105597000D01*
X132289524Y-105597000D02*
X132384762Y-105644619D01*
X132384762Y-105644619D02*
X132575238Y-105644619D01*
X132575238Y-105644619D02*
X132670476Y-105597000D01*
X132670476Y-105597000D02*
X132718095Y-105549380D01*
X132718095Y-105549380D02*
X132765714Y-105454142D01*
X132765714Y-105454142D02*
X132765714Y-105263666D01*
X132765714Y-105263666D02*
X132718095Y-105168428D01*
X132718095Y-105168428D02*
X132670476Y-105120809D01*
X132670476Y-105120809D02*
X132575238Y-105073190D01*
X168718095Y-107969619D02*
X168718095Y-108779142D01*
X168718095Y-108779142D02*
X168765714Y-108874380D01*
X168765714Y-108874380D02*
X168813333Y-108922000D01*
X168813333Y-108922000D02*
X168908571Y-108969619D01*
X168908571Y-108969619D02*
X169099047Y-108969619D01*
X169099047Y-108969619D02*
X169194285Y-108922000D01*
X169194285Y-108922000D02*
X169241904Y-108874380D01*
X169241904Y-108874380D02*
X169289523Y-108779142D01*
X169289523Y-108779142D02*
X169289523Y-107969619D01*
X169718095Y-108064857D02*
X169765714Y-108017238D01*
X169765714Y-108017238D02*
X169860952Y-107969619D01*
X169860952Y-107969619D02*
X170099047Y-107969619D01*
X170099047Y-107969619D02*
X170194285Y-108017238D01*
X170194285Y-108017238D02*
X170241904Y-108064857D01*
X170241904Y-108064857D02*
X170289523Y-108160095D01*
X170289523Y-108160095D02*
X170289523Y-108255333D01*
X170289523Y-108255333D02*
X170241904Y-108398190D01*
X170241904Y-108398190D02*
X169670476Y-108969619D01*
X169670476Y-108969619D02*
X170289523Y-108969619D01*
X161429619Y-107736666D02*
X160953428Y-108069999D01*
X161429619Y-108308094D02*
X160429619Y-108308094D01*
X160429619Y-108308094D02*
X160429619Y-107927142D01*
X160429619Y-107927142D02*
X160477238Y-107831904D01*
X160477238Y-107831904D02*
X160524857Y-107784285D01*
X160524857Y-107784285D02*
X160620095Y-107736666D01*
X160620095Y-107736666D02*
X160762952Y-107736666D01*
X160762952Y-107736666D02*
X160858190Y-107784285D01*
X160858190Y-107784285D02*
X160905809Y-107831904D01*
X160905809Y-107831904D02*
X160953428Y-107927142D01*
X160953428Y-107927142D02*
X160953428Y-108308094D01*
X160429619Y-107403332D02*
X160429619Y-106736666D01*
X160429619Y-106736666D02*
X161429619Y-107165237D01*
X148534380Y-104286666D02*
X148582000Y-104334285D01*
X148582000Y-104334285D02*
X148629619Y-104477142D01*
X148629619Y-104477142D02*
X148629619Y-104572380D01*
X148629619Y-104572380D02*
X148582000Y-104715237D01*
X148582000Y-104715237D02*
X148486761Y-104810475D01*
X148486761Y-104810475D02*
X148391523Y-104858094D01*
X148391523Y-104858094D02*
X148201047Y-104905713D01*
X148201047Y-104905713D02*
X148058190Y-104905713D01*
X148058190Y-104905713D02*
X147867714Y-104858094D01*
X147867714Y-104858094D02*
X147772476Y-104810475D01*
X147772476Y-104810475D02*
X147677238Y-104715237D01*
X147677238Y-104715237D02*
X147629619Y-104572380D01*
X147629619Y-104572380D02*
X147629619Y-104477142D01*
X147629619Y-104477142D02*
X147677238Y-104334285D01*
X147677238Y-104334285D02*
X147724857Y-104286666D01*
X147962952Y-103429523D02*
X148629619Y-103429523D01*
X147582000Y-103667618D02*
X148296285Y-103905713D01*
X148296285Y-103905713D02*
X148296285Y-103286666D01*
X167297142Y-100574380D02*
X167249523Y-100622000D01*
X167249523Y-100622000D02*
X167106666Y-100669619D01*
X167106666Y-100669619D02*
X167011428Y-100669619D01*
X167011428Y-100669619D02*
X166868571Y-100622000D01*
X166868571Y-100622000D02*
X166773333Y-100526761D01*
X166773333Y-100526761D02*
X166725714Y-100431523D01*
X166725714Y-100431523D02*
X166678095Y-100241047D01*
X166678095Y-100241047D02*
X166678095Y-100098190D01*
X166678095Y-100098190D02*
X166725714Y-99907714D01*
X166725714Y-99907714D02*
X166773333Y-99812476D01*
X166773333Y-99812476D02*
X166868571Y-99717238D01*
X166868571Y-99717238D02*
X167011428Y-99669619D01*
X167011428Y-99669619D02*
X167106666Y-99669619D01*
X167106666Y-99669619D02*
X167249523Y-99717238D01*
X167249523Y-99717238D02*
X167297142Y-99764857D01*
X168249523Y-100669619D02*
X167678095Y-100669619D01*
X167963809Y-100669619D02*
X167963809Y-99669619D01*
X167963809Y-99669619D02*
X167868571Y-99812476D01*
X167868571Y-99812476D02*
X167773333Y-99907714D01*
X167773333Y-99907714D02*
X167678095Y-99955333D01*
X168582857Y-99669619D02*
X169201904Y-99669619D01*
X169201904Y-99669619D02*
X168868571Y-100050571D01*
X168868571Y-100050571D02*
X169011428Y-100050571D01*
X169011428Y-100050571D02*
X169106666Y-100098190D01*
X169106666Y-100098190D02*
X169154285Y-100145809D01*
X169154285Y-100145809D02*
X169201904Y-100241047D01*
X169201904Y-100241047D02*
X169201904Y-100479142D01*
X169201904Y-100479142D02*
X169154285Y-100574380D01*
X169154285Y-100574380D02*
X169106666Y-100622000D01*
X169106666Y-100622000D02*
X169011428Y-100669619D01*
X169011428Y-100669619D02*
X168725714Y-100669619D01*
X168725714Y-100669619D02*
X168630476Y-100622000D01*
X168630476Y-100622000D02*
X168582857Y-100574380D01*
X139518095Y-95864619D02*
X139518095Y-96674142D01*
X139518095Y-96674142D02*
X139565714Y-96769380D01*
X139565714Y-96769380D02*
X139613333Y-96817000D01*
X139613333Y-96817000D02*
X139708571Y-96864619D01*
X139708571Y-96864619D02*
X139899047Y-96864619D01*
X139899047Y-96864619D02*
X139994285Y-96817000D01*
X139994285Y-96817000D02*
X140041904Y-96769380D01*
X140041904Y-96769380D02*
X140089523Y-96674142D01*
X140089523Y-96674142D02*
X140089523Y-95864619D01*
X141089523Y-96864619D02*
X140518095Y-96864619D01*
X140803809Y-96864619D02*
X140803809Y-95864619D01*
X140803809Y-95864619D02*
X140708571Y-96007476D01*
X140708571Y-96007476D02*
X140613333Y-96102714D01*
X140613333Y-96102714D02*
X140518095Y-96150333D01*
X166137142Y-108874380D02*
X166089523Y-108922000D01*
X166089523Y-108922000D02*
X165946666Y-108969619D01*
X165946666Y-108969619D02*
X165851428Y-108969619D01*
X165851428Y-108969619D02*
X165708571Y-108922000D01*
X165708571Y-108922000D02*
X165613333Y-108826761D01*
X165613333Y-108826761D02*
X165565714Y-108731523D01*
X165565714Y-108731523D02*
X165518095Y-108541047D01*
X165518095Y-108541047D02*
X165518095Y-108398190D01*
X165518095Y-108398190D02*
X165565714Y-108207714D01*
X165565714Y-108207714D02*
X165613333Y-108112476D01*
X165613333Y-108112476D02*
X165708571Y-108017238D01*
X165708571Y-108017238D02*
X165851428Y-107969619D01*
X165851428Y-107969619D02*
X165946666Y-107969619D01*
X165946666Y-107969619D02*
X166089523Y-108017238D01*
X166089523Y-108017238D02*
X166137142Y-108064857D01*
X167089523Y-108969619D02*
X166518095Y-108969619D01*
X166803809Y-108969619D02*
X166803809Y-107969619D01*
X166803809Y-107969619D02*
X166708571Y-108112476D01*
X166708571Y-108112476D02*
X166613333Y-108207714D01*
X166613333Y-108207714D02*
X166518095Y-108255333D01*
X167946666Y-108302952D02*
X167946666Y-108969619D01*
X167708571Y-107922000D02*
X167470476Y-108636285D01*
X167470476Y-108636285D02*
X168089523Y-108636285D01*
X140729619Y-112086666D02*
X140253428Y-112419999D01*
X140729619Y-112658094D02*
X139729619Y-112658094D01*
X139729619Y-112658094D02*
X139729619Y-112277142D01*
X139729619Y-112277142D02*
X139777238Y-112181904D01*
X139777238Y-112181904D02*
X139824857Y-112134285D01*
X139824857Y-112134285D02*
X139920095Y-112086666D01*
X139920095Y-112086666D02*
X140062952Y-112086666D01*
X140062952Y-112086666D02*
X140158190Y-112134285D01*
X140158190Y-112134285D02*
X140205809Y-112181904D01*
X140205809Y-112181904D02*
X140253428Y-112277142D01*
X140253428Y-112277142D02*
X140253428Y-112658094D01*
X140729619Y-111134285D02*
X140729619Y-111705713D01*
X140729619Y-111419999D02*
X139729619Y-111419999D01*
X139729619Y-111419999D02*
X139872476Y-111515237D01*
X139872476Y-111515237D02*
X139967714Y-111610475D01*
X139967714Y-111610475D02*
X140015333Y-111705713D01*
X134113333Y-104274380D02*
X134065714Y-104322000D01*
X134065714Y-104322000D02*
X133922857Y-104369619D01*
X133922857Y-104369619D02*
X133827619Y-104369619D01*
X133827619Y-104369619D02*
X133684762Y-104322000D01*
X133684762Y-104322000D02*
X133589524Y-104226761D01*
X133589524Y-104226761D02*
X133541905Y-104131523D01*
X133541905Y-104131523D02*
X133494286Y-103941047D01*
X133494286Y-103941047D02*
X133494286Y-103798190D01*
X133494286Y-103798190D02*
X133541905Y-103607714D01*
X133541905Y-103607714D02*
X133589524Y-103512476D01*
X133589524Y-103512476D02*
X133684762Y-103417238D01*
X133684762Y-103417238D02*
X133827619Y-103369619D01*
X133827619Y-103369619D02*
X133922857Y-103369619D01*
X133922857Y-103369619D02*
X134065714Y-103417238D01*
X134065714Y-103417238D02*
X134113333Y-103464857D01*
X135018095Y-103369619D02*
X134541905Y-103369619D01*
X134541905Y-103369619D02*
X134494286Y-103845809D01*
X134494286Y-103845809D02*
X134541905Y-103798190D01*
X134541905Y-103798190D02*
X134637143Y-103750571D01*
X134637143Y-103750571D02*
X134875238Y-103750571D01*
X134875238Y-103750571D02*
X134970476Y-103798190D01*
X134970476Y-103798190D02*
X135018095Y-103845809D01*
X135018095Y-103845809D02*
X135065714Y-103941047D01*
X135065714Y-103941047D02*
X135065714Y-104179142D01*
X135065714Y-104179142D02*
X135018095Y-104274380D01*
X135018095Y-104274380D02*
X134970476Y-104322000D01*
X134970476Y-104322000D02*
X134875238Y-104369619D01*
X134875238Y-104369619D02*
X134637143Y-104369619D01*
X134637143Y-104369619D02*
X134541905Y-104322000D01*
X134541905Y-104322000D02*
X134494286Y-104274380D01*
X152018095Y-104669619D02*
X152018095Y-105479142D01*
X152018095Y-105479142D02*
X152065714Y-105574380D01*
X152065714Y-105574380D02*
X152113333Y-105622000D01*
X152113333Y-105622000D02*
X152208571Y-105669619D01*
X152208571Y-105669619D02*
X152399047Y-105669619D01*
X152399047Y-105669619D02*
X152494285Y-105622000D01*
X152494285Y-105622000D02*
X152541904Y-105574380D01*
X152541904Y-105574380D02*
X152589523Y-105479142D01*
X152589523Y-105479142D02*
X152589523Y-104669619D01*
X152970476Y-104669619D02*
X153589523Y-104669619D01*
X153589523Y-104669619D02*
X153256190Y-105050571D01*
X153256190Y-105050571D02*
X153399047Y-105050571D01*
X153399047Y-105050571D02*
X153494285Y-105098190D01*
X153494285Y-105098190D02*
X153541904Y-105145809D01*
X153541904Y-105145809D02*
X153589523Y-105241047D01*
X153589523Y-105241047D02*
X153589523Y-105479142D01*
X153589523Y-105479142D02*
X153541904Y-105574380D01*
X153541904Y-105574380D02*
X153494285Y-105622000D01*
X153494285Y-105622000D02*
X153399047Y-105669619D01*
X153399047Y-105669619D02*
X153113333Y-105669619D01*
X153113333Y-105669619D02*
X153018095Y-105622000D01*
X153018095Y-105622000D02*
X152970476Y-105574380D01*
X159229619Y-102286666D02*
X158753428Y-102619999D01*
X159229619Y-102858094D02*
X158229619Y-102858094D01*
X158229619Y-102858094D02*
X158229619Y-102477142D01*
X158229619Y-102477142D02*
X158277238Y-102381904D01*
X158277238Y-102381904D02*
X158324857Y-102334285D01*
X158324857Y-102334285D02*
X158420095Y-102286666D01*
X158420095Y-102286666D02*
X158562952Y-102286666D01*
X158562952Y-102286666D02*
X158658190Y-102334285D01*
X158658190Y-102334285D02*
X158705809Y-102381904D01*
X158705809Y-102381904D02*
X158753428Y-102477142D01*
X158753428Y-102477142D02*
X158753428Y-102858094D01*
X158658190Y-101715237D02*
X158610571Y-101810475D01*
X158610571Y-101810475D02*
X158562952Y-101858094D01*
X158562952Y-101858094D02*
X158467714Y-101905713D01*
X158467714Y-101905713D02*
X158420095Y-101905713D01*
X158420095Y-101905713D02*
X158324857Y-101858094D01*
X158324857Y-101858094D02*
X158277238Y-101810475D01*
X158277238Y-101810475D02*
X158229619Y-101715237D01*
X158229619Y-101715237D02*
X158229619Y-101524761D01*
X158229619Y-101524761D02*
X158277238Y-101429523D01*
X158277238Y-101429523D02*
X158324857Y-101381904D01*
X158324857Y-101381904D02*
X158420095Y-101334285D01*
X158420095Y-101334285D02*
X158467714Y-101334285D01*
X158467714Y-101334285D02*
X158562952Y-101381904D01*
X158562952Y-101381904D02*
X158610571Y-101429523D01*
X158610571Y-101429523D02*
X158658190Y-101524761D01*
X158658190Y-101524761D02*
X158658190Y-101715237D01*
X158658190Y-101715237D02*
X158705809Y-101810475D01*
X158705809Y-101810475D02*
X158753428Y-101858094D01*
X158753428Y-101858094D02*
X158848666Y-101905713D01*
X158848666Y-101905713D02*
X159039142Y-101905713D01*
X159039142Y-101905713D02*
X159134380Y-101858094D01*
X159134380Y-101858094D02*
X159182000Y-101810475D01*
X159182000Y-101810475D02*
X159229619Y-101715237D01*
X159229619Y-101715237D02*
X159229619Y-101524761D01*
X159229619Y-101524761D02*
X159182000Y-101429523D01*
X159182000Y-101429523D02*
X159134380Y-101381904D01*
X159134380Y-101381904D02*
X159039142Y-101334285D01*
X159039142Y-101334285D02*
X158848666Y-101334285D01*
X158848666Y-101334285D02*
X158753428Y-101381904D01*
X158753428Y-101381904D02*
X158705809Y-101429523D01*
X158705809Y-101429523D02*
X158658190Y-101524761D01*
X140329619Y-109945594D02*
X139329619Y-109945594D01*
X139329619Y-109945594D02*
X139329619Y-109707499D01*
X139329619Y-109707499D02*
X139377238Y-109564642D01*
X139377238Y-109564642D02*
X139472476Y-109469404D01*
X139472476Y-109469404D02*
X139567714Y-109421785D01*
X139567714Y-109421785D02*
X139758190Y-109374166D01*
X139758190Y-109374166D02*
X139901047Y-109374166D01*
X139901047Y-109374166D02*
X140091523Y-109421785D01*
X140091523Y-109421785D02*
X140186761Y-109469404D01*
X140186761Y-109469404D02*
X140282000Y-109564642D01*
X140282000Y-109564642D02*
X140329619Y-109707499D01*
X140329619Y-109707499D02*
X140329619Y-109945594D01*
X140329619Y-108421785D02*
X140329619Y-108993213D01*
X140329619Y-108707499D02*
X139329619Y-108707499D01*
X139329619Y-108707499D02*
X139472476Y-108802737D01*
X139472476Y-108802737D02*
X139567714Y-108897975D01*
X139567714Y-108897975D02*
X139615333Y-108993213D01*
X131813333Y-107174380D02*
X131765714Y-107222000D01*
X131765714Y-107222000D02*
X131622857Y-107269619D01*
X131622857Y-107269619D02*
X131527619Y-107269619D01*
X131527619Y-107269619D02*
X131384762Y-107222000D01*
X131384762Y-107222000D02*
X131289524Y-107126761D01*
X131289524Y-107126761D02*
X131241905Y-107031523D01*
X131241905Y-107031523D02*
X131194286Y-106841047D01*
X131194286Y-106841047D02*
X131194286Y-106698190D01*
X131194286Y-106698190D02*
X131241905Y-106507714D01*
X131241905Y-106507714D02*
X131289524Y-106412476D01*
X131289524Y-106412476D02*
X131384762Y-106317238D01*
X131384762Y-106317238D02*
X131527619Y-106269619D01*
X131527619Y-106269619D02*
X131622857Y-106269619D01*
X131622857Y-106269619D02*
X131765714Y-106317238D01*
X131765714Y-106317238D02*
X131813333Y-106364857D01*
X132289524Y-107269619D02*
X132480000Y-107269619D01*
X132480000Y-107269619D02*
X132575238Y-107222000D01*
X132575238Y-107222000D02*
X132622857Y-107174380D01*
X132622857Y-107174380D02*
X132718095Y-107031523D01*
X132718095Y-107031523D02*
X132765714Y-106841047D01*
X132765714Y-106841047D02*
X132765714Y-106460095D01*
X132765714Y-106460095D02*
X132718095Y-106364857D01*
X132718095Y-106364857D02*
X132670476Y-106317238D01*
X132670476Y-106317238D02*
X132575238Y-106269619D01*
X132575238Y-106269619D02*
X132384762Y-106269619D01*
X132384762Y-106269619D02*
X132289524Y-106317238D01*
X132289524Y-106317238D02*
X132241905Y-106364857D01*
X132241905Y-106364857D02*
X132194286Y-106460095D01*
X132194286Y-106460095D02*
X132194286Y-106698190D01*
X132194286Y-106698190D02*
X132241905Y-106793428D01*
X132241905Y-106793428D02*
X132289524Y-106841047D01*
X132289524Y-106841047D02*
X132384762Y-106888666D01*
X132384762Y-106888666D02*
X132575238Y-106888666D01*
X132575238Y-106888666D02*
X132670476Y-106841047D01*
X132670476Y-106841047D02*
X132718095Y-106793428D01*
X132718095Y-106793428D02*
X132765714Y-106698190D01*
X175066666Y-87934619D02*
X175066666Y-88648904D01*
X175066666Y-88648904D02*
X175019047Y-88791761D01*
X175019047Y-88791761D02*
X174923809Y-88887000D01*
X174923809Y-88887000D02*
X174780952Y-88934619D01*
X174780952Y-88934619D02*
X174685714Y-88934619D01*
X175495238Y-88029857D02*
X175542857Y-87982238D01*
X175542857Y-87982238D02*
X175638095Y-87934619D01*
X175638095Y-87934619D02*
X175876190Y-87934619D01*
X175876190Y-87934619D02*
X175971428Y-87982238D01*
X175971428Y-87982238D02*
X176019047Y-88029857D01*
X176019047Y-88029857D02*
X176066666Y-88125095D01*
X176066666Y-88125095D02*
X176066666Y-88220333D01*
X176066666Y-88220333D02*
X176019047Y-88363190D01*
X176019047Y-88363190D02*
X175447619Y-88934619D01*
X175447619Y-88934619D02*
X176066666Y-88934619D01*
X173013333Y-103069619D02*
X172680000Y-102593428D01*
X172441905Y-103069619D02*
X172441905Y-102069619D01*
X172441905Y-102069619D02*
X172822857Y-102069619D01*
X172822857Y-102069619D02*
X172918095Y-102117238D01*
X172918095Y-102117238D02*
X172965714Y-102164857D01*
X172965714Y-102164857D02*
X173013333Y-102260095D01*
X173013333Y-102260095D02*
X173013333Y-102402952D01*
X173013333Y-102402952D02*
X172965714Y-102498190D01*
X172965714Y-102498190D02*
X172918095Y-102545809D01*
X172918095Y-102545809D02*
X172822857Y-102593428D01*
X172822857Y-102593428D02*
X172441905Y-102593428D01*
X173870476Y-102402952D02*
X173870476Y-103069619D01*
X173632381Y-102022000D02*
X173394286Y-102736285D01*
X173394286Y-102736285D02*
X174013333Y-102736285D01*
X167717142Y-115674380D02*
X167669523Y-115722000D01*
X167669523Y-115722000D02*
X167526666Y-115769619D01*
X167526666Y-115769619D02*
X167431428Y-115769619D01*
X167431428Y-115769619D02*
X167288571Y-115722000D01*
X167288571Y-115722000D02*
X167193333Y-115626761D01*
X167193333Y-115626761D02*
X167145714Y-115531523D01*
X167145714Y-115531523D02*
X167098095Y-115341047D01*
X167098095Y-115341047D02*
X167098095Y-115198190D01*
X167098095Y-115198190D02*
X167145714Y-115007714D01*
X167145714Y-115007714D02*
X167193333Y-114912476D01*
X167193333Y-114912476D02*
X167288571Y-114817238D01*
X167288571Y-114817238D02*
X167431428Y-114769619D01*
X167431428Y-114769619D02*
X167526666Y-114769619D01*
X167526666Y-114769619D02*
X167669523Y-114817238D01*
X167669523Y-114817238D02*
X167717142Y-114864857D01*
X168669523Y-115769619D02*
X168098095Y-115769619D01*
X168383809Y-115769619D02*
X168383809Y-114769619D01*
X168383809Y-114769619D02*
X168288571Y-114912476D01*
X168288571Y-114912476D02*
X168193333Y-115007714D01*
X168193333Y-115007714D02*
X168098095Y-115055333D01*
X169002857Y-114769619D02*
X169669523Y-114769619D01*
X169669523Y-114769619D02*
X169240952Y-115769619D01*
X173313333Y-101069619D02*
X172980000Y-100593428D01*
X172741905Y-101069619D02*
X172741905Y-100069619D01*
X172741905Y-100069619D02*
X173122857Y-100069619D01*
X173122857Y-100069619D02*
X173218095Y-100117238D01*
X173218095Y-100117238D02*
X173265714Y-100164857D01*
X173265714Y-100164857D02*
X173313333Y-100260095D01*
X173313333Y-100260095D02*
X173313333Y-100402952D01*
X173313333Y-100402952D02*
X173265714Y-100498190D01*
X173265714Y-100498190D02*
X173218095Y-100545809D01*
X173218095Y-100545809D02*
X173122857Y-100593428D01*
X173122857Y-100593428D02*
X172741905Y-100593428D01*
X174218095Y-100069619D02*
X173741905Y-100069619D01*
X173741905Y-100069619D02*
X173694286Y-100545809D01*
X173694286Y-100545809D02*
X173741905Y-100498190D01*
X173741905Y-100498190D02*
X173837143Y-100450571D01*
X173837143Y-100450571D02*
X174075238Y-100450571D01*
X174075238Y-100450571D02*
X174170476Y-100498190D01*
X174170476Y-100498190D02*
X174218095Y-100545809D01*
X174218095Y-100545809D02*
X174265714Y-100641047D01*
X174265714Y-100641047D02*
X174265714Y-100879142D01*
X174265714Y-100879142D02*
X174218095Y-100974380D01*
X174218095Y-100974380D02*
X174170476Y-101022000D01*
X174170476Y-101022000D02*
X174075238Y-101069619D01*
X174075238Y-101069619D02*
X173837143Y-101069619D01*
X173837143Y-101069619D02*
X173741905Y-101022000D01*
X173741905Y-101022000D02*
X173694286Y-100974380D01*
X137513333Y-111874380D02*
X137465714Y-111922000D01*
X137465714Y-111922000D02*
X137322857Y-111969619D01*
X137322857Y-111969619D02*
X137227619Y-111969619D01*
X137227619Y-111969619D02*
X137084762Y-111922000D01*
X137084762Y-111922000D02*
X136989524Y-111826761D01*
X136989524Y-111826761D02*
X136941905Y-111731523D01*
X136941905Y-111731523D02*
X136894286Y-111541047D01*
X136894286Y-111541047D02*
X136894286Y-111398190D01*
X136894286Y-111398190D02*
X136941905Y-111207714D01*
X136941905Y-111207714D02*
X136989524Y-111112476D01*
X136989524Y-111112476D02*
X137084762Y-111017238D01*
X137084762Y-111017238D02*
X137227619Y-110969619D01*
X137227619Y-110969619D02*
X137322857Y-110969619D01*
X137322857Y-110969619D02*
X137465714Y-111017238D01*
X137465714Y-111017238D02*
X137513333Y-111064857D01*
X137894286Y-111064857D02*
X137941905Y-111017238D01*
X137941905Y-111017238D02*
X138037143Y-110969619D01*
X138037143Y-110969619D02*
X138275238Y-110969619D01*
X138275238Y-110969619D02*
X138370476Y-111017238D01*
X138370476Y-111017238D02*
X138418095Y-111064857D01*
X138418095Y-111064857D02*
X138465714Y-111160095D01*
X138465714Y-111160095D02*
X138465714Y-111255333D01*
X138465714Y-111255333D02*
X138418095Y-111398190D01*
X138418095Y-111398190D02*
X137846667Y-111969619D01*
X137846667Y-111969619D02*
X138465714Y-111969619D01*
X163637142Y-101774380D02*
X163589523Y-101822000D01*
X163589523Y-101822000D02*
X163446666Y-101869619D01*
X163446666Y-101869619D02*
X163351428Y-101869619D01*
X163351428Y-101869619D02*
X163208571Y-101822000D01*
X163208571Y-101822000D02*
X163113333Y-101726761D01*
X163113333Y-101726761D02*
X163065714Y-101631523D01*
X163065714Y-101631523D02*
X163018095Y-101441047D01*
X163018095Y-101441047D02*
X163018095Y-101298190D01*
X163018095Y-101298190D02*
X163065714Y-101107714D01*
X163065714Y-101107714D02*
X163113333Y-101012476D01*
X163113333Y-101012476D02*
X163208571Y-100917238D01*
X163208571Y-100917238D02*
X163351428Y-100869619D01*
X163351428Y-100869619D02*
X163446666Y-100869619D01*
X163446666Y-100869619D02*
X163589523Y-100917238D01*
X163589523Y-100917238D02*
X163637142Y-100964857D01*
X164589523Y-101869619D02*
X164018095Y-101869619D01*
X164303809Y-101869619D02*
X164303809Y-100869619D01*
X164303809Y-100869619D02*
X164208571Y-101012476D01*
X164208571Y-101012476D02*
X164113333Y-101107714D01*
X164113333Y-101107714D02*
X164018095Y-101155333D01*
X165494285Y-100869619D02*
X165018095Y-100869619D01*
X165018095Y-100869619D02*
X164970476Y-101345809D01*
X164970476Y-101345809D02*
X165018095Y-101298190D01*
X165018095Y-101298190D02*
X165113333Y-101250571D01*
X165113333Y-101250571D02*
X165351428Y-101250571D01*
X165351428Y-101250571D02*
X165446666Y-101298190D01*
X165446666Y-101298190D02*
X165494285Y-101345809D01*
X165494285Y-101345809D02*
X165541904Y-101441047D01*
X165541904Y-101441047D02*
X165541904Y-101679142D01*
X165541904Y-101679142D02*
X165494285Y-101774380D01*
X165494285Y-101774380D02*
X165446666Y-101822000D01*
X165446666Y-101822000D02*
X165351428Y-101869619D01*
X165351428Y-101869619D02*
X165113333Y-101869619D01*
X165113333Y-101869619D02*
X165018095Y-101822000D01*
X165018095Y-101822000D02*
X164970476Y-101774380D01*
X145729619Y-109970594D02*
X144729619Y-109970594D01*
X144729619Y-109970594D02*
X144729619Y-109732499D01*
X144729619Y-109732499D02*
X144777238Y-109589642D01*
X144777238Y-109589642D02*
X144872476Y-109494404D01*
X144872476Y-109494404D02*
X144967714Y-109446785D01*
X144967714Y-109446785D02*
X145158190Y-109399166D01*
X145158190Y-109399166D02*
X145301047Y-109399166D01*
X145301047Y-109399166D02*
X145491523Y-109446785D01*
X145491523Y-109446785D02*
X145586761Y-109494404D01*
X145586761Y-109494404D02*
X145682000Y-109589642D01*
X145682000Y-109589642D02*
X145729619Y-109732499D01*
X145729619Y-109732499D02*
X145729619Y-109970594D01*
X144824857Y-109018213D02*
X144777238Y-108970594D01*
X144777238Y-108970594D02*
X144729619Y-108875356D01*
X144729619Y-108875356D02*
X144729619Y-108637261D01*
X144729619Y-108637261D02*
X144777238Y-108542023D01*
X144777238Y-108542023D02*
X144824857Y-108494404D01*
X144824857Y-108494404D02*
X144920095Y-108446785D01*
X144920095Y-108446785D02*
X145015333Y-108446785D01*
X145015333Y-108446785D02*
X145158190Y-108494404D01*
X145158190Y-108494404D02*
X145729619Y-109065832D01*
X145729619Y-109065832D02*
X145729619Y-108446785D01*
X145429619Y-112086666D02*
X144953428Y-112419999D01*
X145429619Y-112658094D02*
X144429619Y-112658094D01*
X144429619Y-112658094D02*
X144429619Y-112277142D01*
X144429619Y-112277142D02*
X144477238Y-112181904D01*
X144477238Y-112181904D02*
X144524857Y-112134285D01*
X144524857Y-112134285D02*
X144620095Y-112086666D01*
X144620095Y-112086666D02*
X144762952Y-112086666D01*
X144762952Y-112086666D02*
X144858190Y-112134285D01*
X144858190Y-112134285D02*
X144905809Y-112181904D01*
X144905809Y-112181904D02*
X144953428Y-112277142D01*
X144953428Y-112277142D02*
X144953428Y-112658094D01*
X144524857Y-111705713D02*
X144477238Y-111658094D01*
X144477238Y-111658094D02*
X144429619Y-111562856D01*
X144429619Y-111562856D02*
X144429619Y-111324761D01*
X144429619Y-111324761D02*
X144477238Y-111229523D01*
X144477238Y-111229523D02*
X144524857Y-111181904D01*
X144524857Y-111181904D02*
X144620095Y-111134285D01*
X144620095Y-111134285D02*
X144715333Y-111134285D01*
X144715333Y-111134285D02*
X144858190Y-111181904D01*
X144858190Y-111181904D02*
X145429619Y-111753332D01*
X145429619Y-111753332D02*
X145429619Y-111134285D01*
X136834380Y-99286666D02*
X136882000Y-99334285D01*
X136882000Y-99334285D02*
X136929619Y-99477142D01*
X136929619Y-99477142D02*
X136929619Y-99572380D01*
X136929619Y-99572380D02*
X136882000Y-99715237D01*
X136882000Y-99715237D02*
X136786761Y-99810475D01*
X136786761Y-99810475D02*
X136691523Y-99858094D01*
X136691523Y-99858094D02*
X136501047Y-99905713D01*
X136501047Y-99905713D02*
X136358190Y-99905713D01*
X136358190Y-99905713D02*
X136167714Y-99858094D01*
X136167714Y-99858094D02*
X136072476Y-99810475D01*
X136072476Y-99810475D02*
X135977238Y-99715237D01*
X135977238Y-99715237D02*
X135929619Y-99572380D01*
X135929619Y-99572380D02*
X135929619Y-99477142D01*
X135929619Y-99477142D02*
X135977238Y-99334285D01*
X135977238Y-99334285D02*
X136024857Y-99286666D01*
X135929619Y-98429523D02*
X135929619Y-98619999D01*
X135929619Y-98619999D02*
X135977238Y-98715237D01*
X135977238Y-98715237D02*
X136024857Y-98762856D01*
X136024857Y-98762856D02*
X136167714Y-98858094D01*
X136167714Y-98858094D02*
X136358190Y-98905713D01*
X136358190Y-98905713D02*
X136739142Y-98905713D01*
X136739142Y-98905713D02*
X136834380Y-98858094D01*
X136834380Y-98858094D02*
X136882000Y-98810475D01*
X136882000Y-98810475D02*
X136929619Y-98715237D01*
X136929619Y-98715237D02*
X136929619Y-98524761D01*
X136929619Y-98524761D02*
X136882000Y-98429523D01*
X136882000Y-98429523D02*
X136834380Y-98381904D01*
X136834380Y-98381904D02*
X136739142Y-98334285D01*
X136739142Y-98334285D02*
X136501047Y-98334285D01*
X136501047Y-98334285D02*
X136405809Y-98381904D01*
X136405809Y-98381904D02*
X136358190Y-98429523D01*
X136358190Y-98429523D02*
X136310571Y-98524761D01*
X136310571Y-98524761D02*
X136310571Y-98715237D01*
X136310571Y-98715237D02*
X136358190Y-98810475D01*
X136358190Y-98810475D02*
X136405809Y-98858094D01*
X136405809Y-98858094D02*
X136501047Y-98905713D01*
X184029619Y-102653333D02*
X184743904Y-102653333D01*
X184743904Y-102653333D02*
X184886761Y-102700952D01*
X184886761Y-102700952D02*
X184982000Y-102796190D01*
X184982000Y-102796190D02*
X185029619Y-102939047D01*
X185029619Y-102939047D02*
X185029619Y-103034285D01*
X184029619Y-101700952D02*
X184029619Y-102177142D01*
X184029619Y-102177142D02*
X184505809Y-102224761D01*
X184505809Y-102224761D02*
X184458190Y-102177142D01*
X184458190Y-102177142D02*
X184410571Y-102081904D01*
X184410571Y-102081904D02*
X184410571Y-101843809D01*
X184410571Y-101843809D02*
X184458190Y-101748571D01*
X184458190Y-101748571D02*
X184505809Y-101700952D01*
X184505809Y-101700952D02*
X184601047Y-101653333D01*
X184601047Y-101653333D02*
X184839142Y-101653333D01*
X184839142Y-101653333D02*
X184934380Y-101700952D01*
X184934380Y-101700952D02*
X184982000Y-101748571D01*
X184982000Y-101748571D02*
X185029619Y-101843809D01*
X185029619Y-101843809D02*
X185029619Y-102081904D01*
X185029619Y-102081904D02*
X184982000Y-102177142D01*
X184982000Y-102177142D02*
X184934380Y-102224761D01*
X132754405Y-108869619D02*
X132754405Y-107869619D01*
X132754405Y-107869619D02*
X132992500Y-107869619D01*
X132992500Y-107869619D02*
X133135357Y-107917238D01*
X133135357Y-107917238D02*
X133230595Y-108012476D01*
X133230595Y-108012476D02*
X133278214Y-108107714D01*
X133278214Y-108107714D02*
X133325833Y-108298190D01*
X133325833Y-108298190D02*
X133325833Y-108441047D01*
X133325833Y-108441047D02*
X133278214Y-108631523D01*
X133278214Y-108631523D02*
X133230595Y-108726761D01*
X133230595Y-108726761D02*
X133135357Y-108822000D01*
X133135357Y-108822000D02*
X132992500Y-108869619D01*
X132992500Y-108869619D02*
X132754405Y-108869619D01*
X133659167Y-107869619D02*
X134278214Y-107869619D01*
X134278214Y-107869619D02*
X133944881Y-108250571D01*
X133944881Y-108250571D02*
X134087738Y-108250571D01*
X134087738Y-108250571D02*
X134182976Y-108298190D01*
X134182976Y-108298190D02*
X134230595Y-108345809D01*
X134230595Y-108345809D02*
X134278214Y-108441047D01*
X134278214Y-108441047D02*
X134278214Y-108679142D01*
X134278214Y-108679142D02*
X134230595Y-108774380D01*
X134230595Y-108774380D02*
X134182976Y-108822000D01*
X134182976Y-108822000D02*
X134087738Y-108869619D01*
X134087738Y-108869619D02*
X133802024Y-108869619D01*
X133802024Y-108869619D02*
X133706786Y-108822000D01*
X133706786Y-108822000D02*
X133659167Y-108774380D01*
X136834380Y-101586666D02*
X136882000Y-101634285D01*
X136882000Y-101634285D02*
X136929619Y-101777142D01*
X136929619Y-101777142D02*
X136929619Y-101872380D01*
X136929619Y-101872380D02*
X136882000Y-102015237D01*
X136882000Y-102015237D02*
X136786761Y-102110475D01*
X136786761Y-102110475D02*
X136691523Y-102158094D01*
X136691523Y-102158094D02*
X136501047Y-102205713D01*
X136501047Y-102205713D02*
X136358190Y-102205713D01*
X136358190Y-102205713D02*
X136167714Y-102158094D01*
X136167714Y-102158094D02*
X136072476Y-102110475D01*
X136072476Y-102110475D02*
X135977238Y-102015237D01*
X135977238Y-102015237D02*
X135929619Y-101872380D01*
X135929619Y-101872380D02*
X135929619Y-101777142D01*
X135929619Y-101777142D02*
X135977238Y-101634285D01*
X135977238Y-101634285D02*
X136024857Y-101586666D01*
X135929619Y-101253332D02*
X135929619Y-100586666D01*
X135929619Y-100586666D02*
X136929619Y-101015237D01*
X135746666Y-108483309D02*
X135413333Y-108483309D01*
X135413333Y-109007119D02*
X135413333Y-108007119D01*
X135413333Y-108007119D02*
X135889523Y-108007119D01*
X136603809Y-108483309D02*
X136746666Y-108530928D01*
X136746666Y-108530928D02*
X136794285Y-108578547D01*
X136794285Y-108578547D02*
X136841904Y-108673785D01*
X136841904Y-108673785D02*
X136841904Y-108816642D01*
X136841904Y-108816642D02*
X136794285Y-108911880D01*
X136794285Y-108911880D02*
X136746666Y-108959500D01*
X136746666Y-108959500D02*
X136651428Y-109007119D01*
X136651428Y-109007119D02*
X136270476Y-109007119D01*
X136270476Y-109007119D02*
X136270476Y-108007119D01*
X136270476Y-108007119D02*
X136603809Y-108007119D01*
X136603809Y-108007119D02*
X136699047Y-108054738D01*
X136699047Y-108054738D02*
X136746666Y-108102357D01*
X136746666Y-108102357D02*
X136794285Y-108197595D01*
X136794285Y-108197595D02*
X136794285Y-108292833D01*
X136794285Y-108292833D02*
X136746666Y-108388071D01*
X136746666Y-108388071D02*
X136699047Y-108435690D01*
X136699047Y-108435690D02*
X136603809Y-108483309D01*
X136603809Y-108483309D02*
X136270476Y-108483309D01*
X137794285Y-109007119D02*
X137222857Y-109007119D01*
X137508571Y-109007119D02*
X137508571Y-108007119D01*
X137508571Y-108007119D02*
X137413333Y-108149976D01*
X137413333Y-108149976D02*
X137318095Y-108245214D01*
X137318095Y-108245214D02*
X137222857Y-108292833D01*
X159729619Y-107662857D02*
X159253428Y-107996190D01*
X159729619Y-108234285D02*
X158729619Y-108234285D01*
X158729619Y-108234285D02*
X158729619Y-107853333D01*
X158729619Y-107853333D02*
X158777238Y-107758095D01*
X158777238Y-107758095D02*
X158824857Y-107710476D01*
X158824857Y-107710476D02*
X158920095Y-107662857D01*
X158920095Y-107662857D02*
X159062952Y-107662857D01*
X159062952Y-107662857D02*
X159158190Y-107710476D01*
X159158190Y-107710476D02*
X159205809Y-107758095D01*
X159205809Y-107758095D02*
X159253428Y-107853333D01*
X159253428Y-107853333D02*
X159253428Y-108234285D01*
X159729619Y-106710476D02*
X159729619Y-107281904D01*
X159729619Y-106996190D02*
X158729619Y-106996190D01*
X158729619Y-106996190D02*
X158872476Y-107091428D01*
X158872476Y-107091428D02*
X158967714Y-107186666D01*
X158967714Y-107186666D02*
X159015333Y-107281904D01*
X158729619Y-106091428D02*
X158729619Y-105996190D01*
X158729619Y-105996190D02*
X158777238Y-105900952D01*
X158777238Y-105900952D02*
X158824857Y-105853333D01*
X158824857Y-105853333D02*
X158920095Y-105805714D01*
X158920095Y-105805714D02*
X159110571Y-105758095D01*
X159110571Y-105758095D02*
X159348666Y-105758095D01*
X159348666Y-105758095D02*
X159539142Y-105805714D01*
X159539142Y-105805714D02*
X159634380Y-105853333D01*
X159634380Y-105853333D02*
X159682000Y-105900952D01*
X159682000Y-105900952D02*
X159729619Y-105996190D01*
X159729619Y-105996190D02*
X159729619Y-106091428D01*
X159729619Y-106091428D02*
X159682000Y-106186666D01*
X159682000Y-106186666D02*
X159634380Y-106234285D01*
X159634380Y-106234285D02*
X159539142Y-106281904D01*
X159539142Y-106281904D02*
X159348666Y-106329523D01*
X159348666Y-106329523D02*
X159110571Y-106329523D01*
X159110571Y-106329523D02*
X158920095Y-106281904D01*
X158920095Y-106281904D02*
X158824857Y-106234285D01*
X158824857Y-106234285D02*
X158777238Y-106186666D01*
X158777238Y-106186666D02*
X158729619Y-106091428D01*
X156513333Y-119069619D02*
X156037143Y-119069619D01*
X156037143Y-119069619D02*
X156037143Y-118069619D01*
X157370476Y-119069619D02*
X156799048Y-119069619D01*
X157084762Y-119069619D02*
X157084762Y-118069619D01*
X157084762Y-118069619D02*
X156989524Y-118212476D01*
X156989524Y-118212476D02*
X156894286Y-118307714D01*
X156894286Y-118307714D02*
X156799048Y-118355333D01*
X129503809Y-100993428D02*
X129503809Y-101469619D01*
X129170476Y-100469619D02*
X129503809Y-100993428D01*
X129503809Y-100993428D02*
X129837142Y-100469619D01*
X130694285Y-101469619D02*
X130122857Y-101469619D01*
X130408571Y-101469619D02*
X130408571Y-100469619D01*
X130408571Y-100469619D02*
X130313333Y-100612476D01*
X130313333Y-100612476D02*
X130218095Y-100707714D01*
X130218095Y-100707714D02*
X130122857Y-100755333D01*
X173734380Y-108762857D02*
X173782000Y-108810476D01*
X173782000Y-108810476D02*
X173829619Y-108953333D01*
X173829619Y-108953333D02*
X173829619Y-109048571D01*
X173829619Y-109048571D02*
X173782000Y-109191428D01*
X173782000Y-109191428D02*
X173686761Y-109286666D01*
X173686761Y-109286666D02*
X173591523Y-109334285D01*
X173591523Y-109334285D02*
X173401047Y-109381904D01*
X173401047Y-109381904D02*
X173258190Y-109381904D01*
X173258190Y-109381904D02*
X173067714Y-109334285D01*
X173067714Y-109334285D02*
X172972476Y-109286666D01*
X172972476Y-109286666D02*
X172877238Y-109191428D01*
X172877238Y-109191428D02*
X172829619Y-109048571D01*
X172829619Y-109048571D02*
X172829619Y-108953333D01*
X172829619Y-108953333D02*
X172877238Y-108810476D01*
X172877238Y-108810476D02*
X172924857Y-108762857D01*
X173829619Y-107810476D02*
X173829619Y-108381904D01*
X173829619Y-108096190D02*
X172829619Y-108096190D01*
X172829619Y-108096190D02*
X172972476Y-108191428D01*
X172972476Y-108191428D02*
X173067714Y-108286666D01*
X173067714Y-108286666D02*
X173115333Y-108381904D01*
X173829619Y-106858095D02*
X173829619Y-107429523D01*
X173829619Y-107143809D02*
X172829619Y-107143809D01*
X172829619Y-107143809D02*
X172972476Y-107239047D01*
X172972476Y-107239047D02*
X173067714Y-107334285D01*
X173067714Y-107334285D02*
X173115333Y-107429523D01*
X172637142Y-116874380D02*
X172589523Y-116922000D01*
X172589523Y-116922000D02*
X172446666Y-116969619D01*
X172446666Y-116969619D02*
X172351428Y-116969619D01*
X172351428Y-116969619D02*
X172208571Y-116922000D01*
X172208571Y-116922000D02*
X172113333Y-116826761D01*
X172113333Y-116826761D02*
X172065714Y-116731523D01*
X172065714Y-116731523D02*
X172018095Y-116541047D01*
X172018095Y-116541047D02*
X172018095Y-116398190D01*
X172018095Y-116398190D02*
X172065714Y-116207714D01*
X172065714Y-116207714D02*
X172113333Y-116112476D01*
X172113333Y-116112476D02*
X172208571Y-116017238D01*
X172208571Y-116017238D02*
X172351428Y-115969619D01*
X172351428Y-115969619D02*
X172446666Y-115969619D01*
X172446666Y-115969619D02*
X172589523Y-116017238D01*
X172589523Y-116017238D02*
X172637142Y-116064857D01*
X173589523Y-116969619D02*
X173018095Y-116969619D01*
X173303809Y-116969619D02*
X173303809Y-115969619D01*
X173303809Y-115969619D02*
X173208571Y-116112476D01*
X173208571Y-116112476D02*
X173113333Y-116207714D01*
X173113333Y-116207714D02*
X173018095Y-116255333D01*
X174160952Y-116398190D02*
X174065714Y-116350571D01*
X174065714Y-116350571D02*
X174018095Y-116302952D01*
X174018095Y-116302952D02*
X173970476Y-116207714D01*
X173970476Y-116207714D02*
X173970476Y-116160095D01*
X173970476Y-116160095D02*
X174018095Y-116064857D01*
X174018095Y-116064857D02*
X174065714Y-116017238D01*
X174065714Y-116017238D02*
X174160952Y-115969619D01*
X174160952Y-115969619D02*
X174351428Y-115969619D01*
X174351428Y-115969619D02*
X174446666Y-116017238D01*
X174446666Y-116017238D02*
X174494285Y-116064857D01*
X174494285Y-116064857D02*
X174541904Y-116160095D01*
X174541904Y-116160095D02*
X174541904Y-116207714D01*
X174541904Y-116207714D02*
X174494285Y-116302952D01*
X174494285Y-116302952D02*
X174446666Y-116350571D01*
X174446666Y-116350571D02*
X174351428Y-116398190D01*
X174351428Y-116398190D02*
X174160952Y-116398190D01*
X174160952Y-116398190D02*
X174065714Y-116445809D01*
X174065714Y-116445809D02*
X174018095Y-116493428D01*
X174018095Y-116493428D02*
X173970476Y-116588666D01*
X173970476Y-116588666D02*
X173970476Y-116779142D01*
X173970476Y-116779142D02*
X174018095Y-116874380D01*
X174018095Y-116874380D02*
X174065714Y-116922000D01*
X174065714Y-116922000D02*
X174160952Y-116969619D01*
X174160952Y-116969619D02*
X174351428Y-116969619D01*
X174351428Y-116969619D02*
X174446666Y-116922000D01*
X174446666Y-116922000D02*
X174494285Y-116874380D01*
X174494285Y-116874380D02*
X174541904Y-116779142D01*
X174541904Y-116779142D02*
X174541904Y-116588666D01*
X174541904Y-116588666D02*
X174494285Y-116493428D01*
X174494285Y-116493428D02*
X174446666Y-116445809D01*
X174446666Y-116445809D02*
X174351428Y-116398190D01*
X146937142Y-109274380D02*
X146889523Y-109322000D01*
X146889523Y-109322000D02*
X146746666Y-109369619D01*
X146746666Y-109369619D02*
X146651428Y-109369619D01*
X146651428Y-109369619D02*
X146508571Y-109322000D01*
X146508571Y-109322000D02*
X146413333Y-109226761D01*
X146413333Y-109226761D02*
X146365714Y-109131523D01*
X146365714Y-109131523D02*
X146318095Y-108941047D01*
X146318095Y-108941047D02*
X146318095Y-108798190D01*
X146318095Y-108798190D02*
X146365714Y-108607714D01*
X146365714Y-108607714D02*
X146413333Y-108512476D01*
X146413333Y-108512476D02*
X146508571Y-108417238D01*
X146508571Y-108417238D02*
X146651428Y-108369619D01*
X146651428Y-108369619D02*
X146746666Y-108369619D01*
X146746666Y-108369619D02*
X146889523Y-108417238D01*
X146889523Y-108417238D02*
X146937142Y-108464857D01*
X147889523Y-109369619D02*
X147318095Y-109369619D01*
X147603809Y-109369619D02*
X147603809Y-108369619D01*
X147603809Y-108369619D02*
X147508571Y-108512476D01*
X147508571Y-108512476D02*
X147413333Y-108607714D01*
X147413333Y-108607714D02*
X147318095Y-108655333D01*
X148365714Y-109369619D02*
X148556190Y-109369619D01*
X148556190Y-109369619D02*
X148651428Y-109322000D01*
X148651428Y-109322000D02*
X148699047Y-109274380D01*
X148699047Y-109274380D02*
X148794285Y-109131523D01*
X148794285Y-109131523D02*
X148841904Y-108941047D01*
X148841904Y-108941047D02*
X148841904Y-108560095D01*
X148841904Y-108560095D02*
X148794285Y-108464857D01*
X148794285Y-108464857D02*
X148746666Y-108417238D01*
X148746666Y-108417238D02*
X148651428Y-108369619D01*
X148651428Y-108369619D02*
X148460952Y-108369619D01*
X148460952Y-108369619D02*
X148365714Y-108417238D01*
X148365714Y-108417238D02*
X148318095Y-108464857D01*
X148318095Y-108464857D02*
X148270476Y-108560095D01*
X148270476Y-108560095D02*
X148270476Y-108798190D01*
X148270476Y-108798190D02*
X148318095Y-108893428D01*
X148318095Y-108893428D02*
X148365714Y-108941047D01*
X148365714Y-108941047D02*
X148460952Y-108988666D01*
X148460952Y-108988666D02*
X148651428Y-108988666D01*
X148651428Y-108988666D02*
X148746666Y-108941047D01*
X148746666Y-108941047D02*
X148794285Y-108893428D01*
X148794285Y-108893428D02*
X148841904Y-108798190D01*
X129813333Y-109369619D02*
X129480000Y-108893428D01*
X129241905Y-109369619D02*
X129241905Y-108369619D01*
X129241905Y-108369619D02*
X129622857Y-108369619D01*
X129622857Y-108369619D02*
X129718095Y-108417238D01*
X129718095Y-108417238D02*
X129765714Y-108464857D01*
X129765714Y-108464857D02*
X129813333Y-108560095D01*
X129813333Y-108560095D02*
X129813333Y-108702952D01*
X129813333Y-108702952D02*
X129765714Y-108798190D01*
X129765714Y-108798190D02*
X129718095Y-108845809D01*
X129718095Y-108845809D02*
X129622857Y-108893428D01*
X129622857Y-108893428D02*
X129241905Y-108893428D01*
X130146667Y-108369619D02*
X130765714Y-108369619D01*
X130765714Y-108369619D02*
X130432381Y-108750571D01*
X130432381Y-108750571D02*
X130575238Y-108750571D01*
X130575238Y-108750571D02*
X130670476Y-108798190D01*
X130670476Y-108798190D02*
X130718095Y-108845809D01*
X130718095Y-108845809D02*
X130765714Y-108941047D01*
X130765714Y-108941047D02*
X130765714Y-109179142D01*
X130765714Y-109179142D02*
X130718095Y-109274380D01*
X130718095Y-109274380D02*
X130670476Y-109322000D01*
X130670476Y-109322000D02*
X130575238Y-109369619D01*
X130575238Y-109369619D02*
X130289524Y-109369619D01*
X130289524Y-109369619D02*
X130194286Y-109322000D01*
X130194286Y-109322000D02*
X130146667Y-109274380D01*
X157629619Y-103886666D02*
X157153428Y-104219999D01*
X157629619Y-104458094D02*
X156629619Y-104458094D01*
X156629619Y-104458094D02*
X156629619Y-104077142D01*
X156629619Y-104077142D02*
X156677238Y-103981904D01*
X156677238Y-103981904D02*
X156724857Y-103934285D01*
X156724857Y-103934285D02*
X156820095Y-103886666D01*
X156820095Y-103886666D02*
X156962952Y-103886666D01*
X156962952Y-103886666D02*
X157058190Y-103934285D01*
X157058190Y-103934285D02*
X157105809Y-103981904D01*
X157105809Y-103981904D02*
X157153428Y-104077142D01*
X157153428Y-104077142D02*
X157153428Y-104458094D01*
X156629619Y-103029523D02*
X156629619Y-103219999D01*
X156629619Y-103219999D02*
X156677238Y-103315237D01*
X156677238Y-103315237D02*
X156724857Y-103362856D01*
X156724857Y-103362856D02*
X156867714Y-103458094D01*
X156867714Y-103458094D02*
X157058190Y-103505713D01*
X157058190Y-103505713D02*
X157439142Y-103505713D01*
X157439142Y-103505713D02*
X157534380Y-103458094D01*
X157534380Y-103458094D02*
X157582000Y-103410475D01*
X157582000Y-103410475D02*
X157629619Y-103315237D01*
X157629619Y-103315237D02*
X157629619Y-103124761D01*
X157629619Y-103124761D02*
X157582000Y-103029523D01*
X157582000Y-103029523D02*
X157534380Y-102981904D01*
X157534380Y-102981904D02*
X157439142Y-102934285D01*
X157439142Y-102934285D02*
X157201047Y-102934285D01*
X157201047Y-102934285D02*
X157105809Y-102981904D01*
X157105809Y-102981904D02*
X157058190Y-103029523D01*
X157058190Y-103029523D02*
X157010571Y-103124761D01*
X157010571Y-103124761D02*
X157010571Y-103315237D01*
X157010571Y-103315237D02*
X157058190Y-103410475D01*
X157058190Y-103410475D02*
X157105809Y-103458094D01*
X157105809Y-103458094D02*
X157201047Y-103505713D01*
X130682000Y-116853332D02*
X130729619Y-116710475D01*
X130729619Y-116710475D02*
X130729619Y-116472380D01*
X130729619Y-116472380D02*
X130682000Y-116377142D01*
X130682000Y-116377142D02*
X130634380Y-116329523D01*
X130634380Y-116329523D02*
X130539142Y-116281904D01*
X130539142Y-116281904D02*
X130443904Y-116281904D01*
X130443904Y-116281904D02*
X130348666Y-116329523D01*
X130348666Y-116329523D02*
X130301047Y-116377142D01*
X130301047Y-116377142D02*
X130253428Y-116472380D01*
X130253428Y-116472380D02*
X130205809Y-116662856D01*
X130205809Y-116662856D02*
X130158190Y-116758094D01*
X130158190Y-116758094D02*
X130110571Y-116805713D01*
X130110571Y-116805713D02*
X130015333Y-116853332D01*
X130015333Y-116853332D02*
X129920095Y-116853332D01*
X129920095Y-116853332D02*
X129824857Y-116805713D01*
X129824857Y-116805713D02*
X129777238Y-116758094D01*
X129777238Y-116758094D02*
X129729619Y-116662856D01*
X129729619Y-116662856D02*
X129729619Y-116424761D01*
X129729619Y-116424761D02*
X129777238Y-116281904D01*
X129729619Y-115948570D02*
X130729619Y-115710475D01*
X130729619Y-115710475D02*
X130015333Y-115519999D01*
X130015333Y-115519999D02*
X130729619Y-115329523D01*
X130729619Y-115329523D02*
X129729619Y-115091428D01*
X130729619Y-114186666D02*
X130729619Y-114758094D01*
X130729619Y-114472380D02*
X129729619Y-114472380D01*
X129729619Y-114472380D02*
X129872476Y-114567618D01*
X129872476Y-114567618D02*
X129967714Y-114662856D01*
X129967714Y-114662856D02*
X130015333Y-114758094D01*
X133749619Y-92758333D02*
X134463904Y-92758333D01*
X134463904Y-92758333D02*
X134606761Y-92805952D01*
X134606761Y-92805952D02*
X134702000Y-92901190D01*
X134702000Y-92901190D02*
X134749619Y-93044047D01*
X134749619Y-93044047D02*
X134749619Y-93139285D01*
X134749619Y-91758333D02*
X134749619Y-92329761D01*
X134749619Y-92044047D02*
X133749619Y-92044047D01*
X133749619Y-92044047D02*
X133892476Y-92139285D01*
X133892476Y-92139285D02*
X133987714Y-92234523D01*
X133987714Y-92234523D02*
X134035333Y-92329761D01*
D12*
%TO.C,J7*%
X142260000Y-80255000D02*
X165180000Y-80255000D01*
X142260000Y-80255000D02*
X142260000Y-77595000D01*
X165180000Y-80255000D02*
X165180000Y-77595000D01*
X139660000Y-78925000D02*
X139660000Y-77595000D01*
X139660000Y-77595000D02*
X140990000Y-77595000D01*
X142260000Y-77595000D02*
X165180000Y-77595000D01*
%TO.C,J6*%
X142250000Y-92670000D02*
X165170000Y-92670000D01*
X139650000Y-92670000D02*
X140980000Y-92670000D01*
X139650000Y-94000000D02*
X139650000Y-92670000D01*
X165170000Y-95330000D02*
X165170000Y-92670000D01*
X142250000Y-95330000D02*
X142250000Y-92670000D01*
X142250000Y-95330000D02*
X165170000Y-95330000D01*
%TO.C,C10*%
X174370000Y-104814420D02*
X174370000Y-105095580D01*
X175390000Y-104814420D02*
X175390000Y-105095580D01*
%TO.C,D4*%
X163370000Y-111070000D02*
X163370000Y-114370000D01*
X163370000Y-111070000D02*
X168880000Y-111070000D01*
X163370000Y-114370000D02*
X168880000Y-114370000D01*
%TO.C,J3*%
X141010000Y-118290000D02*
X141010000Y-120950000D01*
X146150000Y-118290000D02*
X141010000Y-118290000D01*
X146150000Y-118290000D02*
X146150000Y-120950000D01*
X146150000Y-120950000D02*
X141010000Y-120950000D01*
X147420000Y-118290000D02*
X148750000Y-118290000D01*
X148750000Y-118290000D02*
X148750000Y-119620000D01*
%TO.C,R9*%
X161726359Y-101040000D02*
X162033641Y-101040000D01*
X161726359Y-101800000D02*
X162033641Y-101800000D01*
%TO.C,J4*%
X176824000Y-106785000D02*
X186745000Y-106785000D01*
X176824000Y-117065000D02*
X176824000Y-106785000D01*
X176824000Y-117065000D02*
X186745000Y-117065000D01*
X179784000Y-117065000D02*
X179784000Y-106785000D01*
X180810000Y-108315000D02*
X180846000Y-108350000D01*
X181016000Y-108110000D02*
X181062000Y-108157000D01*
X183108000Y-110612000D02*
X183154000Y-110659000D01*
X183324000Y-110419000D02*
X183359000Y-110454000D01*
X184685000Y-117065000D02*
X184685000Y-106785000D01*
X186185000Y-117065000D02*
X186185000Y-106785000D01*
X186245000Y-117305000D02*
X186985000Y-117305000D01*
X186745000Y-117065000D02*
X186745000Y-106785000D01*
X186985000Y-117305000D02*
X186985000Y-116805000D01*
X180549574Y-115148042D02*
G75*
G02*
X180550001Y-113781001I1535419J683041D01*
G01*
X181401958Y-112929574D02*
G75*
G02*
X182769000Y-112930000I683042J-1535426D01*
G01*
X182768042Y-116000426D02*
G75*
G02*
X181401001Y-115999999I-683041J1535419D01*
G01*
X183619755Y-113781682D02*
G75*
G02*
X183764999Y-114465000I-1534755J-683318D01*
G01*
X183765252Y-114436195D02*
G75*
G02*
X183619999Y-115149000I-1680253J-28806D01*
G01*
X183765000Y-109385000D02*
G75*
G02*
X180405000Y-109385000I-1680000J0D01*
G01*
X180405000Y-109385000D02*
G75*
G02*
X183765000Y-109385000I1680000J0D01*
G01*
%TO.C,C16*%
X161960000Y-104342164D02*
X161960000Y-104557836D01*
X162680000Y-104342164D02*
X162680000Y-104557836D01*
%TO.C,C3*%
X134820000Y-99692164D02*
X134820000Y-99907836D01*
X135540000Y-99692164D02*
X135540000Y-99907836D01*
%TO.C,C12*%
X170860000Y-105892164D02*
X170860000Y-106107836D01*
X171580000Y-105892164D02*
X171580000Y-106107836D01*
%TO.C,C1*%
X137064420Y-95710000D02*
X137345580Y-95710000D01*
X137064420Y-96730000D02*
X137345580Y-96730000D01*
%TO.C,C8*%
X134087836Y-104835000D02*
X133872164Y-104835000D01*
X134087836Y-105555000D02*
X133872164Y-105555000D01*
D13*
%TO.C,U2*%
X168700000Y-102300000D02*
X164800000Y-102300000D01*
X168700000Y-107350000D02*
X164800000Y-107350000D01*
D14*
X170890000Y-107130000D02*
G75*
G02*
X170690000Y-107130000I-100000J0D01*
G01*
X170690000Y-107130000D02*
G75*
G02*
X170890000Y-107130000I100000J0D01*
G01*
D12*
%TO.C,R7*%
X160357500Y-104807742D02*
X160357500Y-105282258D01*
X161402500Y-104807742D02*
X161402500Y-105282258D01*
%TO.C,C4*%
X147620000Y-105892164D02*
X147620000Y-106107836D01*
X148340000Y-105892164D02*
X148340000Y-106107836D01*
%TO.C,C13*%
X168052164Y-101160000D02*
X168267836Y-101160000D01*
X168052164Y-101880000D02*
X168267836Y-101880000D01*
%TO.C,U1*%
X138570000Y-98685000D02*
X138570000Y-98985000D01*
X138570000Y-105905000D02*
X138570000Y-105605000D01*
X138870000Y-98685000D02*
X138570000Y-98685000D01*
X138870000Y-105905000D02*
X138570000Y-105905000D01*
X145490000Y-98685000D02*
X145790000Y-98685000D01*
X145490000Y-105905000D02*
X145790000Y-105905000D01*
X145790000Y-98685000D02*
X145790000Y-98985000D01*
X145790000Y-105905000D02*
X145790000Y-105605000D01*
X137967500Y-98985000D02*
X137627500Y-98515000D01*
X138307500Y-98515000D01*
X137967500Y-98985000D01*
G36*
X137967500Y-98985000D02*
G01*
X137627500Y-98515000D01*
X138307500Y-98515000D01*
X137967500Y-98985000D01*
G37*
%TO.C,C14*%
X164487836Y-108060000D02*
X164272164Y-108060000D01*
X164487836Y-108780000D02*
X164272164Y-108780000D01*
%TO.C,R1*%
X141200000Y-111776359D02*
X141200000Y-112083641D01*
X141960000Y-111776359D02*
X141960000Y-112083641D01*
%TO.C,C5*%
X134820000Y-102092164D02*
X134820000Y-102307836D01*
X135540000Y-102092164D02*
X135540000Y-102307836D01*
D13*
%TO.C,U3*%
X150645000Y-99205000D02*
X154545000Y-99205000D01*
X150645000Y-104245000D02*
X154545000Y-104245000D01*
D14*
X148595000Y-99525000D02*
G75*
G02*
X148395000Y-99525000I-100000J0D01*
G01*
X148395000Y-99525000D02*
G75*
G02*
X148595000Y-99525000I100000J0D01*
G01*
D12*
%TO.C,R8*%
X159700000Y-102273641D02*
X159700000Y-101966359D01*
X160460000Y-102273641D02*
X160460000Y-101966359D01*
%TO.C,D1*%
X140845000Y-108407500D02*
X140845000Y-110692500D01*
X140845000Y-110692500D02*
X142315000Y-110692500D01*
X142315000Y-110692500D02*
X142315000Y-108407500D01*
%TO.C,C9*%
X134107836Y-106435000D02*
X133892164Y-106435000D01*
X134107836Y-107155000D02*
X133892164Y-107155000D01*
%TO.C,J2*%
X167900000Y-87261000D02*
X167900000Y-77340000D01*
X169225000Y-83069000D02*
X169272000Y-83023000D01*
X169430000Y-83275000D02*
X169465000Y-83239000D01*
X171534000Y-80761000D02*
X171569000Y-80726000D01*
X171727000Y-80977000D02*
X171774000Y-80931000D01*
X178180000Y-77340000D02*
X167900000Y-77340000D01*
X178180000Y-77900000D02*
X167900000Y-77900000D01*
X178180000Y-79400000D02*
X167900000Y-79400000D01*
X178180000Y-84301000D02*
X167900000Y-84301000D01*
X178180000Y-87261000D02*
X167900000Y-87261000D01*
X178180000Y-87261000D02*
X178180000Y-77340000D01*
X178420000Y-77100000D02*
X177920000Y-77100000D01*
X178420000Y-77840000D02*
X178420000Y-77100000D01*
X174044574Y-82683042D02*
G75*
G02*
X174045000Y-81316000I1535426J683042D01*
G01*
X174896682Y-80465245D02*
G75*
G02*
X175580000Y-80320001I683318J-1534755D01*
G01*
X175551195Y-80319748D02*
G75*
G02*
X176264000Y-80465001I28806J-1680253D01*
G01*
X176263042Y-83535426D02*
G75*
G02*
X174896001Y-83534999I-683041J1535419D01*
G01*
X177115426Y-81316958D02*
G75*
G02*
X177114999Y-82683999I-1535419J-683041D01*
G01*
X172180000Y-82000000D02*
G75*
G02*
X168820000Y-82000000I-1680000J0D01*
G01*
X168820000Y-82000000D02*
G75*
G02*
X172180000Y-82000000I1680000J0D01*
G01*
%TO.C,R4*%
X170957500Y-103582258D02*
X170957500Y-103107742D01*
X172002500Y-103582258D02*
X172002500Y-103107742D01*
%TO.C,C17*%
X170752164Y-114960000D02*
X170967836Y-114960000D01*
X170752164Y-115680000D02*
X170967836Y-115680000D01*
%TO.C,R5*%
X171217258Y-100397500D02*
X170742742Y-100397500D01*
X171217258Y-101442500D02*
X170742742Y-101442500D01*
%TO.C,C2*%
X136472164Y-109960000D02*
X136687836Y-109960000D01*
X136472164Y-110680000D02*
X136687836Y-110680000D01*
%TO.C,C15*%
X161987836Y-102460000D02*
X161772164Y-102460000D01*
X161987836Y-103180000D02*
X161772164Y-103180000D01*
%TO.C,D2*%
X142845000Y-108432500D02*
X142845000Y-110717500D01*
X142845000Y-110717500D02*
X144315000Y-110717500D01*
X144315000Y-110717500D02*
X144315000Y-108432500D01*
%TO.C,R2*%
X143200000Y-111776359D02*
X143200000Y-112083641D01*
X143960000Y-111776359D02*
X143960000Y-112083641D01*
%TO.C,C6*%
X137372164Y-97460000D02*
X137587836Y-97460000D01*
X137372164Y-98180000D02*
X137587836Y-98180000D01*
%TO.C,J5*%
X183250000Y-90770000D02*
X184580000Y-90770000D01*
X183250000Y-92100000D02*
X183250000Y-90770000D01*
X183250000Y-93370000D02*
X183250000Y-101050000D01*
X183250000Y-93370000D02*
X185910000Y-93370000D01*
X183250000Y-101050000D02*
X185910000Y-101050000D01*
X185910000Y-93370000D02*
X185910000Y-101050000D01*
%TO.C,D3*%
X131807500Y-109260000D02*
X131807500Y-111180000D01*
X131807500Y-111180000D02*
X134492500Y-111180000D01*
X134492500Y-109260000D02*
X131807500Y-109260000D01*
%TO.C,C7*%
X135920000Y-103307836D02*
X135920000Y-103092164D01*
X136640000Y-103307836D02*
X136640000Y-103092164D01*
%TO.C,FB1*%
X135420000Y-106519622D02*
X135420000Y-105720378D01*
X136540000Y-106519622D02*
X136540000Y-105720378D01*
%TO.C,R10*%
X159100000Y-104376359D02*
X159100000Y-104683641D01*
X159860000Y-104376359D02*
X159860000Y-104683641D01*
%TO.C,L1*%
X152420000Y-109060000D02*
X152420000Y-109310000D01*
X152420000Y-117580000D02*
X152420000Y-117330000D01*
X160940000Y-109060000D02*
X152420000Y-109060000D01*
X160940000Y-109060000D02*
X160940000Y-109310000D01*
X160940000Y-117580000D02*
X152420000Y-117580000D01*
X160940000Y-117580000D02*
X160940000Y-117330000D01*
D15*
%TO.C,G\u002A\u002A\u002A*%
G36*
X164224154Y-120302513D02*
G01*
X164224154Y-120349434D01*
X164173323Y-120349434D01*
X164122491Y-120349434D01*
X164122491Y-120302513D01*
X164122491Y-120255592D01*
X164173323Y-120255592D01*
X164224154Y-120255592D01*
X164224154Y-120302513D01*
G37*
G36*
X163653280Y-119868492D02*
G01*
X163653280Y-119903683D01*
X163571168Y-119903683D01*
X163489055Y-119903683D01*
X163489055Y-120126558D01*
X163489055Y-120349434D01*
X163442134Y-120349434D01*
X163395213Y-120349434D01*
X163395213Y-120126558D01*
X163395213Y-119903683D01*
X163317011Y-119903683D01*
X163238809Y-119903683D01*
X163238809Y-119868492D01*
X163238809Y-119833301D01*
X163446044Y-119833301D01*
X163653280Y-119833301D01*
X163653280Y-119868492D01*
G37*
G36*
X164427479Y-119934963D02*
G01*
X164427479Y-120036626D01*
X164536962Y-120036626D01*
X164646445Y-120036626D01*
X164646445Y-119934963D01*
X164646445Y-119833301D01*
X164697276Y-119833301D01*
X164748107Y-119833301D01*
X164748107Y-120091367D01*
X164748107Y-120349434D01*
X164697276Y-120349434D01*
X164646445Y-120349434D01*
X164646445Y-120236041D01*
X164646445Y-120122648D01*
X164536962Y-120122648D01*
X164427479Y-120122648D01*
X164427479Y-120236041D01*
X164427479Y-120349434D01*
X164380558Y-120349434D01*
X164333637Y-120349434D01*
X164333637Y-120091367D01*
X164333637Y-119833301D01*
X164380558Y-119833301D01*
X164427479Y-119833301D01*
X164427479Y-119934963D01*
G37*
G36*
X164576063Y-116042032D02*
G01*
X164576063Y-117124545D01*
X163725616Y-117616326D01*
X163617665Y-117678753D01*
X163512340Y-117739669D01*
X163410560Y-117798539D01*
X163313245Y-117854835D01*
X163221313Y-117908022D01*
X163135682Y-117957570D01*
X163057272Y-118002947D01*
X162987002Y-118043622D01*
X162925789Y-118079062D01*
X162874554Y-118108736D01*
X162834214Y-118132112D01*
X162805688Y-118148659D01*
X162791103Y-118157139D01*
X162707036Y-118206172D01*
X162707036Y-117124310D01*
X162707036Y-116042449D01*
X163623954Y-115512305D01*
X163734573Y-115448339D01*
X163841632Y-115386416D01*
X163944331Y-115326998D01*
X164041873Y-115270548D01*
X164133457Y-115217529D01*
X164218285Y-115168405D01*
X164295557Y-115123637D01*
X164364475Y-115083690D01*
X164424240Y-115049026D01*
X164474052Y-115020108D01*
X164513113Y-114997400D01*
X164540623Y-114981363D01*
X164555784Y-114972461D01*
X164558467Y-114970841D01*
X164576063Y-114959519D01*
X164576063Y-116042032D01*
G37*
G36*
X163924989Y-119833597D02*
G01*
X163968963Y-119834775D01*
X164002195Y-119837273D01*
X164027130Y-119841528D01*
X164046214Y-119847977D01*
X164061892Y-119857056D01*
X164076610Y-119869204D01*
X164078488Y-119870944D01*
X164103051Y-119901126D01*
X164117273Y-119937585D01*
X164122422Y-119983776D01*
X164122491Y-119990895D01*
X164117191Y-120042271D01*
X164100855Y-120083252D01*
X164072828Y-120115141D01*
X164053314Y-120128624D01*
X164036502Y-120137790D01*
X164020488Y-120144051D01*
X164001548Y-120148085D01*
X163975960Y-120150574D01*
X163940002Y-120152197D01*
X163921121Y-120152778D01*
X163825324Y-120155537D01*
X163825324Y-120256396D01*
X163825324Y-120357254D01*
X163774493Y-120357254D01*
X163723661Y-120357254D01*
X163723661Y-120095278D01*
X163723661Y-119919323D01*
X163825324Y-119919323D01*
X163825324Y-119994370D01*
X163825324Y-120069417D01*
X163900302Y-120066707D01*
X163935434Y-120065160D01*
X163958642Y-120062928D01*
X163973642Y-120059037D01*
X163984147Y-120052509D01*
X163993873Y-120042370D01*
X163994144Y-120042055D01*
X164010647Y-120012518D01*
X164012158Y-119981636D01*
X163998786Y-119952138D01*
X163990150Y-119942182D01*
X163978421Y-119931323D01*
X163967045Y-119924591D01*
X163951982Y-119921003D01*
X163929196Y-119919575D01*
X163896307Y-119919323D01*
X163825324Y-119919323D01*
X163723661Y-119919323D01*
X163723661Y-119833301D01*
X163867826Y-119833301D01*
X163924989Y-119833597D01*
G37*
G36*
X164594057Y-114972968D02*
G01*
X164613695Y-114984090D01*
X164644971Y-115001958D01*
X164686936Y-115026024D01*
X164738644Y-115055740D01*
X164799146Y-115090557D01*
X164867494Y-115129929D01*
X164942741Y-115173306D01*
X165023939Y-115220142D01*
X165110140Y-115269889D01*
X165200397Y-115321997D01*
X165293762Y-115375921D01*
X165389287Y-115431111D01*
X165486024Y-115487021D01*
X165583026Y-115543101D01*
X165679346Y-115598805D01*
X165774034Y-115653583D01*
X165866144Y-115706890D01*
X165954728Y-115758176D01*
X166038839Y-115806893D01*
X166117527Y-115852495D01*
X166189846Y-115894433D01*
X166254849Y-115932158D01*
X166311586Y-115965124D01*
X166359111Y-115992783D01*
X166396476Y-116014585D01*
X166422733Y-116029985D01*
X166436935Y-116038433D01*
X166439253Y-116039908D01*
X166439942Y-116048226D01*
X166440580Y-116071285D01*
X166441164Y-116108189D01*
X166441690Y-116158037D01*
X166442155Y-116219933D01*
X166442556Y-116292977D01*
X166442889Y-116376271D01*
X166443153Y-116468916D01*
X166443342Y-116570016D01*
X166443454Y-116678670D01*
X166443485Y-116793980D01*
X166443433Y-116915049D01*
X166443295Y-117040978D01*
X166443163Y-117121513D01*
X166441180Y-118197773D01*
X165512531Y-117660690D01*
X164583883Y-117123607D01*
X164583883Y-116046373D01*
X164583905Y-115917918D01*
X164583970Y-115793831D01*
X164584075Y-115675004D01*
X164584218Y-115562329D01*
X164584395Y-115456698D01*
X164584605Y-115359002D01*
X164584845Y-115270135D01*
X164585112Y-115190987D01*
X164585404Y-115122452D01*
X164585717Y-115065420D01*
X164586051Y-115020785D01*
X164586401Y-114989438D01*
X164586765Y-114972271D01*
X164587003Y-114969138D01*
X164594057Y-114972968D01*
G37*
G36*
X165913317Y-120095278D02*
G01*
X165913317Y-120357254D01*
X165862613Y-120357254D01*
X165811909Y-120357254D01*
X165809827Y-120149625D01*
X165807744Y-119941997D01*
X165761346Y-120124210D01*
X165747953Y-120176761D01*
X165735498Y-120225546D01*
X165724614Y-120268093D01*
X165715933Y-120301929D01*
X165710090Y-120324582D01*
X165708192Y-120331838D01*
X165703583Y-120346194D01*
X165696659Y-120353770D01*
X165683049Y-120356730D01*
X165658381Y-120357233D01*
X165656837Y-120357233D01*
X165612239Y-120357211D01*
X165562155Y-120159773D01*
X165548402Y-120106054D01*
X165535599Y-120056990D01*
X165524329Y-120014734D01*
X165515172Y-119981438D01*
X165508709Y-119959253D01*
X165505696Y-119950604D01*
X165504011Y-119954910D01*
X165502475Y-119972982D01*
X165501152Y-120002942D01*
X165500105Y-120042915D01*
X165499396Y-120091027D01*
X165499087Y-120145401D01*
X165499084Y-120148064D01*
X165498846Y-120357254D01*
X165451925Y-120357254D01*
X165405004Y-120357254D01*
X165405004Y-120095278D01*
X165405004Y-119833301D01*
X165477341Y-119833320D01*
X165549677Y-119833338D01*
X165595986Y-120007319D01*
X165609419Y-120057242D01*
X165621766Y-120102095D01*
X165632394Y-120139668D01*
X165640673Y-120167748D01*
X165645972Y-120184126D01*
X165647387Y-120187344D01*
X165650895Y-120182136D01*
X165657586Y-120164011D01*
X165666749Y-120135202D01*
X165677674Y-120097940D01*
X165689653Y-120054456D01*
X165689668Y-120054401D01*
X165702452Y-120006761D01*
X165714715Y-119961321D01*
X165725538Y-119921465D01*
X165734004Y-119890575D01*
X165738529Y-119874357D01*
X165750202Y-119833301D01*
X165831759Y-119833301D01*
X165913317Y-119833301D01*
X165913317Y-120095278D01*
G37*
G36*
X164968938Y-118484196D02*
G01*
X164970983Y-118792972D01*
X165244454Y-118484196D01*
X165517925Y-118175419D01*
X165701641Y-118175419D01*
X165885358Y-118175419D01*
X165849783Y-118212565D01*
X165821711Y-118242067D01*
X165787735Y-118278083D01*
X165749124Y-118319240D01*
X165707148Y-118364165D01*
X165663076Y-118411487D01*
X165618178Y-118459832D01*
X165573723Y-118507828D01*
X165530980Y-118554103D01*
X165491219Y-118597284D01*
X165455709Y-118635999D01*
X165425719Y-118668874D01*
X165402520Y-118694539D01*
X165387379Y-118711620D01*
X165381568Y-118718745D01*
X165381543Y-118718833D01*
X165385587Y-118726183D01*
X165397251Y-118745638D01*
X165415830Y-118776061D01*
X165440621Y-118816316D01*
X165470918Y-118865264D01*
X165506020Y-118921770D01*
X165545220Y-118984696D01*
X165587817Y-119052905D01*
X165633104Y-119125262D01*
X165642227Y-119139819D01*
X165688118Y-119213039D01*
X165731612Y-119282458D01*
X165771987Y-119346920D01*
X165808519Y-119405270D01*
X165840487Y-119456354D01*
X165867167Y-119499016D01*
X165887837Y-119532101D01*
X165901774Y-119554456D01*
X165908255Y-119564924D01*
X165908575Y-119565459D01*
X165907357Y-119568732D01*
X165898425Y-119571231D01*
X165880271Y-119573043D01*
X165851392Y-119574255D01*
X165810280Y-119574953D01*
X165755429Y-119575223D01*
X165738661Y-119575234D01*
X165563082Y-119575234D01*
X165376908Y-119245502D01*
X165190734Y-118915770D01*
X165079177Y-119032402D01*
X164967619Y-119149034D01*
X164967346Y-119362134D01*
X164967073Y-119575234D01*
X164830219Y-119575234D01*
X164693366Y-119575234D01*
X164693366Y-118875327D01*
X164693366Y-118175419D01*
X164830129Y-118175419D01*
X164966893Y-118175419D01*
X164968938Y-118484196D01*
G37*
G36*
X167389406Y-118749107D02*
G01*
X168321992Y-119288430D01*
X168320009Y-120370745D01*
X168318027Y-121453061D01*
X167399154Y-121984856D01*
X167288545Y-122048869D01*
X167181563Y-122110779D01*
X167078998Y-122170128D01*
X166981644Y-122226459D01*
X166890291Y-122279313D01*
X166805730Y-122328233D01*
X166728755Y-122372761D01*
X166660156Y-122412439D01*
X166600724Y-122446808D01*
X166551253Y-122475411D01*
X166512533Y-122497790D01*
X166485356Y-122513487D01*
X166470514Y-122522044D01*
X166467936Y-122523518D01*
X166462427Y-122522440D01*
X166449487Y-122516867D01*
X166428656Y-122506536D01*
X166399472Y-122491189D01*
X166361473Y-122470565D01*
X166314198Y-122444404D01*
X166257186Y-122412446D01*
X166189974Y-122374431D01*
X166112101Y-122330098D01*
X166023105Y-122279187D01*
X165922525Y-122221439D01*
X165809899Y-122156593D01*
X165684766Y-122084388D01*
X165546664Y-122004566D01*
X165527558Y-121993514D01*
X165416607Y-121929292D01*
X165309441Y-121867189D01*
X165206834Y-121807658D01*
X165109561Y-121751150D01*
X165018397Y-121698119D01*
X164934116Y-121649017D01*
X164857492Y-121604295D01*
X164789301Y-121564407D01*
X164730317Y-121529805D01*
X164681314Y-121500941D01*
X164643067Y-121478267D01*
X164616352Y-121462236D01*
X164601941Y-121453300D01*
X164599523Y-121451532D01*
X164606170Y-121447083D01*
X164625593Y-121435278D01*
X164657017Y-121416571D01*
X164699665Y-121391412D01*
X164752761Y-121360254D01*
X164815530Y-121323550D01*
X164887197Y-121281752D01*
X164966983Y-121235312D01*
X165054115Y-121184682D01*
X165147816Y-121130315D01*
X165247310Y-121072662D01*
X165351822Y-121012176D01*
X165460575Y-120949310D01*
X165525847Y-120911613D01*
X166452170Y-120376805D01*
X166454495Y-119293295D01*
X166456820Y-118209784D01*
X167389406Y-118749107D01*
G37*
G36*
X165141447Y-119827946D02*
G01*
X165181528Y-119836179D01*
X165215018Y-119851437D01*
X165241109Y-119870588D01*
X165261485Y-119891406D01*
X165280646Y-119916579D01*
X165295508Y-119941431D01*
X165302986Y-119961283D01*
X165303341Y-119964970D01*
X165296387Y-119970457D01*
X165278268Y-119977615D01*
X165256166Y-119984023D01*
X165208991Y-119995907D01*
X165194349Y-119967390D01*
X165171867Y-119937223D01*
X165140764Y-119918930D01*
X165099521Y-119911695D01*
X165090191Y-119911503D01*
X165045901Y-119917822D01*
X165010530Y-119936940D01*
X164983674Y-119969099D01*
X164978803Y-119978078D01*
X164971461Y-119995669D01*
X164966764Y-120015811D01*
X164964191Y-120042409D01*
X164963220Y-120079366D01*
X164963163Y-120095278D01*
X164963531Y-120134733D01*
X164965047Y-120162512D01*
X164968332Y-120182570D01*
X164974002Y-120198863D01*
X164981680Y-120213614D01*
X165008279Y-120246735D01*
X165041728Y-120268466D01*
X165078907Y-120278235D01*
X165116698Y-120275471D01*
X165151981Y-120259604D01*
X165166783Y-120247486D01*
X165185300Y-120225648D01*
X165199408Y-120202236D01*
X165202238Y-120195246D01*
X165211051Y-120176868D01*
X165221641Y-120172206D01*
X165223891Y-120172678D01*
X165261723Y-120183686D01*
X165286360Y-120192439D01*
X165299582Y-120201185D01*
X165303172Y-120212172D01*
X165298910Y-120227650D01*
X165288580Y-120249867D01*
X165287244Y-120252625D01*
X165258077Y-120295838D01*
X165218465Y-120329234D01*
X165170751Y-120352004D01*
X165117276Y-120363339D01*
X165060384Y-120362428D01*
X165006174Y-120349784D01*
X164962651Y-120327370D01*
X164922994Y-120293051D01*
X164890709Y-120250556D01*
X164869591Y-120204531D01*
X164859426Y-120156653D01*
X164855454Y-120101728D01*
X164857704Y-120046441D01*
X164866207Y-119997475D01*
X164868617Y-119989165D01*
X164893767Y-119932291D01*
X164929340Y-119886800D01*
X164974407Y-119853378D01*
X165028038Y-119832711D01*
X165089303Y-119825483D01*
X165090583Y-119825481D01*
X165141447Y-119827946D01*
G37*
G36*
X163604403Y-118175692D02*
G01*
X163700198Y-118175871D01*
X163781824Y-118176334D01*
X163850752Y-118177202D01*
X163908453Y-118178598D01*
X163956396Y-118180643D01*
X163996054Y-118183458D01*
X164028896Y-118187165D01*
X164056394Y-118191886D01*
X164080018Y-118197742D01*
X164101238Y-118204854D01*
X164121526Y-118213344D01*
X164134600Y-118219508D01*
X164189293Y-118254256D01*
X164238304Y-118301454D01*
X164278840Y-118358179D01*
X164293397Y-118385667D01*
X164306509Y-118414166D01*
X164314770Y-118436481D01*
X164319260Y-118457955D01*
X164321056Y-118483926D01*
X164321237Y-118519735D01*
X164321212Y-118523418D01*
X164319931Y-118567050D01*
X164316309Y-118600254D01*
X164309605Y-118628160D01*
X164303744Y-118644631D01*
X164271115Y-118706669D01*
X164225085Y-118762418D01*
X164167236Y-118810064D01*
X164149037Y-118821766D01*
X164138750Y-118829053D01*
X164142272Y-118833441D01*
X164149862Y-118836294D01*
X164219800Y-118868314D01*
X164279174Y-118910791D01*
X164327054Y-118962764D01*
X164362508Y-119023275D01*
X164380459Y-119073960D01*
X164386361Y-119108822D01*
X164389036Y-119152802D01*
X164388477Y-119199713D01*
X164384677Y-119243367D01*
X164380688Y-119266090D01*
X164359786Y-119329139D01*
X164327279Y-119389853D01*
X164285704Y-119444790D01*
X164237596Y-119490507D01*
X164194429Y-119519033D01*
X164174491Y-119529433D01*
X164155836Y-119538280D01*
X164137034Y-119545715D01*
X164116657Y-119551877D01*
X164093274Y-119556908D01*
X164065456Y-119560946D01*
X164031773Y-119564133D01*
X163990796Y-119566607D01*
X163941095Y-119568511D01*
X163881241Y-119569983D01*
X163809805Y-119571163D01*
X163725356Y-119572193D01*
X163643504Y-119573041D01*
X163238809Y-119577089D01*
X163238809Y-118973079D01*
X163520336Y-118973079D01*
X163520336Y-119161468D01*
X163520336Y-119349856D01*
X163749077Y-119346940D01*
X163816714Y-119345973D01*
X163870592Y-119344909D01*
X163912590Y-119343625D01*
X163944590Y-119342001D01*
X163968472Y-119339916D01*
X163986116Y-119337248D01*
X163999404Y-119333876D01*
X164009099Y-119330181D01*
X164054378Y-119302565D01*
X164087252Y-119265526D01*
X164107398Y-119219573D01*
X164114493Y-119165214D01*
X164114499Y-119164121D01*
X164107793Y-119109736D01*
X164087870Y-119063123D01*
X164055657Y-119025374D01*
X164012078Y-118997578D01*
X163959155Y-118981031D01*
X163939619Y-118978822D01*
X163907152Y-118976849D01*
X163864466Y-118975201D01*
X163814269Y-118973969D01*
X163759271Y-118973241D01*
X163718684Y-118973079D01*
X163520336Y-118973079D01*
X163238809Y-118973079D01*
X163238809Y-118876254D01*
X163238809Y-118408701D01*
X163520336Y-118408701D01*
X163520336Y-118569677D01*
X163520336Y-118730653D01*
X163706066Y-118730462D01*
X163760641Y-118730072D01*
X163811956Y-118729082D01*
X163857285Y-118727594D01*
X163893902Y-118725708D01*
X163919083Y-118723528D01*
X163926986Y-118722258D01*
X163975719Y-118704492D01*
X164013096Y-118676451D01*
X164038388Y-118639016D01*
X164050866Y-118593068D01*
X164052110Y-118571160D01*
X164048866Y-118528156D01*
X164037977Y-118494584D01*
X164017702Y-118465393D01*
X164014466Y-118461848D01*
X164001290Y-118448535D01*
X163988129Y-118437956D01*
X163973038Y-118429766D01*
X163954071Y-118423622D01*
X163929282Y-118419181D01*
X163896726Y-118416099D01*
X163854456Y-118414031D01*
X163800526Y-118412635D01*
X163732992Y-118411567D01*
X163729526Y-118411520D01*
X163520336Y-118408701D01*
X163238809Y-118408701D01*
X163238809Y-118175419D01*
X163604403Y-118175692D01*
G37*
G36*
X162702525Y-118222192D02*
G01*
X162703079Y-118244611D01*
X162703583Y-118280887D01*
X162704033Y-118330127D01*
X162704426Y-118391439D01*
X162704762Y-118463931D01*
X162705036Y-118546711D01*
X162705246Y-118638886D01*
X162705389Y-118739565D01*
X162705463Y-118847856D01*
X162705466Y-118962866D01*
X162705394Y-119083704D01*
X162705245Y-119209477D01*
X162705108Y-119291664D01*
X162703126Y-120368808D01*
X162533290Y-120467047D01*
X162486491Y-120494240D01*
X162444140Y-120519084D01*
X162408140Y-120540443D01*
X162380394Y-120557182D01*
X162362803Y-120568166D01*
X162357335Y-120572030D01*
X162357714Y-120573215D01*
X162365407Y-120569887D01*
X162381371Y-120561514D01*
X162406559Y-120547563D01*
X162441927Y-120527502D01*
X162488428Y-120500798D01*
X162547017Y-120466920D01*
X162577513Y-120449231D01*
X162618926Y-120425717D01*
X162656193Y-120405548D01*
X162687062Y-120389862D01*
X162709277Y-120379802D01*
X162720585Y-120376506D01*
X162721081Y-120376611D01*
X162729875Y-120381281D01*
X162751111Y-120393195D01*
X162783843Y-120411803D01*
X162827126Y-120436558D01*
X162880016Y-120466913D01*
X162941568Y-120502320D01*
X163010836Y-120542230D01*
X163086875Y-120586097D01*
X163168741Y-120633372D01*
X163255489Y-120683508D01*
X163346173Y-120735956D01*
X163439848Y-120790170D01*
X163535570Y-120845601D01*
X163632394Y-120901701D01*
X163729375Y-120957924D01*
X163825566Y-121013720D01*
X163920025Y-121068543D01*
X164011805Y-121121844D01*
X164099962Y-121173076D01*
X164183550Y-121221690D01*
X164261625Y-121267141D01*
X164333241Y-121308878D01*
X164397455Y-121346355D01*
X164453320Y-121379025D01*
X164499891Y-121406338D01*
X164536224Y-121427748D01*
X164561374Y-121442706D01*
X164574395Y-121450666D01*
X164576063Y-121451849D01*
X164569448Y-121456077D01*
X164550233Y-121467580D01*
X164519359Y-121485812D01*
X164477771Y-121510226D01*
X164426412Y-121540275D01*
X164366224Y-121575413D01*
X164298151Y-121615094D01*
X164223136Y-121658770D01*
X164142121Y-121705895D01*
X164056051Y-121755922D01*
X163965867Y-121808305D01*
X163872514Y-121862497D01*
X163776934Y-121917951D01*
X163680070Y-121974121D01*
X163582865Y-122030460D01*
X163486263Y-122086421D01*
X163391207Y-122141457D01*
X163298639Y-122195023D01*
X163209503Y-122246571D01*
X163124742Y-122295555D01*
X163045298Y-122341428D01*
X162972116Y-122383644D01*
X162906138Y-122421655D01*
X162848307Y-122454915D01*
X162799567Y-122482878D01*
X162760859Y-122504997D01*
X162733129Y-122520725D01*
X162717317Y-122529515D01*
X162713861Y-122531251D01*
X162706869Y-122527406D01*
X162687117Y-122516174D01*
X162655383Y-122498003D01*
X162612442Y-122473340D01*
X162559072Y-122442634D01*
X162496050Y-122406333D01*
X162424153Y-122364884D01*
X162344156Y-122318736D01*
X162256838Y-122268336D01*
X162162975Y-122214132D01*
X162063344Y-122156573D01*
X161958721Y-122096106D01*
X161849884Y-122033179D01*
X161782297Y-121994090D01*
X161671306Y-121929853D01*
X161564100Y-121867733D01*
X161461453Y-121808181D01*
X161364139Y-121751651D01*
X161272933Y-121698593D01*
X161188609Y-121649461D01*
X161111942Y-121604708D01*
X161043707Y-121564784D01*
X160984676Y-121530144D01*
X160935626Y-121501238D01*
X160897330Y-121478520D01*
X160870564Y-121462442D01*
X160856100Y-121453455D01*
X160853649Y-121451653D01*
X160860217Y-121446830D01*
X160879077Y-121434963D01*
X160908962Y-121416803D01*
X160948604Y-121393102D01*
X160996739Y-121364613D01*
X161052097Y-121332087D01*
X161113414Y-121296276D01*
X161179422Y-121257932D01*
X161201648Y-121245065D01*
X161268888Y-121206108D01*
X161331852Y-121169506D01*
X161389272Y-121136004D01*
X161439884Y-121106347D01*
X161482422Y-121081278D01*
X161515619Y-121061542D01*
X161538210Y-121047884D01*
X161548930Y-121041047D01*
X161549647Y-121040417D01*
X161549549Y-121039454D01*
X161548548Y-121039173D01*
X161545586Y-121040174D01*
X161539602Y-121043058D01*
X161529537Y-121048423D01*
X161514331Y-121056871D01*
X161492925Y-121069001D01*
X161464260Y-121085413D01*
X161427275Y-121106708D01*
X161380911Y-121133486D01*
X161324109Y-121166346D01*
X161255809Y-121205889D01*
X161181651Y-121248835D01*
X161115397Y-121287169D01*
X161053329Y-121323015D01*
X160996744Y-121355626D01*
X160946940Y-121384259D01*
X160905215Y-121408168D01*
X160872867Y-121426609D01*
X160851194Y-121438837D01*
X160841493Y-121444108D01*
X160841104Y-121444261D01*
X160840735Y-121436590D01*
X160840379Y-121414170D01*
X160840037Y-121377894D01*
X160839713Y-121328653D01*
X160839410Y-121267340D01*
X160839129Y-121194847D01*
X160838874Y-121112065D01*
X160838688Y-121036771D01*
X161557229Y-121036771D01*
X161559734Y-121035883D01*
X161565830Y-121032816D01*
X161576504Y-121027011D01*
X161592746Y-121017910D01*
X161615544Y-121004953D01*
X161645885Y-120987583D01*
X161684759Y-120965240D01*
X161733153Y-120937366D01*
X161792056Y-120903403D01*
X161862457Y-120862790D01*
X161945342Y-120814971D01*
X161952387Y-120810906D01*
X162023352Y-120769907D01*
X162090328Y-120731097D01*
X162152074Y-120695203D01*
X162207350Y-120662953D01*
X162254915Y-120635072D01*
X162293530Y-120612287D01*
X162321953Y-120595324D01*
X162338944Y-120584911D01*
X162343397Y-120581883D01*
X162347040Y-120576589D01*
X162343397Y-120577892D01*
X162331188Y-120584568D01*
X162307455Y-120597984D01*
X162273668Y-120617286D01*
X162231300Y-120641618D01*
X162181822Y-120670127D01*
X162126707Y-120701957D01*
X162067427Y-120736254D01*
X162005454Y-120772164D01*
X161942259Y-120808831D01*
X161879315Y-120845401D01*
X161818093Y-120881019D01*
X161760066Y-120914832D01*
X161706705Y-120945983D01*
X161659483Y-120973618D01*
X161619871Y-120996883D01*
X161589341Y-121014923D01*
X161569366Y-121026884D01*
X161561417Y-121031910D01*
X161561377Y-121031948D01*
X161559039Y-121034245D01*
X161557327Y-121036039D01*
X161557229Y-121036771D01*
X160838688Y-121036771D01*
X160838646Y-121019887D01*
X160838449Y-120919205D01*
X160838285Y-120810911D01*
X160838157Y-120695896D01*
X160838067Y-120575053D01*
X160838018Y-120449274D01*
X160838009Y-120366935D01*
X160838009Y-119289608D01*
X161767382Y-118752064D01*
X161878475Y-118687830D01*
X161985853Y-118625785D01*
X162088738Y-118566379D01*
X162186350Y-118510058D01*
X162277910Y-118457271D01*
X162362640Y-118408465D01*
X162439760Y-118364090D01*
X162508493Y-118324592D01*
X162568058Y-118290420D01*
X162617678Y-118262022D01*
X162656572Y-118239846D01*
X162683964Y-118224339D01*
X162699072Y-118215951D01*
X162701923Y-118214520D01*
X162702525Y-118222192D01*
G37*
D12*
%TO.C,Y1*%
X131180000Y-99020000D02*
X131180000Y-103020000D01*
X134480000Y-99020000D02*
X131180000Y-99020000D01*
%TO.C,C11*%
X172670000Y-104814420D02*
X172670000Y-105095580D01*
X173690000Y-104814420D02*
X173690000Y-105095580D01*
%TO.C,C18*%
X170752164Y-116160000D02*
X170967836Y-116160000D01*
X170752164Y-116880000D02*
X170967836Y-116880000D01*
%TO.C,C19*%
X146707836Y-107260000D02*
X146492164Y-107260000D01*
X146707836Y-107980000D02*
X146492164Y-107980000D01*
%TO.C,R3*%
X130033641Y-109840000D02*
X129726359Y-109840000D01*
X130033641Y-110600000D02*
X129726359Y-110600000D01*
%TO.C,R6*%
X156730000Y-101566359D02*
X156730000Y-101873641D01*
X157490000Y-101566359D02*
X157490000Y-101873641D01*
%TO.C,SW1*%
X132500000Y-116440000D02*
X132500000Y-114440000D01*
X133550000Y-113140000D02*
X134000000Y-112690000D01*
X133550000Y-117740000D02*
X134000000Y-118190000D01*
X136500000Y-112690000D02*
X134000000Y-112690000D01*
X136500000Y-118190000D02*
X134000000Y-118190000D01*
X136950000Y-113140000D02*
X136500000Y-112690000D01*
X136950000Y-117740000D02*
X136500000Y-118190000D01*
X138000000Y-116440000D02*
X138000000Y-114440000D01*
%TO.C,J1*%
X132870000Y-83270000D02*
X134200000Y-83270000D01*
X132870000Y-84600000D02*
X132870000Y-83270000D01*
X132870000Y-85870000D02*
X132870000Y-91010000D01*
X132870000Y-85870000D02*
X135530000Y-85870000D01*
X132870000Y-91010000D02*
X135530000Y-91010000D01*
X135530000Y-85870000D02*
X135530000Y-91010000D01*
%TD*%
M02*
