M48
; DRILL file {KiCad 8.0.1} date 2024-11-24T12:48:54+0700
; FORMAT={-:-/ absolute / metric / decimal}
; #@! TF.CreationDate,2024-11-24T12:48:54+07:00
; #@! TF.GenerationSoftware,Kicad,Pcbnew,8.0.1
; #@! TF.FileFunction,MixedPlating,1,2
FMAT,2
METRIC
; #@! TA.AperFunction,Plated,PTH,ViaDrill
T1C0.300
; #@! TA.AperFunction,Plated,PTH,ComponentDrill
T2C1.000
; #@! TA.AperFunction,Plated,PTH,ComponentDrill
T3C1.300
; #@! TA.AperFunction,NonPlated,NPTH,ComponentDrill
T4C2.500
%
G90
G05
T1
X129.37Y-111.51
X132.93Y-104.37
X135.421Y-103.487
X135.98Y-108.62
X136.08Y-111.52
X136.18Y-100.32
X138.18Y-106.4
X138.18Y-108.62
X139.305Y-105.16
X139.38Y-99.52
X140.6Y-117.34
X142.58Y-113.42
X144.88Y-99.6
X144.98Y-104.92
X146.48Y-98.0
X148.18Y-101.12
X148.98Y-106.42
X150.88Y-106.42
X158.28Y-105.02
X165.88Y-108.42
X167.57Y-106.73
X168.68Y-100.42
X170.58Y-96.3
X170.58Y-97.3
X173.78Y-96.3
X173.78Y-97.3
T2
X134.2Y-84.6
X134.2Y-87.14
X134.2Y-89.68
X140.98Y-94.0
X140.99Y-78.925
X142.34Y-119.62
X143.52Y-94.0
X143.53Y-78.925
X144.88Y-119.62
X146.06Y-94.0
X146.07Y-78.925
X147.42Y-119.62
X148.6Y-94.0
X148.61Y-78.925
X151.14Y-94.0
X151.15Y-78.925
X153.68Y-94.0
X153.69Y-78.925
X156.22Y-94.0
X156.23Y-78.925
X158.76Y-94.0
X158.77Y-78.925
X161.3Y-94.0
X161.31Y-78.925
X163.84Y-94.0
X163.85Y-78.925
X184.58Y-92.1
X184.58Y-94.64
X184.58Y-97.18
X184.58Y-99.72
T3
X170.5Y-82.0
X175.58Y-82.0
X182.085Y-109.385
X182.085Y-114.465
T4
X128.48Y-79.1
X128.48Y-120.32
X184.48Y-79.1
X184.48Y-120.32
M30
