%TF.GenerationSoftware,KiCad,Pcbnew,8.0.1*%
%TF.CreationDate,2024-11-24T12:48:57+07:00*%
%TF.ProjectId,TPMS,54504d53-2e6b-4696-9361-645f70636258,rev?*%
%TF.SameCoordinates,Original*%
%TF.FileFunction,Copper,L2,Bot*%
%TF.FilePolarity,Positive*%
%FSLAX46Y46*%
G04 Gerber Fmt 4.6, Leading zero omitted, Abs format (unit mm)*
G04 Created by KiCad (PCBNEW 8.0.1) date 2024-11-24 12:48:57*
%MOMM*%
%LPD*%
G01*
G04 APERTURE LIST*
%TA.AperFunction,ComponentPad*%
%ADD10R,1.700000X1.700000*%
%TD*%
%TA.AperFunction,ComponentPad*%
%ADD11O,1.700000X1.700000*%
%TD*%
%TA.AperFunction,ComponentPad*%
%ADD12R,2.600000X2.600000*%
%TD*%
%TA.AperFunction,ComponentPad*%
%ADD13C,2.600000*%
%TD*%
%TA.AperFunction,ViaPad*%
%ADD14C,0.700000*%
%TD*%
%TA.AperFunction,Conductor*%
%ADD15C,0.500000*%
%TD*%
%TA.AperFunction,Conductor*%
%ADD16C,0.300000*%
%TD*%
G04 APERTURE END LIST*
D10*
%TO.P,J7,1,Pin_1*%
%TO.N,unconnected-(J7-Pin_1-Pad1)*%
X140990000Y-78925000D03*
D11*
%TO.P,J7,2,Pin_2*%
%TO.N,unconnected-(J7-Pin_2-Pad2)*%
X143530000Y-78925000D03*
%TO.P,J7,3,Pin_3*%
%TO.N,SPI_MOSI*%
X146070000Y-78925000D03*
%TO.P,J7,4,Pin_4*%
%TO.N,SPI_MISO*%
X148610000Y-78925000D03*
%TO.P,J7,5,Pin_5*%
%TO.N,SPI_SCK*%
X151150000Y-78925000D03*
%TO.P,J7,6,Pin_6*%
%TO.N,unconnected-(J7-Pin_6-Pad6)*%
X153690000Y-78925000D03*
%TO.P,J7,7,Pin_7*%
%TO.N,unconnected-(J7-Pin_7-Pad7)*%
X156230000Y-78925000D03*
%TO.P,J7,8,Pin_8*%
%TO.N,unconnected-(J7-Pin_8-Pad8)*%
X158770000Y-78925000D03*
%TO.P,J7,9,Pin_9*%
%TO.N,unconnected-(J7-Pin_9-Pad9)*%
X161310000Y-78925000D03*
%TO.P,J7,10,Pin_10*%
%TO.N,unconnected-(J7-Pin_10-Pad10)*%
X163850000Y-78925000D03*
%TD*%
%TO.P,J6,10,Pin_10*%
%TO.N,unconnected-(J6-Pin_10-Pad10)*%
X163840000Y-94000000D03*
%TO.P,J6,9,Pin_9*%
%TO.N,GND*%
X161300000Y-94000000D03*
%TO.P,J6,8,Pin_8*%
%TO.N,+3.3V*%
X158760000Y-94000000D03*
%TO.P,J6,7,Pin_7*%
%TO.N,unconnected-(J6-Pin_7-Pad7)*%
X156220000Y-94000000D03*
%TO.P,J6,6,Pin_6*%
%TO.N,unconnected-(J6-Pin_6-Pad6)*%
X153680000Y-94000000D03*
%TO.P,J6,5,Pin_5*%
%TO.N,unconnected-(J6-Pin_5-Pad5)*%
X151140000Y-94000000D03*
%TO.P,J6,4,Pin_4*%
%TO.N,unconnected-(J6-Pin_4-Pad4)*%
X148600000Y-94000000D03*
%TO.P,J6,3,Pin_3*%
%TO.N,SPI_CS*%
X146060000Y-94000000D03*
%TO.P,J6,2,Pin_2*%
%TO.N,unconnected-(J6-Pin_2-Pad2)*%
X143520000Y-94000000D03*
D10*
%TO.P,J6,1,Pin_1*%
%TO.N,unconnected-(J6-Pin_1-Pad1)*%
X140980000Y-94000000D03*
%TD*%
%TO.P,J3,1,Pin_1*%
%TO.N,GND*%
X147420000Y-119620000D03*
D11*
%TO.P,J3,2,Pin_2*%
%TO.N,USART1_Rx*%
X144880000Y-119620000D03*
%TO.P,J3,3,Pin_3*%
%TO.N,USART1_Tx*%
X142340000Y-119620000D03*
%TD*%
D12*
%TO.P,J4,1,Pin_1*%
%TO.N,GND*%
X182085000Y-114465000D03*
D13*
%TO.P,J4,2,Pin_2*%
%TO.N,/Vin*%
X182085000Y-109385000D03*
%TD*%
D12*
%TO.P,J2,1,Pin_1*%
%TO.N,/CAN-*%
X175580000Y-82000000D03*
D13*
%TO.P,J2,2,Pin_2*%
%TO.N,/CAN+*%
X170500000Y-82000000D03*
%TD*%
D10*
%TO.P,J5,1,Pin_1*%
%TO.N,GND*%
X184580000Y-92100000D03*
D11*
%TO.P,J5,2,Pin_2*%
%TO.N,SWCLK*%
X184580000Y-94640000D03*
%TO.P,J5,3,Pin_3*%
%TO.N,SWDIO*%
X184580000Y-97180000D03*
%TO.P,J5,4,Pin_4*%
%TO.N,+3.3V*%
X184580000Y-99720000D03*
%TD*%
D10*
%TO.P,J1,1,Pin_1*%
%TO.N,GND*%
X134200000Y-84600000D03*
D11*
%TO.P,J1,2,Pin_2*%
%TO.N,BOOT*%
X134200000Y-87140000D03*
%TO.P,J1,3,Pin_3*%
%TO.N,+3.3V*%
X134200000Y-89680000D03*
%TD*%
D14*
%TO.N,GND*%
X135421382Y-103487245D03*
X139380000Y-99520000D03*
X144980000Y-104920000D03*
X136180000Y-100320000D03*
X168680000Y-100420000D03*
X140600000Y-117340000D03*
X129370000Y-111510000D03*
X132930000Y-104370000D03*
X142580000Y-113420000D03*
X136080000Y-111520000D03*
X148180000Y-101120000D03*
X158280000Y-105020000D03*
%TO.N,+3.3V*%
X150880000Y-106420000D03*
X148980000Y-106420000D03*
X138180000Y-108620000D03*
X135980000Y-108620000D03*
%TO.N,NRST*%
X139305000Y-105160316D03*
X138180000Y-106400000D03*
%TO.N,/POWER BOOT*%
X165880000Y-108420000D03*
X167570000Y-106730000D03*
%TO.N,SWDIO*%
X170580000Y-97300000D03*
X173780000Y-97300000D03*
%TO.N,SWCLK*%
X173780000Y-96300000D03*
X170580000Y-96300000D03*
%TO.N,CAN_S*%
X146480000Y-98000000D03*
X144880000Y-99600000D03*
%TD*%
D15*
%TO.N,+3.3V*%
X138180000Y-108620000D02*
X135980000Y-108620000D01*
X150880000Y-106420000D02*
X148980000Y-106420000D01*
D16*
%TO.N,NRST*%
X138180000Y-106285316D02*
X139305000Y-105160316D01*
X138180000Y-106400000D02*
X138180000Y-106285316D01*
%TO.N,/POWER BOOT*%
X165880000Y-108420000D02*
X167570000Y-106730000D01*
%TO.N,SWDIO*%
X170580000Y-97300000D02*
X173780000Y-97300000D01*
%TO.N,SWCLK*%
X173780000Y-96300000D02*
X170580000Y-96300000D01*
%TO.N,CAN_S*%
X144880000Y-99600000D02*
X146480000Y-98000000D01*
%TD*%
%TA.AperFunction,Conductor*%
%TO.N,GND*%
G36*
X184483472Y-76350695D02*
G01*
X184781049Y-76367407D01*
X184794850Y-76368962D01*
X185085127Y-76418282D01*
X185085245Y-76418302D01*
X185098802Y-76421396D01*
X185381846Y-76502940D01*
X185394972Y-76507533D01*
X185667111Y-76620257D01*
X185679618Y-76626281D01*
X185937396Y-76768751D01*
X185937427Y-76768768D01*
X185949189Y-76776158D01*
X186189433Y-76946621D01*
X186200293Y-76955282D01*
X186419918Y-77151552D01*
X186429751Y-77161384D01*
X186626028Y-77381019D01*
X186634698Y-77391891D01*
X186805145Y-77632116D01*
X186812543Y-77643890D01*
X186955024Y-77901693D01*
X186961057Y-77914222D01*
X187073772Y-78186344D01*
X187078365Y-78199469D01*
X187159907Y-78482515D01*
X187163001Y-78496072D01*
X187212338Y-78786458D01*
X187213895Y-78800276D01*
X187230624Y-79098200D01*
X187230819Y-79105156D01*
X187229501Y-120265829D01*
X187229500Y-120265847D01*
X187229500Y-120316519D01*
X187229305Y-120323472D01*
X187212602Y-120620893D01*
X187211045Y-120634711D01*
X187161730Y-120924953D01*
X187158636Y-120938510D01*
X187077133Y-121221413D01*
X187072540Y-121234537D01*
X186959879Y-121506527D01*
X186953846Y-121519056D01*
X186811436Y-121776726D01*
X186804038Y-121788500D01*
X186633676Y-122028604D01*
X186625006Y-122039476D01*
X186428830Y-122258997D01*
X186418997Y-122268830D01*
X186199476Y-122465006D01*
X186188604Y-122473676D01*
X185948500Y-122644038D01*
X185936726Y-122651436D01*
X185679056Y-122793846D01*
X185666527Y-122799879D01*
X185394537Y-122912540D01*
X185381413Y-122917133D01*
X185098510Y-122998636D01*
X185084953Y-123001730D01*
X184794711Y-123051045D01*
X184780893Y-123052602D01*
X184483472Y-123069305D01*
X184476519Y-123069500D01*
X128483481Y-123069500D01*
X128476528Y-123069305D01*
X128179106Y-123052602D01*
X128165288Y-123051045D01*
X127875046Y-123001730D01*
X127861489Y-122998636D01*
X127578586Y-122917133D01*
X127565462Y-122912540D01*
X127293472Y-122799879D01*
X127280943Y-122793846D01*
X127023273Y-122651436D01*
X127011499Y-122644038D01*
X126771395Y-122473676D01*
X126760523Y-122465006D01*
X126541002Y-122268830D01*
X126531169Y-122258997D01*
X126382627Y-122092779D01*
X126334993Y-122039476D01*
X126326323Y-122028604D01*
X126155961Y-121788500D01*
X126148563Y-121776726D01*
X126052737Y-121603343D01*
X126006149Y-121519049D01*
X126000120Y-121506527D01*
X125887459Y-121234537D01*
X125882866Y-121221413D01*
X125801363Y-120938510D01*
X125798269Y-120924953D01*
X125762101Y-120712086D01*
X125748953Y-120634703D01*
X125747397Y-120620900D01*
X125737132Y-120438097D01*
X126979500Y-120438097D01*
X127016446Y-120671368D01*
X127089433Y-120895996D01*
X127130024Y-120975659D01*
X127196657Y-121106433D01*
X127335483Y-121297510D01*
X127502490Y-121464517D01*
X127693567Y-121603343D01*
X127792991Y-121654002D01*
X127904003Y-121710566D01*
X127904005Y-121710566D01*
X127904008Y-121710568D01*
X128024412Y-121749689D01*
X128128631Y-121783553D01*
X128361903Y-121820500D01*
X128361908Y-121820500D01*
X128598097Y-121820500D01*
X128831368Y-121783553D01*
X128852379Y-121776726D01*
X129055992Y-121710568D01*
X129266433Y-121603343D01*
X129457510Y-121464517D01*
X129624517Y-121297510D01*
X129763343Y-121106433D01*
X129870568Y-120895992D01*
X129943553Y-120671368D01*
X129950446Y-120627846D01*
X129980500Y-120438097D01*
X129980500Y-120201902D01*
X129943553Y-119968631D01*
X129906763Y-119855403D01*
X129870568Y-119744008D01*
X129870566Y-119744005D01*
X129870566Y-119744003D01*
X129807383Y-119620000D01*
X140984341Y-119620000D01*
X141004936Y-119855403D01*
X141004938Y-119855413D01*
X141066094Y-120083655D01*
X141066096Y-120083659D01*
X141066097Y-120083663D01*
X141121233Y-120201902D01*
X141165965Y-120297830D01*
X141165967Y-120297834D01*
X141216337Y-120369769D01*
X141301505Y-120491401D01*
X141468599Y-120658495D01*
X141486984Y-120671368D01*
X141662165Y-120794032D01*
X141662167Y-120794033D01*
X141662170Y-120794035D01*
X141876337Y-120893903D01*
X142104592Y-120955063D01*
X142275319Y-120970000D01*
X142339999Y-120975659D01*
X142340000Y-120975659D01*
X142340001Y-120975659D01*
X142404681Y-120970000D01*
X142575408Y-120955063D01*
X142803663Y-120893903D01*
X143017830Y-120794035D01*
X143211401Y-120658495D01*
X143378495Y-120491401D01*
X143508425Y-120305842D01*
X143563002Y-120262217D01*
X143632500Y-120255023D01*
X143694855Y-120286546D01*
X143711575Y-120305842D01*
X143841500Y-120491395D01*
X143841505Y-120491401D01*
X144008599Y-120658495D01*
X144026984Y-120671368D01*
X144202165Y-120794032D01*
X144202167Y-120794033D01*
X144202170Y-120794035D01*
X144416337Y-120893903D01*
X144644592Y-120955063D01*
X144815319Y-120970000D01*
X144879999Y-120975659D01*
X144880000Y-120975659D01*
X144880001Y-120975659D01*
X144944681Y-120970000D01*
X145115408Y-120955063D01*
X145343663Y-120893903D01*
X145557830Y-120794035D01*
X145751401Y-120658495D01*
X145873717Y-120536178D01*
X145935036Y-120502696D01*
X146004728Y-120507680D01*
X146060662Y-120549551D01*
X146077577Y-120580528D01*
X146126646Y-120712088D01*
X146126649Y-120712093D01*
X146212809Y-120827187D01*
X146212812Y-120827190D01*
X146327906Y-120913350D01*
X146327913Y-120913354D01*
X146462620Y-120963596D01*
X146462627Y-120963598D01*
X146522155Y-120969999D01*
X146522172Y-120970000D01*
X147170000Y-120970000D01*
X147170000Y-120053012D01*
X147227007Y-120085925D01*
X147354174Y-120120000D01*
X147485826Y-120120000D01*
X147612993Y-120085925D01*
X147670000Y-120053012D01*
X147670000Y-120970000D01*
X148317828Y-120970000D01*
X148317844Y-120969999D01*
X148377372Y-120963598D01*
X148377379Y-120963596D01*
X148512086Y-120913354D01*
X148512093Y-120913350D01*
X148627187Y-120827190D01*
X148627190Y-120827187D01*
X148713350Y-120712093D01*
X148713354Y-120712086D01*
X148763596Y-120577379D01*
X148763598Y-120577372D01*
X148769999Y-120517844D01*
X148770000Y-120517827D01*
X148770000Y-120438097D01*
X182979500Y-120438097D01*
X183016446Y-120671368D01*
X183089433Y-120895996D01*
X183130024Y-120975659D01*
X183196657Y-121106433D01*
X183335483Y-121297510D01*
X183502490Y-121464517D01*
X183693567Y-121603343D01*
X183792991Y-121654002D01*
X183904003Y-121710566D01*
X183904005Y-121710566D01*
X183904008Y-121710568D01*
X184024412Y-121749689D01*
X184128631Y-121783553D01*
X184361903Y-121820500D01*
X184361908Y-121820500D01*
X184598097Y-121820500D01*
X184831368Y-121783553D01*
X184852379Y-121776726D01*
X185055992Y-121710568D01*
X185266433Y-121603343D01*
X185457510Y-121464517D01*
X185624517Y-121297510D01*
X185763343Y-121106433D01*
X185870568Y-120895992D01*
X185943553Y-120671368D01*
X185950446Y-120627846D01*
X185980500Y-120438097D01*
X185980500Y-120201902D01*
X185943553Y-119968631D01*
X185906763Y-119855403D01*
X185870568Y-119744008D01*
X185870566Y-119744005D01*
X185870566Y-119744003D01*
X185807382Y-119619999D01*
X185763343Y-119533567D01*
X185624517Y-119342490D01*
X185457510Y-119175483D01*
X185266433Y-119036657D01*
X185055996Y-118929433D01*
X184831368Y-118856446D01*
X184598097Y-118819500D01*
X184598092Y-118819500D01*
X184361908Y-118819500D01*
X184361903Y-118819500D01*
X184128631Y-118856446D01*
X183904003Y-118929433D01*
X183693566Y-119036657D01*
X183584550Y-119115862D01*
X183502490Y-119175483D01*
X183502488Y-119175485D01*
X183502487Y-119175485D01*
X183335485Y-119342487D01*
X183335485Y-119342488D01*
X183335483Y-119342490D01*
X183304894Y-119384592D01*
X183196657Y-119533566D01*
X183089433Y-119744003D01*
X183016446Y-119968631D01*
X182979500Y-120201902D01*
X182979500Y-120438097D01*
X148770000Y-120438097D01*
X148770000Y-119870000D01*
X147853012Y-119870000D01*
X147885925Y-119812993D01*
X147920000Y-119685826D01*
X147920000Y-119554174D01*
X147885925Y-119427007D01*
X147853012Y-119370000D01*
X148770000Y-119370000D01*
X148770000Y-118722172D01*
X148769999Y-118722155D01*
X148763598Y-118662627D01*
X148763596Y-118662620D01*
X148713354Y-118527913D01*
X148713350Y-118527906D01*
X148627190Y-118412812D01*
X148627187Y-118412809D01*
X148512093Y-118326649D01*
X148512086Y-118326645D01*
X148377379Y-118276403D01*
X148377372Y-118276401D01*
X148317844Y-118270000D01*
X147670000Y-118270000D01*
X147670000Y-119186988D01*
X147612993Y-119154075D01*
X147485826Y-119120000D01*
X147354174Y-119120000D01*
X147227007Y-119154075D01*
X147170000Y-119186988D01*
X147170000Y-118270000D01*
X146522155Y-118270000D01*
X146462627Y-118276401D01*
X146462620Y-118276403D01*
X146327913Y-118326645D01*
X146327906Y-118326649D01*
X146212812Y-118412809D01*
X146212809Y-118412812D01*
X146126649Y-118527906D01*
X146126645Y-118527913D01*
X146077578Y-118659470D01*
X146035707Y-118715404D01*
X145970242Y-118739821D01*
X145901969Y-118724969D01*
X145873715Y-118703819D01*
X145829366Y-118659470D01*
X145751401Y-118581505D01*
X145751397Y-118581502D01*
X145751396Y-118581501D01*
X145557834Y-118445967D01*
X145557830Y-118445965D01*
X145486727Y-118412809D01*
X145343663Y-118346097D01*
X145343659Y-118346096D01*
X145343655Y-118346094D01*
X145115413Y-118284938D01*
X145115403Y-118284936D01*
X144880001Y-118264341D01*
X144879999Y-118264341D01*
X144644596Y-118284936D01*
X144644586Y-118284938D01*
X144416344Y-118346094D01*
X144416335Y-118346098D01*
X144202171Y-118445964D01*
X144202169Y-118445965D01*
X144008597Y-118581505D01*
X143841505Y-118748597D01*
X143711575Y-118934158D01*
X143656998Y-118977783D01*
X143587500Y-118984977D01*
X143525145Y-118953454D01*
X143508425Y-118934158D01*
X143378494Y-118748597D01*
X143211402Y-118581506D01*
X143211395Y-118581501D01*
X143017834Y-118445967D01*
X143017830Y-118445965D01*
X142946727Y-118412809D01*
X142803663Y-118346097D01*
X142803659Y-118346096D01*
X142803655Y-118346094D01*
X142575413Y-118284938D01*
X142575403Y-118284936D01*
X142340001Y-118264341D01*
X142339999Y-118264341D01*
X142104596Y-118284936D01*
X142104586Y-118284938D01*
X141876344Y-118346094D01*
X141876335Y-118346098D01*
X141662171Y-118445964D01*
X141662169Y-118445965D01*
X141468597Y-118581505D01*
X141301505Y-118748597D01*
X141165965Y-118942169D01*
X141165964Y-118942171D01*
X141066098Y-119156335D01*
X141066094Y-119156344D01*
X141004938Y-119384586D01*
X141004936Y-119384596D01*
X140984341Y-119619999D01*
X140984341Y-119620000D01*
X129807383Y-119620000D01*
X129807382Y-119619999D01*
X129763343Y-119533567D01*
X129624517Y-119342490D01*
X129457510Y-119175483D01*
X129266433Y-119036657D01*
X129055996Y-118929433D01*
X128831368Y-118856446D01*
X128598097Y-118819500D01*
X128598092Y-118819500D01*
X128361908Y-118819500D01*
X128361903Y-118819500D01*
X128128631Y-118856446D01*
X127904003Y-118929433D01*
X127693566Y-119036657D01*
X127584550Y-119115862D01*
X127502490Y-119175483D01*
X127502488Y-119175485D01*
X127502487Y-119175485D01*
X127335485Y-119342487D01*
X127335485Y-119342488D01*
X127335483Y-119342490D01*
X127304894Y-119384592D01*
X127196657Y-119533566D01*
X127089433Y-119744003D01*
X127016446Y-119968631D01*
X126979500Y-120201902D01*
X126979500Y-120438097D01*
X125737132Y-120438097D01*
X125730695Y-120323472D01*
X125730501Y-120316485D01*
X125730506Y-120305842D01*
X125732542Y-115812844D01*
X180285000Y-115812844D01*
X180291401Y-115872372D01*
X180291403Y-115872379D01*
X180341645Y-116007086D01*
X180341649Y-116007093D01*
X180427809Y-116122187D01*
X180427812Y-116122190D01*
X180542906Y-116208350D01*
X180542913Y-116208354D01*
X180677620Y-116258596D01*
X180677627Y-116258598D01*
X180737155Y-116264999D01*
X180737172Y-116265000D01*
X181835000Y-116265000D01*
X181835000Y-115065001D01*
X181895402Y-115090021D01*
X182020981Y-115115000D01*
X182149019Y-115115000D01*
X182274598Y-115090021D01*
X182335000Y-115065001D01*
X182335000Y-116265000D01*
X183432828Y-116265000D01*
X183432844Y-116264999D01*
X183492372Y-116258598D01*
X183492379Y-116258596D01*
X183627086Y-116208354D01*
X183627093Y-116208350D01*
X183742187Y-116122190D01*
X183742190Y-116122187D01*
X183828350Y-116007093D01*
X183828354Y-116007086D01*
X183878596Y-115872379D01*
X183878598Y-115872372D01*
X183884999Y-115812844D01*
X183885000Y-115812827D01*
X183885000Y-114715000D01*
X182685001Y-114715000D01*
X182710021Y-114654598D01*
X182735000Y-114529019D01*
X182735000Y-114400981D01*
X182710021Y-114275402D01*
X182685001Y-114215000D01*
X183885000Y-114215000D01*
X183885000Y-113117172D01*
X183884999Y-113117155D01*
X183878598Y-113057627D01*
X183878596Y-113057620D01*
X183828354Y-112922913D01*
X183828350Y-112922906D01*
X183742190Y-112807812D01*
X183742187Y-112807809D01*
X183627093Y-112721649D01*
X183627086Y-112721645D01*
X183492379Y-112671403D01*
X183492372Y-112671401D01*
X183432844Y-112665000D01*
X182335000Y-112665000D01*
X182335000Y-113864998D01*
X182274598Y-113839979D01*
X182149019Y-113815000D01*
X182020981Y-113815000D01*
X181895402Y-113839979D01*
X181835000Y-113864998D01*
X181835000Y-112665000D01*
X180737155Y-112665000D01*
X180677627Y-112671401D01*
X180677620Y-112671403D01*
X180542913Y-112721645D01*
X180542906Y-112721649D01*
X180427812Y-112807809D01*
X180427809Y-112807812D01*
X180341649Y-112922906D01*
X180341645Y-112922913D01*
X180291403Y-113057620D01*
X180291401Y-113057627D01*
X180285000Y-113117155D01*
X180285000Y-114215000D01*
X181484999Y-114215000D01*
X181459979Y-114275402D01*
X181435000Y-114400981D01*
X181435000Y-114529019D01*
X181459979Y-114654598D01*
X181484999Y-114715000D01*
X180285000Y-114715000D01*
X180285000Y-115812844D01*
X125732542Y-115812844D01*
X125735802Y-108620000D01*
X135124815Y-108620000D01*
X135143503Y-108797805D01*
X135143504Y-108797807D01*
X135198747Y-108967829D01*
X135198750Y-108967835D01*
X135288141Y-109122665D01*
X135322307Y-109160610D01*
X135407764Y-109255521D01*
X135407767Y-109255523D01*
X135407770Y-109255526D01*
X135552407Y-109360612D01*
X135715733Y-109433329D01*
X135890609Y-109470500D01*
X135890610Y-109470500D01*
X136069389Y-109470500D01*
X136069391Y-109470500D01*
X136244267Y-109433329D01*
X136361306Y-109381219D01*
X136411741Y-109370500D01*
X137748259Y-109370500D01*
X137798693Y-109381219D01*
X137915733Y-109433329D01*
X138090609Y-109470500D01*
X138090610Y-109470500D01*
X138269389Y-109470500D01*
X138269391Y-109470500D01*
X138444267Y-109433329D01*
X138552807Y-109385004D01*
X180279451Y-109385004D01*
X180299616Y-109654101D01*
X180359664Y-109917188D01*
X180359666Y-109917195D01*
X180458257Y-110168398D01*
X180593185Y-110402102D01*
X180729080Y-110572509D01*
X180761442Y-110613089D01*
X180948183Y-110786358D01*
X180959259Y-110796635D01*
X181182226Y-110948651D01*
X181425359Y-111065738D01*
X181683228Y-111145280D01*
X181683229Y-111145280D01*
X181683232Y-111145281D01*
X181950063Y-111185499D01*
X181950068Y-111185499D01*
X181950071Y-111185500D01*
X181950072Y-111185500D01*
X182219928Y-111185500D01*
X182219929Y-111185500D01*
X182219936Y-111185499D01*
X182486767Y-111145281D01*
X182486768Y-111145280D01*
X182486772Y-111145280D01*
X182744641Y-111065738D01*
X182987775Y-110948651D01*
X183210741Y-110796635D01*
X183408561Y-110613085D01*
X183576815Y-110402102D01*
X183711743Y-110168398D01*
X183810334Y-109917195D01*
X183870383Y-109654103D01*
X183884142Y-109470500D01*
X183890549Y-109385004D01*
X183890549Y-109384995D01*
X183870383Y-109115898D01*
X183870383Y-109115897D01*
X183810334Y-108852805D01*
X183711743Y-108601602D01*
X183576815Y-108367898D01*
X183408561Y-108156915D01*
X183408560Y-108156914D01*
X183408557Y-108156910D01*
X183210741Y-107973365D01*
X182987775Y-107821349D01*
X182987769Y-107821346D01*
X182987768Y-107821345D01*
X182987767Y-107821344D01*
X182744643Y-107704263D01*
X182744645Y-107704263D01*
X182486773Y-107624720D01*
X182486767Y-107624718D01*
X182219936Y-107584500D01*
X182219929Y-107584500D01*
X181950071Y-107584500D01*
X181950063Y-107584500D01*
X181683232Y-107624718D01*
X181683226Y-107624720D01*
X181425358Y-107704262D01*
X181182230Y-107821346D01*
X180959258Y-107973365D01*
X180761442Y-108156910D01*
X180593185Y-108367898D01*
X180458258Y-108601599D01*
X180458256Y-108601603D01*
X180359666Y-108852804D01*
X180359664Y-108852811D01*
X180299616Y-109115898D01*
X180279451Y-109384995D01*
X180279451Y-109385004D01*
X138552807Y-109385004D01*
X138607593Y-109360612D01*
X138752230Y-109255526D01*
X138871859Y-109122665D01*
X138961250Y-108967835D01*
X139016497Y-108797803D01*
X139035185Y-108620000D01*
X139016497Y-108442197D01*
X139009285Y-108420000D01*
X165024815Y-108420000D01*
X165043503Y-108597805D01*
X165043504Y-108597807D01*
X165098747Y-108767829D01*
X165098750Y-108767835D01*
X165188141Y-108922665D01*
X165228807Y-108967829D01*
X165307764Y-109055521D01*
X165307767Y-109055523D01*
X165307770Y-109055526D01*
X165452407Y-109160612D01*
X165615733Y-109233329D01*
X165790609Y-109270500D01*
X165790610Y-109270500D01*
X165969389Y-109270500D01*
X165969391Y-109270500D01*
X166144267Y-109233329D01*
X166307593Y-109160612D01*
X166452230Y-109055526D01*
X166571859Y-108922665D01*
X166661250Y-108767835D01*
X166716497Y-108597803D01*
X166722988Y-108536036D01*
X166749571Y-108471423D01*
X166758619Y-108461325D01*
X167608092Y-107611853D01*
X167669413Y-107578370D01*
X167669477Y-107578356D01*
X167834267Y-107543329D01*
X167997593Y-107470612D01*
X168142230Y-107365526D01*
X168261859Y-107232665D01*
X168351250Y-107077835D01*
X168406497Y-106907803D01*
X168425185Y-106730000D01*
X168406497Y-106552197D01*
X168378873Y-106467181D01*
X168351252Y-106382170D01*
X168351249Y-106382164D01*
X168323672Y-106334399D01*
X168261859Y-106227335D01*
X168215003Y-106175296D01*
X168142235Y-106094478D01*
X168142232Y-106094476D01*
X168142231Y-106094475D01*
X168142230Y-106094474D01*
X167997593Y-105989388D01*
X167834267Y-105916671D01*
X167834265Y-105916670D01*
X167706594Y-105889533D01*
X167659391Y-105879500D01*
X167480609Y-105879500D01*
X167449954Y-105886015D01*
X167305733Y-105916670D01*
X167305728Y-105916672D01*
X167142408Y-105989387D01*
X166997768Y-106094475D01*
X166878140Y-106227336D01*
X166788750Y-106382164D01*
X166788747Y-106382170D01*
X166733504Y-106552192D01*
X166733503Y-106552194D01*
X166727011Y-106613963D01*
X166700425Y-106678577D01*
X166691371Y-106688681D01*
X165841909Y-107538144D01*
X165780586Y-107571629D01*
X165780009Y-107571753D01*
X165615733Y-107606670D01*
X165615728Y-107606672D01*
X165452408Y-107679387D01*
X165307768Y-107784475D01*
X165188140Y-107917336D01*
X165098750Y-108072164D01*
X165098747Y-108072170D01*
X165043504Y-108242192D01*
X165043503Y-108242194D01*
X165024815Y-108420000D01*
X139009285Y-108420000D01*
X138961250Y-108272165D01*
X138871859Y-108117335D01*
X138825003Y-108065296D01*
X138752235Y-107984478D01*
X138752232Y-107984476D01*
X138752231Y-107984475D01*
X138752230Y-107984474D01*
X138607593Y-107879388D01*
X138444267Y-107806671D01*
X138444265Y-107806670D01*
X138316594Y-107779533D01*
X138269391Y-107769500D01*
X138090609Y-107769500D01*
X138059954Y-107776015D01*
X137915733Y-107806670D01*
X137798694Y-107858780D01*
X137748259Y-107869500D01*
X136411741Y-107869500D01*
X136361306Y-107858780D01*
X136244267Y-107806671D01*
X136244265Y-107806670D01*
X136116594Y-107779533D01*
X136069391Y-107769500D01*
X135890609Y-107769500D01*
X135859954Y-107776015D01*
X135715733Y-107806670D01*
X135715728Y-107806672D01*
X135552408Y-107879387D01*
X135407768Y-107984475D01*
X135288140Y-108117336D01*
X135198750Y-108272164D01*
X135198747Y-108272170D01*
X135143504Y-108442192D01*
X135143503Y-108442194D01*
X135124815Y-108620000D01*
X125735802Y-108620000D01*
X125736808Y-106400000D01*
X137324815Y-106400000D01*
X137343503Y-106577805D01*
X137343504Y-106577807D01*
X137398747Y-106747829D01*
X137398750Y-106747835D01*
X137488141Y-106902665D01*
X137529812Y-106948946D01*
X137607764Y-107035521D01*
X137607767Y-107035523D01*
X137607770Y-107035526D01*
X137752407Y-107140612D01*
X137915733Y-107213329D01*
X138090609Y-107250500D01*
X138090610Y-107250500D01*
X138269389Y-107250500D01*
X138269391Y-107250500D01*
X138444267Y-107213329D01*
X138607593Y-107140612D01*
X138752230Y-107035526D01*
X138871859Y-106902665D01*
X138961250Y-106747835D01*
X139016497Y-106577803D01*
X139033083Y-106420000D01*
X148124815Y-106420000D01*
X148143503Y-106597805D01*
X148143504Y-106597807D01*
X148198747Y-106767829D01*
X148198750Y-106767835D01*
X148288141Y-106922665D01*
X148329812Y-106968946D01*
X148407764Y-107055521D01*
X148407767Y-107055523D01*
X148407770Y-107055526D01*
X148552407Y-107160612D01*
X148715733Y-107233329D01*
X148890609Y-107270500D01*
X148890610Y-107270500D01*
X149069389Y-107270500D01*
X149069391Y-107270500D01*
X149244267Y-107233329D01*
X149361306Y-107181219D01*
X149411741Y-107170500D01*
X150448259Y-107170500D01*
X150498693Y-107181219D01*
X150615733Y-107233329D01*
X150790609Y-107270500D01*
X150790610Y-107270500D01*
X150969389Y-107270500D01*
X150969391Y-107270500D01*
X151144267Y-107233329D01*
X151307593Y-107160612D01*
X151452230Y-107055526D01*
X151571859Y-106922665D01*
X151661250Y-106767835D01*
X151716497Y-106597803D01*
X151735185Y-106420000D01*
X151716497Y-106242197D01*
X151668500Y-106094478D01*
X151661252Y-106072170D01*
X151661249Y-106072164D01*
X151571859Y-105917335D01*
X151525003Y-105865296D01*
X151452235Y-105784478D01*
X151452232Y-105784476D01*
X151452231Y-105784475D01*
X151452230Y-105784474D01*
X151307593Y-105679388D01*
X151144267Y-105606671D01*
X151144265Y-105606670D01*
X151016594Y-105579533D01*
X150969391Y-105569500D01*
X150790609Y-105569500D01*
X150764390Y-105575073D01*
X150615733Y-105606670D01*
X150498694Y-105658780D01*
X150448259Y-105669500D01*
X149411741Y-105669500D01*
X149361306Y-105658780D01*
X149244267Y-105606671D01*
X149244265Y-105606670D01*
X149116594Y-105579533D01*
X149069391Y-105569500D01*
X148890609Y-105569500D01*
X148864390Y-105575073D01*
X148715733Y-105606670D01*
X148715728Y-105606672D01*
X148552408Y-105679387D01*
X148407768Y-105784475D01*
X148288140Y-105917336D01*
X148198750Y-106072164D01*
X148198747Y-106072170D01*
X148143504Y-106242192D01*
X148143503Y-106242194D01*
X148124815Y-106420000D01*
X139033083Y-106420000D01*
X139035185Y-106400000D01*
X139035184Y-106399998D01*
X139035864Y-106393536D01*
X139037456Y-106393703D01*
X139054870Y-106334399D01*
X139071504Y-106313757D01*
X139163069Y-106222192D01*
X139343093Y-106042168D01*
X139404412Y-106008686D01*
X139404419Y-106008684D01*
X139569267Y-105973645D01*
X139732593Y-105900928D01*
X139877230Y-105795842D01*
X139887463Y-105784478D01*
X139905474Y-105764474D01*
X139996859Y-105662981D01*
X140086250Y-105508151D01*
X140141497Y-105338119D01*
X140160185Y-105160316D01*
X140141497Y-104982513D01*
X140086250Y-104812481D01*
X139996859Y-104657651D01*
X139950003Y-104605612D01*
X139877235Y-104524794D01*
X139877232Y-104524792D01*
X139877231Y-104524791D01*
X139877230Y-104524790D01*
X139732593Y-104419704D01*
X139569267Y-104346987D01*
X139569265Y-104346986D01*
X139441594Y-104319849D01*
X139394391Y-104309816D01*
X139215609Y-104309816D01*
X139184954Y-104316331D01*
X139040733Y-104346986D01*
X139040728Y-104346988D01*
X138877408Y-104419703D01*
X138732768Y-104524791D01*
X138613140Y-104657652D01*
X138523750Y-104812480D01*
X138523747Y-104812486D01*
X138468504Y-104982508D01*
X138468503Y-104982510D01*
X138462011Y-105044279D01*
X138435425Y-105108893D01*
X138426371Y-105118997D01*
X137996268Y-105549100D01*
X137934945Y-105582585D01*
X137934372Y-105582709D01*
X137915728Y-105586672D01*
X137752408Y-105659387D01*
X137607768Y-105764475D01*
X137488140Y-105897336D01*
X137398750Y-106052164D01*
X137398747Y-106052170D01*
X137343504Y-106222192D01*
X137343503Y-106222194D01*
X137324815Y-106400000D01*
X125736808Y-106400000D01*
X125739889Y-99600000D01*
X144024815Y-99600000D01*
X144043503Y-99777805D01*
X144043504Y-99777807D01*
X144098747Y-99947829D01*
X144098750Y-99947835D01*
X144188141Y-100102665D01*
X144229812Y-100148946D01*
X144307764Y-100235521D01*
X144307767Y-100235523D01*
X144307770Y-100235526D01*
X144452407Y-100340612D01*
X144615733Y-100413329D01*
X144790609Y-100450500D01*
X144790610Y-100450500D01*
X144969389Y-100450500D01*
X144969391Y-100450500D01*
X145144267Y-100413329D01*
X145307593Y-100340612D01*
X145452230Y-100235526D01*
X145571859Y-100102665D01*
X145661250Y-99947835D01*
X145716497Y-99777803D01*
X145722571Y-99720000D01*
X183224341Y-99720000D01*
X183244936Y-99955403D01*
X183244938Y-99955413D01*
X183306094Y-100183655D01*
X183306096Y-100183659D01*
X183306097Y-100183663D01*
X183379283Y-100340610D01*
X183405965Y-100397830D01*
X183405967Y-100397834D01*
X183514281Y-100552521D01*
X183541505Y-100591401D01*
X183708599Y-100758495D01*
X183805384Y-100826265D01*
X183902165Y-100894032D01*
X183902167Y-100894033D01*
X183902170Y-100894035D01*
X184116337Y-100993903D01*
X184344592Y-101055063D01*
X184532918Y-101071539D01*
X184579999Y-101075659D01*
X184580000Y-101075659D01*
X184580001Y-101075659D01*
X184619234Y-101072226D01*
X184815408Y-101055063D01*
X185043663Y-100993903D01*
X185257830Y-100894035D01*
X185451401Y-100758495D01*
X185618495Y-100591401D01*
X185754035Y-100397830D01*
X185853903Y-100183663D01*
X185915063Y-99955408D01*
X185935659Y-99720000D01*
X185915063Y-99484592D01*
X185853903Y-99256337D01*
X185754035Y-99042171D01*
X185699632Y-98964474D01*
X185618494Y-98848597D01*
X185451402Y-98681506D01*
X185451396Y-98681501D01*
X185265842Y-98551575D01*
X185222217Y-98496998D01*
X185215023Y-98427500D01*
X185246546Y-98365145D01*
X185265842Y-98348425D01*
X185288026Y-98332891D01*
X185451401Y-98218495D01*
X185618495Y-98051401D01*
X185754035Y-97857830D01*
X185853903Y-97643663D01*
X185915063Y-97415408D01*
X185935659Y-97180000D01*
X185915063Y-96944592D01*
X185853903Y-96716337D01*
X185754035Y-96502171D01*
X185736976Y-96477807D01*
X185618494Y-96308597D01*
X185451402Y-96141506D01*
X185451396Y-96141501D01*
X185265842Y-96011575D01*
X185222217Y-95956998D01*
X185215023Y-95887500D01*
X185246546Y-95825145D01*
X185265842Y-95808425D01*
X185288026Y-95792891D01*
X185451401Y-95678495D01*
X185618495Y-95511401D01*
X185754035Y-95317830D01*
X185853903Y-95103663D01*
X185915063Y-94875408D01*
X185935659Y-94640000D01*
X185915063Y-94404592D01*
X185853903Y-94176337D01*
X185754035Y-93962171D01*
X185734431Y-93934174D01*
X185618496Y-93768600D01*
X185614482Y-93764586D01*
X185496179Y-93646283D01*
X185462696Y-93584963D01*
X185467680Y-93515271D01*
X185509551Y-93459337D01*
X185540529Y-93442422D01*
X185672086Y-93393354D01*
X185672093Y-93393350D01*
X185787187Y-93307190D01*
X185787190Y-93307187D01*
X185873350Y-93192093D01*
X185873354Y-93192086D01*
X185923596Y-93057379D01*
X185923598Y-93057372D01*
X185929999Y-92997844D01*
X185930000Y-92997827D01*
X185930000Y-92350000D01*
X185013012Y-92350000D01*
X185045925Y-92292993D01*
X185080000Y-92165826D01*
X185080000Y-92034174D01*
X185045925Y-91907007D01*
X185013012Y-91850000D01*
X185930000Y-91850000D01*
X185930000Y-91202172D01*
X185929999Y-91202155D01*
X185923598Y-91142627D01*
X185923596Y-91142620D01*
X185873354Y-91007913D01*
X185873350Y-91007906D01*
X185787190Y-90892812D01*
X185787187Y-90892809D01*
X185672093Y-90806649D01*
X185672086Y-90806645D01*
X185537379Y-90756403D01*
X185537372Y-90756401D01*
X185477844Y-90750000D01*
X184830000Y-90750000D01*
X184830000Y-91666988D01*
X184772993Y-91634075D01*
X184645826Y-91600000D01*
X184514174Y-91600000D01*
X184387007Y-91634075D01*
X184330000Y-91666988D01*
X184330000Y-90750000D01*
X183682155Y-90750000D01*
X183622627Y-90756401D01*
X183622620Y-90756403D01*
X183487913Y-90806645D01*
X183487906Y-90806649D01*
X183372812Y-90892809D01*
X183372809Y-90892812D01*
X183286649Y-91007906D01*
X183286645Y-91007913D01*
X183236403Y-91142620D01*
X183236401Y-91142627D01*
X183230000Y-91202155D01*
X183230000Y-91850000D01*
X184146988Y-91850000D01*
X184114075Y-91907007D01*
X184080000Y-92034174D01*
X184080000Y-92165826D01*
X184114075Y-92292993D01*
X184146988Y-92350000D01*
X183230000Y-92350000D01*
X183230000Y-92997844D01*
X183236401Y-93057372D01*
X183236403Y-93057379D01*
X183286645Y-93192086D01*
X183286649Y-93192093D01*
X183372809Y-93307187D01*
X183372812Y-93307190D01*
X183487906Y-93393350D01*
X183487913Y-93393354D01*
X183619470Y-93442421D01*
X183675403Y-93484292D01*
X183699821Y-93549756D01*
X183684970Y-93618029D01*
X183663819Y-93646284D01*
X183541503Y-93768600D01*
X183405965Y-93962169D01*
X183405964Y-93962171D01*
X183306098Y-94176335D01*
X183306094Y-94176344D01*
X183244938Y-94404586D01*
X183244936Y-94404596D01*
X183224341Y-94639999D01*
X183224341Y-94640000D01*
X183244936Y-94875403D01*
X183244938Y-94875413D01*
X183306094Y-95103655D01*
X183306096Y-95103659D01*
X183306097Y-95103663D01*
X183385482Y-95273905D01*
X183405965Y-95317830D01*
X183405967Y-95317834D01*
X183541501Y-95511395D01*
X183541506Y-95511402D01*
X183708597Y-95678493D01*
X183708603Y-95678498D01*
X183894158Y-95808425D01*
X183937783Y-95863002D01*
X183944977Y-95932500D01*
X183913454Y-95994855D01*
X183894158Y-96011575D01*
X183708597Y-96141505D01*
X183541505Y-96308597D01*
X183405965Y-96502169D01*
X183405964Y-96502171D01*
X183306098Y-96716335D01*
X183306094Y-96716344D01*
X183244938Y-96944586D01*
X183244936Y-96944596D01*
X183224341Y-97179999D01*
X183224341Y-97180000D01*
X183244936Y-97415403D01*
X183244938Y-97415413D01*
X183306094Y-97643655D01*
X183306096Y-97643659D01*
X183306097Y-97643663D01*
X183310062Y-97652165D01*
X183405965Y-97857830D01*
X183405967Y-97857834D01*
X183505514Y-98000000D01*
X183533950Y-98040612D01*
X183541501Y-98051395D01*
X183541506Y-98051402D01*
X183708597Y-98218493D01*
X183708603Y-98218498D01*
X183894158Y-98348425D01*
X183937783Y-98403002D01*
X183944977Y-98472500D01*
X183913454Y-98534855D01*
X183894158Y-98551575D01*
X183708597Y-98681505D01*
X183541505Y-98848597D01*
X183405965Y-99042169D01*
X183405964Y-99042171D01*
X183306098Y-99256335D01*
X183306094Y-99256344D01*
X183244938Y-99484586D01*
X183244936Y-99484596D01*
X183224341Y-99719999D01*
X183224341Y-99720000D01*
X145722571Y-99720000D01*
X145722988Y-99716036D01*
X145749571Y-99651423D01*
X145758619Y-99641325D01*
X146518092Y-98881853D01*
X146579413Y-98848370D01*
X146579477Y-98848356D01*
X146744267Y-98813329D01*
X146907593Y-98740612D01*
X147052230Y-98635526D01*
X147171859Y-98502665D01*
X147261250Y-98347835D01*
X147316497Y-98177803D01*
X147335185Y-98000000D01*
X147316497Y-97822197D01*
X147261250Y-97652165D01*
X147171859Y-97497335D01*
X147098096Y-97415413D01*
X147052235Y-97364478D01*
X147052232Y-97364476D01*
X147052231Y-97364475D01*
X147052230Y-97364474D01*
X146963490Y-97300000D01*
X169724815Y-97300000D01*
X169743503Y-97477805D01*
X169743504Y-97477807D01*
X169798747Y-97647829D01*
X169798750Y-97647835D01*
X169888141Y-97802665D01*
X169905728Y-97822197D01*
X170007764Y-97935521D01*
X170007767Y-97935523D01*
X170007770Y-97935526D01*
X170152407Y-98040612D01*
X170315733Y-98113329D01*
X170490609Y-98150500D01*
X170490610Y-98150500D01*
X170669389Y-98150500D01*
X170669391Y-98150500D01*
X170844267Y-98113329D01*
X171007593Y-98040612D01*
X171099025Y-97974182D01*
X171164831Y-97950702D01*
X171171911Y-97950500D01*
X173188089Y-97950500D01*
X173255128Y-97970185D01*
X173260976Y-97974182D01*
X173352407Y-98040612D01*
X173515733Y-98113329D01*
X173690609Y-98150500D01*
X173690610Y-98150500D01*
X173869389Y-98150500D01*
X173869391Y-98150500D01*
X174044267Y-98113329D01*
X174207593Y-98040612D01*
X174352230Y-97935526D01*
X174471859Y-97802665D01*
X174561250Y-97647835D01*
X174616497Y-97477803D01*
X174635185Y-97300000D01*
X174616497Y-97122197D01*
X174561250Y-96952165D01*
X174509190Y-96861996D01*
X174492719Y-96794101D01*
X174509190Y-96738004D01*
X174561250Y-96647835D01*
X174616497Y-96477803D01*
X174635185Y-96300000D01*
X174616497Y-96122197D01*
X174575121Y-95994855D01*
X174561252Y-95952170D01*
X174561249Y-95952164D01*
X174536906Y-95910000D01*
X174471859Y-95797335D01*
X174425003Y-95745296D01*
X174352235Y-95664478D01*
X174352232Y-95664476D01*
X174352231Y-95664475D01*
X174352230Y-95664474D01*
X174207593Y-95559388D01*
X174044267Y-95486671D01*
X174044265Y-95486670D01*
X173916594Y-95459533D01*
X173869391Y-95449500D01*
X173690609Y-95449500D01*
X173659954Y-95456015D01*
X173515733Y-95486670D01*
X173515728Y-95486672D01*
X173352408Y-95559388D01*
X173352403Y-95559390D01*
X173260974Y-95625818D01*
X173195168Y-95649298D01*
X173188089Y-95649500D01*
X171171911Y-95649500D01*
X171104872Y-95629815D01*
X171099025Y-95625818D01*
X171083803Y-95614758D01*
X171007593Y-95559388D01*
X170844267Y-95486671D01*
X170844265Y-95486670D01*
X170716594Y-95459533D01*
X170669391Y-95449500D01*
X170490609Y-95449500D01*
X170459954Y-95456015D01*
X170315733Y-95486670D01*
X170315728Y-95486672D01*
X170152408Y-95559387D01*
X170007768Y-95664475D01*
X169888140Y-95797336D01*
X169798750Y-95952164D01*
X169798747Y-95952170D01*
X169743504Y-96122192D01*
X169743503Y-96122194D01*
X169724815Y-96300000D01*
X169743503Y-96477805D01*
X169743504Y-96477807D01*
X169798750Y-96647836D01*
X169850806Y-96738000D01*
X169867279Y-96805900D01*
X169850806Y-96862000D01*
X169798750Y-96952163D01*
X169743504Y-97122192D01*
X169743503Y-97122194D01*
X169724815Y-97300000D01*
X146963490Y-97300000D01*
X146907593Y-97259388D01*
X146744267Y-97186671D01*
X146744265Y-97186670D01*
X146616594Y-97159533D01*
X146569391Y-97149500D01*
X146390609Y-97149500D01*
X146359954Y-97156015D01*
X146215733Y-97186670D01*
X146215728Y-97186672D01*
X146052408Y-97259387D01*
X145907768Y-97364475D01*
X145788140Y-97497336D01*
X145698750Y-97652164D01*
X145698747Y-97652170D01*
X145643504Y-97822192D01*
X145643503Y-97822194D01*
X145637011Y-97883963D01*
X145610425Y-97948577D01*
X145601371Y-97958681D01*
X144841909Y-98718144D01*
X144780586Y-98751629D01*
X144780009Y-98751753D01*
X144615733Y-98786670D01*
X144615728Y-98786672D01*
X144452408Y-98859387D01*
X144307768Y-98964475D01*
X144188140Y-99097336D01*
X144098750Y-99252164D01*
X144098747Y-99252170D01*
X144043504Y-99422192D01*
X144043503Y-99422194D01*
X144024815Y-99600000D01*
X125739889Y-99600000D01*
X125742020Y-94897870D01*
X139629500Y-94897870D01*
X139629501Y-94897876D01*
X139635908Y-94957483D01*
X139686202Y-95092328D01*
X139686206Y-95092335D01*
X139772452Y-95207544D01*
X139772455Y-95207547D01*
X139887664Y-95293793D01*
X139887671Y-95293797D01*
X140022517Y-95344091D01*
X140022516Y-95344091D01*
X140029444Y-95344835D01*
X140082127Y-95350500D01*
X141877872Y-95350499D01*
X141937483Y-95344091D01*
X142072331Y-95293796D01*
X142187546Y-95207546D01*
X142273796Y-95092331D01*
X142322810Y-94960916D01*
X142364681Y-94904984D01*
X142430145Y-94880566D01*
X142498418Y-94895417D01*
X142526673Y-94916569D01*
X142648599Y-95038495D01*
X142741657Y-95103655D01*
X142842165Y-95174032D01*
X142842167Y-95174033D01*
X142842170Y-95174035D01*
X143056337Y-95273903D01*
X143284592Y-95335063D01*
X143461034Y-95350500D01*
X143519999Y-95355659D01*
X143520000Y-95355659D01*
X143520001Y-95355659D01*
X143578966Y-95350500D01*
X143755408Y-95335063D01*
X143983663Y-95273903D01*
X144197830Y-95174035D01*
X144391401Y-95038495D01*
X144558495Y-94871401D01*
X144688425Y-94685842D01*
X144743002Y-94642217D01*
X144812500Y-94635023D01*
X144874855Y-94666546D01*
X144891575Y-94685842D01*
X145021500Y-94871395D01*
X145021505Y-94871401D01*
X145188599Y-95038495D01*
X145281657Y-95103655D01*
X145382165Y-95174032D01*
X145382167Y-95174033D01*
X145382170Y-95174035D01*
X145596337Y-95273903D01*
X145824592Y-95335063D01*
X146001034Y-95350500D01*
X146059999Y-95355659D01*
X146060000Y-95355659D01*
X146060001Y-95355659D01*
X146118966Y-95350500D01*
X146295408Y-95335063D01*
X146523663Y-95273903D01*
X146737830Y-95174035D01*
X146931401Y-95038495D01*
X147098495Y-94871401D01*
X147228425Y-94685842D01*
X147283002Y-94642217D01*
X147352500Y-94635023D01*
X147414855Y-94666546D01*
X147431575Y-94685842D01*
X147561500Y-94871395D01*
X147561505Y-94871401D01*
X147728599Y-95038495D01*
X147821657Y-95103655D01*
X147922165Y-95174032D01*
X147922167Y-95174033D01*
X147922170Y-95174035D01*
X148136337Y-95273903D01*
X148364592Y-95335063D01*
X148541034Y-95350500D01*
X148599999Y-95355659D01*
X148600000Y-95355659D01*
X148600001Y-95355659D01*
X148658966Y-95350500D01*
X148835408Y-95335063D01*
X149063663Y-95273903D01*
X149277830Y-95174035D01*
X149471401Y-95038495D01*
X149638495Y-94871401D01*
X149768425Y-94685842D01*
X149823002Y-94642217D01*
X149892500Y-94635023D01*
X149954855Y-94666546D01*
X149971575Y-94685842D01*
X150101500Y-94871395D01*
X150101505Y-94871401D01*
X150268599Y-95038495D01*
X150361657Y-95103655D01*
X150462165Y-95174032D01*
X150462167Y-95174033D01*
X150462170Y-95174035D01*
X150676337Y-95273903D01*
X150904592Y-95335063D01*
X151081034Y-95350500D01*
X151139999Y-95355659D01*
X151140000Y-95355659D01*
X151140001Y-95355659D01*
X151198966Y-95350500D01*
X151375408Y-95335063D01*
X151603663Y-95273903D01*
X151817830Y-95174035D01*
X152011401Y-95038495D01*
X152178495Y-94871401D01*
X152308425Y-94685842D01*
X152363002Y-94642217D01*
X152432500Y-94635023D01*
X152494855Y-94666546D01*
X152511575Y-94685842D01*
X152641500Y-94871395D01*
X152641505Y-94871401D01*
X152808599Y-95038495D01*
X152901657Y-95103655D01*
X153002165Y-95174032D01*
X153002167Y-95174033D01*
X153002170Y-95174035D01*
X153216337Y-95273903D01*
X153444592Y-95335063D01*
X153621034Y-95350500D01*
X153679999Y-95355659D01*
X153680000Y-95355659D01*
X153680001Y-95355659D01*
X153738966Y-95350500D01*
X153915408Y-95335063D01*
X154143663Y-95273903D01*
X154357830Y-95174035D01*
X154551401Y-95038495D01*
X154718495Y-94871401D01*
X154848425Y-94685842D01*
X154903002Y-94642217D01*
X154972500Y-94635023D01*
X155034855Y-94666546D01*
X155051575Y-94685842D01*
X155181500Y-94871395D01*
X155181505Y-94871401D01*
X155348599Y-95038495D01*
X155441657Y-95103655D01*
X155542165Y-95174032D01*
X155542167Y-95174033D01*
X155542170Y-95174035D01*
X155756337Y-95273903D01*
X155984592Y-95335063D01*
X156161034Y-95350500D01*
X156219999Y-95355659D01*
X156220000Y-95355659D01*
X156220001Y-95355659D01*
X156278966Y-95350500D01*
X156455408Y-95335063D01*
X156683663Y-95273903D01*
X156897830Y-95174035D01*
X157091401Y-95038495D01*
X157258495Y-94871401D01*
X157388425Y-94685842D01*
X157443002Y-94642217D01*
X157512500Y-94635023D01*
X157574855Y-94666546D01*
X157591575Y-94685842D01*
X157721500Y-94871395D01*
X157721505Y-94871401D01*
X157888599Y-95038495D01*
X157981657Y-95103655D01*
X158082165Y-95174032D01*
X158082167Y-95174033D01*
X158082170Y-95174035D01*
X158296337Y-95273903D01*
X158524592Y-95335063D01*
X158701034Y-95350500D01*
X158759999Y-95355659D01*
X158760000Y-95355659D01*
X158760001Y-95355659D01*
X158818966Y-95350500D01*
X158995408Y-95335063D01*
X159223663Y-95273903D01*
X159437830Y-95174035D01*
X159631401Y-95038495D01*
X159798495Y-94871401D01*
X159928730Y-94685405D01*
X159983307Y-94641781D01*
X160052805Y-94634587D01*
X160115160Y-94666110D01*
X160131879Y-94685405D01*
X160261890Y-94871078D01*
X160428917Y-95038105D01*
X160622421Y-95173600D01*
X160836507Y-95273429D01*
X160836516Y-95273433D01*
X161050000Y-95330634D01*
X161050000Y-94433012D01*
X161107007Y-94465925D01*
X161234174Y-94500000D01*
X161365826Y-94500000D01*
X161492993Y-94465925D01*
X161550000Y-94433012D01*
X161550000Y-95330633D01*
X161763483Y-95273433D01*
X161763492Y-95273429D01*
X161977578Y-95173600D01*
X162171082Y-95038105D01*
X162338105Y-94871082D01*
X162468119Y-94685405D01*
X162522696Y-94641781D01*
X162592195Y-94634588D01*
X162654549Y-94666110D01*
X162671269Y-94685405D01*
X162801505Y-94871401D01*
X162968599Y-95038495D01*
X163061657Y-95103655D01*
X163162165Y-95174032D01*
X163162167Y-95174033D01*
X163162170Y-95174035D01*
X163376337Y-95273903D01*
X163604592Y-95335063D01*
X163781034Y-95350500D01*
X163839999Y-95355659D01*
X163840000Y-95355659D01*
X163840001Y-95355659D01*
X163898966Y-95350500D01*
X164075408Y-95335063D01*
X164303663Y-95273903D01*
X164517830Y-95174035D01*
X164711401Y-95038495D01*
X164878495Y-94871401D01*
X165014035Y-94677830D01*
X165113903Y-94463663D01*
X165175063Y-94235408D01*
X165195659Y-94000000D01*
X165175063Y-93764592D01*
X165113903Y-93536337D01*
X165014035Y-93322171D01*
X165008731Y-93314595D01*
X164878494Y-93128597D01*
X164711402Y-92961506D01*
X164711395Y-92961501D01*
X164517834Y-92825967D01*
X164517830Y-92825965D01*
X164517828Y-92825964D01*
X164303663Y-92726097D01*
X164303659Y-92726096D01*
X164303655Y-92726094D01*
X164075413Y-92664938D01*
X164075403Y-92664936D01*
X163840001Y-92644341D01*
X163839999Y-92644341D01*
X163604596Y-92664936D01*
X163604586Y-92664938D01*
X163376344Y-92726094D01*
X163376335Y-92726098D01*
X163162171Y-92825964D01*
X163162169Y-92825965D01*
X162968597Y-92961505D01*
X162801508Y-93128594D01*
X162671269Y-93314595D01*
X162616692Y-93358219D01*
X162547193Y-93365412D01*
X162484839Y-93333890D01*
X162468119Y-93314594D01*
X162338113Y-93128926D01*
X162338108Y-93128920D01*
X162171082Y-92961894D01*
X161977578Y-92826399D01*
X161763492Y-92726570D01*
X161763486Y-92726567D01*
X161550000Y-92669364D01*
X161550000Y-93566988D01*
X161492993Y-93534075D01*
X161365826Y-93500000D01*
X161234174Y-93500000D01*
X161107007Y-93534075D01*
X161050000Y-93566988D01*
X161050000Y-92669364D01*
X161049999Y-92669364D01*
X160836513Y-92726567D01*
X160836507Y-92726570D01*
X160622422Y-92826399D01*
X160622420Y-92826400D01*
X160428926Y-92961886D01*
X160428920Y-92961891D01*
X160261891Y-93128920D01*
X160261890Y-93128922D01*
X160131880Y-93314595D01*
X160077303Y-93358219D01*
X160007804Y-93365412D01*
X159945450Y-93333890D01*
X159928730Y-93314594D01*
X159798494Y-93128597D01*
X159631402Y-92961506D01*
X159631395Y-92961501D01*
X159437834Y-92825967D01*
X159437830Y-92825965D01*
X159437828Y-92825964D01*
X159223663Y-92726097D01*
X159223659Y-92726096D01*
X159223655Y-92726094D01*
X158995413Y-92664938D01*
X158995403Y-92664936D01*
X158760001Y-92644341D01*
X158759999Y-92644341D01*
X158524596Y-92664936D01*
X158524586Y-92664938D01*
X158296344Y-92726094D01*
X158296335Y-92726098D01*
X158082171Y-92825964D01*
X158082169Y-92825965D01*
X157888597Y-92961505D01*
X157721505Y-93128597D01*
X157591575Y-93314158D01*
X157536998Y-93357783D01*
X157467500Y-93364977D01*
X157405145Y-93333454D01*
X157388425Y-93314158D01*
X157258494Y-93128597D01*
X157091402Y-92961506D01*
X157091395Y-92961501D01*
X156897834Y-92825967D01*
X156897830Y-92825965D01*
X156897828Y-92825964D01*
X156683663Y-92726097D01*
X156683659Y-92726096D01*
X156683655Y-92726094D01*
X156455413Y-92664938D01*
X156455403Y-92664936D01*
X156220001Y-92644341D01*
X156219999Y-92644341D01*
X155984596Y-92664936D01*
X155984586Y-92664938D01*
X155756344Y-92726094D01*
X155756335Y-92726098D01*
X155542171Y-92825964D01*
X155542169Y-92825965D01*
X155348597Y-92961505D01*
X155181505Y-93128597D01*
X155051575Y-93314158D01*
X154996998Y-93357783D01*
X154927500Y-93364977D01*
X154865145Y-93333454D01*
X154848425Y-93314158D01*
X154718494Y-93128597D01*
X154551402Y-92961506D01*
X154551395Y-92961501D01*
X154357834Y-92825967D01*
X154357830Y-92825965D01*
X154357828Y-92825964D01*
X154143663Y-92726097D01*
X154143659Y-92726096D01*
X154143655Y-92726094D01*
X153915413Y-92664938D01*
X153915403Y-92664936D01*
X153680001Y-92644341D01*
X153679999Y-92644341D01*
X153444596Y-92664936D01*
X153444586Y-92664938D01*
X153216344Y-92726094D01*
X153216335Y-92726098D01*
X153002171Y-92825964D01*
X153002169Y-92825965D01*
X152808597Y-92961505D01*
X152641505Y-93128597D01*
X152511575Y-93314158D01*
X152456998Y-93357783D01*
X152387500Y-93364977D01*
X152325145Y-93333454D01*
X152308425Y-93314158D01*
X152178494Y-93128597D01*
X152011402Y-92961506D01*
X152011395Y-92961501D01*
X151817834Y-92825967D01*
X151817830Y-92825965D01*
X151817828Y-92825964D01*
X151603663Y-92726097D01*
X151603659Y-92726096D01*
X151603655Y-92726094D01*
X151375413Y-92664938D01*
X151375403Y-92664936D01*
X151140001Y-92644341D01*
X151139999Y-92644341D01*
X150904596Y-92664936D01*
X150904586Y-92664938D01*
X150676344Y-92726094D01*
X150676335Y-92726098D01*
X150462171Y-92825964D01*
X150462169Y-92825965D01*
X150268597Y-92961505D01*
X150101505Y-93128597D01*
X149971575Y-93314158D01*
X149916998Y-93357783D01*
X149847500Y-93364977D01*
X149785145Y-93333454D01*
X149768425Y-93314158D01*
X149638494Y-93128597D01*
X149471402Y-92961506D01*
X149471395Y-92961501D01*
X149277834Y-92825967D01*
X149277830Y-92825965D01*
X149277828Y-92825964D01*
X149063663Y-92726097D01*
X149063659Y-92726096D01*
X149063655Y-92726094D01*
X148835413Y-92664938D01*
X148835403Y-92664936D01*
X148600001Y-92644341D01*
X148599999Y-92644341D01*
X148364596Y-92664936D01*
X148364586Y-92664938D01*
X148136344Y-92726094D01*
X148136335Y-92726098D01*
X147922171Y-92825964D01*
X147922169Y-92825965D01*
X147728597Y-92961505D01*
X147561505Y-93128597D01*
X147431575Y-93314158D01*
X147376998Y-93357783D01*
X147307500Y-93364977D01*
X147245145Y-93333454D01*
X147228425Y-93314158D01*
X147098494Y-93128597D01*
X146931402Y-92961506D01*
X146931395Y-92961501D01*
X146737834Y-92825967D01*
X146737830Y-92825965D01*
X146737828Y-92825964D01*
X146523663Y-92726097D01*
X146523659Y-92726096D01*
X146523655Y-92726094D01*
X146295413Y-92664938D01*
X146295403Y-92664936D01*
X146060001Y-92644341D01*
X146059999Y-92644341D01*
X145824596Y-92664936D01*
X145824586Y-92664938D01*
X145596344Y-92726094D01*
X145596335Y-92726098D01*
X145382171Y-92825964D01*
X145382169Y-92825965D01*
X145188597Y-92961505D01*
X145021505Y-93128597D01*
X144891575Y-93314158D01*
X144836998Y-93357783D01*
X144767500Y-93364977D01*
X144705145Y-93333454D01*
X144688425Y-93314158D01*
X144558494Y-93128597D01*
X144391402Y-92961506D01*
X144391395Y-92961501D01*
X144197834Y-92825967D01*
X144197830Y-92825965D01*
X144197828Y-92825964D01*
X143983663Y-92726097D01*
X143983659Y-92726096D01*
X143983655Y-92726094D01*
X143755413Y-92664938D01*
X143755403Y-92664936D01*
X143520001Y-92644341D01*
X143519999Y-92644341D01*
X143284596Y-92664936D01*
X143284586Y-92664938D01*
X143056344Y-92726094D01*
X143056335Y-92726098D01*
X142842171Y-92825964D01*
X142842169Y-92825965D01*
X142648600Y-92961503D01*
X142526673Y-93083430D01*
X142465350Y-93116914D01*
X142395658Y-93111930D01*
X142339725Y-93070058D01*
X142322810Y-93039081D01*
X142273797Y-92907671D01*
X142273793Y-92907664D01*
X142187547Y-92792455D01*
X142187544Y-92792452D01*
X142072335Y-92706206D01*
X142072328Y-92706202D01*
X141937482Y-92655908D01*
X141937483Y-92655908D01*
X141877883Y-92649501D01*
X141877881Y-92649500D01*
X141877873Y-92649500D01*
X141877864Y-92649500D01*
X140082129Y-92649500D01*
X140082123Y-92649501D01*
X140022516Y-92655908D01*
X139887671Y-92706202D01*
X139887664Y-92706206D01*
X139772455Y-92792452D01*
X139772452Y-92792455D01*
X139686206Y-92907664D01*
X139686202Y-92907671D01*
X139635908Y-93042517D01*
X139629501Y-93102116D01*
X139629500Y-93102135D01*
X139629500Y-94897870D01*
X125742020Y-94897870D01*
X125744385Y-89680000D01*
X132844341Y-89680000D01*
X132864936Y-89915403D01*
X132864938Y-89915413D01*
X132926094Y-90143655D01*
X132926096Y-90143659D01*
X132926097Y-90143663D01*
X133025965Y-90357830D01*
X133025967Y-90357834D01*
X133134281Y-90512521D01*
X133161505Y-90551401D01*
X133328599Y-90718495D01*
X133382737Y-90756403D01*
X133522165Y-90854032D01*
X133522167Y-90854033D01*
X133522170Y-90854035D01*
X133736337Y-90953903D01*
X133964592Y-91015063D01*
X134152918Y-91031539D01*
X134199999Y-91035659D01*
X134200000Y-91035659D01*
X134200001Y-91035659D01*
X134239234Y-91032226D01*
X134435408Y-91015063D01*
X134663663Y-90953903D01*
X134877830Y-90854035D01*
X135071401Y-90718495D01*
X135238495Y-90551401D01*
X135374035Y-90357830D01*
X135473903Y-90143663D01*
X135535063Y-89915408D01*
X135555659Y-89680000D01*
X135535063Y-89444592D01*
X135473903Y-89216337D01*
X135374035Y-89002171D01*
X135238495Y-88808599D01*
X135238494Y-88808597D01*
X135071402Y-88641506D01*
X135071396Y-88641501D01*
X134885842Y-88511575D01*
X134842217Y-88456998D01*
X134835023Y-88387500D01*
X134866546Y-88325145D01*
X134885842Y-88308425D01*
X134908026Y-88292891D01*
X135071401Y-88178495D01*
X135238495Y-88011401D01*
X135374035Y-87817830D01*
X135473903Y-87603663D01*
X135535063Y-87375408D01*
X135555659Y-87140000D01*
X135535063Y-86904592D01*
X135473903Y-86676337D01*
X135374035Y-86462171D01*
X135238495Y-86268599D01*
X135116179Y-86146283D01*
X135082696Y-86084963D01*
X135087680Y-86015271D01*
X135129551Y-85959337D01*
X135160529Y-85942422D01*
X135292086Y-85893354D01*
X135292093Y-85893350D01*
X135407187Y-85807190D01*
X135407190Y-85807187D01*
X135493350Y-85692093D01*
X135493354Y-85692086D01*
X135543596Y-85557379D01*
X135543598Y-85557372D01*
X135549999Y-85497844D01*
X135550000Y-85497827D01*
X135550000Y-84850000D01*
X134633012Y-84850000D01*
X134665925Y-84792993D01*
X134700000Y-84665826D01*
X134700000Y-84534174D01*
X134665925Y-84407007D01*
X134633012Y-84350000D01*
X135550000Y-84350000D01*
X135550000Y-83702172D01*
X135549999Y-83702155D01*
X135543598Y-83642627D01*
X135543596Y-83642620D01*
X135493354Y-83507913D01*
X135493350Y-83507906D01*
X135407190Y-83392812D01*
X135407187Y-83392809D01*
X135292093Y-83306649D01*
X135292086Y-83306645D01*
X135157379Y-83256403D01*
X135157372Y-83256401D01*
X135097844Y-83250000D01*
X134450000Y-83250000D01*
X134450000Y-84166988D01*
X134392993Y-84134075D01*
X134265826Y-84100000D01*
X134134174Y-84100000D01*
X134007007Y-84134075D01*
X133950000Y-84166988D01*
X133950000Y-83250000D01*
X133302155Y-83250000D01*
X133242627Y-83256401D01*
X133242620Y-83256403D01*
X133107913Y-83306645D01*
X133107906Y-83306649D01*
X132992812Y-83392809D01*
X132992809Y-83392812D01*
X132906649Y-83507906D01*
X132906645Y-83507913D01*
X132856403Y-83642620D01*
X132856401Y-83642627D01*
X132850000Y-83702155D01*
X132850000Y-84350000D01*
X133766988Y-84350000D01*
X133734075Y-84407007D01*
X133700000Y-84534174D01*
X133700000Y-84665826D01*
X133734075Y-84792993D01*
X133766988Y-84850000D01*
X132850000Y-84850000D01*
X132850000Y-85497844D01*
X132856401Y-85557372D01*
X132856403Y-85557379D01*
X132906645Y-85692086D01*
X132906649Y-85692093D01*
X132992809Y-85807187D01*
X132992812Y-85807190D01*
X133107906Y-85893350D01*
X133107913Y-85893354D01*
X133239470Y-85942421D01*
X133295403Y-85984292D01*
X133319821Y-86049756D01*
X133304970Y-86118029D01*
X133283819Y-86146284D01*
X133161503Y-86268600D01*
X133025965Y-86462169D01*
X133025964Y-86462171D01*
X132926098Y-86676335D01*
X132926094Y-86676344D01*
X132864938Y-86904586D01*
X132864936Y-86904596D01*
X132844341Y-87139999D01*
X132844341Y-87140000D01*
X132864936Y-87375403D01*
X132864938Y-87375413D01*
X132926094Y-87603655D01*
X132926096Y-87603659D01*
X132926097Y-87603663D01*
X133025965Y-87817830D01*
X133025967Y-87817834D01*
X133161501Y-88011395D01*
X133161506Y-88011402D01*
X133328597Y-88178493D01*
X133328603Y-88178498D01*
X133514158Y-88308425D01*
X133557783Y-88363002D01*
X133564977Y-88432500D01*
X133533454Y-88494855D01*
X133514158Y-88511575D01*
X133328597Y-88641505D01*
X133161505Y-88808597D01*
X133025965Y-89002169D01*
X133025964Y-89002171D01*
X132926098Y-89216335D01*
X132926094Y-89216344D01*
X132864938Y-89444586D01*
X132864936Y-89444596D01*
X132844341Y-89679999D01*
X132844341Y-89680000D01*
X125744385Y-89680000D01*
X125747865Y-82000004D01*
X168694451Y-82000004D01*
X168714616Y-82269101D01*
X168774664Y-82532188D01*
X168774666Y-82532195D01*
X168873257Y-82783398D01*
X169008185Y-83017102D01*
X169144080Y-83187509D01*
X169176442Y-83228089D01*
X169353969Y-83392809D01*
X169374259Y-83411635D01*
X169597226Y-83563651D01*
X169840359Y-83680738D01*
X170098228Y-83760280D01*
X170098229Y-83760280D01*
X170098232Y-83760281D01*
X170365063Y-83800499D01*
X170365068Y-83800499D01*
X170365071Y-83800500D01*
X170365072Y-83800500D01*
X170634928Y-83800500D01*
X170634929Y-83800500D01*
X170634936Y-83800499D01*
X170901767Y-83760281D01*
X170901768Y-83760280D01*
X170901772Y-83760280D01*
X171159641Y-83680738D01*
X171402775Y-83563651D01*
X171625741Y-83411635D01*
X171694463Y-83347870D01*
X173779500Y-83347870D01*
X173779501Y-83347876D01*
X173785908Y-83407483D01*
X173836202Y-83542328D01*
X173836206Y-83542335D01*
X173922452Y-83657544D01*
X173922455Y-83657547D01*
X174037664Y-83743793D01*
X174037671Y-83743797D01*
X174172517Y-83794091D01*
X174172516Y-83794091D01*
X174179444Y-83794835D01*
X174232127Y-83800500D01*
X176927872Y-83800499D01*
X176987483Y-83794091D01*
X177122331Y-83743796D01*
X177237546Y-83657546D01*
X177323796Y-83542331D01*
X177374091Y-83407483D01*
X177380500Y-83347873D01*
X177380499Y-80652128D01*
X177374091Y-80592517D01*
X177372542Y-80588365D01*
X177323797Y-80457671D01*
X177323793Y-80457664D01*
X177237547Y-80342455D01*
X177237544Y-80342452D01*
X177122335Y-80256206D01*
X177122328Y-80256202D01*
X176987482Y-80205908D01*
X176987483Y-80205908D01*
X176927883Y-80199501D01*
X176927881Y-80199500D01*
X176927873Y-80199500D01*
X176927864Y-80199500D01*
X174232129Y-80199500D01*
X174232123Y-80199501D01*
X174172516Y-80205908D01*
X174037671Y-80256202D01*
X174037664Y-80256206D01*
X173922455Y-80342452D01*
X173922452Y-80342455D01*
X173836206Y-80457664D01*
X173836202Y-80457671D01*
X173785908Y-80592517D01*
X173779501Y-80652116D01*
X173779501Y-80652123D01*
X173779500Y-80652135D01*
X173779500Y-83347870D01*
X171694463Y-83347870D01*
X171779259Y-83269190D01*
X171823557Y-83228089D01*
X171823557Y-83228087D01*
X171823561Y-83228085D01*
X171991815Y-83017102D01*
X172126743Y-82783398D01*
X172225334Y-82532195D01*
X172285383Y-82269103D01*
X172305549Y-82000000D01*
X172285383Y-81730897D01*
X172225334Y-81467805D01*
X172126743Y-81216602D01*
X171991815Y-80982898D01*
X171823561Y-80771915D01*
X171823560Y-80771914D01*
X171823557Y-80771910D01*
X171625741Y-80588365D01*
X171402775Y-80436349D01*
X171402769Y-80436346D01*
X171402768Y-80436345D01*
X171402767Y-80436344D01*
X171159643Y-80319263D01*
X171159645Y-80319263D01*
X170901773Y-80239720D01*
X170901767Y-80239718D01*
X170634936Y-80199500D01*
X170634929Y-80199500D01*
X170365071Y-80199500D01*
X170365063Y-80199500D01*
X170098232Y-80239718D01*
X170098226Y-80239720D01*
X169840358Y-80319262D01*
X169597230Y-80436346D01*
X169374258Y-80588365D01*
X169176442Y-80771910D01*
X169008185Y-80982898D01*
X168873258Y-81216599D01*
X168873256Y-81216603D01*
X168774666Y-81467804D01*
X168774664Y-81467811D01*
X168714616Y-81730898D01*
X168694451Y-81999995D01*
X168694451Y-82000004D01*
X125747865Y-82000004D01*
X125749126Y-79218097D01*
X126979500Y-79218097D01*
X127016446Y-79451368D01*
X127089433Y-79675996D01*
X127194644Y-79882483D01*
X127196657Y-79886433D01*
X127335483Y-80077510D01*
X127502490Y-80244517D01*
X127693567Y-80383343D01*
X127792991Y-80434002D01*
X127904003Y-80490566D01*
X127904005Y-80490566D01*
X127904008Y-80490568D01*
X128024412Y-80529689D01*
X128128631Y-80563553D01*
X128361903Y-80600500D01*
X128361908Y-80600500D01*
X128598097Y-80600500D01*
X128831368Y-80563553D01*
X129055992Y-80490568D01*
X129266433Y-80383343D01*
X129457510Y-80244517D01*
X129624517Y-80077510D01*
X129763343Y-79886433D01*
X129795730Y-79822870D01*
X139639500Y-79822870D01*
X139639501Y-79822876D01*
X139645908Y-79882483D01*
X139696202Y-80017328D01*
X139696206Y-80017335D01*
X139782452Y-80132544D01*
X139782455Y-80132547D01*
X139897664Y-80218793D01*
X139897671Y-80218797D01*
X140032517Y-80269091D01*
X140032516Y-80269091D01*
X140039444Y-80269835D01*
X140092127Y-80275500D01*
X141887872Y-80275499D01*
X141947483Y-80269091D01*
X142082331Y-80218796D01*
X142197546Y-80132546D01*
X142283796Y-80017331D01*
X142332810Y-79885916D01*
X142374681Y-79829984D01*
X142440145Y-79805566D01*
X142508418Y-79820417D01*
X142536673Y-79841569D01*
X142658599Y-79963495D01*
X142755384Y-80031265D01*
X142852165Y-80099032D01*
X142852167Y-80099033D01*
X142852170Y-80099035D01*
X143066337Y-80198903D01*
X143066343Y-80198904D01*
X143066344Y-80198905D01*
X143092480Y-80205908D01*
X143294592Y-80260063D01*
X143471034Y-80275500D01*
X143529999Y-80280659D01*
X143530000Y-80280659D01*
X143530001Y-80280659D01*
X143588966Y-80275500D01*
X143765408Y-80260063D01*
X143993663Y-80198903D01*
X144207830Y-80099035D01*
X144401401Y-79963495D01*
X144568495Y-79796401D01*
X144698425Y-79610842D01*
X144753002Y-79567217D01*
X144822500Y-79560023D01*
X144884855Y-79591546D01*
X144901575Y-79610842D01*
X145031500Y-79796395D01*
X145031505Y-79796401D01*
X145198599Y-79963495D01*
X145295384Y-80031265D01*
X145392165Y-80099032D01*
X145392167Y-80099033D01*
X145392170Y-80099035D01*
X145606337Y-80198903D01*
X145606343Y-80198904D01*
X145606344Y-80198905D01*
X145632480Y-80205908D01*
X145834592Y-80260063D01*
X146011034Y-80275500D01*
X146069999Y-80280659D01*
X146070000Y-80280659D01*
X146070001Y-80280659D01*
X146128966Y-80275500D01*
X146305408Y-80260063D01*
X146533663Y-80198903D01*
X146747830Y-80099035D01*
X146941401Y-79963495D01*
X147108495Y-79796401D01*
X147238425Y-79610842D01*
X147293002Y-79567217D01*
X147362500Y-79560023D01*
X147424855Y-79591546D01*
X147441575Y-79610842D01*
X147571500Y-79796395D01*
X147571505Y-79796401D01*
X147738599Y-79963495D01*
X147835384Y-80031265D01*
X147932165Y-80099032D01*
X147932167Y-80099033D01*
X147932170Y-80099035D01*
X148146337Y-80198903D01*
X148146343Y-80198904D01*
X148146344Y-80198905D01*
X148172480Y-80205908D01*
X148374592Y-80260063D01*
X148551034Y-80275500D01*
X148609999Y-80280659D01*
X148610000Y-80280659D01*
X148610001Y-80280659D01*
X148668966Y-80275500D01*
X148845408Y-80260063D01*
X149073663Y-80198903D01*
X149287830Y-80099035D01*
X149481401Y-79963495D01*
X149648495Y-79796401D01*
X149778425Y-79610842D01*
X149833002Y-79567217D01*
X149902500Y-79560023D01*
X149964855Y-79591546D01*
X149981575Y-79610842D01*
X150111500Y-79796395D01*
X150111505Y-79796401D01*
X150278599Y-79963495D01*
X150375384Y-80031265D01*
X150472165Y-80099032D01*
X150472167Y-80099033D01*
X150472170Y-80099035D01*
X150686337Y-80198903D01*
X150686343Y-80198904D01*
X150686344Y-80198905D01*
X150712480Y-80205908D01*
X150914592Y-80260063D01*
X151091034Y-80275500D01*
X151149999Y-80280659D01*
X151150000Y-80280659D01*
X151150001Y-80280659D01*
X151208966Y-80275500D01*
X151385408Y-80260063D01*
X151613663Y-80198903D01*
X151827830Y-80099035D01*
X152021401Y-79963495D01*
X152188495Y-79796401D01*
X152318425Y-79610842D01*
X152373002Y-79567217D01*
X152442500Y-79560023D01*
X152504855Y-79591546D01*
X152521575Y-79610842D01*
X152651500Y-79796395D01*
X152651505Y-79796401D01*
X152818599Y-79963495D01*
X152915384Y-80031265D01*
X153012165Y-80099032D01*
X153012167Y-80099033D01*
X153012170Y-80099035D01*
X153226337Y-80198903D01*
X153226343Y-80198904D01*
X153226344Y-80198905D01*
X153252480Y-80205908D01*
X153454592Y-80260063D01*
X153631034Y-80275500D01*
X153689999Y-80280659D01*
X153690000Y-80280659D01*
X153690001Y-80280659D01*
X153748966Y-80275500D01*
X153925408Y-80260063D01*
X154153663Y-80198903D01*
X154367830Y-80099035D01*
X154561401Y-79963495D01*
X154728495Y-79796401D01*
X154858425Y-79610842D01*
X154913002Y-79567217D01*
X154982500Y-79560023D01*
X155044855Y-79591546D01*
X155061575Y-79610842D01*
X155191500Y-79796395D01*
X155191505Y-79796401D01*
X155358599Y-79963495D01*
X155455384Y-80031265D01*
X155552165Y-80099032D01*
X155552167Y-80099033D01*
X155552170Y-80099035D01*
X155766337Y-80198903D01*
X155766343Y-80198904D01*
X155766344Y-80198905D01*
X155792480Y-80205908D01*
X155994592Y-80260063D01*
X156171034Y-80275500D01*
X156229999Y-80280659D01*
X156230000Y-80280659D01*
X156230001Y-80280659D01*
X156288966Y-80275500D01*
X156465408Y-80260063D01*
X156693663Y-80198903D01*
X156907830Y-80099035D01*
X157101401Y-79963495D01*
X157268495Y-79796401D01*
X157398425Y-79610842D01*
X157453002Y-79567217D01*
X157522500Y-79560023D01*
X157584855Y-79591546D01*
X157601575Y-79610842D01*
X157731500Y-79796395D01*
X157731505Y-79796401D01*
X157898599Y-79963495D01*
X157995384Y-80031265D01*
X158092165Y-80099032D01*
X158092167Y-80099033D01*
X158092170Y-80099035D01*
X158306337Y-80198903D01*
X158306343Y-80198904D01*
X158306344Y-80198905D01*
X158332480Y-80205908D01*
X158534592Y-80260063D01*
X158711034Y-80275500D01*
X158769999Y-80280659D01*
X158770000Y-80280659D01*
X158770001Y-80280659D01*
X158828966Y-80275500D01*
X159005408Y-80260063D01*
X159233663Y-80198903D01*
X159447830Y-80099035D01*
X159641401Y-79963495D01*
X159808495Y-79796401D01*
X159938425Y-79610842D01*
X159993002Y-79567217D01*
X160062500Y-79560023D01*
X160124855Y-79591546D01*
X160141575Y-79610842D01*
X160271500Y-79796395D01*
X160271505Y-79796401D01*
X160438599Y-79963495D01*
X160535384Y-80031265D01*
X160632165Y-80099032D01*
X160632167Y-80099033D01*
X160632170Y-80099035D01*
X160846337Y-80198903D01*
X160846343Y-80198904D01*
X160846344Y-80198905D01*
X160872480Y-80205908D01*
X161074592Y-80260063D01*
X161251034Y-80275500D01*
X161309999Y-80280659D01*
X161310000Y-80280659D01*
X161310001Y-80280659D01*
X161368966Y-80275500D01*
X161545408Y-80260063D01*
X161773663Y-80198903D01*
X161987830Y-80099035D01*
X162181401Y-79963495D01*
X162348495Y-79796401D01*
X162478425Y-79610842D01*
X162533002Y-79567217D01*
X162602500Y-79560023D01*
X162664855Y-79591546D01*
X162681575Y-79610842D01*
X162811500Y-79796395D01*
X162811505Y-79796401D01*
X162978599Y-79963495D01*
X163075384Y-80031265D01*
X163172165Y-80099032D01*
X163172167Y-80099033D01*
X163172170Y-80099035D01*
X163386337Y-80198903D01*
X163386343Y-80198904D01*
X163386344Y-80198905D01*
X163412480Y-80205908D01*
X163614592Y-80260063D01*
X163791034Y-80275500D01*
X163849999Y-80280659D01*
X163850000Y-80280659D01*
X163850001Y-80280659D01*
X163908966Y-80275500D01*
X164085408Y-80260063D01*
X164313663Y-80198903D01*
X164527830Y-80099035D01*
X164721401Y-79963495D01*
X164888495Y-79796401D01*
X165024035Y-79602830D01*
X165123903Y-79388663D01*
X165169605Y-79218097D01*
X182979500Y-79218097D01*
X183016446Y-79451368D01*
X183089433Y-79675996D01*
X183194644Y-79882483D01*
X183196657Y-79886433D01*
X183335483Y-80077510D01*
X183502490Y-80244517D01*
X183693567Y-80383343D01*
X183792991Y-80434002D01*
X183904003Y-80490566D01*
X183904005Y-80490566D01*
X183904008Y-80490568D01*
X184024412Y-80529689D01*
X184128631Y-80563553D01*
X184361903Y-80600500D01*
X184361908Y-80600500D01*
X184598097Y-80600500D01*
X184831368Y-80563553D01*
X185055992Y-80490568D01*
X185266433Y-80383343D01*
X185457510Y-80244517D01*
X185624517Y-80077510D01*
X185763343Y-79886433D01*
X185870568Y-79675992D01*
X185943553Y-79451368D01*
X185953484Y-79388664D01*
X185980500Y-79218097D01*
X185980500Y-78981902D01*
X185943553Y-78748631D01*
X185909689Y-78644412D01*
X185870568Y-78524008D01*
X185870566Y-78524005D01*
X185870566Y-78524003D01*
X185763342Y-78313566D01*
X185624517Y-78122490D01*
X185457510Y-77955483D01*
X185266433Y-77816657D01*
X185055996Y-77709433D01*
X184831368Y-77636446D01*
X184598097Y-77599500D01*
X184598092Y-77599500D01*
X184361908Y-77599500D01*
X184361903Y-77599500D01*
X184128631Y-77636446D01*
X183904003Y-77709433D01*
X183693566Y-77816657D01*
X183597430Y-77886505D01*
X183502490Y-77955483D01*
X183502488Y-77955485D01*
X183502487Y-77955485D01*
X183335485Y-78122487D01*
X183335485Y-78122488D01*
X183335483Y-78122490D01*
X183289095Y-78186338D01*
X183196657Y-78313566D01*
X183089433Y-78524003D01*
X183016446Y-78748631D01*
X182979500Y-78981902D01*
X182979500Y-79218097D01*
X165169605Y-79218097D01*
X165185063Y-79160408D01*
X165205659Y-78925000D01*
X165185063Y-78689592D01*
X165123903Y-78461337D01*
X165024035Y-78247171D01*
X165018425Y-78239158D01*
X164888494Y-78053597D01*
X164721402Y-77886506D01*
X164721395Y-77886501D01*
X164527834Y-77750967D01*
X164527830Y-77750965D01*
X164527828Y-77750964D01*
X164313663Y-77651097D01*
X164313659Y-77651096D01*
X164313655Y-77651094D01*
X164085413Y-77589938D01*
X164085403Y-77589936D01*
X163850001Y-77569341D01*
X163849999Y-77569341D01*
X163614596Y-77589936D01*
X163614586Y-77589938D01*
X163386344Y-77651094D01*
X163386335Y-77651098D01*
X163172171Y-77750964D01*
X163172169Y-77750965D01*
X162978597Y-77886505D01*
X162811505Y-78053597D01*
X162681575Y-78239158D01*
X162626998Y-78282783D01*
X162557500Y-78289977D01*
X162495145Y-78258454D01*
X162478425Y-78239158D01*
X162348494Y-78053597D01*
X162181402Y-77886506D01*
X162181395Y-77886501D01*
X161987834Y-77750967D01*
X161987830Y-77750965D01*
X161987828Y-77750964D01*
X161773663Y-77651097D01*
X161773659Y-77651096D01*
X161773655Y-77651094D01*
X161545413Y-77589938D01*
X161545403Y-77589936D01*
X161310001Y-77569341D01*
X161309999Y-77569341D01*
X161074596Y-77589936D01*
X161074586Y-77589938D01*
X160846344Y-77651094D01*
X160846335Y-77651098D01*
X160632171Y-77750964D01*
X160632169Y-77750965D01*
X160438597Y-77886505D01*
X160271505Y-78053597D01*
X160141575Y-78239158D01*
X160086998Y-78282783D01*
X160017500Y-78289977D01*
X159955145Y-78258454D01*
X159938425Y-78239158D01*
X159808494Y-78053597D01*
X159641402Y-77886506D01*
X159641395Y-77886501D01*
X159447834Y-77750967D01*
X159447830Y-77750965D01*
X159447828Y-77750964D01*
X159233663Y-77651097D01*
X159233659Y-77651096D01*
X159233655Y-77651094D01*
X159005413Y-77589938D01*
X159005403Y-77589936D01*
X158770001Y-77569341D01*
X158769999Y-77569341D01*
X158534596Y-77589936D01*
X158534586Y-77589938D01*
X158306344Y-77651094D01*
X158306335Y-77651098D01*
X158092171Y-77750964D01*
X158092169Y-77750965D01*
X157898597Y-77886505D01*
X157731505Y-78053597D01*
X157601575Y-78239158D01*
X157546998Y-78282783D01*
X157477500Y-78289977D01*
X157415145Y-78258454D01*
X157398425Y-78239158D01*
X157268494Y-78053597D01*
X157101402Y-77886506D01*
X157101395Y-77886501D01*
X156907834Y-77750967D01*
X156907830Y-77750965D01*
X156907828Y-77750964D01*
X156693663Y-77651097D01*
X156693659Y-77651096D01*
X156693655Y-77651094D01*
X156465413Y-77589938D01*
X156465403Y-77589936D01*
X156230001Y-77569341D01*
X156229999Y-77569341D01*
X155994596Y-77589936D01*
X155994586Y-77589938D01*
X155766344Y-77651094D01*
X155766335Y-77651098D01*
X155552171Y-77750964D01*
X155552169Y-77750965D01*
X155358597Y-77886505D01*
X155191505Y-78053597D01*
X155061575Y-78239158D01*
X155006998Y-78282783D01*
X154937500Y-78289977D01*
X154875145Y-78258454D01*
X154858425Y-78239158D01*
X154728494Y-78053597D01*
X154561402Y-77886506D01*
X154561395Y-77886501D01*
X154367834Y-77750967D01*
X154367830Y-77750965D01*
X154367828Y-77750964D01*
X154153663Y-77651097D01*
X154153659Y-77651096D01*
X154153655Y-77651094D01*
X153925413Y-77589938D01*
X153925403Y-77589936D01*
X153690001Y-77569341D01*
X153689999Y-77569341D01*
X153454596Y-77589936D01*
X153454586Y-77589938D01*
X153226344Y-77651094D01*
X153226335Y-77651098D01*
X153012171Y-77750964D01*
X153012169Y-77750965D01*
X152818597Y-77886505D01*
X152651505Y-78053597D01*
X152521575Y-78239158D01*
X152466998Y-78282783D01*
X152397500Y-78289977D01*
X152335145Y-78258454D01*
X152318425Y-78239158D01*
X152188494Y-78053597D01*
X152021402Y-77886506D01*
X152021395Y-77886501D01*
X151827834Y-77750967D01*
X151827830Y-77750965D01*
X151827828Y-77750964D01*
X151613663Y-77651097D01*
X151613659Y-77651096D01*
X151613655Y-77651094D01*
X151385413Y-77589938D01*
X151385403Y-77589936D01*
X151150001Y-77569341D01*
X151149999Y-77569341D01*
X150914596Y-77589936D01*
X150914586Y-77589938D01*
X150686344Y-77651094D01*
X150686335Y-77651098D01*
X150472171Y-77750964D01*
X150472169Y-77750965D01*
X150278597Y-77886505D01*
X150111505Y-78053597D01*
X149981575Y-78239158D01*
X149926998Y-78282783D01*
X149857500Y-78289977D01*
X149795145Y-78258454D01*
X149778425Y-78239158D01*
X149648494Y-78053597D01*
X149481402Y-77886506D01*
X149481395Y-77886501D01*
X149287834Y-77750967D01*
X149287830Y-77750965D01*
X149287828Y-77750964D01*
X149073663Y-77651097D01*
X149073659Y-77651096D01*
X149073655Y-77651094D01*
X148845413Y-77589938D01*
X148845403Y-77589936D01*
X148610001Y-77569341D01*
X148609999Y-77569341D01*
X148374596Y-77589936D01*
X148374586Y-77589938D01*
X148146344Y-77651094D01*
X148146335Y-77651098D01*
X147932171Y-77750964D01*
X147932169Y-77750965D01*
X147738597Y-77886505D01*
X147571505Y-78053597D01*
X147441575Y-78239158D01*
X147386998Y-78282783D01*
X147317500Y-78289977D01*
X147255145Y-78258454D01*
X147238425Y-78239158D01*
X147108494Y-78053597D01*
X146941402Y-77886506D01*
X146941395Y-77886501D01*
X146747834Y-77750967D01*
X146747830Y-77750965D01*
X146747828Y-77750964D01*
X146533663Y-77651097D01*
X146533659Y-77651096D01*
X146533655Y-77651094D01*
X146305413Y-77589938D01*
X146305403Y-77589936D01*
X146070001Y-77569341D01*
X146069999Y-77569341D01*
X145834596Y-77589936D01*
X145834586Y-77589938D01*
X145606344Y-77651094D01*
X145606335Y-77651098D01*
X145392171Y-77750964D01*
X145392169Y-77750965D01*
X145198597Y-77886505D01*
X145031505Y-78053597D01*
X144901575Y-78239158D01*
X144846998Y-78282783D01*
X144777500Y-78289977D01*
X144715145Y-78258454D01*
X144698425Y-78239158D01*
X144568494Y-78053597D01*
X144401402Y-77886506D01*
X144401395Y-77886501D01*
X144207834Y-77750967D01*
X144207830Y-77750965D01*
X144207828Y-77750964D01*
X143993663Y-77651097D01*
X143993659Y-77651096D01*
X143993655Y-77651094D01*
X143765413Y-77589938D01*
X143765403Y-77589936D01*
X143530001Y-77569341D01*
X143529999Y-77569341D01*
X143294596Y-77589936D01*
X143294586Y-77589938D01*
X143066344Y-77651094D01*
X143066335Y-77651098D01*
X142852171Y-77750964D01*
X142852169Y-77750965D01*
X142658600Y-77886503D01*
X142536673Y-78008430D01*
X142475350Y-78041914D01*
X142405658Y-78036930D01*
X142349725Y-77995058D01*
X142332810Y-77964081D01*
X142283797Y-77832671D01*
X142283793Y-77832664D01*
X142197547Y-77717455D01*
X142197544Y-77717452D01*
X142082335Y-77631206D01*
X142082328Y-77631202D01*
X141947482Y-77580908D01*
X141947483Y-77580908D01*
X141887883Y-77574501D01*
X141887881Y-77574500D01*
X141887873Y-77574500D01*
X141887864Y-77574500D01*
X140092129Y-77574500D01*
X140092123Y-77574501D01*
X140032516Y-77580908D01*
X139897671Y-77631202D01*
X139897664Y-77631206D01*
X139782455Y-77717452D01*
X139782452Y-77717455D01*
X139696206Y-77832664D01*
X139696202Y-77832671D01*
X139645908Y-77967517D01*
X139639501Y-78027116D01*
X139639500Y-78027135D01*
X139639500Y-79822870D01*
X129795730Y-79822870D01*
X129870568Y-79675992D01*
X129943553Y-79451368D01*
X129953484Y-79388664D01*
X129980500Y-79218097D01*
X129980500Y-78981902D01*
X129943553Y-78748631D01*
X129909689Y-78644412D01*
X129870568Y-78524008D01*
X129870566Y-78524005D01*
X129870566Y-78524003D01*
X129763342Y-78313566D01*
X129624517Y-78122490D01*
X129457510Y-77955483D01*
X129266433Y-77816657D01*
X129055996Y-77709433D01*
X128831368Y-77636446D01*
X128598097Y-77599500D01*
X128598092Y-77599500D01*
X128361908Y-77599500D01*
X128361903Y-77599500D01*
X128128631Y-77636446D01*
X127904003Y-77709433D01*
X127693566Y-77816657D01*
X127597430Y-77886505D01*
X127502490Y-77955483D01*
X127502488Y-77955485D01*
X127502487Y-77955485D01*
X127335485Y-78122487D01*
X127335485Y-78122488D01*
X127335483Y-78122490D01*
X127289095Y-78186338D01*
X127196657Y-78313566D01*
X127089433Y-78524003D01*
X127016446Y-78748631D01*
X126979500Y-78981902D01*
X126979500Y-79218097D01*
X125749126Y-79218097D01*
X125749154Y-79156775D01*
X125749180Y-79156509D01*
X125749180Y-79104797D01*
X125749375Y-79097845D01*
X125755885Y-78981908D01*
X125766085Y-78800262D01*
X125767641Y-78786458D01*
X125816979Y-78496061D01*
X125820072Y-78482510D01*
X125826173Y-78461335D01*
X125901616Y-78199458D01*
X125906208Y-78186338D01*
X126018926Y-77914209D01*
X126024957Y-77901685D01*
X126033349Y-77886501D01*
X126167447Y-77643866D01*
X126174831Y-77632116D01*
X126345291Y-77391872D01*
X126353950Y-77381014D01*
X126550240Y-77161363D01*
X126560060Y-77151544D01*
X126779703Y-76955258D01*
X126790556Y-76946603D01*
X127030795Y-76776144D01*
X127042553Y-76768755D01*
X127300378Y-76626259D01*
X127312872Y-76620242D01*
X127585041Y-76507505D01*
X127598126Y-76502926D01*
X127881198Y-76421374D01*
X127894744Y-76418283D01*
X128185150Y-76368941D01*
X128198944Y-76367387D01*
X128496172Y-76350695D01*
X128503125Y-76350500D01*
X128544170Y-76350500D01*
X184435830Y-76350500D01*
X184476519Y-76350500D01*
X184483472Y-76350695D01*
G37*
%TD.AperFunction*%
%TD*%
M02*
